<svg width="20px" height="49px" viewBox="0 0 20 49" version="1.1" xmlns="http://www.w3.org/2000/svg" xmlns:xlink="http://www.w3.org/1999/xlink">
    <defs>
        <linearGradient x1="0%" y1="0%" x2="101.999998%" y2="100.999999%" id="linearGradient-1">
            <stop stop-color="#23A2AE" offset="30%"></stop>
            <stop stop-color="#DB43F4" offset="100%"></stop>
        </linearGradient>
    </defs>
    <g id="Mobile-Layout" stroke="none" stroke-width="1" fill="none" fill-rule="evenodd">
        <g id="cloth" transform="translate(-314.000000, -20.000000)">
            <g id="menu" transform="translate(314.000000, 20.000000)">
                <path d="M13.7823592,8.31004435 C14.4033301,7.94965726 14.8685728,11.2078609 18.5580874,12.9202923 C20.1450777,13.656873 19.8206117,19.88175 19.6261456,26.7179415 C19.3686699,35.774248 18.8818738,45.9162601 18.8818738,45.9162601 C18.8818738,45.9162601 16.1700291,48.6823891 10.5356602,48.5506028 C4.90129126,48.4189153 0.516145631,44.0556431 0.516145631,44.0556431 C0.516145631,44.0556431 0.596242718,14.0110363 1.01779612,13.1836673 C1.22857282,12.7700323 2.80701942,11.552244 3.78478641,10.3023488 C4.76265049,9.05235484 4.94167961,7.81174597 5.03070874,7.84898992 C5.65643689,8.11127823 6.69886408,8.47541935 7.89954369,8.73257056 C9.80653398,9.14096976 12.1126505,9.27927621 13.7823592,8.31004435" id="color" fill="url(#linearGradient-1)" fill-opacity="0.45"></path>
                <g id="botella">
                    <path d="M11.0271262,3.06605645 C11.0094563,3.04135887 10.9916893,3.01676008 10.9739223,2.99216129 C10.9004272,3.03424597 10.7804272,3.06141331 10.7618835,3.12118145 C10.694699,3.33693952 10.6581942,3.56307056 10.6195534,3.78692944 C10.6137282,3.82032056 10.659165,3.8628004 10.6809126,3.90113105 C10.7120777,3.87791532 10.7610097,3.86121976 10.7717864,3.83059476 C10.8609126,3.57719758 10.9429515,3.32123185 11.0271262,3.06605645 L11.0271262,3.06605645 Z M11.6604272,3.7883125 C11.7116893,3.49480645 11.7580971,3.22817137 11.8044078,2.96153629 C11.7867379,2.94652016 11.769068,2.93140524 11.7513981,2.91638911 C11.6830485,2.96943952 11.5808155,3.00826411 11.5523689,3.07810887 C11.4585825,3.30829032 11.3914951,3.54973387 11.3136311,3.7883125 L11.6604272,3.7883125 Z M7.26042718,3.05133669 C7.26042718,3.32014516 7.2564466,3.57364113 7.26304854,3.82684073 C7.26479612,3.89214113 7.28285437,3.99537702 7.32295146,4.01365323 C7.42120388,4.05840524 7.5095534,4.01730847 7.51897087,3.88848589 C7.53372816,3.69090524 7.54421359,3.49312702 7.55741748,3.29544758 C7.5748932,3.03009677 7.5495534,3.00885685 7.26042718,3.05133669 L7.26042718,3.05133669 Z M8.97751456,3.11940323 C8.97751456,3.38761895 8.97324272,3.62185081 8.98071845,3.8556875 C8.98227184,3.90695968 9.02499029,3.99903226 9.0487767,3.99903226 C9.1056699,3.99913105 9.17605825,3.96840726 9.21576699,3.92592742 C9.25664078,3.88206452 9.2772233,3.81142944 9.28984466,3.74899395 C9.32198058,3.59142339 9.34130097,3.43128427 9.37227184,3.27351613 C9.39353398,3.16553831 9.37023301,3.09569355 9.2503301,3.09668145 C9.17372816,3.09727419 9.09702913,3.10893145 8.97751456,3.11940323 L8.97751456,3.11940323 Z M9.74479612,3.96001008 C9.9487767,4.00397177 10.0783883,3.95833065 10.1234369,3.75709476 C10.1617864,3.58608871 10.208,3.41646573 10.2347961,3.24358266 C10.2446019,3.18035685 10.2048932,3.05104032 10.1937282,3.05163306 C10.0912039,3.05795565 9.94091262,2.96766129 9.90130097,3.14034677 C9.83984466,3.40895766 9.79693204,3.68191532 9.74479612,3.96001008 L9.74479612,3.96001008 Z M7.90159223,3.12454032 C7.90159223,3.34760887 7.90178641,3.5504254 7.90149515,3.75324194 C7.90139806,3.86961694 7.87266019,3.99853831 8.05071845,4.01385081 C8.21324272,4.02778024 8.38052427,4.06196169 8.42838835,3.83444758 C8.46324272,3.66907258 8.4756699,3.49628831 8.53003883,3.33822379 C8.59867961,3.13886492 8.49702913,3.12305847 8.35275728,3.12424395 C8.2018835,3.12542944 8.0511068,3.12454032 7.90159223,3.12454032 L7.90159223,3.12454032 Z M6.55198058,3.02199597 C6.60547573,3.26995968 6.65664078,3.50695766 6.70780583,3.74385685 C6.73926214,3.74020161 6.77081553,3.73654637 6.80227184,3.73279234 C6.80227184,3.47988911 6.80421359,3.22698589 6.80003883,2.97428024 C6.7995534,2.94286492 6.7741165,2.89682863 6.74761165,2.88349194 C6.49120388,2.75506452 6.23217476,2.63207056 5.94615534,2.49435685 C5.84149515,2.98267742 6.00935922,3.42565323 6.02974757,3.87495161 C6.03100971,3.90350202 6.16217476,3.94380847 6.23246602,3.94321573 C6.26382524,3.94291935 6.31858252,3.85588508 6.32100971,3.80609476 C6.32916505,3.64427621 6.33120388,3.47969153 6.31081553,3.31955242 C6.29081553,3.16237702 6.35236893,3.08265323 6.55198058,3.02199597 L6.55198058,3.02199597 Z M12.1098447,3.68329839 C12.5694563,3.5443004 13.0006214,3.41389718 13.3809126,3.29880645 C13.4405243,3.01577218 13.4893592,2.78341734 13.540233,2.54138105 C13.2087767,2.63592339 12.8937282,2.71307863 12.589068,2.8205625 C12.4974175,2.85286694 12.4105243,2.95728831 12.363534,3.05064516 C12.270233,3.23617339 12.2062524,3.43701411 12.1098447,3.68329839 L12.1098447,3.68329839 Z M1.02120388,43.6645323 C1.11392233,43.7750786 1.23139806,43.907754 1.34071845,44.0471472 C1.86916505,44.7197117 2.46469903,45.3087984 3.21198058,45.7360665 C3.69547573,46.0124819 4.12809709,46.386996 4.62392233,46.6337742 C5.18605825,46.9134496 5.7841165,47.1296028 6.38324272,47.3182923 C6.99790291,47.5119214 7.63139806,47.6452883 8.2595534,47.7919919 C8.4995534,47.848006 8.74712621,47.8723085 8.99217476,47.9030323 C9.97343689,48.0259274 10.9631456,48.1136532 11.9407184,47.9514395 C12.7252816,47.8213327 13.4972233,47.5980665 14.264699,47.379246 C14.9966408,47.1706008 15.7178058,46.9218468 16.4388738,46.6758589 C16.8342136,46.5410101 17.2321748,46.4018145 17.6054757,46.2155948 C17.9000388,46.0685948 18.1586796,45.8469093 18.442466,45.6522923 C18.3148932,45.4270504 18.3551845,45.2330262 18.4786796,45.037125 C18.6767379,44.7227742 18.5622718,44.359127 18.6133398,44.0205726 C18.6722718,43.6282762 18.7110097,43.2329173 18.7579029,42.838744 C18.7631456,42.7949798 18.7663495,42.7507218 18.7677087,42.7065625 C18.7908155,41.9418266 18.8166408,41.1771895 18.8348932,40.4123548 C18.8429515,40.0726149 18.8405243,39.7324798 18.833534,39.3926411 C18.8227573,38.8564073 18.7999417,38.3202722 18.7909126,37.7839395 C18.7877087,37.5950524 18.8188738,37.4057702 18.819068,37.2166855 C18.8200388,36.413125 18.819068,35.6095645 18.8110097,34.8062016 C18.8079029,34.4831573 18.7685825,34.1601129 18.774699,33.8375625 C18.7844078,33.3224698 18.8198447,32.8079698 18.8414951,32.2931734 C18.8803301,31.3716573 18.9183883,30.4501411 18.9541165,29.528625 C18.9804272,28.8517137 19.0046019,28.1747036 19.0261553,27.4976935 C19.0542136,26.6100625 19.1017864,25.7223327 19.0994563,24.8348004 C19.0960583,23.655244 19.0428544,22.4758851 19.0304272,21.296131 C19.0233398,20.6255423 19.0739223,19.9542621 19.0634369,19.283871 C19.0537282,18.6512177 18.9974175,18.019256 18.9627573,17.3868992 C18.9454757,17.0707702 18.9381942,16.7539496 18.9134369,16.4384133 C18.8795534,16.0067984 18.8485825,15.573998 18.7888738,15.1456431 C18.6846019,14.3967137 18.4294563,13.7030081 17.9806214,13.0932742 C17.5922718,12.5657339 17.1254757,12.1322419 16.5432427,11.825498 C16.1682913,11.6278185 15.8089709,11.3977359 15.4510097,11.1686411 C15.1995534,11.0077117 14.9538252,10.8345323 14.7205243,10.6475222 C14.4173204,10.404498 14.2397476,10.0513226 14.0059612,9.74764113 C13.8919806,9.59965323 13.7878058,9.4437621 13.6812039,9.29014315 C13.6608155,9.26090121 13.6393592,9.22622581 13.6358641,9.19224194 C13.6042136,8.89537702 13.576932,8.59811694 13.5475146,8.30095565 C13.5186796,8.00932661 13.4778058,7.71829032 13.4621748,7.42587097 C13.4417864,7.04592339 13.4262524,6.66449395 13.4359612,6.28434879 C13.4467379,5.85787097 13.4864466,5.43208468 13.5172233,5.00629839 C13.5242136,4.91096573 13.5315922,4.81108871 13.5643107,4.72306653 C13.6336311,4.53625403 13.7256699,4.37759677 13.9742136,4.4151371 C14.1689709,4.44457661 14.3778058,4.60649395 14.416835,4.81108871 C14.434699,4.90434677 14.4337282,5.00264315 14.431301,5.09827218 C14.4132427,5.82724597 14.376932,6.55602218 14.3786796,7.28489718 C14.3799417,7.73883871 14.4130485,8.19653427 14.4780971,8.64553629 C14.5312039,9.01185081 14.7195534,9.33054839 14.946932,9.62622782 C15.3773204,10.1860726 15.9756699,10.5007198 16.5682913,10.831371 C16.9682913,11.0543407 17.3889709,11.2592319 17.739165,11.5488851 C18.105767,11.8522702 18.4148932,12.2338972 18.7193592,12.6065343 C18.9498447,12.8885806 19.1799417,13.1891008 19.3251845,13.5201472 C19.4792621,13.8713468 19.5736311,14.2629516 19.6218835,14.6463569 C19.719165,15.4195887 19.7515922,16.201119 19.8397476,16.9758327 C19.9870291,18.2718629 19.9474175,19.5703629 19.9352816,20.8696532 C19.9295534,21.4812641 19.964699,22.0931714 19.9677087,22.7049798 C19.9729515,23.7752742 19.9750874,24.8457661 19.9634369,25.9160605 C19.9580971,26.4092218 19.9133398,26.9017903 19.8932427,27.3948528 C19.8692621,27.9838407 19.8547961,28.5732238 19.8320777,29.1623105 C19.7996505,30.0033125 19.7534369,30.8439194 19.7313981,31.6852177 C19.7019806,32.8140948 19.6861553,33.9432681 19.6715922,35.0724415 C19.6578058,36.1506391 19.6496505,37.2289355 19.6451845,38.3072319 C19.6425631,38.9272399 19.6678058,39.5476431 19.6527573,40.1671573 C19.6367379,40.8313246 19.5848932,41.494504 19.5552816,42.1582762 C19.5415922,42.4678851 19.5538252,42.778877 19.5355728,43.0880907 C19.5121748,43.4836472 19.4681942,43.8780181 19.4362524,44.2730806 C19.4219806,44.448631 19.3858641,44.6293185 19.4115922,44.7996331 C19.4638252,45.1464859 19.304699,45.3746915 19.0648932,45.578002 C19.2358641,45.9248548 19.0432427,46.3326613 18.6571262,46.5738085 C18.2074175,46.8544718 17.729165,47.094631 17.2445049,47.3083145 C16.8478058,47.4832722 16.4160583,47.5743569 16.0139223,47.73825 C15.6559612,47.8840645 15.2586796,47.9093548 14.9328544,48.1743105 C14.7837282,48.2955262 14.5210097,48.2922661 14.3075146,48.3056028 C14.0696505,48.3204214 13.8529515,48.3497621 13.6622718,48.5169153 C13.6028544,48.568879 13.4885825,48.5548508 13.3997476,48.5734234 C13.0256699,48.6512702 12.654699,48.752629 12.2771262,48.8031109 C11.7408155,48.8748327 11.1997476,48.9485302 10.6606214,48.9498145 C9.98984466,48.9512964 9.31440777,48.9165222 8.64974757,48.8292903 C8.01838835,48.7463065 7.39557282,48.5868589 6.77382524,48.4395625 C6.35052427,48.3392903 5.93664078,48.1982177 5.5164466,48.0839173 C5.3887767,48.0491431 5.25372816,48.0425242 5.09052427,48.0183206 C5.09625243,48.0292863 5.08353398,47.9661593 5.05576699,47.9584536 C4.68867961,47.856996 4.35508738,47.6862863 4.03664078,47.4774435 C3.56198058,47.1664516 3.08266019,46.862869 2.60605825,46.5548407 C2.08450485,46.2179657 1.61450485,45.8160867 1.19120388,45.3601694 C0.978582524,45.1310746 0.787805825,44.8808387 0.588,44.6393952 C0.564699029,44.6113387 0.553242718,44.5643145 0.524699029,44.5504839 C0.140912621,44.3637702 0.319262136,44.0393427 0.324796117,43.7510726 C0.334796117,43.2271875 0.340135922,42.7027097 0.326737864,42.179121 C0.309650485,41.5168306 0.264601942,40.8553306 0.244990291,40.1930403 C0.217417476,39.2635222 0.206252427,38.3334113 0.180135922,37.4037944 C0.154504854,36.4894899 0.11207767,35.5756794 0.0899417476,34.6612762 C0.0753786408,34.0555927 0.0918834951,33.4492177 0.0798446602,32.8434355 C0.0653786408,32.1273044 0.0302330097,31.4116673 0.0135339806,30.6955363 C0.00168932039,30.1873589 0.00401941748,29.6787863 0.00266019417,29.1703125 C0.00100970874,28.5067379 -0.00238834951,27.8430645 0.0025631068,27.1793911 C0.00829126214,26.390748 0.0105242718,25.6017097 0.0352815534,24.8134617 C0.068776699,23.7437601 0.122660194,22.67475 0.166737864,21.6053448 C0.204116505,20.6989435 0.234796117,19.7921472 0.278485437,18.8860423 C0.314699029,18.1346431 0.356446602,17.3833427 0.412466019,16.6333266 C0.462951456,15.9576008 0.532368932,15.2831593 0.601106796,14.6090141 C0.635572816,14.2701633 0.690718447,13.9335847 0.727708738,13.5949315 C0.734407767,13.5329899 0.707902913,13.4614657 0.679359223,13.4030806 C0.650524272,13.3441028 0.600135922,13.2959919 0.559067961,13.2431391 C0.572660194,13.23 0.586252427,13.2169597 0.59984466,13.2038206 C0.642271845,13.2385948 0.684699029,13.273369 0.737902913,13.3169355 C0.766252427,13.2862117 0.80615534,13.2608226 0.819747573,13.2250605 C0.879941748,13.0674899 0.90431068,12.887494 0.994019417,12.7515585 C1.16246602,12.4964819 1.34304854,12.2405161 1.56120388,12.0307843 C2.09838835,11.5144073 2.66984466,11.0349778 3.20906796,10.5205766 C3.86159223,9.89790121 4.34499029,9.15934476 4.55363107,8.26213105 C4.64363107,7.87526815 4.69042718,7.47813105 4.7695534,7.08820565 C4.79353398,6.96955847 4.83431068,6.8355 4.91207767,6.75133065 C5.03576699,6.61746976 5.0495534,6.47531048 5.05469903,6.30716935 C5.06838835,5.86083468 5.10062136,5.41509274 5.12518447,4.96915323 C5.128,4.91748589 5.13994175,4.86295363 5.12838835,4.81444758 C5.07751456,4.59829435 5.11732039,4.43212903 5.37625243,4.36860685 C5.29732039,4.28097984 5.24003883,4.20965323 5.1748932,4.146625 C5.06023301,4.03548589 4.95984466,3.93462097 5.12130097,3.77408669 C5.16256311,3.73289113 5.15965049,3.63252016 5.15596117,3.56050202 C5.14586408,3.36805847 5.13372816,3.17472581 5.10431068,2.98455444 C5.07790291,2.81354839 5.04673786,2.65449597 5.20130097,2.5214254 C5.23683495,2.4908004 5.2395534,2.41571976 5.248,2.35970565 C5.25324272,2.32473387 5.22372816,2.2733629 5.23945631,2.25261694 C5.46130097,1.95930847 5.39460194,1.49835282 5.85042718,1.32230847 C6.14275728,1.20939113 6.36149515,0.911933468 6.63596117,0.733221774 C6.79198058,0.631665323 6.99052427,0.590469758 7.17508738,0.543050403 C7.63887379,0.423810484 8.11285437,0.340530242 8.5687767,0.196889113 C8.92353398,0.0850584677 9.27596117,0.170215726 9.62867961,0.133663306 C10.058,0.0894052419 10.496835,0.089108871 10.9276117,0.12259879 C11.5475146,0.170808468 12.1670291,0.246778226 12.7803301,0.350310484 C13.1025631,0.404743952 13.4200388,0.521810484 13.7219806,0.652806452 C13.858,0.711685484 14.0300388,0.840409274 13.930233,1.05399395 C13.8986796,1.12166532 13.8179029,1.1964496 13.749068,1.20948992 C13.5534369,1.24623992 13.3520777,1.25424194 13.1528544,1.26965323 C13.1278058,1.27153024 13.0943107,1.25602016 13.075767,1.23725 C12.7546019,0.913118952 12.3521748,0.974665323 11.9593592,0.991854839 C11.9095534,0.994028226 11.848,1.02504839 11.8121748,1.00499395 C11.5306214,0.847225806 11.2323689,0.871627016 10.9251845,0.876072581 C10.4414951,0.882987903 9.9572233,0.830727823 9.47295146,0.825096774 C8.85401942,0.817983871 8.26023301,0.955796371 7.68829126,1.22895161 C7.81469903,1.23566935 7.94130097,1.25029032 8.06751456,1.24772177 C8.7203301,1.23458266 9.37314563,1.20208065 10.0258641,1.20613105 C10.5167379,1.20929234 11.0072233,1.26254032 11.4983883,1.28210081 C11.6487767,1.28812702 11.8025631,1.26698589 11.9515922,1.23971976 C12.2566408,1.18410081 12.5298447,1.26293548 12.7783883,1.43334879 C12.8370291,1.47365524 12.9061553,1.57402621 12.8938252,1.62875605 C12.8712039,1.7282379 12.8050874,1.87810282 12.732466,1.89479839 C12.3950874,1.97185484 12.0507184,2.03399395 11.7058641,2.05720968 C11.1851845,2.09237903 10.6615922,2.11124798 10.1400388,2.09949194 C9.52586408,2.08566129 8.91266019,2.03083266 8.2987767,1.99586089 C8.13314563,1.98637702 7.9664466,1.99210685 7.80149515,1.97610282 C7.64528155,1.96088911 7.48178641,1.95012097 7.33790291,1.89400806 C7.16343689,1.82604032 7.0364466,1.69860081 7.17343689,1.46654234 C7.15809709,1.45784879 7.14275728,1.44915524 7.12751456,1.4403629 C6.91353398,1.58716532 6.69965049,1.73386895 6.44702913,1.90704839 C6.66829126,2.09613306 6.85052427,2.29944355 7.13333981,2.38292137 C8.00906796,2.64165323 8.88576699,2.48536694 9.7641165,2.41008871 C10.269165,2.36681855 10.7774175,2.35970565 11.2815922,2.30991532 C11.6029515,2.27820363 11.9175146,2.17111492 12.2386796,2.14651613 C12.7051845,2.11075403 13.0927573,1.77239718 13.5809126,1.82189113 C13.8182913,1.84599597 14.1201359,2.04258871 14.1896505,2.28531653 C14.2039223,2.33500806 14.2242136,2.38529234 14.2260583,2.43587298 C14.2383883,2.77185887 14.3231456,3.04343347 14.7145049,3.09687903 C14.7647961,3.10379435 14.8495534,3.23162903 14.8352816,3.27509677 C14.7892621,3.41458871 14.7352816,3.60940323 14.6285825,3.65948992 C14.2958641,3.81577621 13.9386796,3.91911089 13.5885825,4.03509073 C13.4122718,4.09347581 13.2311068,4.13694355 13.051301,4.18347379 C12.2427573,4.39202016 11.4217864,4.50918548 10.5882913,4.5468246 C10.096835,4.56905242 9.60654369,4.63850202 9.11557282,4.64136694 C8.48479612,4.64502218 7.85353398,4.60787702 7.22304854,4.57893145 C6.88392233,4.56342137 6.54557282,4.52765927 6.20683495,4.50345565 C6.17333981,4.50098589 6.13858252,4.51560685 6.13207767,4.51689113 C6.07926214,4.96717742 6.02625243,5.39731048 5.97906796,5.82813508 C5.9303301,6.27279032 5.90295146,6.72070565 5.83372816,7.16190323 C5.80596117,7.33913306 5.68450485,7.49937097 5.61867961,7.67245161 C5.52809709,7.91132661 5.42741748,8.14960887 5.37013592,8.39757258 C5.12906796,9.44188508 4.49062136,10.2255887 3.76596117,10.9499194 C3.56149515,11.1543165 3.29236893,11.2920302 3.08916505,11.4976129 C2.63479612,11.9576794 2.13217476,12.3939375 1.78673786,12.9314556 C1.55266019,13.2956956 1.52557282,13.8111835 1.45392233,14.2669032 C1.35897087,14.8703145 1.3041165,15.4806411 1.2448932,16.0891895 C1.19634951,16.5882782 1.16266019,17.0891452 1.12945631,17.5896169 C1.06654369,18.5377077 1.00372816,19.4858972 0.951398058,20.4347782 C0.93207767,20.7856815 0.95023301,21.1385605 0.937320388,21.4900565 C0.91984466,21.9620766 0.889747573,22.433504 0.863339806,22.905129 C0.825087379,23.5886593 0.760427184,24.2716956 0.751300971,24.955621 C0.729456311,26.5870444 0.723533981,28.2188629 0.730330097,29.8504839 C0.734699029,30.8843246 0.777029126,31.9179677 0.79576699,32.9519073 C0.808485437,33.6598387 0.801009709,34.3681653 0.818582524,35.0758992 C0.839650485,35.9325101 0.881980583,36.7885282 0.906640777,37.6450403 C0.923436893,38.2281996 0.918291262,38.8119516 0.936058252,39.3951109 C0.968776699,40.4631331 1.01634951,41.5307601 1.04664078,42.5989798 C1.05634951,42.9425726 1.03120388,43.2871532 1.02120388,43.6645323 L1.02120388,43.6645323 Z" id="Fill-3" fill="#000000"></path>
                    <path d="M9.12367961,34.1554401 C9.08435922,34.0398554 9.04969903,33.9382002 9.01503883,33.8364462 C8.99698058,33.8411881 8.9791165,33.84593 8.96105825,33.850672 C8.96105825,33.893547 8.95523301,33.9372123 8.96202913,33.9789018 C9.01193204,34.2801135 8.7991165,34.6479099 8.5461068,34.8149643 C8.24387379,35.0142244 7.96358252,35.250926 7.68999029,35.4907889 C7.56154369,35.6035087 7.48329126,35.7737244 7.3614466,35.8967183 C7.05814563,36.2030671 6.75717476,36.5147506 6.42892233,36.7918575 C6.01445631,37.1417728 5.61465049,37.5463192 5.03193204,37.5786236 C4.80746602,37.5910712 4.57901942,37.5287345 4.3522233,37.5022587 C4.14232039,37.4776599 4.04086408,37.5834643 4.12513592,37.7662264 C4.15824272,37.8381458 4.27678641,37.8854663 4.36552427,37.9116458 C4.59076699,37.9782304 4.82630097,38.0108312 5.04756311,38.0874925 C5.20513592,38.1420248 5.32309709,38.25267 5.36542718,38.4455087 C5.40668932,38.634297 5.49659223,38.8121196 5.58183495,39.0389421 C5.64018447,38.8386942 5.70338835,38.6901135 5.72494175,38.5356054 C5.78999029,38.0688212 6.1037767,37.7437022 6.36154369,37.3972446 C6.59474757,37.0838817 6.9006699,36.8268292 7.16843689,36.5391518 C7.51707767,36.1646377 7.8553301,35.7801458 8.20620388,35.4080026 C8.5737767,35.0180772 8.81435922,34.501799 9.31901942,34.2470187 C9.33960194,34.2366458 9.34202913,34.1895228 9.36134951,34.1362748 C9.26562136,34.1439804 9.19552427,34.1496115 9.12367961,34.1554401 M15.4598932,25.6787365 C15.3526117,25.8866901 15.2361068,26.0682667 15.1615437,26.2661438 C14.9887282,26.724926 14.7367864,27.1345107 14.4128058,27.4897607 C13.7735825,28.1903817 13.0268835,28.782926 12.4226117,29.5204946 C12.3214466,29.6442788 12.1879515,29.740797 12.0869806,29.8648776 C11.8755243,30.1251901 11.681932,30.4005188 11.469699,30.6601397 C11.1833883,31.0104502 10.8821262,31.3482143 10.5960097,31.6987224 C10.4583398,31.8672587 10.5708641,32.1177909 10.7855243,32.1714341 C10.8596019,32.1899079 10.9235825,32.2498736 10.9922233,32.2909704 C10.9931942,32.3209038 10.994165,32.3508373 10.9950388,32.3807708 C11.0749417,32.304801 11.166301,32.2378212 11.2325146,32.1509845 C11.4799903,31.8262607 11.7165922,31.4931397 11.9624175,31.1671317 C12.1032913,30.9803192 12.2624175,30.8075349 12.3981456,30.6172647 C12.560767,30.3891579 12.6879515,30.1325006 12.8646505,29.9176317 C13.2965922,29.3922647 13.7435825,28.8793454 14.1938738,28.3699825 C14.4945534,28.030045 14.8000874,27.692676 15.1245534,27.376547 C15.4405728,27.0685188 15.7687282,26.7687889 16.1192136,26.5031417 C16.4228058,26.2727627 16.7261068,26.0523615 16.9277573,25.7189442 C16.9651359,25.6572002 16.9833883,25.5836014 17.0291165,25.4688071 C16.7487282,25.6630288 16.5327087,25.8524099 16.2845534,25.9747123 C15.9567864,26.1364321 15.7353301,25.8535954 15.4598932,25.6787365 M5.57115534,28.4964341 C5.57766019,28.523799 5.57552427,28.5587708 5.59164078,28.5778373 C6.0906699,29.1694925 6.58940777,29.7614442 7.09251456,30.3497405 C7.44309709,30.7597204 7.80105825,31.1633776 8.15348544,31.5718756 C8.3545534,31.804922 8.53785437,32.0554542 8.75270874,32.274176 C9.13581553,32.6642002 9.5361068,33.0368373 9.93037864,33.4155006 C10.4546505,33.9189361 10.970767,34.4317567 11.5072718,34.9215591 C12.2293107,35.5809845 12.9744563,36.2142304 13.6951359,36.8751377 C13.9896019,37.1453292 14.2757184,37.4355752 14.1892136,37.9162889 C14.1656214,38.0473837 14.2305728,38.20693 14.2875631,38.3388151 C14.4157184,38.6360752 14.5500874,38.6506962 14.7575631,38.4087587 C15.0914466,38.019426 15.3590194,37.9481982 15.8383398,38.1200933 C15.8911553,38.1389623 15.9454272,38.1538796 16.0610583,38.1900369 C16.0250388,38.0620046 16.0187282,37.9690429 15.9758155,37.8990994 C15.7848447,37.5868232 15.4503786,37.5565933 15.1424175,37.4991962 C14.7669806,37.4291538 14.4049417,37.3566417 14.1531942,37.0224341 C14.0097961,36.8320651 13.8702816,36.6288534 13.6911553,36.4781982 C13.2395049,36.098053 12.7599903,35.7525833 12.3834854,35.2864905 C12.2546505,35.1268454 12.1145534,34.9755974 11.9702816,34.8298817 C11.5801845,34.4359058 11.1787282,34.0531921 10.7932913,33.6543756 C10.3777573,33.2241438 9.98795146,32.7675349 9.56358252,32.3467869 C9.05775728,31.8453272 8.5191165,31.3784442 8.00931068,30.8809361 C7.25552427,30.1453433 6.51523301,29.3952284 5.76707767,28.6536095 C5.70756311,28.5948292 5.63134951,28.5535349 5.563,28.5040409 C5.38173786,28.2225873 5.20698058,27.9364905 5.01707767,27.6612607 C4.84212621,27.4075671 4.55125243,27.2475268 4.44872816,26.9330772 C4.34367961,26.6106256 4.28358252,26.2953857 4.39698058,25.9525833 C4.45494175,25.7773292 4.46018447,25.5665107 4.42804854,25.3827607 C4.39338835,25.1846861 4.2368835,25.1476397 4.06484466,25.251172 C3.85348544,25.3783151 3.64435922,25.5100026 3.42746602,25.626674 C3.16639806,25.7671538 2.99698058,25.7213151 2.81367961,25.4836256 C2.78251456,25.4432204 2.75134951,25.3905651 2.70892233,25.3741659 C2.64882524,25.3509502 2.57804854,25.3562849 2.51183495,25.3493696 C2.50863107,25.4298837 2.47008738,25.5427022 2.50804854,25.5859724 C2.79630097,25.914549 3.09115534,26.2381861 3.40028155,26.5465107 C3.82251456,26.9677526 4.25164078,27.3828696 4.69261165,27.7837607 C4.9714466,28.0371579 5.27736893,28.2598313 5.57115534,28.4964341 M9.98008738,34.7475893 C9.6291165,35.163299 9.28387379,35.575551 8.93426214,35.9838514 C8.83931068,36.0944966 8.73057282,36.1926942 8.62872816,36.2971155 C8.1853301,36.751551 7.72232039,37.188303 7.30503883,37.6662506 C6.95416505,38.0679321 6.6668835,38.5143655 6.61367961,39.0861639 C6.58717476,39.3704825 6.50125243,39.6626054 6.37979612,39.9208433 C6.23309709,40.232922 5.83513592,40.3447526 5.52552427,40.1894542 C5.0891165,39.9706337 4.79523301,39.6175571 4.68736893,39.1283474 C4.60445631,38.7524502 4.59309709,38.7294321 4.22785437,38.6708494 C3.77338835,38.5980409 3.52358252,38.2996942 3.37746602,37.8526679 C3.23494175,37.416805 3.41270874,37.1603454 3.71348544,36.9265087 C3.77853398,36.8758292 3.86921359,36.8412526 3.95105825,36.8341397 C4.13853398,36.8180369 4.3298932,36.8040087 4.5161068,36.8242607 C4.85348544,36.8611095 5.15270874,36.7664683 5.3968835,36.5489321 C5.83698058,36.1569321 6.25630097,35.7407284 6.68358252,35.3340087 C7.01960194,35.0142244 7.35940777,34.6984905 7.68746602,34.3707042 C7.81940777,34.2387204 7.92484466,34.0792728 8.04202913,33.932174 C8.13707767,33.8127365 8.22542718,33.6869764 8.32814563,33.5748494 C8.44892233,33.4429643 8.57154369,33.3403212 8.38814563,33.1475813 C8.0961068,32.8403433 7.82426214,32.5128534 7.55309709,32.1859563 C7.36659223,31.9613071 7.20581553,31.7143313 7.01552427,31.4932385 C6.71435922,31.143422 6.38969903,30.8143514 6.0906699,30.4625591 C5.82232039,30.1471216 5.5898932,29.7992808 5.31494175,29.4905611 C5.03290291,29.1739381 4.72134951,28.8842849 4.41746602,28.5882103 C3.9837767,28.1653877 3.53999029,27.7528393 3.11028155,27.3258675 C2.72232039,26.9406841 2.34746602,26.5420651 1.96736893,26.1486821 C1.74979612,25.9235389 1.69630097,25.4309704 1.88620388,25.1809321 C2.06736893,24.9423534 2.15503883,24.5880913 2.53202913,24.5661599 C2.62707767,24.5606276 2.73397087,24.5768292 2.81853398,24.6183212 C2.99892233,24.7067385 3.16833981,24.8184704 3.35241748,24.926547 C3.47435922,24.8189643 3.60659223,24.7157284 3.72309709,24.5966861 C3.94397087,24.3709502 4.24212621,24.3433877 4.51872816,24.2859905 C4.72620388,24.2428192 5.13445631,24.6603071 5.22785437,24.932672 C5.33921359,25.2570994 5.34901942,25.5758958 5.24960194,25.9058554 C5.17212621,26.163303 5.2353301,26.3811357 5.4161068,26.598178 C5.62872816,26.853551 5.76824272,27.1712607 5.97552427,27.4319683 C6.25193204,27.7796115 6.55833981,28.1028534 6.86047573,28.4283675 C7.23659223,28.8334079 7.61503883,29.23667 8.00465049,29.628176 C8.31843689,29.9436135 8.64979612,30.2410712 8.97426214,30.5455429 C9.16008738,30.7199079 9.34882524,30.8909139 9.53416505,31.0659704 C9.69435922,31.2174159 9.83600971,31.20892 9.97270874,31.0313938 C10.1465922,30.8053615 10.3191165,30.5774522 10.5045534,30.361299 C10.9431942,29.8495651 11.3851359,29.3405974 11.8332913,28.8373595 C12.3395049,28.2690188 12.8276602,27.6801296 13.3732913,27.1531821 C13.7947476,26.7459683 14.0610583,26.2756276 14.2551359,25.732676 C14.3397961,25.4957768 14.507466,25.289305 14.6404757,25.0708796 C14.8986311,24.6470692 15.3169806,24.6436115 15.6667864,24.8278554 C15.9380485,24.9707063 16.1324175,24.9636921 16.357466,24.7328192 C16.6787282,24.4029583 17.3161068,24.5012546 17.550767,24.7996014 C17.6229029,24.8913776 17.7120291,24.9700147 17.7972718,25.0503313 C18.0703786,25.3079764 18.110767,25.6119542 17.8711553,25.896174 C17.4051359,26.4489058 16.9517379,27.0077627 16.337466,27.4197183 C16.0064951,27.6416014 15.7672718,28.0037667 15.4804757,28.2964825 C15.1035825,28.6814683 14.7105728,29.0506478 14.3447476,29.4459079 C14.1680485,29.6370671 14.0359126,29.871299 13.8863981,30.0879462 C13.584165,30.5258837 13.2914466,30.9708353 12.9795049,31.4015611 C12.8259126,31.6136639 12.6473689,31.8096639 12.4636796,31.9962788 C12.3091165,32.1531579 12.1709612,32.2981821 12.0992136,32.5281659 C12.050767,32.6838595 11.8666893,32.7993454 11.7344563,32.9230308 C11.6124175,33.0372325 11.6064951,33.1294038 11.7253301,33.2567446 C12.233,33.8007829 12.7329029,34.3525268 13.2357184,34.9012083 C13.2801845,34.9495167 13.3172718,35.0141256 13.3721262,35.0415893 C13.8827087,35.2964683 14.2350388,35.7267002 14.5880485,36.1583151 C14.8071748,36.4261357 15.0945534,36.5411276 15.4329029,36.5964502 C15.8139709,36.6586881 16.2327087,36.7299159 16.4813495,37.0549361 C16.755233,37.4127546 17.0846505,37.760299 17.0924175,38.2706498 C17.101932,38.8897688 16.4603786,39.3238534 15.9099903,39.0650228 C15.7789223,39.0033776 15.6394078,38.9592183 15.501932,38.9128857 C15.3353301,38.8568716 15.2510583,38.9722587 15.1610583,39.0846821 C14.8575631,39.4631478 14.4512524,39.5863393 14.0589223,39.3940933 C13.8008641,39.2676417 13.601835,39.0689744 13.5232913,38.7695409 C13.4508641,38.4933232 13.3804757,38.2158212 13.2890194,37.9458272 C13.1677573,37.5882063 12.9111553,37.3242385 12.6403786,37.0820046 C11.774068,36.3071921 10.9011553,35.5402829 10.0301845,34.7709038 C10.0150388,34.7575671 9.9922233,34.7531216 9.98008738,34.7475893" id="Fill-6" fill="#1D1C1B"></path>
                    <path d="M6.7821165,22.8159214 C6.82056311,23.011625 6.95046602,23.1225665 7.11900971,23.176506 C7.34464078,23.2488206 7.53269903,23.422494 7.4783301,23.6034778 C7.41172816,23.8248669 7.30619417,24.0474415 7.16697087,24.2295121 C7.02891262,24.4101008 7.02580583,24.5843669 7.24561165,24.6586573 C7.34648544,24.6928387 7.48027184,24.6876028 7.58007767,24.648877 C7.70376699,24.6008649 7.78318447,24.6255625 7.83619417,24.7280081 C7.95959223,24.9662903 8.10201942,25.2011149 8.17930097,25.4554012 C8.24978641,25.6869657 8.38231068,25.8150968 8.58299029,25.908256 C8.71930097,25.9714819 8.79920388,25.9216915 8.82532039,25.7896089 C8.85231068,25.6528831 8.85823301,25.5114153 8.86823301,25.371627 C8.88396117,25.1539919 8.98473786,25.048879 9.20735922,25.0296149 C9.41881553,25.0113387 9.49036893,25.1538931 9.50852427,25.3281593 C9.52405825,25.4770363 9.51172816,25.6290746 9.51172816,25.7798286 C9.53512621,25.7873367 9.55862136,25.7949435 9.5821165,25.8024516 C9.62871845,25.7274698 9.70667961,25.6559456 9.71551456,25.5765181 C9.73318447,25.4175645 9.79920388,25.3100806 9.9521165,25.3318145 C10.0576505,25.3469294 10.2044466,25.4119335 10.2421165,25.4963992 C10.3139612,25.6583165 10.3214369,25.8500685 10.3609515,26.0577258 C10.5460971,26.1468347 10.6059029,26.0100101 10.6509515,25.8218145 C10.6932816,25.6447823 10.9597864,25.4130202 11.0888155,25.4502641 C11.2813398,25.5058831 11.3055146,25.6800504 11.3036699,25.8564899 C11.3033786,25.8860282 11.2950291,25.9256431 11.3100777,25.943129 C11.3419223,25.979879 11.3987184,26.0388569 11.4239612,26.0294718 C11.5795922,25.9712843 11.7414369,25.9151714 11.878233,25.8229012 C12.0644466,25.6972399 12.0589126,25.5157621 11.8839612,25.3670827 C11.7572621,25.2595988 11.7190097,25.1292944 11.8326019,25.0071895 C11.9326019,24.8997056 12.0575534,24.800619 12.190466,24.744506 C12.3414369,24.6808851 12.4367767,24.5795262 12.4124078,24.4342056 C12.3889126,24.2939234 12.3163883,24.1481089 12.227165,24.0361794 C12.0457087,23.8085665 12.0657087,23.3858427 12.2988155,23.221752 C12.6328932,22.9867298 12.9226019,22.7274052 13.1668738,22.3780827 C13.4669709,21.9491351 13.5680388,21.4741512 13.6017282,20.9966976 C13.6451262,20.3799496 13.5305631,19.7683387 13.2486214,19.1987137 C12.9441553,18.5830524 12.5822136,18.0227137 11.9754175,17.6753669 C11.7252233,17.532121 11.4587184,17.4187097 11.204932,17.2814899 C10.7546408,17.0379718 10.2772621,16.9531109 9.78114563,17.0561492 C9.46328155,17.1221411 9.15153398,17.2259698 8.84357282,17.3325645 C8.19143689,17.558498 7.58299029,17.8743306 7.13143689,18.4169859 C6.73425243,18.8941431 6.51551456,19.4715726 6.31221359,20.0602641 C6.11939806,20.6185282 6.05269903,21.1782742 6.13473786,21.7547157 C6.16056311,21.9356008 6.26638835,22.1052238 6.3391068,22.2786996 C6.37609709,22.3672157 6.44425243,22.4492117 6.45716505,22.5401976 C6.49240777,22.7851976 6.5583301,22.8476331 6.7821165,22.8159214 M12.1198835,25.5589335 C12.1864854,25.5755302 12.2439612,25.594004 12.302699,25.6037843 C12.5810485,25.6502157 12.8446408,25.9651593 12.5361942,26.2580726 C12.3479417,26.4367843 12.1017282,26.5650141 11.8629903,26.6734859 C11.3633786,26.9006048 10.8244466,26.8111996 10.299301,26.8349093 C9.99823301,26.8485423 9.69900971,26.9040625 9.39803883,26.9155222 C9.25842718,26.9207581 9.11493204,26.872252 8.97609709,26.8367863 C8.61143689,26.7435282 8.24056311,26.6653851 7.88891262,26.5348831 C7.77318447,26.4920081 7.68629126,26.3175444 7.62532039,26.1847702 C7.54337864,26.0060585 7.50036893,25.8089718 7.43871845,25.6204798 C7.37192233,25.4166754 7.22852427,25.3166996 7.02182524,25.283506 C6.66852427,25.2268004 6.37794175,24.9083992 6.35939806,24.5440605 C6.34881553,24.3326492 6.38046602,24.1192621 6.3821165,23.9067641 C6.38250485,23.8506512 6.35493204,23.7836714 6.31891262,23.7398085 C6.10318447,23.4769274 5.82405825,23.2591935 5.71978641,22.9166875 C5.60299029,22.5335786 5.46318447,22.1511613 5.40541748,21.7574819 C5.28939806,20.9657762 5.4167767,20.1688347 5.73027184,19.461002 C6.04231068,18.7564294 6.36968932,18.0291351 7.01376699,17.5202661 C8.05308738,16.6990222 9.22959223,16.2918085 10.5280388,16.225125 C10.9762913,16.2021069 11.3726019,16.3999839 11.754835,16.6191008 C12.0502718,16.7884274 12.3603689,16.9349335 12.6410485,17.1263891 C13.083767,17.4285887 13.5155146,17.7591411 13.7851262,18.2399536 C13.9559029,18.5442278 14.0452233,18.895131 14.2120194,19.2021714 C14.5716311,19.8636714 14.4981359,20.5833589 14.536,21.2919819 C14.5553204,21.654246 14.3329903,21.9148548 14.2074563,22.2133004 C14.0619223,22.5593629 13.8751262,22.8890262 13.6864854,23.2139476 C13.620466,23.3279516 13.4995922,23.4110343 13.397068,23.5002419 C13.3092039,23.5768044 13.3035728,23.6390423 13.3668738,23.744254 C13.4939612,23.9556653 13.5380388,24.1782399 13.3847379,24.4084214 C13.3428932,24.471252 13.3366796,24.5626331 13.3260971,24.6425544 C13.280466,24.9939516 13.0651262,25.1984476 12.7593981,25.3214415 C12.5554175,25.4035363 12.347068,25.4749617 12.1198835,25.5589335" id="Fill-8" fill="#1D1C1B"></path>
                    <path d="M2.17084466,35.8726925 C2.1958932,35.9384869 2.23608738,36.0026018 2.24327184,36.0704708 C2.27832039,36.4003317 2.30472816,36.7310817 2.33540777,37.0771442 C2.51414563,37.074378 2.53006796,37.1964829 2.5221068,37.3414083 C2.48686408,37.9883861 2.4413301,38.6352651 2.42346602,39.2828357 C2.40191262,40.0570554 2.41191262,40.8323619 2.39453398,41.606878 C2.3828835,42.1207853 2.36113592,42.6352853 2.3158932,43.1470192 C2.2921068,43.4166179 2.48191262,43.5448478 2.62569903,43.6679405 C2.92802913,43.9265736 3.26987379,44.1382812 3.59987379,44.3625353 C3.76734951,44.4764405 3.9358932,44.5954829 4.11880583,44.6775776 C4.48084466,44.8399889 4.84919417,44.9906442 5.22317476,45.1213437 C5.39967961,45.1830877 5.42317476,45.3050937 5.40909709,45.4464627 C5.39579612,45.5800272 5.2958932,45.6034405 5.16832039,45.6043296 C4.73967961,45.6072933 4.35336893,45.4712591 3.95938835,45.312503 C3.5721068,45.1564143 3.2851165,44.8683417 2.94890291,44.6465575 C2.80938835,44.5547812 2.68647573,44.4354425 2.5428835,44.3520635 C2.05569903,44.0690292 1.8774466,43.6174587 1.86579612,43.0804345 C1.84181553,41.9673639 1.8366699,40.8538982 1.80734951,39.7410252 C1.77569903,38.5380554 1.91230097,37.3465454 2.01268932,36.1522692 C2.0197767,36.0680998 2.06812621,35.9872893 2.09734951,35.9048982 C2.12191262,35.8942288 2.14637864,35.8833619 2.17084466,35.8726925" id="Fill-10" fill="#1D1C1B"></path>
                    <path d="M18.0602718,18.8151998 C18.0261942,18.7226333 17.9698835,18.6320425 17.9619223,18.5373026 C17.9246408,18.0931413 17.9285243,17.6436454 17.8650291,17.2038308 C17.7678447,16.5289942 17.734932,15.8404256 17.4793981,15.1939417 C17.3746408,14.9285909 17.332699,14.637851 17.2336699,14.3695365 C17.0753204,13.940095 16.8013398,13.5948228 16.4329903,13.3259155 C15.7857087,12.8530062 15.1410485,12.3763429 14.4963883,11.8997784 C14.3553204,11.7954558 14.3075534,11.6266232 14.3876505,11.4948369 C14.4709515,11.3576171 14.6288155,11.2870808 14.8032816,11.4060244 C15.2062913,11.6810567 15.6107573,11.9539155 16.0193981,12.2200567 C16.2921165,12.3977804 16.5873592,12.5426071 16.8476505,12.73673 C17.4740583,13.2042058 17.9118252,13.7978369 18.0577476,14.6037683 C18.1724078,15.2383974 18.3868738,15.8557381 18.4826019,16.4923429 C18.5763883,17.116599 18.6086214,17.7596252 18.4251262,18.3793369 C18.3757087,18.546095 18.2355146,18.6850929 18.1369709,18.8367361 C18.1113398,18.8296232 18.0858058,18.8224115 18.0602718,18.8151998" id="Fill-12" fill="#1D1C1B"></path>
                    <path d="M10.6654175,9.52808952 C9.75697087,9.48442419 8.84153398,9.48007742 7.95862136,9.19398065 C7.73192233,9.12048065 7.48823301,9.10210565 7.2598835,9.03275484 C6.81687379,8.89830121 6.37716505,8.75179516 5.94036893,8.59787984 C5.71386408,8.51805726 5.65658252,8.39229718 5.72114563,8.19540806 C5.78386408,8.00434758 5.97512621,7.89933347 6.17143689,7.97362379 C6.42056311,8.06777097 6.65920388,8.19076492 6.9075534,8.28757944 C7.04774757,8.34230927 7.19726214,8.37411976 7.34464078,8.40790605 C7.90279612,8.5360371 8.456,8.71316815 9.02133981,8.77609758 C10.254835,8.91321855 11.4852233,8.90393226 12.659301,8.3940754 C12.8358058,8.31741411 13.0822136,8.38775282 13.1414369,8.51667419 C13.2150291,8.67681331 13.0983301,8.96202097 12.9035728,9.02979113 C12.177068,9.28279315 11.4523107,9.55120645 10.6654175,9.52808952" id="Fill-14" fill="#1D1C1B"></path>
                    <path d="M12.1098835,3.68330827 C12.2061942,3.43702399 12.2701748,3.23618327 12.3634757,3.05065504 C12.4105631,2.95729819 12.4973592,2.85287681 12.5891068,2.82057238 C12.8936699,2.71308851 13.2087184,2.63593327 13.5401748,2.54139093 C13.4893981,2.78342722 13.4405631,3.01578206 13.3809515,3.29881633 C13.0006602,3.41390706 12.5693981,3.54431028 12.1098835,3.68330827" id="Fill-16" fill="#FEFEFE"></path>
                    <path d="M6.55200971,3.02196633 C6.35230097,3.08272238 6.29084466,3.16234738 6.31084466,3.31952278 C6.33123301,3.47976069 6.32919417,3.64424657 6.32103883,3.80606512 C6.31861165,3.85585544 6.26385437,3.94298851 6.23249515,3.94318609 C6.1621068,3.94387762 6.03103883,3.90347238 6.0297767,3.87492198 C6.00938835,3.42562359 5.84152427,2.98274657 5.94618447,2.49432722 C6.23220388,2.63213972 6.49123301,2.75503488 6.74764078,2.88356109 C6.77414563,2.89679899 6.79958252,2.94293407 6.80006796,2.9742506 C6.80424272,3.22705504 6.80230097,3.47995827 6.80230097,3.7327627 C6.77084466,3.73651673 6.73929126,3.74027077 6.70773786,3.74392601 C6.6566699,3.50692802 6.60550485,3.26993004 6.55200971,3.02196633" id="Fill-18" fill="#FEFEFE"></path>
                    <path d="M7.9015534,3.12452056 C8.05106796,3.12452056 8.20194175,3.12540968 8.35271845,3.12422419 C8.49708738,3.12303871 8.59873786,3.13894395 8.53009709,3.33830282 C8.47563107,3.49636734 8.46320388,3.66905282 8.4284466,3.83452661 C8.38058252,4.06194194 8.21320388,4.02785927 8.05067961,4.01383105 C7.87262136,3.99851855 7.90135922,3.86959718 7.90145631,3.75322218 C7.90174757,3.55040565 7.9015534,3.34758911 7.9015534,3.12452056" id="Fill-20" fill="#FEFEFE"></path>
                    <path d="M9.74479612,3.95999032 C9.79782906,3.68199435 9.84148001,3.4089379 9.9039937,3.14042581 C9.94428688,2.96774032 10.097164,3.05803468 10.2014522,3.0517121 C10.2128094,3.05102056 10.2532013,3.1803371 10.2432268,3.24366169 C10.2159696,3.41644597 10.1689609,3.58606895 10.1299516,3.757075 C10.0841279,3.95831089 9.95228627,4.00395202 9.74479612,3.95999032" id="Fill-22" fill="#FEFEFE"></path>
                    <path d="M8.97777794,3.11936371 C9.1260621,3.10899073 9.22122415,3.09733347 9.3163862,3.09674073 C9.46503173,3.09565403 9.49394172,3.16559758 9.46756135,3.27347661 C9.42913516,3.43124476 9.40516396,3.59138387 9.36541272,3.74895444 C9.34963269,3.81138992 9.32409553,3.882025 9.27338259,3.9258879 C9.22411515,3.96846653 9.13678288,3.99909153 9.06619432,3.99909153 C9.03668204,3.99899274 8.98380085,3.90701895 8.98175306,3.85574677 C8.97247777,3.62181129 8.97777794,3.38757944 8.97777794,3.11936371" id="Fill-24" fill="#FEFEFE"></path>
                    <path d="M7.26121415,3.05129718 C7.7392521,3.00881734 7.78114864,3.03005726 7.75225447,3.29550685 C7.73042333,3.49318629 7.7129263,3.69096452 7.68868731,3.88844637 C7.67295604,4.01726895 7.52704049,4.05836573 7.36459106,4.0137125 C7.29813447,3.99543629 7.26843769,3.8922004 7.26554827,3.8269 C7.2546327,3.5737004 7.26121415,3.32010565 7.26121415,3.05129718" id="Fill-26" fill="#FEFEFE"></path>
                    <path d="M11.6670534,3.78827298 L11.3136699,3.78827298 C11.3929141,3.54969435 11.4613747,3.3083496 11.5569426,3.07816815 C11.5859295,3.0082246 11.6900055,2.9694 11.7597522,2.9163496 C11.7776588,2.93146452 11.7957633,2.94648065 11.8136699,2.96159556 C11.7665785,3.22823065 11.7191903,3.49486573 11.6670534,3.78827298" id="Fill-28" fill="#FEFEFE"></path>
                    <path d="M11.1190422,3.06605645 C11.0159081,3.32123185 10.915391,3.57719758 10.8061902,3.83059476 C10.7929862,3.86121976 10.7330328,3.87791532 10.6948482,3.90113105 C10.6682022,3.8628004 10.6125312,3.82032056 10.6196685,3.78692944 C10.6670127,3.56307056 10.7117398,3.33693952 10.7940568,3.12118145 C10.8167772,3.06141331 10.9638058,3.03424597 11.0538548,2.99216129 C11.0756236,3.01676008 11.0973924,3.04135887 11.1190422,3.06605645" id="Fill-30" fill="#FEFEFE"></path>
                    <path d="M5.56301942,28.504031 C5.63136893,28.553525 5.70758252,28.5948194 5.76709709,28.6535996 C6.51525243,29.3952185 7.25554369,30.1453335 8.0093301,30.881025 C8.51913592,31.3784343 9.0577767,31.8453173 9.56360194,32.346777 C9.98797087,32.767525 10.3777767,33.2241339 10.7933107,33.6543657 C11.1787476,34.0531823 11.5802039,34.435896 11.970301,34.8298718 C12.1144757,34.9755875 12.2546699,35.1268355 12.3835049,35.2864806 C12.7600097,35.7525734 13.2394272,36.0980431 13.6911748,36.4781883 C13.8702039,36.6288435 14.0098155,36.8320552 14.1532136,37.0224242 C14.4049612,37.3566319 14.767,37.429144 15.1424369,37.4991863 C15.4503981,37.5565835 15.7848641,37.5868133 15.975835,37.8990895 C16.0186505,37.9690331 16.0250583,38.0619948 16.0610777,38.190027 C15.9453495,38.1538698 15.8911748,38.1389524 15.8383592,38.1200835 C15.3589417,37.9481883 15.091466,38.0194161 14.7575825,38.4087488 C14.5500097,38.6506863 14.4157379,38.6361641 14.2874854,38.3388052 C14.2304951,38.2069202 14.1655437,38.0474726 14.189233,37.916279 C14.2757379,37.4355653 13.9896214,37.1453194 13.6951553,36.8751278 C12.9744757,36.2142206 12.2293301,35.5809746 11.5072913,34.9215492 C10.9707864,34.4317468 10.4546699,33.919025 9.93030097,33.4154907 C9.53612621,33.0368274 9.13583495,32.6641903 8.75272816,32.2741661 C8.53787379,32.0554444 8.35457282,31.8049121 8.15350485,31.5718657 C7.80107767,31.1633677 7.4431165,30.7597105 7.09253398,30.3497306 C6.58942718,29.7615331 6.09068932,29.1694827 5.59166019,28.5778274 C5.57554369,28.5587609 5.57758252,28.5237891 5.57117476,28.4963254 C5.57107767,28.4963254 5.56301942,28.504031 5.56301942,28.504031" id="Fill-32" fill="#FEFEFE"></path>
                    <path d="M15.4598641,25.6787661 C15.735301,25.853625 15.9567573,26.1363629 16.2845243,25.9747419 C16.5326796,25.8523407 16.748699,25.6629597 17.0290874,25.4688367 C16.9833592,25.583631 16.9651068,25.6572298 16.9277282,25.718875 C16.7260777,26.0522923 16.4227767,26.2727923 16.1191845,26.5030726 C15.7687961,26.7687198 15.4406408,27.0684496 15.1245243,27.3765766 C14.8000583,27.6927056 14.4946214,28.0300746 14.1938447,28.3700121 C13.7435534,28.8792762 13.2966602,29.3922944 12.8647184,29.9175625 C12.6879223,30.1325302 12.560835,30.3891875 12.3981165,30.6171956 C12.2623883,30.8075645 12.1033592,30.9803488 11.9624854,31.1671613 C11.7165631,31.4930706 11.4799612,31.8262903 11.2324854,32.1510141 C11.1662718,32.2378508 11.0749126,32.3047319 10.9951068,32.3808004 C10.9941359,32.3508669 10.993165,32.3208347 10.9921942,32.291 C10.9235534,32.2499032 10.8595728,32.1898387 10.7854951,32.1714637 C10.570932,32.1178206 10.4583107,31.8672883 10.5959806,31.698752 C10.8821942,31.348244 11.1833592,31.0104798 11.4696699,30.6601694 C11.6819029,30.4005484 11.8754951,30.1252198 12.0870485,29.8649073 C12.1879223,29.7408266 12.3214175,29.6443085 12.4226796,29.5205242 C13.0268544,28.7829556 13.7735534,28.1904113 14.4127767,27.4897903 C14.7368544,27.1344415 14.988699,26.7248569 15.1616117,26.2660746 C15.2360777,26.0681976 15.3526796,25.8867198 15.4598641,25.6787661" id="Fill-34" fill="#FEFEFE"></path>
                    <path d="M9.12367961,34.1554401 C9.19552427,34.1496115 9.26562136,34.1439804 9.36134951,34.1362748 C9.34202913,34.1895228 9.33960194,34.2366458 9.31901942,34.2470187 C8.81435922,34.501799 8.5737767,35.0180772 8.20620388,35.4080026 C7.8553301,35.7801458 7.51707767,36.1646377 7.16843689,36.5391518 C6.9006699,36.8268292 6.59474757,37.0838817 6.36154369,37.3972446 C6.1037767,37.7437022 5.78999029,38.0688212 5.72494175,38.5356054 C5.70338835,38.6901135 5.64018447,38.8386942 5.58183495,39.0389421 C5.49659223,38.8121196 5.40668932,38.634297 5.36542718,38.4455087 C5.32309709,38.25267 5.20513592,38.1420248 5.04756311,38.0874925 C4.82630097,38.0108312 4.59076699,37.9782304 4.36552427,37.9116458 C4.27678641,37.8854663 4.15824272,37.8381458 4.12513592,37.7662264 C4.04086408,37.5834643 4.14232039,37.4776599 4.3522233,37.5022587 C4.57901942,37.5287345 4.80746602,37.5910712 5.03193204,37.5786236 C5.61465049,37.5463192 6.01445631,37.1417728 6.42892233,36.7918575 C6.75717476,36.5147506 7.05814563,36.2030671 7.3614466,35.8967183 C7.48329126,35.7737244 7.56154369,35.6035087 7.68999029,35.4907889 C7.96358252,35.250926 8.24387379,35.0142244 8.5461068,34.8149643 C8.7991165,34.6479099 9.01193204,34.2801135 8.96202913,33.9789018 C8.95523301,33.9372123 8.96105825,33.893547 8.96105825,33.850672 C8.9791165,33.84593 8.99698058,33.8411881 9.01503883,33.8364462 C9.04969903,33.9382002 9.08435922,34.0398554 9.12367961,34.1554401" id="Fill-36" fill="#FEFEFE"></path>
                    <path d="M5.56301942,28.504031 C5.56301942,28.504031 5.57107767,28.4963254 5.57117476,28.4964242 C5.27738835,28.2598214 4.97146602,28.037148 4.69263107,27.7837508 C4.25166019,27.3828597 3.82253398,26.9677427 3.40030097,26.5465008 C3.09117476,26.2381762 2.79632039,25.9145391 2.50806796,25.5859625 C2.4701068,25.5426923 2.50865049,25.4298738 2.51185437,25.3493597 C2.57806796,25.356275 2.64874757,25.3509403 2.70894175,25.374156 C2.75136893,25.3905552 2.78243689,25.4432105 2.81369903,25.4836157 C2.99690291,25.721404 3.16632039,25.767144 3.42748544,25.6267629 C3.64437864,25.5099927 3.85350485,25.3783052 4.06476699,25.2511621 C4.23690291,25.1476298 4.39340777,25.1846762 4.42806796,25.3827508 C4.46020388,25.5665008 4.45496117,25.7773194 4.397,25.9525734 C4.28360194,26.2953758 4.34360194,26.6106157 4.44865049,26.9330673 C4.55127184,27.2475169 4.84214563,27.4075573 5.01709709,27.6612508 C5.207,27.9364806 5.38175728,28.2225774 5.56301942,28.504031" id="Fill-38" fill="#FEFEFE"></path>
                    <path d="M10.0788155,22.8820022 C9.79114563,22.9046252 9.58609709,23.0582442 9.46337864,23.3171736 C9.34735922,23.5620748 9.24454369,23.8140889 9.14794175,24.0675849 C9.12250485,24.1342683 9.11716505,24.2287119 9.14386408,24.2924317 C9.2567767,24.5613389 9.44978641,24.6101413 9.68405825,24.4364679 C9.81658252,24.3382704 9.92434951,24.2705002 10.0703689,24.4393329 C10.2176505,24.6096474 10.4061942,24.5978913 10.6381359,24.4370607 C10.7975534,24.3264155 10.7694951,24.1575829 10.7325049,23.998728 C10.7162913,23.9287845 10.6686214,23.8669417 10.6447379,23.7980849 C10.5791068,23.6094942 10.5012427,23.4228792 10.460466,23.2285587 C10.413767,23.0072683 10.2947379,22.8808167 10.0788155,22.8820022 M10.4974563,21.5431958 C10.4974563,21.7491736 10.4665825,21.9686857 10.5061942,22.173972 C10.5461942,22.380345 10.6557087,22.5728873 10.7369709,22.7705667 C10.7443495,22.7885466 10.7657087,22.8028712 10.7836699,22.8138369 C11.024932,22.9613308 11.2836699,23.0487603 11.5677476,23.0186292 C11.7717282,22.9969942 11.9432816,22.7945728 11.9531845,22.6410526 C11.9619223,22.5052159 11.9852233,22.3302583 12.0713398,22.2475708 C12.3127961,22.0163026 12.3051262,21.6898006 12.4119223,21.4143732 C12.5159029,21.1469478 12.2893981,20.9703107 11.9317282,20.9199276 C11.6559029,20.881103 11.3865825,20.7959458 11.1124078,20.7413147 C11.0425049,20.7273853 10.9465825,20.7245204 10.8947379,20.7621595 C10.6369709,20.9494659 10.3976505,21.1561353 10.4974563,21.5431958 M7.01512621,21.9535708 C6.96823301,22.3580183 7.14007767,22.5462139 7.36269903,22.7073409 C7.68124272,22.9378188 8.02667961,23.0409558 8.40017476,22.8851635 C8.75085437,22.738855 8.93697087,22.4406071 9.03027184,22.0757744 C9.05891262,21.9639438 9.09871845,21.854978 9.12716505,21.7431474 C9.19619417,21.4706837 9.21784466,21.2551232 8.89570874,21.1409216 C8.62124272,21.0436131 8.35434951,20.9210143 8.09172816,20.7931796 C7.77959223,20.6412401 7.57823301,20.67147 7.33114563,20.9312885 C7.03066019,21.2474175 7.10900971,21.6796252 7.01512621,21.9535708 M6.7821165,22.8159115 C6.5583301,22.8476232 6.49240777,22.7851877 6.45716505,22.5401877 C6.44415534,22.4492018 6.37609709,22.3673046 6.33900971,22.2786897 C6.26638835,22.1052139 6.16056311,21.9355909 6.13473786,21.7547058 C6.05269903,21.1782643 6.11939806,20.6185183 6.31221359,20.0602542 C6.51551456,19.4715627 6.73425243,18.8941333 7.13143689,18.416976 C7.58299029,17.8744196 8.19143689,17.5584881 8.84357282,17.3325546 C9.15153398,17.2259599 9.46328155,17.1221313 9.78114563,17.0561393 C10.2772621,16.953101 10.7546408,17.0379619 11.204932,17.28148 C11.4587184,17.4186998 11.7252233,17.5321111 11.9754175,17.6753571 C12.5822136,18.0227038 12.9441553,18.5830425 13.2486214,19.1987038 C13.5305631,19.7683288 13.6451262,20.3799397 13.6017282,20.9967865 C13.5679417,21.4741413 13.4668738,21.9491252 13.1668738,22.3780728 C12.9226019,22.7273954 12.6328932,22.98672 12.2988155,23.2217421 C12.0657087,23.3858329 12.0457087,23.8085567 12.227165,24.0361696 C12.3163883,24.148099 12.3889126,24.2939135 12.4124078,24.4341958 C12.4367767,24.5795163 12.3414369,24.6808752 12.190466,24.744595 C12.0575534,24.8006091 11.9326019,24.8996958 11.8325049,25.0071796 C11.7190097,25.1293833 11.7572621,25.2595889 11.8839612,25.3670728 C12.0589126,25.5157522 12.0644466,25.69723 11.878233,25.8228913 C11.7414369,25.9151615 11.5795922,25.9712744 11.4238641,26.0294619 C11.3987184,26.0389458 11.3419223,25.9798692 11.3100777,25.9431192 C11.2950291,25.9256333 11.3033786,25.8860183 11.3036699,25.85648 C11.3055146,25.6800405 11.2813398,25.5058732 11.0888155,25.450353 C10.9597864,25.4130103 10.6932816,25.6447724 10.6509515,25.8218046 C10.6059029,26.0100002 10.546,26.1468248 10.3609515,26.0577159 C10.3214369,25.8500587 10.3139612,25.6583067 10.2421165,25.4963893 C10.2044466,25.4119236 10.0576505,25.3469196 9.9521165,25.3318046 C9.79920388,25.3100708 9.73318447,25.4175546 9.71551456,25.5765083 C9.70667961,25.6559357 9.62871845,25.7274599 9.5821165,25.8024417 C9.55862136,25.7949337 9.53512621,25.7873268 9.51172816,25.7798188 C9.51172816,25.6290647 9.52405825,25.4771252 9.50852427,25.3281494 C9.49027184,25.1538833 9.41881553,25.0113288 9.20735922,25.029605 C8.98464078,25.0488692 8.88396117,25.1540808 8.86823301,25.3716171 C8.85823301,25.5114054 8.85231068,25.6528732 8.82532039,25.789599 C8.79920388,25.9216817 8.71930097,25.971472 8.58299029,25.9082462 C8.38231068,25.8150869 8.24978641,25.6869558 8.17930097,25.4553913 C8.10201942,25.201105 7.95959223,24.9662804 7.83619417,24.7279982 C7.78308738,24.6255526 7.70376699,24.600855 7.58007767,24.6488671 C7.48027184,24.6875929 7.34648544,24.6928288 7.24561165,24.6586474 C7.02580583,24.5843571 7.02891262,24.4100909 7.16697087,24.2295022 C7.30619417,24.0474317 7.41172816,23.8248571 7.4783301,23.6034679 C7.53269903,23.4224841 7.34464078,23.2488107 7.11900971,23.1764962 C6.95046602,23.1225567 6.82056311,23.0116151 6.7821165,22.8159115" id="Fill-40" fill="#FEFEFE"></path>
                    <path d="M7.01516505,21.9535313 C7.10904854,21.6796845 7.03060194,21.247378 7.33118447,20.9313478 C7.57827184,20.6714304 7.77963107,20.6412006 8.09176699,20.7931401 C8.35438835,20.9210736 8.62128155,21.0436724 8.89574757,21.1409808 C9.21778641,21.2551825 9.19623301,21.4706442 9.12720388,21.7431079 C9.09875728,21.8550373 9.05895146,21.9639042 9.03031068,22.0758337 C8.93700971,22.4406663 8.7508932,22.7389143 8.40021359,22.8852228 C8.02671845,23.0409163 7.68118447,22.937878 7.36273786,22.7074002 C7.1401165,22.5462732 6.96827184,22.3580776 7.01516505,21.9535313" id="Fill-42" fill="#1D1C1B"></path>
                    <path d="M10.4975049,21.5432254 C10.397699,21.1561649 10.6370194,20.9493968 10.8947864,20.7621891 C10.9466311,20.7244512 11.0424563,20.7274149 11.1123592,20.7412456 C11.386534,20.7959754 11.6559515,20.8810339 11.9316796,20.9199573 C12.2893495,20.9703403 12.5158544,21.1468786 12.4119709,21.4144028 C12.3050777,21.6898302 12.3127476,22.0163323 12.0713883,22.2475016 C11.9851748,22.3301891 11.9618738,22.5052456 11.9531359,22.6409835 C11.9433301,22.7946024 11.7717767,22.9970238 11.567699,23.0186589 C11.2837184,23.0487899 11.0249806,22.9612617 10.7836214,22.8138665 C10.7657573,22.8029008 10.7443981,22.7885762 10.7370194,22.7705964 C10.6557573,22.5729169 10.5462427,22.3803746 10.5062427,22.1740016 C10.4666311,21.9687153 10.4975049,21.7492032 10.4975049,21.5432254" id="Fill-44" fill="#1D1C1B"></path>
                    <path d="M10.0788155,22.8820022 C10.2947379,22.8808167 10.413767,23.0072683 10.460466,23.2285587 C10.5012427,23.4228792 10.5791068,23.6094942 10.6447379,23.7980849 C10.6686214,23.8669417 10.7162913,23.9287845 10.7325049,23.998728 C10.7694951,24.1575829 10.7975534,24.3264155 10.6381359,24.4370607 C10.4061942,24.5978913 10.2176505,24.6096474 10.0703689,24.4393329 C9.92434951,24.2705002 9.81658252,24.3382704 9.68405825,24.4364679 C9.44978641,24.6101413 9.2567767,24.5613389 9.14386408,24.2924317 C9.11716505,24.2287119 9.12250485,24.1342683 9.14794175,24.0675849 C9.24454369,23.8140889 9.34735922,23.5620748 9.46337864,23.3171736 C9.58609709,23.0582442 9.79114563,22.9046252 10.0788155,22.8820022" id="Fill-46" fill="#1D1C1B"></path>
                </g>
            </g>
        </g>
    </g>
</svg>