<svg xmlns="http://www.w3.org/2000/svg" width="323" height="382">
  <g fill="none" fill-rule="evenodd">
    <path fill="#000" d="M108.847416 148.179436c.192914.138788.385828.277173.578741.415961.702385-.605436 1.404769-1.211274 2.10675-1.816308-.062828-.180625-.125656-.360446-.188081-.540669-.533635-.09172-1.390672-.426822-1.54009-.228899-.463557.614689-.658082 1.431726-.95732 2.169915zm-25.7332735 2.43502l-.617808.517738c.6705674.818646 1.3411347 1.637293 2.2662357 2.766501.970611-2.557313-.5916297-2.736329-1.6484277-3.284239zm12.3291758-7.319944c.2706434-.026148.5408841-.052699.810722-.078847-.1155873-1.463104-.2311746-2.925805-.3467619-4.388909-.3036683.028964-.6073366.057929-.911005.086893l.4470449 4.380863zm-43.2707232-30.417028c-.3439426.121489-.6878852.243381-1.0318279.365273.2968217.717271.5251771 1.479597.9452382 2.115607.0902144.135971.8755636-.186257 1.3407319-.297287-.4180474-.728133-.8360948-1.455863-1.2541422-2.183593zm41.2968791 30.898159c-.5533691.789682-1.0499514 1.256732-.9649726 1.417243.4116035.778821.9794713 1.475173 1.4917606 2.200891.2799065-.211601.8332756-.521761.7978342-.619516-.3157506-.874965-.7350063-1.712519-1.3246222-2.998618zm-4.1192569 15.424741c-1.216687-.557162-2.2207257-1.016971-3.4861446-1.596259.8385112 2.784604 1.8453691 3.243609 3.4861446 1.596259zm-42.032288-48.948602c-.3644825.785257-.8050835 1.35328-.6798304 1.537124.3608578.529807.9009364 1.012546 1.4796783 1.272823.1679439.07563.7015785-.659342 1.0672693-1.022603-.5167194-.494808-1.0338416-.989214-1.8671172-1.787344zM27.5126325 87.4318699c1.7861659.112237 3.1442158.1979233 4.5026684.2832074-1.177621-1.6883823-1.8755748-1.6940142-4.5026684-.2832074zM89.2567809 190.234918c.6766085-.471878 1.2545449-.721696 1.5932519-1.156967.3060848-.39303.3499838-.989214.5094701-1.495688-.5586048.005229-1.1945362-.160913-1.66051.049078-1.1997718.540669-1.0966696 1.457874-.442212 2.603577zm39.3335061 11.920855c.276282-.518945.647208-.889448.5872-1.167425-.154251-.71526-.442212-1.422876-.809514-2.056874-.088201-.152465-.692316-.006839-1.059215.001207.074911.746235.064037 1.516607.261784 2.228648.096658.347573.583172.587736 1.019745.994444zm2.225156-44.620036c.92349.585724 1.558616.98841 2.254153 1.429714.547731-1.432932.969-2.534384 1.417656-3.707843-.290378.047067-.596462.011264-.786557.14281-.854621.592161-1.67662 1.232193-2.885252 2.135319zm159.647382-67.2408181c-.002014.2240717-.004431.4477411-.006444.6718128h5.071341c.000806-.2240717.001611-.4477411.002417-.6718128h-5.067314zM68.5143009 121.047452c-.1510287.396248-.3016546.792497-.4526833 1.189148.8445524.515325 1.688702 1.03065 2.5332543 1.545974.0857843-.724914.5010125-1.782114.1820399-2.096699-.4885274-.481935-1.4829002-.451362-2.2626109-.638423zM90.866948 185.41798c-.4514751-2.095895-1.790596-1.356901-2.8477968-1.08174-.4256995.110628-.7386309.655319-1.1031134 1.00249.5183304.309356 1.0447157.881 1.5533803.865311.7499077-.022528 1.4873304-.463833 2.3975299-.786061zm130.655514 2.439444v6.351246c.924295-.6344 1.582378-1.085762 2.627496-1.803033-3.43258-.635607-1.111974-3.14344-2.627496-4.548213zm-2.684686-16.566421c.279101-.0177.558605-.034998.837706-.052699-.181637-2.611219-.363677-5.222841-.545717-7.834061-.254534.015689-.50947.03178-.764407.047469.157876 2.612829.314945 5.22606.472418 7.839291zm-94.790834-25.081145c-.747894-.664974-1.281126-1.360924-1.478873-1.276042-.784544.337113-1.464777.917206-2.183673 1.407991.583172.42642 1.138957 1.13122 1.757168 1.191563.489333.047469 1.05559-.696353 1.905378-1.323512zm-19.249511-3.201369c.383008.215222.765614.430845 1.14822.646067.639959-1.014961 1.279918-2.030725 1.919474-3.046088-.59606-.169763-1.618625-.617102-1.718505-.46343-.57109.875368-.923087 1.893546-1.349189 2.863451zm-4.944478-.944963c.316556-.065974.633515-.131949.950474-.197923-.495374-2.023082-.9907483-4.045762-1.4861224-6.068441-.354414.090514-.7092307.180625-1.0640474.271139.533232 1.998542 1.0664639 3.996683 1.5996958 5.995225zm1.563449-2.492948c-.134114 1.445001-.443823 2.724663 1.186481 2.912529.502221.057929 1.550561-.705604 1.580767-1.145702.127267-1.860962-1.45793-1.403968-2.767248-1.766827zm88.414605 9.178491l-.809514-.485556c-1.377382 2.269682-2.754763 4.538961-4.132145 6.80824.215871.131546.431741.263093.647611.39464l4.294048-6.717324zm-101.0518794 4.308855c-.7257432 3.056949.4011321 4.201847 3.8820411 3.865538-1.4406122-1.434542-2.5457394-2.534786-3.8820411-3.865538zm8.0387531-1.336787c-.2770873-.694743-.4426147-1.430921-.8574402-1.978429-.1502232-.198727-1.2968329.00161-1.3105262.107008-.1703603 1.324718-.216273 2.665528-.2940025 4.002314.588005-.084077 1.3568417.027758 1.7172968-.303723.4261022-.391824.4994015-1.166621.7446721-1.82717zm1.3596608-.666986c2.4829115-2.953965 1.9682055-3.930708-2.0000224-4.580797.7390336 1.692807 1.3693267 3.137003 2.0000224 4.580797zm-80.2022693 50.359008c-1.0970723 1.378624-1.4398067 2.672769.1010885 3.52239.472015.259875 1.9480686-.275563 2.1917282-.802554.9911509-2.146181-1.1276808-1.986072-2.2928167-2.719836zm181.7487168-62.657205c2.422903.949388 4.845403 1.898777 7.301331 2.861038-1.622653-2.70817-4.495822-4.055416-7.301331-2.861038zm98.044999-45.1973122c-.349581-.5173361-.420464-.7156617-.492958-.7164662-2.252542-.0205165-4.507501-.075227-6.754002.03701-.308904.0152868-.57552.8749658-1.162317 1.8364224 3.158312-.4344657 5.677067-.7812338 8.409277-1.1569662zM216.16477 369.068669c-3.241277.38579-7.615068-.800945-10.537372-.453373 1.986732 1.124382 9.617506 1.884697 10.537372.453373zm6.548603-260.841578c1.465582-1.337591.708425-7.717399-1.131305-9.5345121.36408 3.0698221.728562 6.1396451 1.131305 9.5345121zm-39.740277 261.526667c2.179646 1.449426 8.717376.872954 9.355724-.696755-3.030643.225681-5.954558.443316-9.355724.696755zm-69.391032-227.337027c-.622238-.976342-1.042299-1.635684-1.46236-2.294623-.73984.82991-1.807914 1.551606-2.128095 2.519901-.324208.97956.29078 2.402033 1.588822 2.145778.75031-.14804 1.271862-1.454253 2.001633-2.371056zm-31.2057469 26.663324c.6250573.7929 1.1196259 1.410807 1.6033204 2.037564.4454339.576472.7780998 1.322305 1.3552307 1.685164.3709264.233727 1.0934476-.090111 1.6584963-.164131-.6278766-1.263974-1.06002-2.69409-1.9476659-3.737613-.6806359-.800141-1.9214875-.98157-2.6693815.179016zm10.8619825-9.823351c-.2271471-.091318-.4542942-.182636-.6814414-.274357-.9601396.523773-2.0028416.944158-2.8494077 1.612351-.4768479.376134-.838914 1.15415-.8590511 1.764413-.0149015.455385.5586047 1.268801.9444326 1.316271.5223579.063561 1.3508005-.304931 1.6331235-.750258.7257431-1.145703 1.2235337-2.435824 1.8123441-3.66842zM53.5624617 90.9900641c-.2867531-.0945365-.5731035-.1890731-.8598566-.2836096-1.2509202 2.9161503-2.5304351 5.8262663-3.1156209 8.9934413-.0475237.2566566.4937631.8270942.8252207.8846202.274268.04747.7708503-.38418.935975-.7184773.194525-.3934329.208621-.9155963.1768043-1.3729922-.1417656-2.056069.0906172-3.9540408 1.5791558-5.5873102.3874389-.4252133.3177644-1.265985.4583217-1.9156722zm80.5953463 79.0224839c-2.486536 1.922511-2.408806-1.682348-4.031861-1.738668-.931545 2.678803-.613781 4.361554.847371 4.803663 1.229172.371709 2.656897-.907551 3.18449-3.064995zm-2.824035-6.333546c.840525-3.562217.415631-4.705505-1.977468-5.495187-1.208633 3.879618-.663721 5.50806 1.977468 5.495187zm127.39853-69.7510643l-.788168.0836749c.424491 3.2649297.849788 6.5302614 1.331872 10.2356914 1.372951-1.638901.697551-8.5593777-.543704-10.3193663zm-63.985414 56.7838703c3.629119-1.916074 6.845023-3.613709 10.065357-5.312953-2.036269-1.277249-7.655342 1.511378-10.065357 5.312953zM83.132266 161.290245c.0451072 2.127273 1.6866882 3.797553 3.2767182 3.658765.4309351-.037412 1.1313055-.694341 1.1490261-1.091796.0620225-1.381843-2.1627306-3.760945-3.2642331-3.521587-.5328292.11626-.9484601.768763-1.1615112.954618zm99.159792 29.041221c-.329847-4.95814-.646-9.717954-.962154-14.477767-1.599695 4.911072-1.515925 9.696229.962154 14.477767zM82.9619056 95.5077035c-.2267444.0897091-.4534888.179016-.6802332.2687251-.5445087 3.4773352-1.1260698 6.9498434-1.5884189 10.4380404-.0604115.45297.4945686.987202.9677918 1.858548.3471646-.784855.4651683-.954216.4973877-1.138462.533232-3.060167 1.1244589-6.113496 1.5292158-9.190962.0926309-.7011794-.4663766-1.4884475-.7257432-2.2358895zm6.0999476 51.8498685c-.3580386.033389-.7160773.066779-1.0737132.100571-.3850224 1.184321-1.4353765 2.756041-1.0169264 3.473312.8997282 1.543158 2.8111471 1.667464 4.5256247 1.540342.1816371-.18143.3628716-.363262.5445087-.545094-.9931646-1.523043-1.9867319-3.046087-2.9794938-4.569131zm30.6141168-8.326054c-.473223.243381-.861064.312172-1.000011.535439-1.068075 1.719358-2.113999 3.454405-3.068097 5.237324-.070077.131144.733395 1.028638.960542.965077.857843-.240967 1.794221-.571242 2.430555-1.159782 1.693132-1.566491.753935-3.52038.677011-5.578058zm53.781917-27.88707c2.374171-1.302593 2.178438-7.866244-.127267-11.7390234-.946849 4.0964494.295211 7.7379154.127267 11.7390234zM32.3830054 85.0077119c.8087082-2.2455444.3628715-2.939885-1.9508878-2.8385097-1.1296945.0490786-2.2537506.2763685-3.3830424.3001032-.9734302.0205165-1.6995761.0728133-1.6419838 1.3641421.0559813 1.2474799.5102756 1.8605594 1.8264401 1.706485 1.704409-.1999348 3.4144564-.355216 5.1494739-.5322206zM226.36424 172.622963c.53444-7.347701.649624-14.665231-2.660119-21.547491.886841 7.184777 1.773681 14.369553 2.660119 21.547491zm-108.67339-36.251341c-.188887-2.007795-1.270252-2.942701-2.767249-2.480477-2.214684.684283-3.251345 3.546528-1.804692 5.329446.325417.400674 1.707631.589345 1.890477.344355.621432-.83152.926712-1.899984 1.344759-2.881152.072897-.171373.106727-.359641.158681-.540266.416436.080859.783738.15166 1.178024.228094zm97.178295 9.930359c-.143377.158902-.28635.317401-.429324.475901 4.083413 4.952507 4.973072 11.046694 6.496247 16.941349-.019332-4.789181-.569076-9.45486-2.721336-13.825666-.3818-.775602-.558202-1.652177-.962556-2.889198-.50061-.147638-1.442223-.424811-2.383031-.702386zm-78.854691-35.805209c-.294808-2.809143-.514303-5.47628-.904964-8.117671-.07491-.50567-.824415-.911975-1.262599-1.364142-.370524.444121-1.081768.908356-1.056798 1.329144.190094 3.200966.477653 6.398715.865092 9.581579.056787.468257.800653.853242 1.226756 1.276847.37737-.485556.85462-.926861 1.098683-1.471954.173582-.388606.03383-.917608.03383-1.233803zm52.732771 87.021079c-.07491-.12511-.443823-.993237-.59606-.956629-1.666954.397858-3.389889.76474-4.882858 1.54879-.420464.220451-.200163 1.778896-.164722 2.719836.062828 1.640913.816763 2.545245 2.621858 2.505017 1.779319-.039022 2.511104-.962664 2.667771-2.583462.090214-.929274.202177-1.855732.354011-3.233552zm9.467283-4.527294c-.015304-.266311-.026984-.532623-.047121-.798532-.202177-2.630127-2.341146-4.199836-4.964212-3.609284-.275879.062354-.693121.325045-.719299.535439-.184457 1.489252-.316154 2.987756-.398313 4.487066-.047927.873758.169957 1.780505.015304 2.626104-.284337 1.558042.335082 2.313128 1.87638 2.040782 2.228781-.393835 4.36493-3.057352 4.237261-5.281575zM30.2416201 214.9174c-2.9774801 1.130014-5.4712656 2.076586-8.3238953 3.158727 0 1.321903.0040274 2.98655-.0012082 4.651198-.003222 1.076509.3902581 1.626833 1.5904327 1.411209 1.7096446-.307344 3.4410374-.492797 5.1470573-.815026.3781758-.071606.9581259-.468257.9883317-.762326.2553391-2.47565.4039514-4.962162.5992818-7.643782zm134.3744439-11.004052l-.195733-.723707c-.968597.12511-1.936389.259472-2.906195.372514-1.785763.20798-3.569512.537852-5.359303.576069-3.258997.068388-6.522828-.085686-9.781422-.012873-.418451.009253-1.144194.802555-1.168761 1.262767-.090617 1.695221.553369 2.811154 2.585611 2.605588 3.060042-.309758 6.134584-.716869 9.199459-.686295 3.226375.032585 4.893732-2.675183 7.626344-3.394063zm-42.393549-4.544592c-3.580386.359641-4.620269 1.432932-4.74673 4.88774-.106325 2.906495 1.382617 4.878889 3.386264 4.88613 2.335105.007644 5.155515-2.95839 5.12249-5.387777-.03383-2.523925-1.658899-4.418678-3.762024-4.386093zm65.496909 179.264194c.002014.028965.004028.057527.006041.086491 1.666954-.123098 3.339949-.190682 4.998848-.382571 1.942833-.225278 2.606554-1.314259 1.651247-3.00948-.475639-.84399-1.439807-1.501321-2.316981-2.014634-2.450692-1.435346-5.032678-.808991-7.585667-.263495-1.857452.397053-2.762415 1.555629-2.486939 3.238379.288364 1.758379 1.16433 2.793856 3.131731 2.519097.858648-.119881 1.734212-.119478 2.60172-.173787zm18.083167-178.313599c-1.358049-1.764012-2.644411-3.007067-3.382639-4.517237-.707217-1.447013-.797834-3.184876-1.2626-4.765044-.149015-.50567-.625863-.914792-.95289-1.367762-.275879.049078-.552564.097754-.828443.146833 2.323828 5.961433-.953696 8.814827-5.781378 10.753832 1.103919 2.172329 2.602526 3.237977 4.843792 3.248436 3.250137.015287 5.675859-1.47477 7.364158-3.499058zm5.471669 178.556578c.000805.009655.001611.019712.002416.028965 1.797846-.166143 3.596094-.326252 5.393134-.500038 1.724948-.167752 2.267846-1.307823 1.610167-2.66231-.472015-.97272-1.458333-1.844468-2.422903-2.402837-2.905792-1.680739-5.856288-.566414-8.709723.278782-1.5562.461419-2.060434 1.789356-1.714075 3.386017.332263 1.532699 1.194133 2.321576 2.841756 2.117619.994775-.123099 1.998814-.166948 2.999228-.246198zm-2.490967-191.376537c-1.780124.625953-3.242082 1.080533-4.646447 1.671487-.395897.16735-.816361.698766-.895298 1.123979-.470404 2.544038.379787 4.796019 2.011299 6.666636 1.193328 1.368164 2.362089 1.087371 2.941233-.60785.39348-1.150932.993165-1.249492 2.098695-1.212884 2.671798.088502 5.351248-.068388 8.174075-.129133-.219093-1.492068-.35079-2.391975-.48289-3.292285-.150625-.095341-.301654-.19028-.45228-.285621-.151029.495211-.302057.990019-.453489 1.48523-1.104322-3.106028-2.790607-.698364-4.226386-1.095417-.187276-1.919293-.381398-3.913411-.576326-5.907528-1.503843 2.494558.656471 5.56961-2.223545 8.002216-.437379-2.214971-.82804-4.190181-1.268641-6.41883zm-49.031158 21.413933c-4.53086.327861-8.791077.60785-13.041628.994846-.361664.032987-.879994.74704-.947655 1.200413-.302863 2.042794-.531218 4.102483-.633112 6.163379-.02054.411938.565451 1.144496.980679 1.236216 1.670176.369296 3.099914-.196314 4.422926-1.323109 3.074541-2.617656 6.666607-4.65884 9.21879-8.271745zm-24.281787 10.472234c2.586417 2.113998 4.941659 4.055014 7.315024 5.973502 1.54009 1.244664 2.89814.999271 4.493002-.182637 4.077775-3.021146 8.278788-5.878965 12.467317-8.748048 1.944041-1.331155 2.300469-2.503006 1.257364-4.629474-3.558638 2.664321-7.141441 5.32824-10.704107 8.018307-2.557016 1.930556-4.310157 1.921304-6.647678-.098157-2.639982-2.280543-4.525222-2.42094-8.180922-.333493zm-23.560071 143.680242c.134114.029769.268227.059135.402341.088904.139349-.82106.387841-1.640913.398715-2.463581.043497-3.314009-.219897-8.256861.057593-11.547537.623446-7.399596 1.492566-14.778675 2.285164-22.163386.128475-1.197195.521553-2.381919.513498-3.570665-.004833-.647676-.452684-1.673096-.950877-1.859353-1.190911-.445327-2.530435-.494003-3.911844-.719282.409187 13.78222.807097 28.813528 1.20541 42.2349zM31.789362 208.647818c.0257755-3.531643-1.4933716-4.846707-5.0004589-4.328566-.9242955.136776-1.8985312.135167-2.7628179.441304-1.9903566.705203-4.1812793 1.28972-4.9710586 3.590779-.6919128 2.01745-.5062482 3.951627 1.1522481 5.538634 1.6798416 1.607121 3.5695125 1.870215 5.7314376 1.086165 3.4849365-1.263572 5.8317207-3.745256 5.8506497-6.328316zm.0978666 4.562695c1.5356596.327459 2.9895623.782039 4.4736708.929676 9.2755773.922838 18.5475299.543887 27.8142469-.214819 1.0092743-.08287 2.2223366.01408 2.0435187-1.490459-.1457931-1.223745-.2766846-2.622081-2.1981721-2.410078-1.6552743.182637-3.3786122-.023735-4.9859601.331079-7.3327444 1.617581-14.6872369.679054-21.9752768-.00885-2.53849-.239359-4.0572344-.186659-5.034692 2.199282-.0245674.060342-.0277893.130339-.1373354.664169zm256.9420694-29.745618c.013291 3.480554 3.085818 7.299025 5.856691 7.278508 3.201405-.023734 6.816831-3.716693 6.838579-6.984841.026581-4.134666-2.796649-7.068517-6.702854-6.965935-2.925527.076836-6.004901 3.505898-5.992416 6.672268zM96.1477161 364.501951c1.2122568-2.14618 1.6532606-4.342243.7152718-5.709604-1.0495486-1.531089-.6987593-2.680412-.4881247-4.08438.1981496-1.321903.4136172-2.647828.4845-3.979385.3954938-7.424135.7845437-14.848672 1.0990861-22.276025.1147817-2.708572.0185261-5.425995.0185261-8.132958-3.9895735-.189475-5.694788 1.370981-5.5751733 5.054285.0499402 1.537526.1248504 3.075857.2505063 4.60936.6431808 7.863831 1.3137481 15.725649 1.9605536 23.588675.2468815 2.998619.4293242 6.002869.7068142 8.998671.0483292.522566.423283 1.015765.8280399 1.931361zM288.447901 190.220838c-.149418 2.075378-.379384 4.107713-.427311 6.14407-.163514 6.955072-.312529 13.911352-.363274 20.868034-.02054 2.757248.258158 2.858222 2.82041 1.986072.436976-.148845.926712-.275162 1.375368-.232922 1.466388.136776 1.88363-.712846 1.945652-1.932166.126059-2.468409.313334-4.936818.339512-7.406434.052357-5.010034.033025-10.021677-.016512-15.032114-.004833-.492796-.292392-1.180701-.676608-1.43615-1.470818-.977951-3.035476-1.816309-4.997237-2.95839zm-70.925484-13.696534c-.420464-6.248261-.47121-10.965433-1.138555-15.5937-.48007-3.329295-1.612181-6.603075-2.784566-9.779502-.665332-1.802631-2.001231-3.388431-4.199806-3.650317-2.722946-.323838-5.323458-.040631-7.754819 1.437357-1.943235 1.181103-4.032667 2.118825-6.007719 3.250045-2.690324 1.540343-4.721358 3.700201-5.971473 6.578536-2.452706 5.649664-3.681072 11.603857-4.499446 17.665861-.302863 2.24474-.535649 4.166446 1.647622 6.053556 2.205421 1.906822 4.245718 3.577102 7.230448 3.813242.996789.078445 2.039088.188268 2.956134.548312 2.416862.948986 4.80231.623136 7.05606-.257059 2.966606-1.158576 5.756005-2.772535 8.727444-3.916629 3.659727-1.408795 4.955754-4.028865 4.738676-6.149702zm80.468885-81.1107348c-2.865517.312574-5.044358.5467028-7.222393.7892795-1.172788.1303397-1.468401.8472082-1.504648 1.9514754-.202177 6.2233199-.574312 12.4422149-.695135 18.6663389-.332666 17.076114-.594449 34.153836-.82079 51.231961-.041483 3.095971.21587 6.195965.34072 9.443596 1.922696-1.106278 3.372572-2.265658 5.025429-2.799488 1.63836-.529404 2.049158-1.412818 2.057212-2.920575.038664-6.763988-.001208-13.531195.22312-20.289954.333069-10.030929.850191-20.056227 1.317776-30.082329.395896-8.473691.83247-16.945371 1.278709-25.9903048zm-77.617866 13.4084988c-1.549353.070399-3.169186.021723-4.739885.274759-.64318.103387-1.717699.905942-1.682258 1.311443.28474 3.279814.78696 6.541123 1.250921 10.017252 1.464374-.503256 2.455525-.913585 3.483728-1.183517 2.842964-.74704 5.682303-1.931361 8.557083-2.037966 5.092285-.189073 8.940093 1.127197 9.944937 7.37224.388244 2.414906 1.082573 4.78033 1.62386 7.110354.246076.079652.391466.183441.491347.150454 2.350811-.782843 4.695582-1.584593 7.043977-2.374275 4.749953-1.597466 4.627519-1.595053 4.610201-6.712094-.016915-5.186636 1.927126-10.069951 7.990827-11.450586 1.797442-.409525 3.7439-.51613 5.575978-.323436 1.80872.190682 2.356853-.518945 2.336313-2.060896-.02497-1.942223-.086589-3.886055-.203788-5.82506-.105921-1.75677-1.252128-2.661505-3.081387-2.295025-1.904975.382169-1.081366 1.646947-.865898 2.832475.104713.576874-.494166 1.832802-.794612 1.839239-1.57674.034194-2.919083 2.170317-4.600938.582506-.259367-.244991-.187678-.872955-.210635-1.327132-.031414-.627562-.008055-1.258342-.008055-2.085838-1.698367 0-3.125286-.18666-4.486961.033389-5.027442.811003-10.057704 1.639304-15.039234 2.686447-4.656516.978352-9.613076.997662-13.491896 4.569936-2.031436 1.871019-2.664951 1.519423-3.703625-1.104669zm-43.422155.007643c1.032231 2.564555-.893284 3.115281-2.354839 3.979787-2.234822 1.322707-2.719725 1.082544-2.808731-1.498102-.043899-1.271617-.399924-2.002566-1.88363-1.929752-4.749147.233726-9.501516.406708-14.254288.557564-5.412062.172177-10.82493.326252-16.238603.417168-1.314554.022125-1.569087.558771-1.472429 1.740276.058398.71003-.012082 1.791769-.459127 2.123653-3.091054 2.297036-5.254187 1.346039-5.767685-2.408469-.018123-.132754-.04108-.267116-.035844-.39987.051954-1.312649-.60492-1.803435-1.867923-1.667061-.530412.057124-1.07331.04747-1.60775.018505-1.443029-.07764-2.109569.370101-1.755558 1.992508.569882 2.612427.971417 5.261461 1.448668 7.894404.538064 2.970057.540078 2.971263 3.565082 2.556107 5.106783-.700777 10.132212-.886229 14.872096 1.738266 3.16395 1.75154 5.347221 4.121792 5.83011 7.841704.422477 3.248839.838108 3.47814 3.905803 3.067409 2.702003-.362055 5.422936-.604631 8.143063-.790486 1.168761-.080055 1.739045-.398663 2.026604-1.664648.841733-3.70905 1.909808-7.366206 2.838936-11.056349.412812-1.639706 1.360869-2.634954 2.955329-3.239586 3.675434-1.393911 7.297303-2.391171 10.939712.061147.320986.216429.769642.233727 1.135333.397054 1.168761.520956 1.813955.100168 1.969011-1.105877.246882-1.916879.614989-3.838183.629488-5.759487.018929-2.437031-.901339-3.551355-3.333908-3.639858-2.063253-.074824-4.149865.475097-6.41892.773993zM22.7900665 203.214582c1.8324813-.229301 3.7241658-.662962 5.6122256-.647273 1.9384028.016493 2.3967245-.846806 2.4027656-2.540016.0100686-2.743571.1627083-5.486337.2505063-8.229505.18647-5.821439.4861109-11.642074.5271907-17.464317.0680636-9.642324-.1764015-19.288269-.0257755-28.928179.2170785-13.861872.689899-27.719318 1.0088715-41.579983.0845761-3.684511-.026581-7.3726425.0177207-11.0587627.0161098-1.3468438-.5066508-2.0146338-1.8659089-1.9888877-1.4035599.0265507-2.8236322.1979233-4.2054439.0374123-1.3258304-.1536721-1.6939377.4127425-1.7317955 1.5298827-.0205399.6022178-.0499402 1.2044357-.0515512 1.8066535-.0181234 7.5685549.1143791 15.1407299-.0930336 22.7040549-.164722 6.023787-.9758467 12.031483-1.0938504 18.054466-.3568304 18.219402-.526788 36.442827-.7442693 54.664643-.0531621 4.466147-.0076521 8.932697-.0076521 13.639811zm195.6864485 11.353234c.044705-.173384.089409-.34717.134114-.520956 1.094253-.574058 2.143399-1.513389 3.29162-1.655798 3.881235-.480728 7.797509-.687501 11.701701-.979559 1.042702-.078445 1.795429-.315792 1.802276-1.619189.022956-4.416667.155056-8.833333.166333-13.249999.006847-3.00948-.39348-3.200967-3.323034-2.669953-7.105194 1.28811-14.028349 3.60687-21.344983 3.744853-.609351.011264-1.44907.675836-1.76321 1.261158-1.44907 2.696101-3.516753 4.654818-6.228423 6.061602-3.848613 1.996531-7.480954 1.420864-10.34929-1.776885-.374551-.417168-.811528-.778015-1.307707-1.248284-.37294.52337-.539676.92163-.837706 1.147713-1.349995 1.023409-2.632329 2.610013-4.131339 2.865865-3.326658.567219-6.12371-1.475172-6.940875-4.75217-.453086-1.817113-1.270655-2.037162-2.673409-1.317075-3.92876 2.016645-7.863157 4.027256-11.711771 6.187919-.672178.376939-1.327844 1.470747-1.332274 2.236694-.028192 5.149626.041885 10.303275.252922 15.448476.081355 1.980842 1.080963 2.48973 2.880419 1.589421 2.093862-1.047546 4.127715-2.237097 6.090685-3.513943 1.261391-.820256 3.152673-1.072487 3.279537-3.153498.011277-.188671.633113-.416765.999206-.49159.87798-.180625 1.769251-.342745 2.66173-.392628.577936-.032585 1.168357.145626 1.753543.228899-.329444.561587-.541287 1.468736-1.008066 1.627235-2.264625.769166-2.922304 2.299853-2.646022 4.515628.089409.71526-.081354 1.467931-.163111 2.199684-.685066 6.118726-1.477665 12.227396-2.041908 18.357386-.686274 7.462754-.99397 14.964127-1.811539 22.411192-.869119 7.919748-2.149843 15.794842-3.228791 23.692464-.089007.653308-.012083 1.329546-.012083 1.994922.171166.019712.341929.039826.512692.05994.690302-2.008197 1.314554-4.041738 2.102319-6.010512.313335-.782843.988735-1.421266 1.498608-2.125262.425699.695548.844552 1.395923 1.28475 2.08262.055176.086089.220704.101375.405965.179016.488931-.697961.871537-1.541147 1.511898-2.074976.661304-.551128 1.577545-1.084555 2.374976-1.073694.461544.006437 1.082171 1.039097 1.322609 1.718554.375759 1.061222.464363 2.220602.72534 3.326076.120421.510498.360053.992835.757963 2.052449.842941-1.53471 1.347578-2.531568 1.923098-3.486186 1.276293-2.117216 2.544129-4.24288 3.919094-6.296535.318973-.476303 1.195342-1.052373 1.563852-.913585.557799.209187 1.097475.944963 1.281126 1.564479.32018 1.08013.279503 2.261636.540078 3.365501.503026 2.134916 1.110766 4.245696 1.807511 6.866168.766823-1.376613 1.115196-2.187616 1.632721-2.869888.403146-.531416.97786-1.163 1.551367-1.249089.347567-.052297.950876.78928 1.241657 1.334775.530412.994444.913421 2.066931 1.581975 3.631008 1.072505-3.410556 1.997203-6.187919 2.807925-8.997867.435768-1.509768 1.330663-1.506952 2.176021-.628768 1.008066 1.046338 1.787777 2.32238 2.600915 3.542103.793404 1.189149 1.505051 2.43341 2.501035 4.059841.650028-1.140875.956112-1.875444 1.432558-2.474443 1.149026-1.444599 2.273887-2.942701 3.640395-4.16001.398716-.355216 1.862687-.133156 2.345173.33309 1.592447 1.540745 2.95976 3.314009 4.73787 5.3741.708426-1.169034 1.349593-2.265658 2.030229-3.337743.371329-.584919.819179-1.12076 1.212659-1.692002.365691-.531014 1.010483-1.081337 1.007664-1.619995-.022554-3.944385.043899-7.908483-.333472-11.826721-.993567-10.322987-2.317786-20.614596-3.277121-30.940801-.631904-6.796171-.714869-13.64303-1.354828-20.438396-.194927-2.073367.5872-5.139971-3.225167-5.502831zM80.0460453 99.6375419c.2223142-1.6791297.3262219-3.067811.6234463-4.413448.1180038-.5334274.8884514-1.4301165.9839015-1.3842562 1.2118542.5881379 2.4966048 1.1625982 3.4752706 2.0548621.9899427.9023211.8066945 2.0902631.1055187 3.2967101-.5803528.9984671-1.0382718 2.1666971-1.1703716 3.3039511-.2283553 1.969981-.1147817 3.977373-.2561446 5.961434-.0326222.460614-.4305324 1.183114-.7998479 1.286099-2.7358341.763131-4.7306209-1.184322-4.1083828-3.917433.0447045-.195912.0845761-.393835.1401546-.586529.3870362-1.334373-.1675411-1.963946-1.4845112-2.264854-5.3572892-1.224147-10.699677-2.515476-16.0497169-3.7722087-2.0858068-.4899808-4.1599339-1.0576023-6.2707108-1.4007498-2.2460985-.3652731-2.4466645-.0840772-2.2098516 2.1723288.2774901 2.6482297.2774901 2.6478277-2.318995 2.3264037-.2662132-.032988-.5328292-.066779-.8002506-.088503-2.9746609-.240163-3.2155013-.77882-1.9823018-3.4676802.3342769-.7293392.3536085-2.0741717-.1014912-2.5834621-.679025-.758706-1.9085998-1.025822-3.0846098-1.588616-.4027431 2.1823859-.6806359 4.0256471-1.0946558 5.8375303-.4325461 1.893144-1.0104826 3.752899-1.4994127 5.633975-.3874389 1.490057.0801459 2.273302 1.757571 2.310312 3.9323841.087698 7.3122045 1.563674 10.6384601 3.696579 4.6653766 2.99178 5.8784389 9.012349 4.2312195 13.683661-1.8812132 5.335883-1.6995761 5.623918 4.0999252 5.603401 1.0817681-.00362 1.4124202-.378548 1.4969962-1.349257.1969414-2.268475.4530861-4.53172.6846634-6.797378.2541309-2.488524 1.6154027-3.800369 4.0741496-4.180526 4.6919576-.725317 8.8663903.298091 12.6215673 3.255677 1.8538267 1.459483 2.6484389 1.211274 3.7716896-.852036 2.154273-3.956454 2.8389364-8.33772 3.5610548-12.695653.4643629-2.801902.3934801-2.76811-2.2662356-3.676465-.4913467-.167752-1.1135848-.832324-1.1240561-1.280467-.0108741-.464637.6101558-1.307018 1.0209538-1.34966 1.205813-.125512 2.453914-.00885 3.66899.143615 5.1849153.652101 10.3533185 1.447012 15.5474965 2.008197 5.98879.647274 11.995704 1.128807 17.999396 1.626833 1.745489.14442 3.55743-.144822 5.246938.206372 1.766029.367284 2.129303.277977 2.08782-1.584191-.037857-1.71091-.008054-3.42343-.008054-5.0651471 1.215076-.2453927 2.191325-.4127424 3.15227-.6432507 2.260195-.541473 2.70724-.1367762 2.703212 2.2318668-.002819 1.972394.138544 3.944788.216273 5.933676 2.781344-.244588 5.160348-.55153 7.547004-.628769 1.515522-.04948 3.05682.44573 4.561871.341136 3.907817-.271541 7.800732-.755085 11.703313-1.10829.426908-.038216.873953.287633 1.323012.332689 1.076129.108616 2.286372.493199 3.212279.148442 1.990357-.740201 3.824046-1.097831 5.961404.606643-.127267-2.243935-.22755-4.019613-.328638-5.794888-.155459-2.7238592-.146196-2.6719647 2.536073-3.1880939 1.701993-.3274585 2.006869.2932644 2.026604 1.9152699.025372 2.142158.521955 4.278281.805889 6.344809 3.173213-1.319086 5.923949-2.176754 8.92801-.51452.953293.527393 2.182465.807785 3.277523.787671 6.366967-.115858 12.731114-.362458 19.096066-.546301 1.406782-.040631 2.815175-.005632 4.733038-.005632.642375-.251025 1.856646-.967893 3.149451-1.162598 1.352009-.203555 2.780136.095341 4.544151.195509-.135724-1.528273-.072091-2.941494-.418047-4.245696-.632307-2.3799064-.293197-4.1769051 2.264624-5.0233088.588005-.194705 1.297236-.3998694 1.829662-.2268877.255742.0832726.278296 1.0302471.322598 1.5926389.13371 1.7097032.163111 3.4290616.352803 5.1319256.182442 1.636488 1.116001 2.128882 2.695962 1.5681 1.421684-.504866 2.860685-1.027431 4.336738-1.296157 3.113608-.566414 6.262656-.933296 9.385124-1.453851 3.612203-.602218 7.200242-1.3560961 10.820903-1.8915349 1.476859-.2184397 3.013727-.0362055 4.574356-.0362055.02497-.333895.09102-.6006087.055982-.8536448-.119615-.862495-.24366-1.7265991-.422478-2.5778302-.447045-2.1208365.185262-3.6346279 1.641984-3.8510562 2.72496-.4046968 3.215501-.0072411 3.534876 2.8147749.097464.8641042.174791 1.7422882.403146 2.5754165.099075.3620548.581159.910769.847372.8874366 1.652858-.1432128 3.381028-.1737863 4.923535-.7064092 5.314598-1.8340087 10.573618-3.8321489 15.834652-5.8194275 4.52643-1.7097032 4.566704-1.8673982 3.861501-6.7446787-.060814-.4199836.412409-.9168032.63714-1.3782219.457113.2811959 1.147818.4626255 1.320192.8653109.306487.7164663.391869 1.5660882.401132 2.3622065.014096 1.2543187.617002 1.5717201 1.774083 1.5391352 1.539285-.0438489 3.08904.0172982 4.624297.1508561 1.097475.0957434 2.234016.1757978 2.067281-1.2985698-.159084-1.4063818 1.433363-3.5396892-1.34476-4.0586344-3.225167-.6030224-6.446306-1.2993745-9.702082-1.6465448-3.458758-.3688936-6.959401-.3290676-10.43588-.5531393-4.545762-.2932644-9.083066-.9172055-13.628023-.9566292-7.977939-.069595-15.958697.2107963-23.938649.3202174-16.234576.2220602-32.469152.474694-48.704131.6207228-7.712934.0691927-15.427882-.1681543-23.140413-.106605-15.961919.1267192-31.92263.368089-47.884146.547105-6.910669.0776406-13.822547.096548-20.7332168.1814297-10.0544825.1235009-20.1081596.2976895-30.1622394.4195813-4.2211508.0510899-8.4427044.018505-12.6638553.0358032-2.3455761.0096548-4.6907494.0337918-7.0359227.0691927-4.2219564.063963-8.4443155.1086164-12.6634526.2566566-.5086646.0177005-1.2593778.5185429-1.4498753.9799617-.9178517 2.226637.0741047 4.2296046 2.2545561 5.1572695 4.2896172 1.8251585 8.9831858 2.7733398 12.7951496 5.8451737.8300536-2.0339435 1.6524551-4.0477727 2.4700237-6.0511427 3.50749 1.3649467 3.50749 1.3649467 2.9750636 6.0350513 8.2155573 1.7986078 16.4899152 3.6100887 24.9660474 5.4654184zM2.87039065 29.3264991c.35924688.6573307.63029302 1.3476485 1.06485287 1.912454 1.34475935 1.7475178 2.84860224 3.3791781 4.11482668 5.1793951 2.8469913 4.0465658 5.6218915 8.1454285 8.322687 12.2901514.2855449.4384886.0306085 1.3866699-.2247306 1.9925083-1.4043654 3.329295-3.0914564 6.5531919-4.2984776 9.949266-2.32664713 6.544744-2.02056234 7.1143769 4.4056072 9.852718 1.4216833.6058384 1.5698928 1.399543 1.1800374 2.6719645-.5102755 1.6646475-.998803 3.3409612-1.3854364 5.0373891-.333874 1.4655174.2529227 2.3264033 1.8695337 2.3428969 3.2924252.0333895 6.5848504.1564881 9.8764701.1351671 7.6396346-.0494808 15.2788666-.1412014 22.917293-.2562543 5.5610773-.0840772 11.1213491-.3250448 16.6824264-.3314813 8.3166459-.0088503 16.6369165.3149877 24.9491322.1540744 10.9227964-.2111986 21.8363304-.9453653 32.7587244-1.1135197 17.904349-.2759662 35.813128-.2486109 53.719491-.4030876 15.425868-.1331557 30.851333-.3536069 46.277604-.5108996 10.260687-.1049959 20.522179-.1673498 30.783269-.2490132 4.087843-.032585 8.180116-.2067736 12.26071-.0571242 3.878416.1428105 7.754416.5370479 11.613501.9779502 5.445893.6219297 10.912325 1.1835169 16.301834 2.1514101 5.435421.9759388 10.47696.3882032 15.325182-2.2556014 1.414031-.7707745 1.465985-1.7169443.929128-2.9970092-.410395-.9783526-.985512-1.9667622-1.074115-2.9861476-.319779-3.6643969-1.267433-7.1091472-3.048363-10.3282167-.633515-1.1448977-.260172-1.8746393.930336-2.3424945 2.986341-1.1734599 5.949725-2.4056531 8.938884-3.5730787 1.073311-.419179 1.826843-1.1465068.767226-2.0114155-2.501035-2.0427937-1.87638-3.9431791-.636737-6.4634828.963764-1.957912.838109-4.4363782 1.285556-6.6662335.774475-3.8611134.671776-4.1439184-3.937619-5.5764486-.815958-.2534383-1.724144-.2079803-2.589236-.3053329-2.064059-.2321173-4.128117-.4638324-6.19137-.701984-1.170372-.1347648-1.38302-.726121-1.046327-1.8239516.627876-2.0440005 1.21709-4.109322 1.645206-6.2019988.775683-3.786691 1.324622-7.6216559 2.16555-11.3926578.362066-1.6228101-.148613-1.9442343-1.610168-2.0846311-10.007764-.9618589-19.988142-2.3280124-30.01564-2.9406896-21.283365-1.3005813-42.583241-2.3939868-63.889562-3.23435622-13.402083-.52860002-26.833164-.75186714-40.242094-.5406685-11.271975.17780913-22.510523.3857895-33.778068-.35682513-16.388424-1.08013016-32.792152-2.09830873-49.2059485-2.563348-13.200712-.3741233-26.3140287-2.16669686-39.5767631-1.6799343-13.2643454.48716486-26.5584938.15809727-39.8397544.1858548-1.760793.00362055-3.52158603.0004023-5.6057818.0004023.53323193 1.0527749.7954177 1.90722423 1.3189838 2.54806124 3.4285524 4.1966174 6.8949626 8.3634659 10.3948005 12.5009478.8175686.9666863 1.82201 1.7736662 2.7221409 2.6723667.5702843.5696329 1.1067381 1.1730576 1.6584963 1.7611955-.6979539.4690621-1.3367045 1.0921986-2.1023192 1.3818425-5.5063043 2.0818151-11.0383841 4.0964489-16.88097885 6.2498704zM196.917272 291.544288c-.998803 3.112867-3.662949 5.220026-3.77773 8.799541-.496986 15.53376-1.29925 35.080294-1.88363 50.611239-.132905 3.53285.198149 7.080987.238424 10.622687.018526 1.574939-.153445 3.152291-.245271 4.833432.431338.056722.748297.14442 1.062034.132754 2.598096-.09333 3.130522.549518 2.04956 3.010284-.563035 1.28087-.477251 2.011818.635931 2.850176 2.169577 1.634074 1.95411 4.136275 1.968206 6.446185.002819.456189-1.003636 1.283283-1.582781 1.319086-3.88043.239358-7.772137.403088-11.658608.382169-1.154262-.006437-3.017352-.388203-3.315382-1.109497-.741047-1.792171-2.206227-3.914617-.589616-5.845576 1.627888-1.943832 1.27871-3.440325-.271046-5.072388-.35683-.375732-.715272-.886632-.781321-1.375003-.15264-1.12237.191705-2.030726 1.550561-1.294145 1.936389 1.049154 2.254556-.046665 2.211462-1.567697-.124045-4.352301-.200566-8.709832-.482889-13.053283-.561021-8.618916-1.245282-21.252215-1.882421-29.866303-.578339-7.815959-1.151443-15.632722-1.748308-23.447071-.196539-2.576624-.460738-5.148017-.703995-7.833659-1.479679.761119-2.668174 1.372992-4.282771 2.203707-1.028203 2.231866-2.254959 5.049055-3.639992 7.786994-.320181.633193-1.180843.994444-1.792207 1.480804-.210635-.749051-.692316-1.537124-.590825-2.241522 1.63554-11.332717 3.563875-22.628023 4.963407-33.9889.981082-7.96239 1.190911-16.0165 1.885241-24.017911.439392-5.065951 1.157483-10.107363 1.699978-15.165269.117199-1.09421.017318-2.21135.017318-3.808012-1.69434.93732-3.063667 1.675509-4.413662 2.447893-1.74428.99726-3.408818 2.16026-5.225189 2.999825-2.340743 1.081739-3.584817.413547-4.062873-2.083022-.300044-1.568904-.321389-3.19091-.483695-4.786767-.071285-.700375-.182442-1.395922-.326222-2.472834-1.885643 1.130818-3.498226 2.021473-5.03147 3.032008-3.290008 2.169513-6.571559 4.354312-9.791088 6.626005-1.753947 1.237021-3.162742.993237-4.629935-.455384-1.953305-1.928546-4.177655-3.610089-5.960599-5.677824-2.31537-2.68524-4.774922-2.39278-7.700449-.96025.222717 2.325599.577937 4.695851.652444 7.074551.200164 6.419634.426505 12.844095.374551 19.264131-.080951 10.040987-.503831 20.077951-.816763 30.110489-.287961 9.23642-1.254947 18.358592-3.050376 27.306978-.927518 4.623037-.992762 9.343025-2.260598 13.858653-.204593.728937-1.240046 1.520228-2.039088 1.735852-3.304508.892666-3.305716.817037-3.600121 4.157194-.906172 10.275919-1.861076 20.547414-2.718114 30.827357-.180428 2.16026-.026581 5.957008-.026581 8.126521 3.65127.04224 4.265856.895885 3.661741 4.162826-.130489.705604.238827 1.582179.581158 2.280945.874759 1.783723 2.113596 3.828528 2.747111 5.683858.896507 2.627713-.676205 4.52649-3.423719 4.741711-2.601721.202751-5.207066.049883-7.78583.439696-3.454731.522565-4.481726-1.879869-3.966618-5.256634.327028-2.140548 1.036258-2.614035 1.562644-4.725217.11156-.447741.222314-.904735.252117-1.362533.105116-1.626028-.57552-3.254068 1.075324-4.765044.710439-.650089.347567-2.559727.332666-3.895709-.051551-4.752975-.052357-11.119106-.285142-15.864437-.222717-4.546202-.752727-9.076714-1.064853-13.6201-.183248-2.67116-.113171-5.360824-.335888-8.027157-.118809-1.421668-.617002-2.811959-1.304082-4.341842-.523566 2.835292-1.959748 2.689263-3.859085 1.797401-.756352-.355618-1.691118-.331079-2.738251-.513313-.136529.534232-.3455532 1.015363-.3725369 1.505746-.4256995 7.760041-.9665836 15.518473-1.1796347 23.284951-.1119626 4.069094.4112007 8.15267.5445087 12.233027.0499402 1.529883-.1482095 3.074248-.3133341 4.603728-.122434 1.134841.3310548 1.595857 1.439001 1.641718.79864.032585 1.623861.100973 2.381018.334699 1.751127.539864 1.944846 1.253514.718493 2.626507-1.03666 1.160586-.478056 2.120434.076924 3.270964 1.450278 3.006261 1.957332 6.132403.213857 9.203835-.33186.584115-1.192925 1.170242-1.849397 1.217711-3.2722876.238152-6.5570606.314988-9.8390145.411938-1.8695337.055113-2.7716783-.738994-2.7354314-2.619265.0241646-1.253112.0128878-2.749203.660096-3.699798 1.5952656-2.342897 1.5723092-4.720793 1.012899-7.274888-.0583978-.266714.101894-.796521.2911833-.870138 3.1470349-1.226562 1.7877768-3.730372 1.6371509-5.831094-.1264614-1.764012-.5702843-3.505495-.694732-5.269909-.584783-8.280596-1.1401658-16.564007-1.6315124-24.850637-.1377382-2.320369-.0209427-4.656025-.0209427-7.355747-1.6721895.518141-2.847394.92847-4.0475686 1.243055-1.7736808.464637-2.4655935-.064768-1.8804077-1.755564 1.6242631-4.693839 1.4986072-9.51842 1.2291721-14.326106-.1498205-2.666332-.8731471-5.300482-1.3383155-7.949114-.1675411-.023333-.335485-.046263-.5034289-.069193-.2742681.558369-.619419 1.093003-.8111247 1.677923-1.190106 3.628191-2.3218142 7.275692-3.5284327 10.898252-.3145424.944158-.8284426 1.822342-1.2505174 2.7311-.2799065-.046263-.559813-.092525-.8397195-.138385-.0632306-.839565-.2718516-1.697233-.1687493-2.515477 1.4192668-11.233353 2.9424413-22.453834 4.3153927-33.69282 1.2255474-10.035354 2.5711122-20.068697 3.3419626-30.142671.53001-6.925706.263394-13.92141.1643192-20.883724-.04551-3.19815-.6125723-3.456416-3.7016122-2.277324-4.6323516 1.768436-9.2264426 3.637444-13.8567806 5.410305-.556591.213613-1.4982044.357228-1.7958316.063561-.3374988-.33309-.2372157-1.204838-.1768043-1.82717.4192556-4.30282.8775773-8.601215 1.3636883-13.288216-2.4357905 0-4.2823678-.035401-6.1273341.007241-4.0882457.094135-8.1813242.424007-12.2611123.294874-5.2143154-.164534-10.4189651-.658135-15.6232119-1.073291-1.3113317-.104192-1.4188641.590149-1.4361821 1.578156-.0386633 2.208535-.1341134 4.416264-.1977469 6.624396-.0402743 1.396727-.4184501 2.119228-2.1466209 2.103539-2.2428766-.020114-4.507904.401478-6.7306434.810198-1.6709813.307344-2.438207-.152465-2.3588666-1.890731.057995-1.270008.1260586-2.54605.0656471-3.814046-.1059214-2.24474-.2331882-4.3169-1.878394-6.333948-1.0910311-1.338396-.8731471-3.750083-1.2126596-5.686271-.1228366-.699973.1091434-1.697635-.2851421-2.072965-1.8477856-1.758782-1.6242631-3.794335-.410798-5.461798.7168828-.985594 2.4341795-1.244664 3.7016122-1.830791.2501035.182235.500207.364067.7503105.545899 0-1.979636-.0144988-3.959673.0024164-5.939711.0982694-11.527825.0962556-23.058063.3366933-34.583474.2529227-12.1224.7825299-24.239167 1.1119738-36.36036.294808-10.839921.4478504-21.683462.7539352-32.5225781.0426907-1.5238485.5062481-3.0609723.9464464-4.5413741.4454339-1.4972978-.385828-3.0637882-1.953707-3.194128-2.1369551-.1770045-4.2795487-.3057351-6.4225449-.3797552-2.0845985-.072411-2.4494838-.5567598-1.8759776-2.6011626.5247743-1.8702142 1.1615113-3.7331873 1.4144339-5.6432276.1018941-.7727858-.4615436-1.9699804-1.1103628-2.4390425-1.671384-1.209263-3.6085785-2.0468165-5.3295-3.1969439-.48611097-.3250448-.98510972-1.3613261-.8131384-1.8247562 1.76884788-4.7622275 3.5840112-9.5123865 5.5888666-14.179273.7390337-1.7205648.8787855-3.2174603-.1518342-4.7356768-2.6665623-3.9262832-5.34037404-7.8493481-8.0854713-11.7213231-1.39349127-1.965153-2.9778828-3.7947366-4.41970324-5.7273047-1.58761347-2.1280777-1.37617332-2.8364982 1.2191035-2.8698877 6.0894763-.078043 11.04080044-3.3920513 16.80445764-5.3310559-.4849028-.7470397-.7841409-1.3102361-1.1768155-1.7982055C13.7351924 15.0217139 9.60224227 9.9203617 5.47855524 4.81176842c-.29440524-.3644685-.6411671-.72491417-.80629177-1.148116C4.27354777 2.6390373 3.96826845 1.578619 3.6251313.53228064c.87073067.0362055 1.74146134.10580046 2.61219202.10338676C10.9985527.62279436 15.7597822.5886003 20.5210116.56848614 34.8071163.50854594 49.0944293.3001633 63.3781176.46268567c6.4249613.07321553 12.8354239 1.02300596 19.2644127 1.33517766 8.238111.39986942 16.4967618.40871964 24.7316507.85444933 13.594192.7361781 27.167039 1.93739548 40.767675 2.46237495 9.374249.3620548 18.779912-.17177482 28.17148-.149247 9.861568.0237347 19.727567.09695026 29.5839.3902146 19.78234.5885402 39.582804.9646749 59.331314 2.16468548 12.35616.75106258 24.809381.91599866 37.041898 3.36107543 2.667771.5334274 5.471266.4240064 8.215557.525784 1.446654.0535036 2.099098.6573306 1.496594 2.0114156-1.8792 4.2271909-2.766846 8.6366161-2.921902 13.2508035-.055981 1.6529813-.546925 3.3011352-.931545 4.9299795-.321389 1.3617284.089812 1.9422229 1.520356 2.125664 3.30934.424811 6.591697 1.0576023 9.899829 1.4880453 1.850605.2409675 2.384239 1.276042 2.147829 2.9173571-.478056 3.3140083-.904964 6.6388783-1.521563 9.927945-.521955 2.785006-.749908 5.3282399 2.213879 7.0061627.372537.2107964.606531 1.0584069.524774 1.5471809-.06162.3684913-.685872.750258-1.138152.9288717-3.164353 1.2498936-6.346024 2.4551338-9.527292 3.6611786-1.314554.4980265-1.641178 1.278858-1.158692 2.659896 1.561435 4.4721814 3.002853 8.9857979 4.502266 13.4793003.380189 1.1388635.154653 1.9261315-1.066867 2.3807115-2.573931.9570315-5.252979 1.7426904-7.64044 3.0509151-1.688702.9256535-3.13898 1.7801028-5.167597 1.4260937-.394286-.0687905-1.378993 1.1537479-1.477665 1.8653868-.2936 2.1131932-.360052 4.2678215-.374954 6.4075654-.097061 13.6683732-.995581 27.2937022-1.780124 40.9355252-.729771 12.693641-.351595 25.449637-.519539 38.17707-.025373 1.880271-.053968 3.213437 2.292011 4.05622 1.401546.503659 2.584806 2.533982 3.201003 4.133057 2.189311 5.679433.467584 8.631387-4.350432 12.108722-1.921085 1.385865-2.705628 2.874313-2.695157 4.939232.026178 5.020896.167944 10.041389.297627 15.061078.064439 2.477661.214662 4.952507.308099 7.428962.077326 2.051644-.423686 2.152215-2.447068 2.304278-2.361283.177406-5.145043-.709628-6.934834 1.8855-.208621.30292-1.131708.494809-1.383422.299701-.387842-.300103-.679831-.983984-.66936-1.4977.240841-11.389037.544912-22.776465.795418-34.165502.055981-2.539211-.036649-5.082445-.075313-7.623668-.146598-9.69985-.576325-19.405735-.385828-29.099149.301655-15.336239 1.018538-30.664432 1.557811-45.995844.131697-3.744451.265407-7.4889026.378176-11.2337561.01772-.5764717-.072494-1.156564-.131295-2.0069905-2.529629.9369174-4.825265 1.7728617-7.11043 2.6377704-3.322631 1.2579393-6.667413 2.4663978-9.930438 3.8651362-.65929.282805-1.389866 1.3037995-1.414836 2.009002-.134516 3.748072-.102297 7.504591-.026179 11.256686.029803 1.447817-.051551 2.315944-1.923501 2.502201-2.660924.265104-5.277143 1.003294-7.903028 1.580973-3.036281.668192-4.332308 2.989365-3.71007 6.015741.338707 1.646545.768031 3.661581.119212 5.013252-.627474 1.307018-2.467205 2.294623-3.984741 2.86144-3.631132 1.357303-7.388726 2.375884-11.087519 3.555781-.436976.139592-.801861.507681-1.239643.638021-.825623.246197-1.902156.792497-2.461163.479119-.605726-.339125-.791391-1.500516-1.069686-2.333644-.519942-1.558043-.954904-3.144648-1.465582-4.705908-.205399-.626757-.581159-1.199609-.772865-1.829182-1.228769-4.032486-3.098705-4.876476-7.228433-3.524-1.428128.467856-3.03024.38579-4.541735.626757-1.612181.257059-3.255373.455385-4.804726.936918-2.23321.69434-3.348809.069997-3.57797-2.234683-.39791-3.994671-.869925-7.982504-1.213062-11.9816-.113574-1.324719-.556188-1.54879-1.88806-1.510171-6.29125.182636-12.587737.180625-18.883015.24137-2.58843.024941-2.413237.067583-2.620649 2.564152-.2642 3.182864-.870328 6.339982-1.3947 9.4971-.197747 1.189954-.869925 1.563272-2.188103 1.314661-1.714478-.323435-3.501449-.255449-5.255396-.383375-.711244-.051895-1.438598-.095744-2.121651-.279185-2.802689-.75066-5.326278 1.076107-5.739089 3.954443-.424894 2.959999-1.009275 5.908332-1.745892 8.805173-.182442.717271-1.146207 1.579766-1.888865 1.741483-1.678231.365676-3.449092.286426-5.172028.477108-3.101927.342745-6.220367.623137-9.287256 1.175874-2.164342.390214-3.801896-.606643-3.833712-2.859026-.038261-2.700125-1.722533-4.267017-3.505879-6.003673-2.631524-2.562142-5.993221-2.863452-9.214361-3.302745-2.098694-.286023-4.359292.367285-6.511148.784452-2.391489.46343-4.096703-.784854-4.429772-3.194128-.558202-4.036508-1.401546-8.036409-1.880005-12.080964-.254936-2.157042-1.381006-2.402032-3.210668-2.589899-8.65777-.887838-17.295805-1.965153-25.9467273-2.922586-.7156746-.078848-1.4857194.191889-2.2122681.374123-1.5751284.39464-1.7156858 1.681543-2.0306309 3.02356-1.0040386 4.279488-1.9561234 8.592767-3.3584751 12.748352-.8260261 2.447892-2.4740511 4.824581-5.3697743 5.140776-1.9420274.212405-3.9666172-.435271-5.9626122-.581702-1.7249489-.126719-3.756788-.652101-5.1015474.05109-1.1220424.586127-1.933167 2.666333-2.0274089 4.139896-.2424514 3.790311-1.4679988 4.784353-5.2211621 4.024842-2.4672045-.499233-5.0338866-.723707-7.5522394-.701179-3.2936335.029366-4.4269527-1.359315-3.5989128-4.512812.5727008-2.181582 1.0745187-4.48063 1.0060524-6.708876-.1083379-3.521988-2.8675312-6.388256-6.3190399-7.272072-.440601-.113041-.9065748-.325447-1.2376297-.626757-.8393167-.762728-1.5932518-1.143288-2.8635037-.783647-1.6782307.475096-3.5848167-.924044-3.466813-2.690067.1796235-2.689665.821596-5.351573 1.3161646-8.016296.4893329-2.6337475 1.1212369-5.244565 1.5090786-7.8919901.1059214-.7245119-.2142594-1.9752101-.7285624-2.2471535-2.3318828-1.2301818-4.8035174-2.1960635-7.6315798-3.4354978 0 3.9472019-.0410798 7.3388508.0072494 10.7284884.2247307 15.68703-.3008491 31.3459-1.118015 47.015632-.5187331 9.949668.075313 19.953243.0144988 29.931875-.0306085 5.086066-.4506696 10.168511-.6077394 15.254978-.0986721 3.211024-.0837706 6.428887-.0253728 9.64152.026581 1.479999.0060411 3.060167.5199414 4.398563.3729401.970307 1.4631658 1.99452 2.4571359 2.325197 1.7475025.581299 3.6577132.753074 5.5155673.905539 1.9972033.164131 4.0415274-.096146 6.0133579.187464 5.431394.780429 10.7290773-.270334 15.957086-1.297363 1.9053778-.374526 3.3983466-.228899 5.2022332.082066 2.3886695.411938 4.9239376.241772 7.3669775.012873 3.9343978-.368492 7.8522831-.944159 11.7625162-1.529883 1.2505175-.186659 2.4551222-.681468 3.7588018-.636814-7.3581172 3.744049-15.3360561 3.948409-23.3494364 4.110529v18.995406c1.0056496-.188268 1.7930124-.244186 2.5179501-.486763 4.63799-1.551203 9.2421496-3.207001 13.9043042-4.680564 1.2283666-.388605 2.6218579-.256254 3.6726147-.341538-.366899 1.150128-.8489825 1.930154-.8252207 2.694492.428116 13.820035.120823 27.56283-2.4369987 41.236836-1.4877332 7.953137-2.1289003 16.064371-3.1683803 24.10239-.412409 3.189703-.8747581 6.373774-1.3097207 9.560661-.2162731 1.584593-.4216721 3.170393-.631904 4.756193.1659302.052699.3322631.105398.4981933.158499.9013391-2.49335 1.7994563-4.987103 2.7048229-7.478845.2742681-.755085.5054427-1.536319.8824102-2.238303.1860674-.346366.6862744-.773993.9947756-.73819.3310549.038619.7535324.530612.8727444.907953.321389 1.018581.5231633 2.07739.7350062 3.127752.2859477 1.419657.0515511 2.890001 2.2948304 3.321249.9073803.174591 1.4313492 2.335253 2.3467843 3.981798.6782195-1.621603 1.2412544-3.130165 1.9303479-4.577982.9134215-1.919292 1.8876571-3.812034 2.9259289-5.665755.2122457-.379755.8739527-.797325 1.2344078-.725317.3729401.074021.776086.679054.911005 1.128807.3423316 1.137657.5416895 2.317955.802667 3.501874 2.2899971-.821864 2.2815401-.806175 3.0459461 1.352074.378579 1.068866.802667 2.131296 1.327039 3.133785.213454.407513.715272.814624 1.147818.897896.242854.046665.734603-.515324.905769-.896286.878786-1.955096 1.624263-3.972948 2.559836-5.89908.351594-.723305 1.091031-1.258744 1.653663-1.879869.576728.593368 1.399935 1.087774 1.684675 1.797803.917448 2.289393 1.629498 4.660852 2.436596 6.994899.223119.646067.501012 1.272824.753532 1.908431.192108-.010057.383814-.019309.575923-.029367.247284-.996455.536051-1.985267.732992-2.992181.385828-1.973199.667748-3.968523 1.112377-5.927642.109949-.483544.65486-1.17346 1.04391-1.203229.399521-.030976.96457.556358 1.254948 1.004099.379384.584919.559813 1.298972.826026 1.957509l.54612-.007241c.212648-1.173057.341123-2.370252.669359-3.50992.19533-.677445.7048-1.264778 1.07331-1.893144.34354.662962.841331 1.291329.999206 1.995726.330652 1.473966.482083 2.988562.738228 4.693035.444226-.316999.704801-.406306.721313-.5286.80307-5.899079 1.749516-11.784884 2.318592-17.707296.453892-4.724815.485708-9.492272.634321-14.243638.333874-10.6424.745075-21.28319-.411201-31.914326-.258561-2.377493.09102-4.815329-.034636-7.21535-.1321-2.528752-.470807-5.048653-.793807-7.562923-.046718-.364468-.501415-.682674-.78253-1.008926-.358038-.415558-1.118015-.998869-1.027397-1.191965.283531-.603424.796223-1.341212 1.378589-1.525055 5.228412-1.650165 10.484613-3.213437 15.746452-4.754584 1.737836-.508888 2.941636-1.375004 2.68388-3.37596-.367302-2.850176-.745075-5.701156-1.232797-8.53162-.198955-1.157369-1.06888-1.639706-2.269457-1.389888-3.991185.830312-7.990424 1.625626-11.965096 2.530763-.411604.093732-.83247.785256-.983902 1.280467-.946446 3.08712-2.781747 5.263874-5.909853 6.350441-.659693.228899-1.272265.910367-1.665745 1.535112-2.466802 3.916227-5.210691 7.545625-9.855125 9.022004-1.356036.430845-2.911833.693536-4.295658.489578-3.753164-.553944-6.6577472-2.410078-8.2377086-6.080509-1.0539788-2.447893-2.3210087-4.805674-3.5256134-7.18719-.9597369-1.896765-.2388267-3.29309 1.0942531-4.472181.9053666.783245 1.6319152 1.73384 2.5924576 2.170317 1.5719065.714052 2.9259293.002816 3.7414833-1.440978 1.797846-3.18206 3.007686-6.560031 3.254568-10.254197.093436-1.393508-.439796-2.049632-1.778917-2.417319-2.321814-.637619-4.5948962-1.454253-6.8893238-2.192041-.25252-.080859-.6693591-.273954-.7458803-.185854-1.3942968 1.600282-3.3447818.587333-4.9770998 1.078521-2.1216509.638423-3.1087743-.244991-3.1514651-2.451111-.0092631-.494406-.380995-1.012547-.6737893-1.462702-.2815174-.431247-.6504301-.817037-1.0290087-1.171851-.55498-.520554-1.1719825-.974732-1.7277681-1.495286-.7273541-.681468-1.9102107-1.337591-2.0096882-2.116814-.1377382-1.08013.2726571-2.488121.9609451-3.344179.7120499-.885425 2.0370748-1.278858 3.4615773-2.099516-.8973117-.139994-1.5030374-.237347-2.1095686-.328665-2.9098192-.439696-3.8119638-1.854928-3.0109077-4.627865.0998803-.345964-.0354414-.792498-.1534451-1.163403-.5952544-1.868605-.1639165-3.295101 1.8071084-4.100069-.8280399-3.010285-3.2255698-6.244239 1.2799177-8.435877-.672581-.750661-1.3383154-1.493677-2.0044526-2.236292l.3818005-.43527c.7281596.174188 1.4559165.348377 2.1844788.522565.1127681-.113846.2255362-.227692.338707-.341538-.4905411-.601011-1.0265923-1.171448-1.4619576-1.810274-.735409-1.08013-1.6000985-2.131698-2.0487544-3.3301-.4269077-1.138863.3177644-1.930154 1.516328-1.439771 1.4901496.610264 2.4897581.606643 3.1873092-1.07128.4784588-1.151736 1.9516933-1.98044.9742357-3.543712-.1135736-.181832-.0153043-.495613-.0153043-.958238.4913466.16574.8199851.295678 1.1594975.386594.5646459.152063 1.1361384.278782 1.7048117.415961-.0926309-.55314-.0253728-1.212884-.3093067-1.638097-.6963429-1.041913-1.5545885-1.97521-2.4088067-3.027985 2.1824651-1.629247 4.1905424.679858 5.5860474.413145 1.1800374-1.431726 2.0374775-2.39278 2.7902044-3.429464.2517145-.346768.1566671-.925653.3588442-1.329546.4478504-.893873.8876459-2.390768 1.5026346-2.481684 1.4482644-.214819 3.0632645-.725719 4.4676295.798934 1.513912 1.644533 3.413651 2.939483 5.179277 4.343853.276685.220049.733798.214015 1.466388.406708-.026178-3.256079-2.442235-4.983081-3.998031-7.126445.179623-.176602.358441-.353205.538064-.529807 1.156276.876575 2.271875 1.815504 3.48534 2.605186.692718.450959 1.789387 1.129611 2.27429.878586 1.038675-.538657 2.592055-1.185126 1.550159-3.038042-.245271-.436075.032622-1.165817.296418-1.877053.483695 1.703267.925504 2.987354 2.777317 1.305409.238424-.216429 1.329053.080858 1.65608.458602 1.378187 1.591835 2.616622 3.303951 4.008502 5.104168.222717-.45458.330653-.675031.461544-.942549 1.205008.791693 2.378601 1.62804 3.620661 2.34692.488527.282805 1.137347.276368 1.697562.452166.40516.127121.832068.273553 1.165942.522968 1.272668.950595 2.455927 2.030725 3.77773 2.90368 1.617014 1.067659 2.775303 2.301864 2.596485 4.395345-.039468.460614-.14539 1.095417.097062 1.37259 2.063655 2.359793 1.631512 5.415133 2.367726 8.136578.482889 1.785735.870731 3.558597-.90013 4.974231-.246882.197119-.347971.711236-.337096 1.072889.060411 1.993715.496985 4.038118.178817 5.961836-.288364 1.741886-1.202993 3.463255-2.170785 4.985092-.794612 1.250296-2.308121 2.002565-2.188104 3.855481.028192.440098-.773266.9337-1.149428 1.353281 1.720115.639228 2.622663.499233 3.296452-.905539.564646-1.177885.855427-2.486915 1.497802-3.671638.230369 2.246751-.138544 4.328164-1.762001 6.073268 1.727768 1.879064.342331 4.801651-1.950485 6.654165-2.09507 1.692405-1.944444 1.752747-6.216744-2.330024-.467182.302517-1.016121.564001-1.449069.953813-3.466411 3.122924-7.771735 4.704299-11.975568 6.432105-1.252128.51452-1.973844 1.141679-1.812344 2.463984.283531 2.319967.38905 4.717172 1.102308 6.90881.441809 1.357303 1.86752 2.395596 2.947677 3.692557-.685469 1.153346-1.813149 1.413623-2.800676.049481-1.035855-1.430921-2.105541-3.044881-2.445053-4.722804-.511484-2.529154-.424894-5.182211-.543703-7.784581-.053163-1.155357.528801-1.697634 1.711255-2.056873 4.503071-1.369372 8.810812-3.162348 12.448791-6.298547.849788-.73296 1.986329-1.134036 3.489769-1.961935.320181-1.77447.309709-4.324945 1.28314-6.418829 1.082573-2.329219.919059-4.708724 1.374562-7.046793.144987-.745833.144182-1.664246-.165527-2.329622-1.300861-2.797879-1.002831-5.598976-.326222-8.448348.11599-.488371.230771-1.075705.067258-1.513389-.525177-1.407186-1.181246-2.765696-1.856243-4.300808-1.329053.325044-2.393906.13919-3.775717-1.320696-1.450681-1.532699-4.149463-1.893546-6.312194-2.742766-.965778-.379353-1.954512-.700777-2.853435-1.02019-1.253336 1.160184-2.427735 2.556911-3.888082 3.521586-1.851008 1.222941-2.80712.711237-4.29002-.89508-.760379-.823473-2.074127-1.325925-3.220737-1.549192-1.060825-.206371-1.876783.43165-1.854229 1.780505.024164 1.418048.041482 2.91253-1.9875378 3.118901-.2440624.024539-.5086646.565208-.633515.913183-.4768479 1.329545-1.2799177 2.183995-2.7978566 2.101527-1.2553504-.068388-1.4539027.677445-1.3173728 1.683957.1083379.79652.2589638 1.588616.3379015 2.387952.2726571 2.770927-.9255038 4.672519-3.5115175 5.621907-1.7205187.631584-2.0934588 1.636488-1.600904 3.392453.489333 1.745909.7321871 3.561011 1.470818 5.405076.1071297-1.43615.2142593-2.872301.3358878-4.503961 1.6202356 2.980515.7273541 6.07005-2.6709925 8.795518 1.1232506.985996 2.3814202 1.808262 3.242485 2.933448.6939264.906746 1.2017855 2.164686 1.2577668 3.293492.0632307 1.272824.2537282 1.967969 1.4998155 2.652655 3.6073703 1.982853 7.2284336 3.744049 11.4060886 4.220754.608545.069595 1.521564 1.347649 1.538076 2.083827.09545 4.240064-1.055187 8.197323-3.21389 11.865743-1.757571 2.985745-2.44304 3.431072-6.4837621 3.808414.2062044 3.061374 1.7495162 5.535415 3.3886811 7.94308 2.236432 3.285044 6.389117 4.777514 9.908286 2.993389 2.426528-1.230182 4.391109-3.376363 6.53773-5.142788.296822-.244588.40959-.699168.677817-.991628 1.371743-1.495688 1.111168-2.642597-.342332-4.071105-3.76444-3.699798-2.040297-11.134794 2.954524-12.772489.933155-.306137 2.209046.205969 3.259803.546703 1.051562.341538 1.91464.851231 2.807925-.39303.277087-.386192 1.399129-.537451 1.916654-.307747 1.284348.571242 2.536074 1.362533 2.457136 3.084707-.026581.578483-.135321 1.153346-.234799 1.959119 3.090651-.712846 5.988791-1.378222 8.885319-2.051242.782933-.182637 1.554992-.413547 2.341146-.580495 3.107163-.660951 3.429358-.365273 2.876392 2.911323 1.596876.074423 3.181268.319413 4.734648.189878 6.459195-.53745 12.940943-.965479 19.345364-1.905213 2.614206-.383376 5.373399-1.547583 7.457998-3.147061 1.399129-1.073693 1.728976-3.537275 2.685894-5.717247-1.034647.135167-1.648025.215221-2.411626.314987.144584.705203.258964 1.262767.428921 2.093079-2.463982-.182636-1.885643-2.587082-3.242888-3.829332-.395493 2.124859-.756754 4.069898-1.11882 6.014937-.190498-.008046-.380995-.015689-.571895-.023735 0-.723305-.025776-1.447415.004027-2.169513.199761-4.810904.781725-9.640715.526788-14.427079-.327027-6.14407 1.610973-11.749885 3.081388-17.504545 1.865103-7.297416 5.134169-13.891641 9.534138-20.004735 2.364908-3.285044 5.738687-4.476204 9.354918-5.33347 1.489344-.353607 3.058834-.382571 4.595299-.526991 3.998837-.376134 7.172453 1.078119 9.708526 4.189779.464766.570438 1.503843.874161 2.30208.926458 1.189301.077238 2.398738-.214015 3.60294-.285621 2.482106-.14804 4.550595.597793 6.248158 2.55128 4.355264 5.01124 6.835356 10.842736 6.834551 17.409204-.001209 9.147113-.507859 18.294227-.798237 27.44134-.313737-.001609-.627474-.002816-.941211-.004023v-8.200139c-.193719-.020114-.387842-.040228-.581158-.060745-.130489.45096-.354817.897092-.376565 1.353281-.153848 3.276998-.208621 6.560433-.420867 9.833408-.089811 1.381843.318167 1.903202 1.681453 1.577352 2.538087-.607045 5.092687-1.153748 7.609832-1.838031 2.389072-.650492 3.008088-.308149 3.358877 2.156237.398313 2.794259.772462 2.866268 3.500644 2.550475 4.50589-.520956 9.071789-.544289 13.564791-1.138863 3.502658-.463833 6.96061-1.369774 10.385941-2.276923 3.164353-.83876 6.360119-1.70568 9.356126-2.991779 3.058028-1.31265 5.866356-3.197749 8.839809-4.721597.633918-.325045 1.511898-.173384 2.277512-.24137-.450669.758706-.721313 1.794183-1.385436 2.224626-2.187701 1.419255-4.399969 2.93546-6.818039 3.837781-4.883663 1.820733-9.918758 3.233954-14.873707 4.86843-5.710898 1.884696-11.66183 1.463104-17.522951 1.927741-2.308927.183441-4.605368.531013-6.97672.812209-.00886.017298-.120017.132351-.122031.249818-.102297 6.014133-.646805 5.500819 4.902995 4.293165 4.373388-.952204 8.791883-1.700048 13.164868-2.656275 1.583586-.346366 2.430152.190682 2.937609 1.598673.535648 1.485229 1.515522 1.614764 2.656091.735374 1.338315-1.031857 3.023392-1.807458 2.795842-4.047773-.040677-.39826 1.012497-1.128002 1.678231-1.342821 4.823655-1.55402 9.679529-3.010285 14.519696-4.514019.508262-.158097.978666-.592965 1.472832-.603022.714063-.014885 1.434168.240163 2.151453.380559-.420463.642044-.695537 1.574537-1.28918 1.870215-1.611778.802554-3.342768 1.382647-5.055232 1.96636-3.297258 1.123576-6.6215 2.168708-9.915939 3.30033-.525983.180625-1.251726.552737-1.382215.987605-.831261 2.761272-3.351225 3.542103-5.469654 4.709931-1.416045.780831-2.662938-.212808-3.508296-1.248687-.966181-1.183517-2.050768-1.323109-3.393111-1.080532-4.478101.8106-8.963048 1.582984-13.442358 2.385539-2.838131.508888-3.215098 1.054786-2.80873 3.947604.576728 4.097656.573909 4.064668-3.568707 4.419482-3.582401.306138-7.157149.69957-11.035968 1.084153.230772 1.414428.488528 2.493753.572298 3.587159.538468 7.07455 1.003233 14.155538 1.563046 21.22848.496583 6.269582 1.159095 12.525889 1.612181 18.798287.407576 5.637194 1.161914 11.193126 3.045141 16.547514.487722 1.38667 1.240046 2.698515 1.576337 4.114149.23198.977146-.043094 2.074574-.091423 3.117694-.762796-.339124-1.525994-.678249-2.122456-.943353-.725341 3.62618-1.511093 7.554474-2.296442 11.482769-.26581.028964-.531218.057929-.796626.086491-.336693-.744626-.673386-1.490057-1.120431-2.479271-1.333885.844392-1.952096 3.45883-4.534888 2.161065-.212648 1.289719-1.591641 5.310941-1.797845 6.395094-1.211854 6.375383-1.891282 9.778698-2.289595 16.202757-.790988 12.756398-.830054 29.58551-1.003233 42.373688-.03665 2.713399-.344346 5.892643.070883 8.604835.062425.404697 1.700381-.089306 2.013715 0 2.183271.62193 1.169164 2.799891.656069 4.033291-.44342 1.068464-.331055 1.65982.549744 2.381114 2.202602 1.803435 2.161523 4.357128 1.903767 6.842836-.051148.496417-1.053173 1.229779-1.663732 1.27926-3.809145.308149-7.629566.499233-11.449987.627562-1.354023.04586-3.15509.41596-3.690739-1.266388-.596865-1.874639-2.031033-3.960477-.344748-5.888218 1.563852-1.787746 1.2038-3.204587-.238826-4.72039-.318973-.334699-.680636-.74181-.758768-1.164609-.099478-.539864-.023762-1.165415.179623-1.673498.0588-.147638.87798-.158902 1.236421.008448 1.652456.771177 2.123262-.100571 2.080974-1.496493-.124447-4.081967-.248492-8.165543-.49779-12.241073-.663318-10.829462-3.316187-44.521879-5.682706-55.109971-.599685-2.683228-2.668979-5.866897-2.668979-5.866897z"/>
    <path fill="#FFF" d="M258.732183 93.927958c1.241254 1.7599887 1.917057 8.680465.544106 10.319367-.482487-3.70543-.907381-6.97036-1.332275-10.2356921l.788169-.0836749zm-37.209681 93.929567c1.515522 1.404773-.805084 3.913008 2.627496 4.548213-1.045118.717271-1.7032 1.168633-2.627496 1.803033v-6.351246z"/>
    <path fill="#000" d="M30.1815308 9.3090324c-2.450692-.87456348-5.066106-.49681963-6.0198017.9550201-1.0137045 1.5419512-1.3419402 3.2790097-.3697183 5.1025591 2.1506484-2.0387709 4.1784601-3.9612819 6.38952-6.0575792m1.3713404 1.5065503c-1.7793192 1.7422881-3.4309688 3.1720023-4.8196272 4.82257-.4752369.5652077-.2907805 1.6835548-.4079788 2.5492681.893687-.0205165 1.878394.1955095 2.6641459-.1062028 2.5046596-.9610543 3.7853828-4.258569 2.5634601-7.2656353m-3.770884 9.3261294c-3.7571908.218842-6.9819552-3.3469955-6.5208143-6.921281.3628716-2.8139703 1.6359427-4.9854946 4.1257008-6.47152843 3.0697082-1.83239958 8.1273566.65089408 8.6247444 4.17127363.3926745 2.7797763-.1768043 5.126696-2.1103741 7.1972472-1.1997718 1.2852945-2.4458591 2.2926115-4.1192568 2.0242886M296.428377 74.5240734c3.451106-.0651699 6.14143-3.2214832 5.05201-5.682249-1.754752 1.9740032-3.403583 3.8281261-5.05201 5.682249m-2.051171-.4143516c2.006064-2.2624403 3.904192-4.4037933 5.801918-6.544744-.114782-.2120032-.229161-.4244087-.343943-.6364119-1.145804.3318836-2.284359.6907201-3.438218.9908233-3.252957.8447945-4.095495 2.8912087-2.019757 6.1903326m1.214673 3.0931548c-2.813161.3962489-5.541745-4.9593462-4.010516-7.8646349 1.690716-3.2078055 5.58202-5.0579056 9.063735-4.1310453 3.009699.8017503 4.33714 3.8663431 2.866322 6.6167527-1.680244 3.140222-5.063286 5.4380632-7.919541 5.3789275M26.6494734 59.7586337c-.2134538-.1757977-.6117668-.7321553-.8642867-.6726174-1.4305437.3371133-2.9589539.5961836-4.1969863 1.3202932-1.2195063.7140526-1.056798 3.2206786-.0632307 4.2014449 1.6733978-1.5833864 3.3447818-3.1647613 5.1245037-4.8491207m.9665836 2.3304261c-2.2404601.421995-3.4692294 2.0263-4.4233279 3.8627225-.2637968.5080835-.2879614 1.7060827-.0986721 1.7821142.6786222.2719433 1.5767394.4352703 2.2448903.2083826 1.5811695-.5370479 2.8699476-3.9713389 2.2771097-5.8532193m-2.8542407-4.6974599c4.112813.2063712 6.1084053 3.2540681 4.7278018 7.219775-1.3427457 3.8570905-2.9223043 5.5398408-5.6380013 5.2477833-1.3093179-.1407991-2.7773167-.996053-3.7136945-1.9691759-2.0850012-2.16549-1.5058566-4.8877398-.6890935-7.3855157.7080224-2.16549 2.8328953-3.2375745 5.3129875-3.1128667M297.861579 23.7812077c1.319386-1.3178795 2.2904-2.2873818 3.454327-3.4495777-2.832089-.4215927-3.744303.434868-3.454327 3.4495777m1.01169 1.9048105c2.603735.473085 4.059651-1.0789233 3.652881-3.545321-1.338316 1.2985698-2.495397 2.4221466-3.652881 3.545321m5.857497-3.3751553c.862273 3.1695887-3.83331 6.5564102-6.03712 6.1577476-.991554-.1794182-2.122859-1.1706438-2.635954-2.0991132-1.383423-2.5034079-.768434-6.6927842 1.439404-8.5300112.938794-.7812338 2.707642-.93209 4.038305-.7920955 1.99962.2103941 2.658911 1.9828535 3.075347 3.7223257.122837.512911.086993 1.0636366.120018 1.5411466"/>
    <path fill="#FFF" d="M31.552992 10.8154218c1.2219227 3.0070662-.0588005 6.3049832-2.5634601 7.2660376-.7857519.30131-1.7704588.085284-2.6641459.1058004.1171983-.8653109-.0672581-1.9840603.4079788-2.5488658 1.3886584-1.6509699 3.040308-3.0806841 4.8196272-4.8229722m-1.3714612-1.5063894c-2.2110599 2.0962973-4.2388716 4.0188083-6.38952 6.0575792-.9722219-1.8235494-.6439862-3.5606079.3697183-5.1025591.9536957-1.45183973 3.5691097-1.82958358 6.0198017-.9550201M294.377327 74.1096011c-2.075738-3.2991238-1.233602-5.345538 2.019757-6.1903326 1.153859-.2997009 2.292414-.6585374 3.438218-.9908233.114782.2124055.229161.4244087.343943.6364119-1.898129 2.141353-3.796257 4.2823038-5.801918 6.544744m2.05105.4144723c1.648427-1.8541229 3.297258-3.7082458 5.05201-5.682249 1.08942 2.4607658-1.600904 5.6170791-5.05201 5.682249M27.6160167 62.0892609c.5928379 1.8818804-.6959401 5.3157691-2.2771097 5.8532194-.6681509.2268876-1.5662681.0635607-2.2448903-.208785-.1892893-.0760315-.1651247-1.2736283.0990748-1.7817119.9536958-1.8368247 2.1828679-3.4407275 4.4229252-3.8627225m-.9665433-2.3306272c-1.7797219 1.6843594-3.4511059 3.2657343-5.1245037 4.8491207-.9935673-.9807663-1.1562756-3.4873923.0632307-4.2014449 1.2380324-.7241096 2.7664426-.9831799 4.1969863-1.3202932.2525199-.0595379.6508329.4968197.8642867.6726174M298.873149 25.6861792c1.157483-1.1231745 2.314564-2.2467512 3.65288-3.5453211.40677 2.4659955-1.049146 4.018406-3.65288 3.5453211m-1.01157-1.9049715c-.289976-3.0147097.622238-3.8711704 3.454327-3.4495777-1.163927 1.1621959-2.134941 2.1316982-3.454327 3.4495777"/>
    <path fill="#FFF" d="M304.730645 22.3107422c-.033025-.47751.003222-1.0282356-.120018-1.5411466-.416436-1.7390699-1.075727-3.5119316-3.075346-3.7219234-1.330261-.1403968-3.099512.0104594-4.038306.7916932-2.207435 1.837227-2.822826 6.0266033-1.439404 8.5300112.513095.9284694 1.644803 1.919695 2.636357 2.0991133 2.203408.3986625 6.899393-2.988159 6.036717-6.1577477M24.7617358 57.391439c-2.4800923-.1247078-4.6045624.947779-5.3129875 3.1128667-.8167631 2.4977759-1.395505 5.2200257.6890935 7.385918.9363778.9731228 2.4043765 1.8283767 3.7136945 1.9691758 2.7160997.2916553 4.2952556-1.391095 5.6380012-5.2481855 1.3806035-3.9657069-.6149887-7.0134038-4.7278017-7.219775M295.592 77.2030778c2.855852.0591356 6.239297-2.2387056 7.919541-5.3789275 1.470818-2.7504097.143377-5.8154047-2.866725-6.6167527-3.481312-.9268603-7.372616.9228375-9.063332 4.130643-1.53123 2.9056909 1.197355 8.2608838 4.010516 7.8650372M27.7823094 20.1416317c1.6733977.2683228 2.9190822-.7389941 4.1188541-2.0238864 1.9335698-2.0709535 2.5034513-4.4178731 2.1107768-7.1972472-.4973878-3.52037952-5.5554389-6.00407547-8.6251472-4.17167588-2.4897581 1.48603382-3.7624264 3.65755808-4.1257007 6.47152848-.4611409 3.5746877 2.7636234 7.140123 6.521217 6.921281m-24.91207985 9.184928c5.8429975-2.1534215 11.37467455-4.167653 16.88097885-6.2498704.7656147-.2896439 1.404768-.9127804 2.1023192-1.3818425-.5517581-.5881379-1.088212-1.1915626-1.6584963-1.7611955-.9001309-.8987005-1.9045723-1.7056804-2.7217382-2.6723667-3.5002406-4.1374819-6.9662481-8.30392808-10.39480046-12.50094782-.52396882-.640837-.78575187-1.49528634-1.3189838-2.54765896 2.08379303 0 3.84458605.00281598 5.60578176-.00080457 13.2808579-.02735525 26.5750063.30131005 39.8393517-.18545252 13.2631371-.48716485 26.3760511 1.3054087 39.5767631 1.679532 16.4137966.46544157 32.8179276 1.48321785 49.2063516 2.563348 11.267545.74261464 22.50569.53463427 33.777665.35722742 13.40893-.21160092 26.840414.0116662 40.242094.54026622 21.306724.84036943 42.606197 1.93417722 63.889561 3.23435623 10.027499.6126772 20.00828 1.9788307 30.015641 2.9406896 1.461555.1403968 1.972636.461821 1.610167 2.0850334-.840525 3.7710019-1.389866 7.6055645-2.165549 11.3926578-.428116 2.0922745-1.01733 4.157596-1.644803 6.2015965-.336694 1.0978306-.124045 1.6891868 1.045923 1.8243539 2.063254.2377493 4.127312.4694644 6.191371.7015817.865495.0973526 1.773681.0522968 2.589638.3057352 4.608993 1.4325302 4.711692 1.7149329 3.937217 5.5760463-.447045 2.2298553-.321792 4.7083215-1.285153 6.6666357-1.239644 2.5199015-1.864701 4.4202869.636737 6.4630806 1.059617.8653109.306084 1.5922365-.767226 2.0114155-2.98916 1.1674256-5.952946 2.3996188-8.939287 3.5730787-1.190508.4682575-1.563449 1.1975968-.929934 2.3428968 1.780931 3.2186672 2.728182 6.6638198 3.04796 10.3278144.089007 1.0197877.664124 2.007795 1.074116 2.9861476.536857 1.2800648.484903 2.226637-.929128 2.9974115-4.848222 2.6434023-9.889358 3.2311379-15.324779 2.2551991-5.389509-.9678932-10.855942-1.5290781-16.302237-2.1514101-3.859085-.4405-7.735085-.8351397-11.613501-.977548-4.080594-.1500516-8.172867.0245393-12.260307.056722-10.261493.0816634-20.522583.1440173-30.783672.2490132-15.425868.157695-30.851333.3777439-46.277604.5108996-17.906363.1544767-35.815142.1271214-53.719088.4030876-10.922797.1681544-21.836331.9027234-32.7587248 1.1135197-8.3122157.1609133-16.632889-.1629247-24.9495349-.1536721-5.5606745.0060342-11.1209464.2470018-16.6824264.331079-7.6384264.1150529-15.2776584.2071758-22.9168903.2562543-3.2916197.021321-6.5844476-.1017776-9.8768728-.1351671-1.616611-.0160913-2.203005-.8773795-1.8691309-2.3428969.3866334-1.6964279.8751608-3.3723393 1.3850336-5.0373891.3902581-1.2724215.2416459-2.0661261-1.1796346-2.6719645-6.4261696-2.7383412-6.73225438-3.307974-4.40601-9.852718 1.2070212-3.3960741 2.894515-6.6195687 4.2984776-9.949266.2557419-.6058384.5106783-1.5540197.2247306-1.992106-2.7007955-4.1451252-5.4756957-8.2439879-8.32228425-12.2905537-1.2666272-1.7998147-2.77006734-3.4318773-4.1148267-5.1793951-.43455984-.5648055-.70600872-1.2551233-1.0652556-1.912454"/>
    <path fill="#000" d="M188.006298 42.761971c1.652858 1.4228754 2.151857 2.4663978.506248 4.1024832-2.32423 2.7644895-3.175629 3.8961119-4.966628 6.0495335-.633515.7450283-1.199369 1.3951178-1.836106 2.2745087-.186067.2566566-.703592.5245772-.937183.4368795-.34354-.1295352-.743464-.5414731-.808306-.8898503-.126058-.6802607-.064439-1.4015544-.031011-2.1031361.163111-3.4511869.418047-10.3563765.496985-13.8095748.014096-.6094589-.159084-1.4779881.655263-1.5994776.534843-.0800544 1.1305.5535415 1.577545.9176077l5.343193 4.6210262zm-5.635987-.5648055c-.14821 2.7001242-.178013 5.5901261-.283531 8.1655426 1.431349-1.6324648 3.173213-3.7545083 4.048374-4.8205585.175998-.2313128-1.952499-1.7941827-2.601318-2.3939868-.276282-.2546452-.387842-.373721-1.163525-.9509973zm-30.836432 18.6911194c.033428-1.916879.307293-1.4952863-1.586002-1.4795973-.618614-.0032182-1.256559.1842457-1.87477.1737863-.578339-.0088502-1.190911-.0518945-1.294013-.7989342-.09102-.6585375.546522-1.4566672 1.251725-1.5310896.559008-.0591356 1.298847-.1572927 1.865104-.1416036 1.810733-.1399945 1.762001.0820657 1.675009-1.1408749-.030609-.430443-.059606-1.3971293.002416-1.639706.364885-1.4244845 1.989954-.4505571 2.099097.2482087.107936.6907201-.131294 2.2515786.221912 2.223821.760782-.0587333 1.171177.0016092 2.539698-.1967164.460738-.0394238.921074-.0860886 1.379798-.0885023.975041-.005632 1.41685.7442238.856232 1.5483877-.260978.373721-.278295.5080836-.727354.6082521-.530413.1182712-1.691521.3330904-2.254959.2916552-1.94243.2188421-2.015327-.2457949-1.987537 1.2780535-.007652 1.7555635-.06605 3.4105562.009665 5.0981339.071286 1.5866046-.046718 3.2830325-.037455 4.9062449 0 1.4188525-.028594 2.6502411-.606934 2.8010973-.380592.0989616-.771655.005632-1.090628-.136374-.313334-.1395922-.586394-.7148571-.603712-1.1107037l.162708-10.9135386zm1.670941-36.0053042c.629085-1.0463384 1.009677-1.639706 1.441418-2.2387055.260978-.3612503.771656-1.1919649 1.144193-1.672291.548134-.8411739 1.393492-1.3255228 2.060031-1.1766781.972625.154879.857441 1.0785211.906575 1.9112471.090617 1.5310895-.007652 3.0722362.063231 4.6053371.094242 2.0411845-.155862 4.3619558-.093436 6.4031403.025775.8657133.141765 1.7314266-.199761 2.5094421-.524372 1.1915626-.906978 1.0563955-1.769653.0973525-.581159-.6472735-.419659-1.1412772-.519539-2.2342804-.049135-1.7141283-.049135-3.4966448-.026178-5.2196234.004833-.3487795.026581-1.7865393.026178-2.3831252-1.065658 1.3850608-2.586819 3.8675499-3.033059 3.9166284-.364885.0406306-3.085415-4.5542471-3.112399-3.4845763-.010874.4211904-.142168 2.6281156-.173985 3.2005645-.085784 1.5286758-.238424 2.5287516-.346359 4.119379-.064036.9461699-.217481 1.879869-.430532 2.7974768-.096256.4159608-.381801.8886434-.995179.870943-.566659-.0156891-.722118-.3258494-1.002024-.7937046-.299641-.5008425-.330653-1.2402389-.278699-1.858548.288364-3.4411298.629085-6.8778344.971417-10.3141368.076118-.7623265.233993-1.516205.345151-2.2753133.147806-1.0121443.328638-1.6191895 1.329455-1.7909644.960139-.1641315 1.572309.3005055 1.998411 1.1352429.455905.89508.965778 2.5573138 1.694743 3.8751933zm-24.543529 27.6239367c-.162708.6947429-.151834 1.4325301-.363275 2.1059521-.259366.8287032-1.022564.9835822-1.699978.4207881 0 0-3.558236-2.6623096-4.826877-3.4214179-1.695951-1.014558-2.074933-1.3259251-1.103919-3.0818909 1.014107-1.8340087 1.913433-3.7315782 2.855046-5.6050107.811528-1.6139598 1.57392-3.2544703 2.448276-4.8334316.183248-.3306767.762795-.6066429 1.155873-.6010109.273462.0040228.63432.4887739.790182.8339329.409187.9063438.83247 1.8090671 1.186884 2.7407548.084979.2220603.159083.5040608.126058.7072137-.054773.3387224-.050745.8572653-.380995.9815708-.284336.1070073-.602503-.2124055-.804278-.416363-.389452-.3942375-.707217-.8592767-1.299652-1.6026959-1.693535 2.7174224-3.015338 5.749028-4.124492 8.5207586 1.132513 1.0930032 2.507076 2.034748 3.813574 2.7825923.925907-2.9089092 1.683064-3.7267507 0-3.4455548-1.35966.2071758-1.051159-.4815329-.858245-1.2611576.200969-.8134165.476042-.8130142 1.364494-.8504265.66815-.0281598 1.52398-.1182713 2.230794-.115053 1.295625-.0181027 1.961359.115053 1.957332.9678932-.001611.4425114-.349179.8793909-1.097073.953411-.479264.0466648-1.121237 3.1611407-1.369729 4.2191453z"/>
    <path fill="#000" d="M189.193706 21.8966722c1.825232-1.0109375 9.058096-.1661429 3.016143 3.1341878-11.926432 7.0427704-24.355086 14.298751-34.662894 21.289627 7.764888 4.7372859 15.425063 9.478997 23.157731 14.1004254 4.223164 2.5239243 8.599774 4.7907896 12.826966 7.3086796.672984.400674 2.993993 1.2072517 1.36691 2.2926115-.846163.5644032-2.039491 1.0149603-2.850213.6231365-9.500308-4.5920617-34.914205-20.6954548-34.914205-20.6954548-1.973442-1.2997767-3.879222-2.0966996-6.208286-.5808968-9.083469 5.9103435-17.545102 10.7433729-28.00998 16.9232461-2.40196 1.302995-8.570374 5.2284736-8.516004 4.6395311.263797-2.8550032 2.543323-5.2027275 3.322228-5.7100065 6.207078-4.0437499 10.195443-6.2382043 16.521732-10.0989153 3.248929-1.9828535 11.641291-6.4260705 15.510444-8.8023568-5.645653-3.4057289-10.657389-7.3388509-15.725106-10.1689126-5.681095-3.1728069-11.197065-6.7269783-16.848356-9.9488637-.888452-.5068768-1.933973-1.3645444-2.138969-2.6832284-.447851-2.8819562 2.542114-.6766402 3.366127-.1701658 9.367805 5.7570737 19.25233 11.0849113 28.550461 16.955831 1.577545.9964553 3.144619 2.083022 4.863124 2.7528234.886437.3451589 2.237641.1532699 3.135355-.2888393 0 0 25.568148-16.0708081 34.236792-20.8724594zM91.3340092 69.1284109c-1.2907917.069595-1.6709813-.2393585-1.6347344-1.5105731.0346359-1.2072516.1437793-4.1157586.2460761-5.324217.3024601-3.5682513.0708828-4.6298764.2005661-8.205771.1409601-3.898928.0318167-7.8059016.0318167-11.7096569.0052356 0 .0104713 0 .0157069-.0004023 0-4.0952421.0020138-8.1908865-.0012082-12.2865309-.0012082-1.9760146.8598566-2.6405863 2.7962457-2.2145685 3.4237194.2297036 2.3842394.3037237 5.5876583.2550475.5767282-.0092525 5.1969976.0708018 5.7709066.0993639 1.168358.0579288 1.413226.7309484 1.496996 1.7961941.074508.9485836-.301252 1.1465069-1.223534 1.2595484-.952487.1166621-2.028617.1512585-2.984729.2236694-2.362894.1798206-4.7777418.096548-7.1386221.2980918-2.0914452.0852841-1.7160886.4171676-1.7334065 2.5223152-.0451073 1.0857621.0193317 2.1763516.0382606 3.2645274.0040274 1.8657891-.0954501 1.4429896 1.4768591 1.3126498.9557095-.0953411 1.9077942-.2260831 2.8590735-.3592388.443823-.0623539.8791883-.1822342 1.3222058-.2502201.69151-.1053982 1.3270386.0016092 1.5417006.774395.239632.8620927.302863 1.369774-1.0249812 1.5640768-1.4575274.21321-2.8812244.6179068-4.3194202.9377219-2.6722007.6191137-1.5529775-.1263169-1.8409389 2.2185914-.0555785 2.368643-.0028192 4.7401019-.0708828 7.1079403.0334277 3.8393901.3032656 6.6984162.370121 10.7232587-.0144988.3841804-.0277893.7691654-.0112768 1.1525412.0696745 1.6409128.3608578 2.0057836 1.9480686 1.8404452 3.3101458-.3451589 6.6086123-.8065776 9.9111063-1.2281703.507053-.0643653 1.01169-.2482087 1.5123-.2321174.328236.0104594.807097.2051644.92792.4561891.128878.2679205-.004833.8093936-.171971 1.0310516-.49336.656526-1.107141 1.4325302-1.840133 1.6992439-1.106739.4018808-3.413651 1.1557593-4.563886 1.406784-2.3427565.5125087-9.4938638 1.3778197-9.4938638 1.3778197zm-7.5791829-44.6789707c0 3.6116978.4095898 7.1071358.4337544 10.5981486.0620224 8.8956865.2243279 15.1371091.6496247 24.0806673 0 .5519324-.8904651 1.9965311-1.4756509 2.3541608-.5972681.3644685-1.423697.9385265-1.7233379.3017123-.2746708-.5841151-.089409-1.3790265-.1284751-2.0794014-.2364102-4.2617873-.4152282-8.5356432-.4587244-12.7986373-.0378579-3.6314097-.3322631-7.367413-.3515948-11.0000295-.0165124-3.1635544.0233591-6.317454-.3028628-9.4721582-.1590836-1.5447672-.7358117-1.1304156-2.3089265-1.1223699-1.9549152.0096548-3.3242419 1.2112744-3.8985536-1.2370206-.3592469-1.5314918-.3926745-1.7575749 1.4716235-2.2065229 2.1220536-.5113018 3.8457942-.2848164 4.434202-.966284 0 0 .0418852-1.0278334-.1216285-2.6578846-.0543703-.5418753.6951347-1.2977653 1.7297818-2.1787653 1.5505611-1.3194886 1.5437145.0917205 1.6915212 1.4240822.4812781 4.3313823-.8240124 3.5859517 5.241702 2.7954654 1.1075437-.1440174 2.2541534-.2719434 2.4776758 1.2865014.2311746 1.6143621-.8248179 1.9671644-2.0999027 2.1212389-1.4728317.1778091-2.9428442.3781461-4.4112456.5889424-.221106.0317804-.8570375.1713726-.8489826.1681544zM72.9958252 49.9309779c.5227606 2.8344868 3.1905312 14.3454159 3.5187668 17.2028328.0809514.7068115-.1204202 1.9587165-.6802331 2.0681375-1.2686409.2474041-1.3890611-.6935361-1.6975624-2.199684-.8993254-4.3989659-1.8514102-8.2089893-2.4724401-12.0882054-.8006534-5.003195-1.8711447-9.3800353-2.9488853-14.423861-2.0688915.774395-2.1977694.1838434-2.1736048 2.1224457-.2062045 3.5091156-.3076957 4.6363129-.435768 7.255176-.015707.3157922-.2577557 5.0566987-.3052793 5.3656521-.20701 1.3544873-.0108741 2.92138-1.7611958 2.5444407-.5710898-.1230986-1.1888978-.9699045-1.0080661-2.7077676.0966584-3.6225595.1586808-3.0903389.3938828-6.7100824.0346359-.5362433.4039514-5.3821457.3604551-6.1424608-1.0161209.3009077-2.1635361.744626-3.0572232.8029571-.4627518.0301712-1.2368242-.4654416-1.3721459-.8846206-.1329052-.4111333.2517145-1.6497631.4804726-1.7386676 3.9835324-1.5524106 4.097106-.6738242 4.2239701-2.8529919.128475-2.2020977.4736259-8.0814655.6029065-10.2843678.0044301-.5692306 1.0600199-1.5789612 1.5199526-1.6783252 1.2758903-.2755639 1.8083167-.2852187 2.2525424 1.5576403.6041147 2.5062238.8650922 5.1005476 1.4543055 7.6103919.5517581 1.767632.0072493 2.2982435 2.9621758 1.2981676.7607818-.2542429 1.746697-.7015817 2.5912493-.8657132 1.3620774-.2651046.7329926 2.0114155.4853055 2.368643-.409187.5913561-1.3306633.8460013-2.0286172 1.1094968-1.9484713.7361781-3.3363242.5567598-2.5803753 3.0794772l1.6754115 8.1912888zm-6.180899-11.9715432c1.4579302-.3483772 1.1103628.2478064.279101-5.3893869-.150626 2.0013585-.1751933 4.0095558-.279101 5.3893869zM44.0370628 19.4863125c.6552631-.0575265 1.1373467.2288991 1.7660287.421995 1.8248292.5623918 1.4027544 9.2010194 1.8723529 13.1892542 4.258606-1.1758736 3.595288-.3632617 3.3596833-3.9226627-.2513117-3.8047937-.9404053-8.4201879-1.1031135-12.221361-.0342332-.7953137.308904-1.3078224 1.1868841-1.3987384.9122132-.0945365 1.9077942.2932644 2.0217705 1.1223699.5461197 3.9596727.9524876 10.4645906 1.3677157 14.4540323 1.3761734-.261484 4.1857095-1.2430548 5.7390898-1.6578087.3185698-.0856863-.2980299 1.6405105-.3926745 1.9563028-.3290412 1.0994397-.6520412 2.0435982-1.8860462 2.3730681-3.5445424.9469744-3.5525972.2992986-3.1619364 4.0292676.8594539 8.2073801.5819638 11.4815624 1.2521284 19.6225658.0604115.7393964.3209863 6.0282125.4011322 7.0061627.0849788 1.0330631.3036683 1.86418-.4426147 1.9953243-1.4450424.2542429-2.5614464-.6452621-2.7205299-2.4036416-.4152282-4.5775796-.6536522-8.9966596-.8171659-13.3948209-.1884838-5.068365-.5646459-9.903808-1.0302169-14.9548748-3.4414402.8958845-3.4575499.5933676-3.3516285 2.426974.4027432 6.9691527.4023404 12.5407739 1.204202 19.46648.2364103 2.0431959.4683903 4.3088544.0994776 5.676617-.1639165.6078498-.1639165.6078498-1.4281272.6641694-1.6657456.0736178-1.465985-.024137-1.5545885-1.6417174-.3161534-5.7635102-.384217-7.1059289-.8276372-12.9844921-.0475237-2.2093388-.5437032-9.4407801-.6548603-11.638855-1.7470998.4115356-2.8417556.9353082-4.5795923 1.2185155-.5074563.082468-1.4837057-.7397986-1.4756509-1.044327.0165125-.5873333.2726571-2.1856041.7273542-2.354563 5.5852418-2.0737695 5.1998167.2992986 4.782172-6.4445755-.1405573-2.2745088-1.1550673-9.4910655-.3536085-9.5606605zM276.133908 53.7257548c.209024-5.335481.374954-16.0217297.814347-21.3427284.323-3.9142147.36126-3.0235599 2.143399-2.8582215 1.637151.152063 3.220737.2992986 3.689127-.6319868 1.43296-2.8497736-.031817-2.5098444-1.941222-2.6872512-3.18449-.2960804-3.485339-.1049959-3.682683-.525784-.225939-.4823375.678219-5.757476-.316959-5.757476-1.989954 0-3.083804.9272626-3.161534 2.1928453-.061217 1.0040986-.122434 2.672769-.135321 3.0525242-.018929.6179069-1.911017.1826366-5.208677-.0651698-1.113988-.0836749-2.254557-.2719434-2.478079 1.2860991-.231577 1.6143621.824818 1.967969 2.100305 2.1216411 1.472832.1778092 2.71167.1568905 4.179266.3680891.221912.0317804 1.285153.1222941 1.276696.1182712 0 3.6116978-.826026 14.9448177-.850594 18.4354283-.061217 8.8952843-.564646 12.3581373-.56384 21.2534215 0 .5523348 1.102711 1.4558626 1.786568 1.5097686.747894.0587333 1.513509-.9031256 1.54734-1.6055119.157472-3.2842394.656874-11.145656.801861-14.8639588zm-28.022505-2.9937508c.130891-.4312475.318972-9.7972029.352803-10.2360938.281115-3.6696266.255339-7.3223573.518733-10.993593.04551-.6279639.025373-8.0456623.217481-8.6309842.253729-.7699699.655263-.7418101 1.458736-.9815708 1.049951-.3133785 1.04834.9759388.950474 1.7237832-.151029 8.9974641-.899728 24.1212978-1.320192 32.8098085-.135322 2.7890288-.217079 6.838813-.42127 8.8309189-.086992.8520357-.34797 2.6337476-2.523991 2.3175531-.369718-.053906-.867509-.606643-.915838-.9948462-.81636-6.490838-2.612594-20.3378251-2.877599-22.2921165-.49618-3.6599718-.395494 1.1891489-.448254 2.0886539-.273865 6.6549696-.428518 13.5134944-.692315 19.8522695-.089409 1.6916005-.16593 7.6236673-2.043116 7.2262115-1.35362-.2868278-.867509-5.3877777-.753935-6.3677394.272657-8.1928979.543703-15.5442195.803472-23.5995366.004431-3.2355631.224731-6.8162851.44181-9.9870806-.012083-.3165968.107935-.7727859.105518-1.0889804-.005235-.7526717.084979-1.1312201.788169-1.4691379.816763-.3934329 2.023381.1126392 2.196561.7735904 1.484108 5.6649508 4.162753 21.0188904 4.162753 21.0188904z"/>
    <path fill="#000" d="M264.362733 72.0180507c-2.172799.2679206-5.19297.5917585-7.312204.8295078-.999609.1118347-2.004453.2140146-3.008492.2305082-1.267835.021321-1.647622-.2964826-1.547742-1.540342.513095-6.3745783 1.370938-18.2656648 1.765626-24.6482887.24809-4.0115673.745478-8.8675267.891271-12.8839214.07048-1.9377977.939197-2.5585206 2.822424-2.0705511 3.656505.2795867 6.080213.7297415 9.332364 1.0612228.562632.0571242 1.110766.075227 1.672592.1239032 1.143388.0989617 1.480081.3427452 1.523578 1.3906927.03826.9328946-.314543 1.1356453-1.223131 1.2128836-.938392.0800544-1.95411.0547105-2.894113.0917206-2.323828.0905137-4.650475.1235009-6.972692.2357379-1.419669.0687904-1.248503.9570315-1.357647 2.3384717-.084173 1.0632343-.060411 2.1345142-.081354 3.2029782-.018123.9497904-.064439 1.2651804.86469 1.2072516.940405-.0587333 1.879199-.1528676 2.816785-.2490132.437379-.0446535.86912-.1464311 1.306499-.1971188.681039-.0784452 1.30086.0498831 1.4829.8154279.203788.8540471-.317764 1.3379937-1.062034 1.4960909-1.413225.3013101-2.847394.5020493-4.269882.7631311-1.457125.2679205-1.795026.6066429-1.886449 2.1087681-.139349 2.3207713-.173985 4.6483814-.32743 6.9679458-.247285 3.7621517-.555786 7.5198783-.835692 11.2796163-.028595.3761347-.055176.7534762-.053162 1.1296109.008054 1.6115462.281114 1.9804398 1.843355 1.8754439 3.258997-.2184397 6.50994-.5511278 9.763702-.8447945.499401-.0450557 1.122042-.0587334 1.612986-.0245393.320986.0225279.662513.0816635.772059.3330904.116393.267116-.331055 1.7994124-.548536 1.9639462-.631904.4787169-1.70159.9518018-2.434583 1.1726553-1.105932.333895-1.508675.4863603-2.655688.6279639m-34.788912-1.8283365c.042288.5945744 1.679036.0132753 1.931556-.4059037.400729-.6645717.21587-1.6578087.24809-2.4515133.326624-8.0649719-.090215-16.415967.219495-24.4809389.052356-1.356901.687482-1.2683987 1.990759-1.3013859.444628-.0112639 1.513509-.0973525 1.953707-.1375808 1.73985-.1593041 2.038283.0366077 2.439818-2.6377704.076521-.5125087-.944433-.2441858-1.420072-.1991301-1.008469.0961456-2.020563.2051643-3.024601.2747593-2.274694.1584996-1.843759.0261484-1.888463-1.6964279-.046718-1.7772868.080951-3.5441142.008055-5.321401-.046718-1.1416795-.093437-2.2942206-.291989-3.4145791-.1909-1.0801301-.859857-1.3601192-1.815969-.8830114-1.25978.6287685-1.461152 1.8094694-1.834898 3.2814233-.602906 2.377091-1.152248 4.5566609-1.752335 6.9100171-.325416 1.276042-.266213 1.4526443-1.707228 1.6244192-.623849.0748247-1.385437.0313781-1.945652.2872302-.328639.1496493-.603712.7892794-.581159 1.1010488.02497.3266539.538871.819853.878786 1.0403042.24084.1564881.685872.4960151 1.002428.4738895 1.621444-.1142484 1.247295-.0945365.794612 1.618385-.761587 2.8803471-1.401949 5.5257608-2.175216 8.5750668-.249298.9843868-.5433 1.967969-.772461 2.9539649-.149015.6448599-.33025 1.4067841.603309 1.9108448 1.343551.3230334 1.388256-1.0668548 1.680244-2.0713557 1.118418-3.8434129 1.828052-7.8010742 2.95251-11.6420734.211038-.7196844.279101-1.8537205 1.782139-1.7358516 1.208632.0949388.931545.4260178.904964 2.016243-.084979 5.0848585.137738 10.357181-.082965 15.4380168 0 0-.288767 8.2146212-.097464 10.8733103m.275073-31.3829103c-2.052379.16212-1.726157.8311169-.028997-6.0085007.076924 1.3729923.078937 4.5313171.028997 6.0085007"/>
    <path fill="#000" d="M221.68376 69.2024712c.464363-.0486763 1.46075-.2811959 1.57674-.0406306.20701.4280292-.050746 1.5676973-.267019 2.0142316-.363274.6525032-.969805.6488826-2.011702.781636-2.557822.3266539-5.281171.6746288-7.999284 1.0403042-2.41364.3873986-2.154676-.4948082-1.62668-2.2358896l9.165629-45.1727732c.037052-.5382548.281114-1.1231744.601295-1.561663.210635-.2888393.783336-.5475074 1.094253-.4614188.297627.0820658.601296.6062407.659291.9743297.075313.4823375-.05276 1.0089261-.155056 1.5037343l-6.387507 33.5568483c-.752324 2.4853051-1.851007 8.0762358-2.508687 10.5876893l7.858727-.9863982zm-14.453927.5097329c-.192512.6247457-1.728574.5957813-2.240863.200337-.625058-.4827397.016512-7.2161545.007249-7.7709029l.718091-40.5859412c.083368-.8657132.28917-1.6964278 1.31697-1.8323995.981082-.1295352 1.193328.6472735 1.696354 1.3923018 1.837315 3.079075 2.489758 4.1724805 3.948494 6.6175573.879591 1.4156342 1.522772 2.8143726 2.399544 4.0586343.582366.8250827.860259 1.9353841.348775 2.8087407-1.08942 1.8609617-1.985523 3.9934645-3.070111 5.9372965-1.709242 3.3035489-2.770067 5.3559974-4.405607 8.5175404l-.718896 20.6568356zm1.006052-32.8130268c.025775.4284315-.223925 5.8359212-.042288 6.3621075.134516-.1247078.401535-.7884749.483694-.9357105 1.326636-2.3795047 2.469219-4.6532088 3.687517-7.087424.27467-.6561237-.040275-.990421-.43013-1.7020598-.981888-1.7724594-1.727768-3.3791782-2.797454-5.4726595-.186873-.3652731-.271046-.5290023-.72091-1.3987384l-.180429 10.2344847z"/>
  </g>
</svg>
