<svg xmlns="http://www.w3.org/2000/svg" width="238" height="42">
  <g id="Correo" fill="none" fill-rule="evenodd">
    <g id="border">
      <path id="Fill-1" fill="#000" d="M178.178416 36.7356753c-.00108.0555893-.00216.1109101-.003509.166231 5.210141.2097356 10.418393.4815058 15.630424.6114829 4.936974.1232633 9.877728.0746562 14.816322.1474326 2.641781.0389394 5.295708.0445789 7.918324.3133951 1.695415.1740188 2.246067-.7170222 2.659866-1.9826871.137123-.4205455.168705-.8751966.252113-1.3137349.659972-3.4648013 1.308068-6.9320195 1.989096-10.392524.198396-1.006785.386536-2.0390821.785489-2.9725536.193268-.4519656.821659-.9090336 1.324264-1.0081277 2.23473-.4404181 4.511569-.6780827 6.734152-1.1644225.532028-.1165496 1.19254-.8429709 1.320216-1.3969846.630281-2.7399913 1.11777-5.513014 1.618216-8.28147132.134154-.74307124.456447-1.9238751.128215-2.17523566-.59465-.4557253-1.613357-.4823115-2.454451-.48043168-3.124951.00778788-6.249092.1313198-9.374043.15199795-3.675334.0241692-7.352826.0475329-11.02654-.042162-3.362757-.0821756-6.719846-.4017473-10.082334-.4629761-5.476559-.0996312-10.959058.0373281-16.431838-.1385706-3.943912-.1267545-7.871627-.7068173-11.815538-.8819104-2.857183-.1270231-5.730022.1423302-8.594763.1192351-3.441036-.0276604-6.880723-.2164494-10.322029-.2631767-2.559993-.03464264-5.124304.12782867-7.682408.0558579-3.949579-.11091016-7.89619-.51024046-11.8428-.49278486-6.330881.02792894-12.660951.2838548-18.990482.46780993-4.041355.11762385-8.081631.4095351-12.121366.3875142-4.8473589-.0265862-9.6936379-.29432818-14.539647-.47586637-4.1744293-.15656323-8.3466992-.3689844-12.5219384-.5003042-2.9160271-.0918433-5.8358333-.15602614-8.7521304-.10795612-2.8250616.0467273-5.6566015.4567995-8.4687065.33138778-2.7913207-.12433755-5.5537591-.95790934-8.3429203-1.04760424-4.0772555-.1307827-8.1698968.0531724-12.2501214.23390495-5.0689692.22423725-10.1325398.57684026-15.1977301.8862071-1.065404.06525708-2.1272989.2502864-3.1918931.26075974-2.0125797.0193354-4.0275887-.0953344-6.038009-.03410555-.3525254.0107419-.9587826.5854338-.9884747.93830534-.405971 4.8110305-.78225 9.6228666.7568768 14.3468877.6410779 1.9673798-.0180851 3.1213289-1.6786793 3.6825934-1.89894023.6415602-3.7827645 1.3526743-5.60180617 2.1870517-.44646015.2049019-.86727718 1.0073221-.86592754 1.5342126.0037789 1.4670756.298 2.9309286.3541449 4.4009582.0375199.986644.4297246 1.2890286 1.3909366 1.325551 3.233192.1224578 6.4647645.3072185 9.6941775.5131945 2.3305544.1487754 4.6597591.5626073 6.9835653.5191026 5.4266232-.101511 10.8475779-.5054066 16.274471-.6053064 6.7382011-.1240689 13.4796413-.1025851 20.2194619-.0749247 6.4269747.0265862 12.8669058-.0964086 19.2760653.2749927 8.9729311.5201767 17.9550398.1280972 26.9368786.8013461 8.632013.6469312 17.334476.3332676 26.004549.5078235 6.697172.1345424 13.391375.3934223 20.088007.5569678 8.674391.2121526 17.349323.3842916 26.024254.5736177m52.41129-12.6442958c-1.030854-.0413563-2.075743-.1976511-3.086352-.0741192-.476692.0582749-1.180933.5848967-1.282156 1.0156471-.961212 4.0859519-1.82228 8.194999-2.687938 12.3027032-.080169.3824118.014846.7994663.011607 1.2006764-.011337 1.325551-.881314 2.2993047-2.193971 2.3790633-1.520502.0929175-3.044783.1291714-4.567174.1874463-.22431.0085935-.502875-.0821756-.664832.0182612-2.470376 1.5312585-5.021462.3418611-7.543125.2715016-2.735985-.076536-5.47548-.0247063-8.212815-.0606917-2.814264-.036791-5.628259-.0939917-8.441174-.1758987-3.004293-.0870094-6.008587-.1861035-9.010451-.330045-3.402166-.1630084-6.802174-.3794578-10.202991-.5787201-.357924-.0209467-.712339-.1106417-1.069993-.1213836-4.707806-.1417931-9.415072-.2943281-14.123688-.4047012-4.849788-.1135956-9.700386-.1667681-14.550174-.2800952-2.954357-.0692853-5.906824-.2701589-8.860641-.2924483-5.920591-.0443104-11.841451.0096677-17.762042-.0110105-2.243907-.0080564-4.492134-.042699-6.730103-.1898631-2.143225-.1409875-4.271063-.533067-6.414558-.6533764-2.960295-.1659624-5.9289584-.1922801-8.8943823-.2578057-4.8065996-.1063448-9.6131993-.2258485-14.4200688-.2857346-6.8267373-.0851296-13.6734493.1764357-20.4756232-.2634452-6.5913605-.4261851-13.0658424.7489792-19.6250815.6912415-5.1850381-.0456531-10.3735852.7938267-15.5683406 1.1209177-2.771616.174556-5.5591576.0937232-8.3396812.1340053-3.6348442.0526353-7.2758967.0048339-10.9018333.2151066-1.6103877.0931861-3.0118515-.61202-3.7565816-1.5248133-.8562101-1.049484-1.135855-2.7802733-1.1752645-4.2282821-.0842174-3.0665452.1732935-6.1411468.2415852-9.2136.0237536-1.0749961.3222935-1.5291101 1.5215815-1.8825188 2.2493061-.6622384 4.3938804-1.7235386 6.5014746-2.7786621.4262156-.2132268.6972228-1.1383734.6842663-1.7278354-.02402357-1.1066847-.3913949-2.2026275-.46508517-3.3128033-.12902536-1.9520726-.19164855-3.9119331-.19191847-5.86830244 0-1.4461289.18894927-2.8911836.21000362-4.33811813.0234836-1.5924873.465625-2.2039702 1.9958442-2.3895366 5.9802446-.72507854 11.964538-1.05512356 17.995259-.57952574 1.7469711.13776494 3.5398298-.38456017 5.3178424-.52823314 1.8948913-.15307216 3.7986903-.19765106 5.6962808-.324137 1.7669457-.11762387 3.5293026-.3021161 5.2962482-.41812864 1.7863805-.11762386 3.579779-.30775557 5.364-.25726862 8.399875.23847025 16.8005598.48607115 25.1955761.85586122 5.2854511.23283077 10.5563261.82954356 15.842317.9995342 4.8916269.15763745 9.7962106.045116 14.6910766-.09264893 7.455128-.2097357 14.904858-.6987609 22.359987-.7779825 6.155157-.06525708 12.313824.3587796 18.472761.4422979 6.336819.08593524 12.677956-.08110137 19.013156.05370953 5.840152.1246061 11.672476.56824676 17.512088.7495164 5.207982.16166566 10.421093.15656326 15.631774.22584854 1.259212.0169185 2.518154.05156114 3.777366.05558936 4.440038.01423303 8.879806-.00026854 13.319304.0400136 1.115071.0102048 2.266312.41490606 3.336304.2424985 3.745515-.6034265 7.484011.0964086 11.222508-.1076876 1.33938-.07304495 2.697116.05263533 4.038656.17348176 2.038762.18368656 2.819123 1.6921185 2.376172 3.61572505-.567928 2.46634126-.793047 5.01163552-1.145843 7.52577832-.40732 2.9024626-.773882 5.8105647-1.197128 8.7106103-.157098 1.0766074-.805464 1.4584821-1.914326 1.226457-.693714-.1447472-1.431696-.0792216-2.149973-.1082247 0-.0051024.00027-.0104734.00027-.0158443"/>
      <path id="Fill-7" fill="#FFF" d="M178.178416 36.7356753c-8.674931-.1893261-17.349863-.3614651-26.024254-.5736177-6.696632-.1635455-13.390835-.4224254-20.088007-.5569678-8.670073-.1745559-17.372536.1391077-26.004549-.5078235-8.9818388-.6732489-17.9639475-.2811694-26.9368786-.8013461-6.4091595-.3714013-12.8490906-.2484065-19.2760653-.2749927-6.7398206-.0276604-13.4812608-.0491442-20.2194619.0749247-5.4268931.0998998-10.8478478.5037954-16.274471.6053064-2.3238062.0435047-4.6530109-.3703272-6.9835653-.5191026-3.229413-.205976-6.46098546-.3907367-9.6941775-.5131945-.96121194-.0365224-1.35341665-.338907-1.39093658-1.325551-.05614493-1.4700296-.35036594-2.9338826-.35414493-4.4009582-.0013497-.5268905.4194673-1.3293107.8659275-1.5342126 1.8190416-.8343774 3.7028659-1.5454915 5.6018061-2.1870517 1.6605942-.5612645 2.3197572-1.7152136 1.6786793-3.6825934-1.5391268-4.7240211-1.1628478-9.5358572-.7568768-14.3468877.0296921-.35287156.6359493-.92756345.9884747-.93830535 2.0104203-.06122886 4.0254293.05344097 6.038009.03410554 1.0645942-.0104734 2.1264891-.1955027 3.1918931-.2607598 5.0651903-.3093669 10.1287609-.6619699 15.1977301-.8862071 4.0802246-.1807326 8.1728659-.3646877 12.2501214-.233905 2.7891612.0896949 5.5515996.9232667 8.3429203 1.0476042 2.812105.1254117 5.6436449-.2846605 8.4687065-.3313878 2.9162971-.04807 5.8361033.01611285 8.7521304.10795613 4.1752392.13131976 8.3475091.34374093 12.5219384.5003042 4.8460091.18153817 9.6922881.44928014 14.539647.47586635 4.039735.0220209 8.080011-.26989034 12.121366-.3875142 6.329531-.1839551 12.659601-.439881 18.990482-.46780993 3.94661-.0174556 7.893221.3818747 11.8428.49278486 2.558104.07197076 5.122415-.09050055 7.682408-.0558579 3.441306.0467273 6.880993.23551625 10.322029.26317665 2.864741.0230951 5.73758-.24625817 8.594763-.11923515 3.943911.17509302 7.871626.7551559 11.815538.88191033 5.47278.1758987 10.955279.0389394 16.431838.1385706 3.362488.06122887 6.719577.38080053 10.082334.4629761 3.673714.0896949 7.351206.06633126 11.02654.04216197 3.124951-.02067817 6.249092-.14421008 9.374043-.15199796.841094-.0018798 1.859801.0247064 2.454451.4804317.328232.25136056.005939 1.4321644-.128215 2.17523565-.500446 2.76845734-.987935 5.54148004-1.618216 8.28147134-.127676.5540137-.788188 1.280435-1.320216 1.3969846-2.222583.4863398-4.499422.7240044-6.734152 1.1644225-.502605.0990941-1.130996.5561621-1.324264 1.0081277-.398953.9334715-.587093 1.9657686-.785489 2.9725536-.681028 3.4605045-1.329124 6.9277227-1.989096 10.392524-.083408.4385383-.11499.8931894-.252113 1.3137349-.413799 1.2656649-.964451 2.1567059-2.659866 1.9826871-2.622616-.2688162-5.276543-.2744557-7.918324-.3133951-4.938594-.0727764-9.879348-.0241693-14.816322-.1474326-5.212031-.1299771-10.420283-.4017473-15.630424-.6114829.001349-.0553209.002429-.1106417.003509-.166231"/>
    </g>
    <path id="Fill-19" fill="#C2B2C7" d="M84.653788 31.3263207c-.3020489.0757304-.7916974-.1366907-1.0370616-.383486-.4985561-.5016469-.8821231-1.1155468-1.3234547-1.6752-2.1167717-2.6857447-4.2899583-5.3309386-6.298759-8.0945621-.2977301-.4095351-.0601939-1.5548907.3285018-2.049824 2.2719801-2.8952118 4.8603152-6.1341645 7.0734511-8.4052717 1.236808-1.269156 1.6319819.4355842 1.125058 1.1724789-.9490653 1.3792605-1.8789656 2.6041062-2.6806504 3.7072998-1.0845689 1.4928562-2.3310942 2.8686256-3.4353678 4.3483229-.1997463.2672049-.2294384.9275635-.0367101 1.1748958 1.914596 2.4574792 4.0910217 4.9880034 5.8428514 7.2964387 1.501337 1.9781217.4421413 2.9089077.4421413 2.9089077" opacity=".33452219"/>
    <path id="Fill-13" fill="#C2B2C7" d="M92.4097239 26.6595003c1.7987971-2.0850037 3.348721-3.8595663 4.8603152-5.6658175.1584475-.1895946.2116232-.6243732.1060816-.848879-.8740254-1.8613035-1.7712645-3.7132079-2.7446232-5.5240244-.0966341-.1799269-.9212627-.2435727-1.1126413-.0585434-1.3453189 1.3013817-2.6587863 2.6433141-3.8804783 4.0593657-.3943641.457068-.841904 1.3464977-.6502554 1.7463651 1.0108786 2.1099786 2.2182645 4.1267712 3.4216014 6.2915335m3.3141703-14.676127c.8659275 2.2445209 1.8557518 4.4678266 3.0571993 6.5436996 1.0416503 1.8000747.4934275 3.389608-.4151486 4.7130107-1.5704384 2.2880256-3.3268569 4.4213678-4.2886087 7.0864344-.1538587.4253794-1.0853786.7846961-1.650067.7747598-.3625127-.0061766-.8184203-.6933899-1.0473188-1.1644224-.6545743-1.3446179-1.1156105-2.7894041-1.8390163-4.0921286-.7722627-1.3910766-1.8557519-2.611894-2.6196468-4.0067303-.6602427-1.2060474-.897779-2.5906789.0245634-3.8082737 1.0753913-1.4200798 2.2682011-2.7518074 3.3940689-4.1350962.7601159-.93374 1.4837916-1.8972889 2.223663-2.8460676 1.2470652-1.5997381 2.5967029-.5255476 3.1603116.9348143" opacity=".33452219"/>
    <path id="Fill-9" fill="#C2B2C7" d="M118.034134 19.323612c-.00081.0459217.046427.078953.090426.06472 2.45607-.7975864 2.71871-1.6811081 1.201447-3.499981-.267228-.3206459-.787109-1.2189377-1.101034-1.697758-.036441-.0550523-.122547-.0298088-.123627.0362539l-.067212 5.0967651zm-1.966152 10.0694613c-.807354-.4745236-.59897-1.8274665-.602479-2.7504646-.008367-2.2109525.157098-4.421905.237537-6.6336632.061543-1.6888959.151159-3.3791346.132804-5.0680305-.013766-1.2892971-.235917-2.5764458-.243745-3.8652058-.002969-.4809688.208385-1.11098148.552272-1.41363464.659433-.5803314 1.351257-.18583495 1.817962.51534284.664562.9984601 1.34208 1.9877895 2.120551 2.901657 1.109672 1.302993 2.058467 2.7676517 3.214837 4.041373.78279.8617693.40759 2.2305565-.847843 2.7966548-.512592.2312195-1.029773.4527713-1.706212.7495164 1.30375 2.0522409 2.446894 4.001628 3.740656 5.8462816 1.260292 1.7971206 1.339921 2.7155534-.154668 3.8617146-.250223.1920116-.612736.1235319-.766864-.1509237-1.401464-2.5001783-3.194323-6.0957623-4.648692-8.6902008-1.073772.4049698-1.079711 1.0741905-.996843 3.2078013.238616 1.2992333.456988 2.9687938.109591 3.9984054-.164656.4868768-1.514294.9146731-1.958864.6533763z" opacity=".33452219"/>
    <path id="Fill-11" fill="#C2B2C7" d="M105.077612 19.323612c-.00081.0459217.046428.078953.090426.06472 2.456071-.7975864 2.71871-1.6811081 1.201447-3.499981-.267228-.3206459-.787108-1.2189377-1.101034-1.697758-.03644-.0550523-.122547-.0298088-.123627.0362539l-.067212 5.0967651zm-1.966152 10.0694613c-.807353-.4745236-.598969-1.8274665-.602478-2.7504646-.008368-2.2109525.157098-4.421905.237536-6.6336632.061543-1.6888959.151159-3.3791346.132804-5.0680305-.013766-1.2892971-.235916-2.5764458-.243744-3.8652058-.002969-.4809688.208384-1.11098148.552271-1.41363464.659433-.5803314 1.351258-.18583495 1.817962.51534284.664562.9984601 1.34208 1.9877895 2.120551 2.901657 1.109672 1.302993 2.058468 2.7676517 3.214837 4.041373.78279.8617693.407591 2.2305565-.847842 2.7966548-.512593.2312195-1.029774.4527713-1.706212.7495164 1.30375 2.0522409 2.446893 4.001628 3.740656 5.8462816 1.260291 1.7971206 1.33992 2.7155534-.154669 3.8617146-.250223.1920116-.612735.1235319-.766864-.1509237-1.401464-2.5001783-3.194323-6.0957623-4.648692-8.6902008-1.073772.4049698-1.07971 1.0741905-.996842 3.2078013.238615 1.2992333.456987 2.9687938.10959 3.9984054-.164656.4868768-1.514293.9146731-1.958864.6533763z" opacity=".33452219"/>
    <path id="Fill-17" fill="#C2B2C7" d="M134.021807 28.3589233c-1.071612.4251109-3.561424.7940953-5.367779 1.0271946-.309607.0402822-.993064-.5926846-1.018977-.9493158-.11148-1.5393149-.247793-3.1250886.00081-4.6324463.647017-3.925629 1.189571-7.839979 1.004131-11.8348933-.064243-1.3832888.310686-1.5395835 1.619565-1.2065844.717467.1826124 1.492699.1350794 2.240129.2078558.617594.0598861 1.570978-.2518976 1.82309.2663993.208384.4277963.009178 1.5489826-.341728 1.8712397-.490998.4508915-1.300781.4138319-1.971011.3950336-.949335-.0263177-1.48919-.2948653-1.287554 1.638946.068291 1.8255867.935568 1.1491153 1.769645 1.1705991.134693.0034911.269387.0045653.404081.0067137.00027-.0110105.00027-.0222895.00054-.0335685.359004.0059081.881313-.2180606 1.062975.0445789.303398.4390754.513402 1.6488824.256161 2.1161552-.248603.4514286-.999272.4648559-1.521582.5019155-1.801226.1283658-2.443384-.1009739-2.479824 2.8216298-.062083 1.1147411-.18571 2.2257226-.277755 3.3388524-.069912.8451194.341728 1.1144726 1.147192.992552.841904-.1272915 2.08627-.5768402 2.676061-.0032225.455098.4425664.852431 2.0256546.26183 2.2603652" opacity=".33452219"/>
    <path id="Fill-15" fill="#C2B2C7" d="M145.738093 13.8172312c-1.249225 1.3741581-2.370774 2.5957812-3.469379 3.8378139-.087457.0993627-.049127.3453523-.012957.5107776.432424 1.9783903 1.79016 3.3743008 2.972712 5.0640023 1.041921-1.5320641 1.951846-2.8329087 2.808596-4.1678589.143332-.2234316.173024-.6544505.053986-.8875499-.719087-1.4090693-1.496748-2.7883298-2.352958-4.357185m-3.740386 8.9520347c-.791428-1.4995699-1.86385-2.8382797-2.715471-4.3034755-.773343-1.3303849-.459957-2.4327728.868627-3.164028 1.770454-.9745593 2.948418-2.3943705 3.646181-4.275278.11067-.2988935.734472-.7014463.949065-.617928.821929.3195716 1.849813.6308183 2.297623 1.2858059 1.179583 1.725687 2.133507 3.6103541 3.103897 5.4695093.684536 1.3115865.763625 2.6360633-.26102 3.883467-1.433585 1.7455595-2.638542 3.5816195-2.60939 5.990223.006479.5263534-.361163 1.1042678-.677788 1.5782544-.718007 1.074996-1.815532.9885237-2.351068-.1852979-.232408-.5099719-.253193-1.1088331-.435933-1.6478082-.353066-1.0427703-1.301051-3.0391533-1.814723-4.013444" opacity=".33452219"/>
  </g>
</svg>