<?xml version="1.0" encoding="UTF-8" standalone="no"?>
<svg width="238px" height="42px" viewBox="0 0 238 42" version="1.1" xmlns="http://www.w3.org/2000/svg" xmlns:xlink="http://www.w3.org/1999/xlink">
    <!-- Generator: Sketch 41.1 (35376) - http://www.bohemiancoding.com/sketch -->
    <title>correo</title>
    <desc>Created with Sketch.</desc>
    <defs></defs>
    <g id="Page-1" stroke="none" stroke-width="1" fill="none" fill-rule="evenodd">
        <g id="Mobile-Portrait-Copy" transform="translate(-67.000000, -424.000000)">
            <g id="contacto" transform="translate(58.000000, 424.000000)">
                <g id="correo" transform="translate(9.000000, 0.000000)">
                    <g id="Group">
                        <path d="M178.178416,36.7356753 C178.177336,36.7912646 178.176256,36.8465854 178.174907,36.9019063 C183.385048,37.1116419 188.5933,37.3834121 193.805331,37.5133892 C198.742305,37.6366525 203.683059,37.5880454 208.621653,37.6608218 C211.263434,37.6997612 213.917361,37.7054007 216.539977,37.9742169 C218.235392,38.1482357 218.786044,37.2571947 219.199843,35.9915298 C219.336966,35.5709843 219.368548,35.1163332 219.451956,34.6777949 C220.111928,31.2129936 220.760024,27.7457754 221.441052,24.2852709 C221.639448,23.2784859 221.827588,22.2461888 222.226541,21.3127173 C222.419809,20.8607517 223.0482,20.4036837 223.550805,20.3045896 C225.785535,19.8641715 228.062374,19.6265069 230.284957,19.1401671 C230.816985,19.0236175 231.477497,18.2971962 231.605173,17.7431825 C232.235454,15.0031912 232.722943,12.2301685 233.223389,9.46171118 C233.357543,8.71863994 233.679836,7.53783609 233.351604,7.28647552 C232.756954,6.83075022 231.738247,6.80416401 230.897153,6.80604384 C227.772202,6.81383172 224.648061,6.93736363 221.52311,6.95804179 C217.847776,6.98221108 214.170284,7.00557472 210.49657,6.91587982 C207.133813,6.83370425 203.776724,6.51413259 200.414236,6.45290373 C194.937677,6.35327257 189.455178,6.49023185 183.982398,6.31433316 C180.038486,6.18757869 176.110771,5.60751585 172.16686,5.4324228 C169.309677,5.30539978 166.436838,5.57475304 163.572097,5.55165794 C160.131061,5.52399754 156.691374,5.33520857 153.250068,5.28848128 C150.690075,5.25383864 148.125764,5.41630995 145.56766,5.34433919 C141.618081,5.23342902 137.67147,4.83409872 133.72486,4.85155432 C127.393979,4.87948327 121.063909,5.13540914 114.734378,5.31936426 C110.693023,5.43698811 106.652747,5.72889937 102.613012,5.70687846 C97.7656531,5.68029225 92.9193741,5.41255028 88.073365,5.23101209 C83.8989357,5.07444884 79.7266658,4.86202767 75.5514266,4.73070789 C72.6353995,4.63886461 69.7155933,4.57468173 66.7992962,4.62275175 C63.9742346,4.66947904 61.1426947,5.07955124 58.3305897,4.95413951 C55.539269,4.82980196 52.7768306,3.99623017 49.9876694,3.90653527 C45.9104139,3.77575258 41.8177726,3.9597077 37.737548,4.14044024 C32.6685788,4.3646775 27.6050082,4.71728051 22.5398179,5.02664736 C21.4744139,5.09190443 20.412519,5.27693374 19.3479248,5.28740709 C17.3353451,5.30674252 15.3203361,5.19207269 13.3099158,5.25330155 C12.9573904,5.26404345 12.3511332,5.83873534 12.3214411,6.1916069 C11.9154701,11.0026374 11.5391911,15.8144735 13.0783179,20.5384946 C13.7193958,22.5058744 13.0602328,23.6598235 11.3996386,24.221088 C9.50069837,24.8626482 7.61687409,25.5737623 5.79783243,26.4081397 C5.35137228,26.6130416 4.93055525,27.4154618 4.93190489,27.9423523 C4.93568388,29.4094279 5.22990489,30.8732809 5.28604982,32.3433105 C5.32356975,33.3299545 5.71577446,33.6323391 6.67698641,33.6688615 C9.91017844,33.7913193 13.1417509,33.97608 16.3711639,34.182056 C18.7017183,34.3308314 21.030923,34.7446633 23.3547292,34.7011586 C28.7813524,34.5996476 34.2023071,34.195752 39.6292002,34.0958522 C46.3674013,33.9717833 53.1088415,33.9932671 59.8486621,34.0209275 C66.2756368,34.0475137 72.7155679,33.9245189 79.1247274,34.2959202 C88.0976585,34.8160969 97.0797672,34.4240174 106.061606,35.0972663 C114.693619,35.7441975 123.396082,35.4305339 132.066155,35.6050898 C138.763327,35.7396322 145.45753,35.9985121 152.154162,36.1620576 C160.828553,36.3742102 169.503485,36.5463492 178.178416,36.7356753 M230.589706,24.0913795 C229.558852,24.0500232 228.513963,23.8937284 227.503354,24.0172603 C227.026662,24.0755352 226.322421,24.602157 226.221198,25.0329074 C225.259986,29.1188593 224.398918,33.2279064 223.53326,37.3356106 C223.453091,37.7180224 223.548106,38.1350769 223.544867,38.536287 C223.53353,39.861838 222.663553,40.8355917 221.350896,40.9153503 C219.830394,41.0082678 218.306113,41.0445217 216.783722,41.1027966 C216.559412,41.1113901 216.280847,41.020621 216.11889,41.1210578 C213.648514,42.6523163 211.097428,41.4629189 208.575765,41.3925594 C205.83978,41.3160234 203.100285,41.3678531 200.36295,41.3318677 C197.548686,41.2950767 194.734691,41.237876 191.921776,41.155969 C188.917483,41.0689596 185.913189,40.9698655 182.911325,40.825924 C179.509159,40.6629156 176.109151,40.4464662 172.708334,40.2472039 C172.35041,40.2262572 171.995995,40.1365622 171.638341,40.1258203 C166.930535,39.9840272 162.223269,39.8314922 157.514653,39.7211191 C152.664865,39.6075235 147.814267,39.554351 142.964479,39.4410239 C140.010122,39.3717386 137.057655,39.170865 134.103838,39.1485756 C128.183247,39.1042652 122.262387,39.1582433 116.341796,39.1375651 C114.097889,39.1295087 111.849662,39.0948661 109.611693,38.947702 C107.468468,38.8067145 105.34063,38.414635 103.197135,38.2943256 C100.23684,38.1283632 97.2681766,38.1020455 94.3027527,38.0365199 C89.4961531,37.9301751 84.6895534,37.8106714 79.8826839,37.7507853 C73.0559466,37.6656557 66.2092346,37.927221 59.4070607,37.4873401 C52.8157002,37.061155 46.3412183,38.2363193 39.7819792,38.1785816 C34.5969411,38.1329285 29.408394,38.9724083 24.2136386,39.2994993 C21.4420226,39.4740553 18.654481,39.3932225 15.8739574,39.4335046 C12.2391132,39.4861399 8.59806069,39.4383385 4.97212409,39.6486112 C3.36173641,39.7417973 1.96027264,39.0365912 1.21554257,38.1237979 C0.359332428,37.0743138 0.0796875,35.3435245 0.0402780797,33.8955157 C-0.0439393116,30.8289705 0.213571558,27.7543689 0.281863225,24.6819157 C0.305616848,23.6069196 0.604156703,23.1528056 1.80344475,22.7993969 C4.05275091,22.1371585 6.19732518,21.0758583 8.30491938,20.0207348 C8.73113496,19.807508 9.00214221,18.8823614 8.98918569,18.2928994 C8.96516214,17.1862147 8.59779076,16.0902719 8.52410054,14.9800961 C8.39507518,13.0280235 8.33245199,11.068163 8.33218207,9.11179365 C8.33218207,7.66566475 8.52113134,6.22061005 8.54218569,4.77367551 C8.56566938,3.18118817 9.00781069,2.56970525 10.5380299,2.38413885 C16.5182745,1.6590603 22.5025679,1.32901528 28.5332889,1.8046131 C30.28026,1.94237803 32.0731187,1.42005292 33.8511313,1.27637995 C35.7460226,1.12330781 37.6498216,1.07872891 39.5474121,0.95224298 C41.3143578,0.834619126 43.0767147,0.650126916 44.8436603,0.534114347 C46.6300408,0.416490493 48.4234393,0.226358783 50.2076603,0.276845734 C58.6075353,0.515316014 67.0082201,0.762916913 75.4032364,1.13270698 C80.6886875,1.36553776 85.9595625,1.96225055 91.2455534,2.13224119 C96.1371803,2.28987864 101.041764,2.17735719 105.93663,2.03959226 C113.391758,1.82985658 120.841488,1.34083138 128.296617,1.26160983 C134.451774,1.19635276 140.610441,1.62038944 146.769378,1.70390775 C153.106197,1.78984298 159.447334,1.62280637 165.782534,1.75761727 C171.622686,1.88222336 177.45501,2.32586402 183.294622,2.50713366 C188.502604,2.66879932 193.715715,2.66369692 198.926396,2.7329822 C200.185608,2.7499007 201.44455,2.78454334 202.703762,2.78857156 C207.1438,2.80280458 211.583568,2.78830301 216.023066,2.82858515 C217.138137,2.83878996 218.289378,3.24349121 219.35937,3.07108364 C223.104885,2.46765716 226.843381,3.16749224 230.581878,2.96339605 C231.921258,2.8903511 233.278994,3.01603138 234.620534,3.13687781 C236.659296,3.32056438 237.439657,4.82899632 236.996706,6.75260287 C236.428778,9.21894414 236.203659,11.7642384 235.850863,14.2783812 C235.443543,17.1808438 235.076981,20.0889459 234.653735,22.9889915 C234.496637,24.0655989 233.848271,24.4474736 232.739409,24.2154485 C232.045695,24.0707013 231.307713,24.1362269 230.589436,24.1072238 C230.589436,24.1021214 230.589706,24.0967504 230.589706,24.0913795" id="Fill-1" fill="#000000"></path>
                        <path d="M178.178416,36.7356753 C169.503485,36.5463492 160.828553,36.3742102 152.154162,36.1620576 C145.45753,35.9985121 138.763327,35.7396322 132.066155,35.6050898 C123.396082,35.4305339 114.693619,35.7441975 106.061606,35.0972663 C97.0797672,34.4240174 88.0976585,34.8160969 79.1247274,34.2959202 C72.7155679,33.9245189 66.2756368,34.0475137 59.8486621,34.0209275 C53.1088415,33.9932671 46.3674013,33.9717833 39.6292002,34.0958522 C34.2023071,34.195752 28.7813524,34.5996476 23.3547292,34.7011586 C21.030923,34.7446633 18.7017183,34.3308314 16.3711639,34.182056 C13.1417509,33.97608 9.91017844,33.7913193 6.67698641,33.6688615 C5.71577446,33.6323391 5.32356975,33.3299545 5.28604982,32.3433105 C5.22990489,30.8732809 4.93568388,29.4094279 4.93190489,27.9423523 C4.93055525,27.4154618 5.35137228,26.6130416 5.79783243,26.4081397 C7.61687409,25.5737623 9.50069837,24.8626482 11.3996386,24.221088 C13.0602328,23.6598235 13.7193958,22.5058744 13.0783179,20.5384946 C11.5391911,15.8144735 11.9154701,11.0026374 12.3214411,6.1916069 C12.3511332,5.83873534 12.9573904,5.26404345 13.3099158,5.25330155 C15.3203361,5.19207269 17.3353451,5.30674252 19.3479248,5.28740709 C20.412519,5.27693374 21.4744139,5.09190443 22.5398179,5.02664736 C27.6050082,4.71728051 32.6685788,4.3646775 37.737548,4.14044024 C41.8177726,3.9597077 45.9104139,3.77575258 49.9876694,3.90653527 C52.7768306,3.99623017 55.539269,4.82980196 58.3305897,4.95413951 C61.1426947,5.07955124 63.9742346,4.66947904 66.7992962,4.62275175 C69.7155933,4.57468173 72.6353995,4.63886461 75.5514266,4.73070789 C79.7266658,4.86202767 83.8989357,5.07444884 88.073365,5.23101209 C92.9193741,5.41255028 97.7656531,5.68029225 102.613012,5.70687846 C106.652747,5.72889937 110.693023,5.43698811 114.734378,5.31936426 C121.063909,5.13540914 127.393979,4.87948327 133.72486,4.85155432 C137.67147,4.83409872 141.618081,5.23342902 145.56766,5.34433919 C148.125764,5.41630995 150.690075,5.25383864 153.250068,5.28848128 C156.691374,5.33520857 160.131061,5.52399754 163.572097,5.55165794 C166.436838,5.57475304 169.309677,5.30539978 172.16686,5.4324228 C176.110771,5.60751585 180.038486,6.18757869 183.982398,6.31433316 C189.455178,6.49023185 194.937677,6.35327257 200.414236,6.45290373 C203.776724,6.51413259 207.133813,6.83370425 210.49657,6.91587982 C214.170284,7.00557472 217.847776,6.98221108 221.52311,6.95804179 C224.648061,6.93736363 227.772202,6.81383172 230.897153,6.80604384 C231.738247,6.80416401 232.756954,6.83075022 233.351604,7.28647552 C233.679836,7.53783609 233.357543,8.71863994 233.223389,9.46171118 C232.722943,12.2301685 232.235454,15.0031912 231.605173,17.7431825 C231.477497,18.2971962 230.816985,19.0236175 230.284957,19.1401671 C228.062374,19.6265069 225.785535,19.8641715 223.550805,20.3045896 C223.0482,20.4036837 222.419809,20.8607517 222.226541,21.3127173 C221.827588,22.2461888 221.639448,23.2784859 221.441052,24.2852709 C220.760024,27.7457754 220.111928,31.2129936 219.451956,34.6777949 C219.368548,35.1163332 219.336966,35.5709843 219.199843,35.9915298 C218.786044,37.2571947 218.235392,38.1482357 216.539977,37.9742169 C213.917361,37.7054007 211.263434,37.6997612 208.621653,37.6608218 C203.683059,37.5880454 198.742305,37.6366525 193.805331,37.5133892 C188.5933,37.3834121 183.385048,37.1116419 178.174907,36.9019063 C178.176256,36.8465854 178.177336,36.7912646 178.178416,36.7356753" id="Fill-7" fill="#FFFFFF"></path>
                    </g>
                    <path d="M84.653788,31.3263207 C84.3517391,31.4020511 83.8620906,31.18963 83.6167264,30.9428347 C83.1181703,30.4411878 82.7346033,29.8272879 82.2932717,29.2676347 C80.1765,26.58189 78.0033134,23.9366961 75.9945127,21.1730726 C75.6967826,20.7635375 75.9343188,19.6181819 76.3230145,19.1232486 C78.5949946,16.2280368 81.1833297,12.9890841 83.3964656,10.7179769 C84.6332736,9.4488209 85.0284475,11.1535611 84.5215236,11.8904558 C83.5724583,13.2697163 82.642558,14.494562 81.8408732,15.5977556 C80.7563043,17.0906118 79.509779,18.4663812 78.4055054,19.9460785 C78.2057591,20.2132834 78.176067,20.873642 78.3687953,21.1209743 C80.2833913,23.5784535 82.459817,26.1089777 84.2116467,28.417413 C85.7129837,30.3955347 84.653788,31.3263207 84.653788,31.3263207" id="Fill-19" fill="#C2B2C7" opacity="0.334522192"></path>
                    <path d="M92.4097239,26.6595003 C94.208521,24.5744966 95.7584449,22.799934 97.2700391,20.9936828 C97.4284866,20.8040882 97.4816623,20.3693096 97.3761207,20.1448038 C96.5020953,18.2835003 95.6048562,16.4315959 94.6314975,14.6207794 C94.5348634,14.4408525 93.7102348,14.3772067 93.5188562,14.562236 C92.1735373,15.8636177 90.8600699,17.2055501 89.6383779,18.6216017 C89.2440138,19.0786697 88.7964739,19.9680994 88.9881225,20.3679668 C89.9990011,22.4779454 91.206387,24.494738 92.4097239,26.6595003 M95.7238942,11.9833733 C96.5898217,14.2278942 97.579646,16.4511999 98.7810935,18.5270729 C99.8227438,20.3271476 99.274521,21.9166809 98.3659449,23.2400836 C96.7955065,25.5281092 95.039088,27.6614514 94.0773362,30.326518 C93.9234775,30.7518974 92.9919576,31.1112141 92.4272692,31.1012778 C92.0647565,31.0951012 91.6088489,30.4078879 91.3799504,29.9368554 C90.7253761,28.5922375 90.2643399,27.1474513 89.5409341,25.8447268 C88.7686714,24.4536502 87.6851822,23.2328328 86.9212873,21.8379965 C86.2610446,20.6319491 86.0235083,19.2473176 86.9458507,18.0297228 C88.021242,16.609643 89.2140518,15.2779154 90.3399196,13.8946266 C91.1000355,12.9608866 91.8237112,11.9973377 92.5635826,11.048559 C93.8106478,9.4488209 95.1602855,10.5230114 95.7238942,11.9833733" id="Fill-13" fill="#C2B2C7" opacity="0.334522192"></path>
                    <path d="M118.034134,19.323612 C118.033324,19.3695337 118.080561,19.402565 118.12456,19.388332 C120.58063,18.5907456 120.84327,17.7072239 119.326007,15.888351 C119.058779,15.5677051 118.538898,14.6694133 118.224973,14.190593 C118.188532,14.1355407 118.102426,14.1607842 118.101346,14.2268469 L118.034134,19.323612 Z M116.067982,29.3930733 C115.260628,28.9185497 115.469012,27.5656068 115.465503,26.6426087 C115.457136,24.4316562 115.622601,22.2207037 115.70304,20.0089455 C115.764583,18.3200496 115.854199,16.6298109 115.835844,14.940915 C115.822078,13.6516179 115.599927,12.3644692 115.592099,11.0757092 C115.58913,10.5947404 115.800484,9.96472772 116.144371,9.66207456 C116.803804,9.08174317 117.495628,9.47623961 117.962333,10.1774174 C118.626895,11.1758775 119.304413,12.1652069 120.082884,13.0790744 C121.192556,14.3820674 122.141351,15.8467261 123.297721,17.1204474 C124.080511,17.9822167 123.705311,19.3510039 122.449878,19.9171022 C121.937286,20.1483217 121.420105,20.3698735 120.743666,20.6666186 C122.047416,22.7188595 123.19056,24.6682466 124.484322,26.5129002 C125.744614,28.3100208 125.824243,29.2284536 124.329654,30.3746148 C124.079431,30.5666264 123.716918,30.4981467 123.56279,30.2236911 C122.161326,27.7235128 120.368467,24.1279288 118.914098,21.5334903 C117.840326,21.9384601 117.834387,22.6076808 117.917255,24.7412916 C118.155871,26.0405249 118.374243,27.7100854 118.026846,28.739697 C117.86219,29.2265738 116.512552,29.6543701 116.067982,29.3930733 L116.067982,29.3930733 Z" id="Fill-9" fill="#C2B2C7" opacity="0.334522192"></path>
                    <path d="M105.077612,19.323612 C105.076802,19.3695337 105.12404,19.402565 105.168038,19.388332 C107.624109,18.5907456 107.886748,17.7072239 106.369485,15.888351 C106.102257,15.5677051 105.582377,14.6694133 105.268451,14.190593 C105.232011,14.1355407 105.145904,14.1607842 105.144824,14.2268469 L105.077612,19.323612 Z M103.11146,29.3930733 C102.304107,28.9185497 102.512491,27.5656068 102.508982,26.6426087 C102.500614,24.4316562 102.66608,22.2207037 102.746518,20.0089455 C102.808061,18.3200496 102.897677,16.6298109 102.879322,14.940915 C102.865556,13.6516179 102.643406,12.3644692 102.635578,11.0757092 C102.632609,10.5947404 102.843962,9.96472772 103.187849,9.66207456 C103.847282,9.08174317 104.539107,9.47623961 105.005811,10.1774174 C105.670373,11.1758775 106.347891,12.1652069 107.126362,13.0790744 C108.236034,14.3820674 109.18483,15.8467261 110.341199,17.1204474 C111.123989,17.9822167 110.74879,19.3510039 109.493357,19.9171022 C108.980764,20.1483217 108.463583,20.3698735 107.787145,20.6666186 C109.090895,22.7188595 110.234038,24.6682466 111.527801,26.5129002 C112.788092,28.3100208 112.867721,29.2284536 111.373132,30.3746148 C111.122909,30.5666264 110.760397,30.4981467 110.606268,30.2236911 C109.204804,27.7235128 107.411945,24.1279288 105.957576,21.5334903 C104.883804,21.9384601 104.877866,22.6076808 104.960734,24.7412916 C105.199349,26.0405249 105.417721,27.7100854 105.070324,28.739697 C104.905668,29.2265738 103.556031,29.6543701 103.11146,29.3930733 L103.11146,29.3930733 Z" id="Fill-11" fill="#C2B2C7" opacity="0.334522192"></path>
                    <path d="M134.021807,28.3589233 C132.950195,28.7840342 130.460383,29.1530186 128.654028,29.3861179 C128.344421,29.4264001 127.660964,28.7934333 127.635051,28.4368021 C127.523571,26.8974872 127.387258,25.3117135 127.635861,23.8043558 C128.282878,19.8787268 128.825432,15.9643768 128.639992,11.9694625 C128.575749,10.5861737 128.950678,10.429879 130.259557,10.7628781 C130.977024,10.9454905 131.752256,10.8979575 132.499686,10.9707339 C133.11728,11.03062 134.070664,10.7188363 134.322776,11.2371332 C134.53116,11.6649295 134.331954,12.7861158 133.981048,13.1083729 C133.49005,13.5592644 132.680267,13.5222048 132.010037,13.5034065 C131.060702,13.4770888 130.520847,13.2085412 130.722483,15.1423525 C130.790774,16.9679392 131.658051,16.2914678 132.492128,16.3129516 C132.626821,16.3164427 132.761515,16.3175169 132.896209,16.3196653 C132.896479,16.3086548 132.896479,16.2973758 132.896749,16.2860968 C133.255753,16.2920049 133.778062,16.0680362 133.959724,16.3306757 C134.263122,16.7697511 134.473126,17.9795581 134.215885,18.4468309 C133.967282,18.8982595 133.216613,18.9116868 132.694303,18.9487464 C130.893077,19.0771122 130.250919,18.8477725 130.214479,21.7703762 C130.152396,22.8851173 130.028769,23.9960988 129.936724,25.1092286 C129.866812,25.954348 130.278452,26.2237012 131.083916,26.1017806 C131.92582,25.9744891 133.170186,25.5249404 133.759977,26.0985581 C134.215075,26.5411245 134.612408,28.1242127 134.021807,28.3589233" id="Fill-17" fill="#C2B2C7" opacity="0.334522192"></path>
                    <path d="M145.738093,13.8172312 C144.488868,15.1913893 143.367319,16.4130124 142.268714,17.6550451 C142.181257,17.7544078 142.219587,18.0003974 142.255757,18.1658227 C142.688181,20.144213 144.045917,21.5401235 145.228469,23.229825 C146.27039,21.6977609 147.180315,20.3969163 148.037065,19.0619661 C148.180397,18.8385345 148.210089,18.4075156 148.091051,18.1744162 C147.371964,16.7653469 146.594303,15.3860864 145.738093,13.8172312 M141.997707,22.7692659 C141.206279,21.269696 140.133857,19.9309862 139.282236,18.4657904 C138.508893,17.1354055 138.822279,16.0330176 140.150863,15.3017624 C141.921317,14.3272031 143.099281,12.9073919 143.797044,11.0264844 C143.907714,10.7275909 144.531516,10.3250381 144.746109,10.4085564 C145.568038,10.728128 146.595922,11.0393747 147.043732,11.6943623 C148.223315,13.4200493 149.177239,15.3047164 150.147629,17.1638716 C150.832165,18.4754581 150.911254,19.7999349 149.886609,21.0473386 C148.453024,22.7928981 147.248067,24.6289581 147.277219,27.0375616 C147.283698,27.563915 146.916056,28.1418294 146.599431,28.615816 C145.881424,29.690812 144.783899,29.6043397 144.248363,28.4305181 C144.015955,27.9205462 143.99517,27.321685 143.81243,26.7827099 C143.459364,25.7399396 142.511379,23.7435566 141.997707,22.7692659" id="Fill-15" fill="#C2B2C7" opacity="0.334522192"></path>
                </g>
            </g>
        </g>
    </g>
</svg>