<svg xmlns="http://www.w3.org/2000/svg" width="243" height="42">
  <g id="Page-1" fill="none" fill-rule="evenodd">
    <g id="Mobile-Portrait-Copy">
      <g id="contacto">
        <g id="Enviar">
          <path class="bgsvg" id="Fill-4" fill="#000" d="M183.916881 2.40660357c5.203393.0845925 10.049942.15092375 14.896221.2454525 7.195189.14018187 14.393346.25404606 21.581247.50272115 1.04165.03598538 2.339192.6447828 2.987558 1.18456352 1.827949 1.52159077 3.545768 3.10226202 4.962078 4.74899598.616244.71675358.752828 1.70124908.448079 2.47600898-.337139.8563983-1.842525.9565666-3.347911.7129939-5.55025-.896949-5.88577-.690973-5.568875 2.4848711.131455 1.3166889 1.529679 1.427062 3.192163 1.4689554 4.874891.1232634 9.750593.2312195 14.626833.3198402 3.31552.0601547 5.023352 1.2914455 4.28375 3.1014564-.316085.7742228-.562259 1.5605302-.752018 2.348986-.244284 1.0172583-.754987 1.7828876-2.728967 2.2493548-3.833511.9058111-6.088216 2.4094092-5.164254 5.0312395.541745 1.5374351-1.430076 2.3989358-4.166601 2.4102148-1.769645.0072508-3.529033.3872457-5.273574.6391433-.520961.0749248-.955004.3112467-1.465707.4229625-3.034795.6627755-3.363567.8539814-2.775395 2.7762453.370881 1.2124924 2.108134 1.6870161 4.219507 1.790944 2.007721.0982884 4.012743.1697221 4.699709 1.6225647.467784.9893294-.172214 1.3822145-1.772075 1.3865113-4.535322.0123532-9.074693-.0566636-13.607317-.0136959-2.253085.0217523-4.490514.2424985-6.74144.3313877-4.442197.1756302-8.883855.3665675-13.33415.4713011-9.222344.2169864-18.445228.462439-27.67756.5438089-7.93344.0698224-15.880107-.0574692-23.821105-.1251432-6.269877-.053441-12.541643-.0958715-18.808821-.2414243-5.796424-.1348109-11.586099-.4567995-17.382523-.5899991-4.862745-.1117158-9.7360165-.1369593-14.5963317-.0827127-11.000087.1232634-21.9712917.3885884-32.9978316-.3883198-4.3838931-.3088298-8.9302826.3332676-13.3595235.1364222-3.2950054-.146627-6.4059203.4192028-9.8188841.0469958-3.9069311-.4261851-8.0891884-.1619342-12.1086793.0314201-2.0303949.0974828-2.4997989-.4815059-2.685779-1.2433755-.3193243-1.3070212-1.4770435-1.6840621-3.7336377-1.5718092-4.2829402.2124212-8.59368295.2774097-12.8868804.4409552-1.71296016.0652571-2.8280308-.2658621-3.13439856-1.2433754-.42756522-1.3642219.4891087-2.2622451 2.31327898-2.4496913 5.1699221-.5314558 10.35280068-1.0371309 15.47791488-1.6749315 1.2748677-.1584431 3.1063261-.6598215 3.3624873-1.2092699.5468732-1.1743587-1.3639438-2.7367687-3.1430362-3.1935682-1.605529-.4122206-3.2018805-.8359887-4.7987718-1.2594883-2.0808714-.5515968-2.1219003-1.5664382-2.0576576-2.6384803.0642428-1.0693566 1.0041305-1.6604299 2.8542138-1.7764425 2.7897011-.175093 3.7047554-1.2025562 3.7179819-2.5871877.0140362-1.4235709-.1427917-2.8495587-.1897591-4.2742038-.0299619-.9125248-.938808-1.1711361-2.3664547-1.0441131-1.1760743.104465-2.3607862.2057075-3.5060888.3773094-2.15915033.324137-3.33738402-.0341055-3.29257605-1.2952051.0391395-1.0983598.38680616-2.2370016 1.0440797-3.2639277 1.20819565-1.886547 1.46111775-3.81230193 1.56396015-5.79901717.0653225-1.26217378 2.5284112-2.36429318 4.8422301-2.44351473 4.9448025-.16891645 9.8958134-.29647656 14.8435851-.44632613.7169276-.0214838 1.612817.06901674 2.1167718-.13185688 5.2616974-2.097894 10.9995471-.6437087 16.4890634-.4729124 12.5427228.39073673 25.0795072.9232667 37.6046847 1.5162198 12.4285435.58811925 24.7485763-.05827485 37.1161163-.29244837 7.874596-.14904393 15.79292.1369593 23.691.2629081 8.486252.13561655 16.971963.29459674 25.456866.48123733 2.475775.05451516 4.947232.2357848 7.419768.3665675 1.571518.08324974 3.144656.1839551 3.253436-1.1781184"/>
          <path id="Fill-29" fill="#FFF" d="M75.2122578 24.8145923c.1198478 1.0639857.3625127 2.131731.3293116 3.1911513-.0415689 1.330922.6464764 1.3234027 1.6176757 1.1794611 1.7267265-.2553887 3.4575018-.5086291 5.1958352-.6520336.6912844-.0569321 1.508625.0072508 2.0800615.3381015.4675145.270696.8813135 1.0191382.8813135 1.5556963 0 .3109781-.8454131.8515645-1.344779.8948006-3.0650272.264788-6.1408515.4041642-9.2112772.6128257-1.273788.0864723-2.6155978-1.0492155-2.3073406-2.1725502.890491-3.2443237.1036522-6.4891845.1330743-9.7305542.0143061-1.5599931-.0637029-3.1291168-.2342971-4.6794421-.0888062-.8080598-.4907283-1.5785229-.70775-2.3774521-.119308-.4398809-.3617029-1.1238717-.1703243-1.3078268.3222935-.3090983 1.0292337-.5395122 1.4287265-.3974505 2.2789982.8099396 4.5056304.3082927 6.7749112.0091306 1.2100851-.1597858 2.5011485-.0974828 3.6901793.1611286.4626558.1007053 1.0500182 1.0237035 1.0389511 1.5610673-.0167355.803763-.7946666.9659657-1.6198351.9662343-2.4109928.0008056-4.8233352.0886207-7.2310888.2167179-.2872029.0153072-.7811703.4863397-.7852192.7519333-.0199746 1.3373671.0348207 2.6833278.1978569 4.0102215.0369801.304533.5768351.727764.9304402.7774453.7428406.1036594 1.5175326-.0478014 2.2757591-.0153072 1.0300435.0440418 1.7839511.5988612 1.7561485 1.6378719-.0283424 1.0709679-.9388079 1.1472354-1.802846 1.0975541-.1792319-.0102048-.3592735-.0091306-.5387754-.0147701-2.4895416-.0781474-2.4895416-.0781474-2.3767119 2.3860455"/>
          <path id="Fill-21" fill="#FFF" d="M93.1645444 20.2481013c-.0426486.3705957-.1211975.74146-.1225471 1.1123242-.011067 3.1997448.0375199 6.4011009-.0566848 9.5978917-.0172754.5875822-.480471 1.2565343-1.0367917 1.4541853-.960942.3415926-1.6384601-.3598538-1.940779-1.2116868-.18625-.5244735-.1881394-1.1569031-.1168786-1.7213902.7198968-5.7109335.6022084-11.4119308-.1705942-17.1037975-.1012228-.7462938.1843605-.9732165.8478424-1.0092019 1.4397935-.0784159 2.7208696.7761026 3.2167265 2.1438156 1.4619275 4.0311682 2.9287137 8.0607252 4.4025181 12.0878652.1017627.2776782.2766757.5287702.5603695 1.0596888.1233569-.541929.2259294-.8072541.2383461-1.0771444.2113532-4.5999521.3959837-9.2012469.6351395-13.7998562.0180851-.3472321.1865199-.6866763.3506358-1.0266575.1104001-.2293397.3857261-.3273596.6165141-.2180607.441332.2091986.890491.4100722 1.22979.7272269.268848.2516291.332011.8255154.323104 1.2508948-.07801 3.6208275-.235377 7.2403122-.283154 10.8611397-.030772 2.3446892.07315 4.6915268.135503 7.0367531.033201 1.2519689-.636489 2.2125637-1.71404 2.3900737-1.3177859.2169865-3.1079453-.8284694-3.4955613-2.1615397-.6588931-2.2668104-1.1925398-4.5698747-1.8581811-6.8345368-.3649421-1.2431069-.8915707-2.4392179-1.3455888-3.6565443-.1387428.0327628-.2769457.0655257-.4156884.098557"/>
          <path id="Fill-27" fill="#FFF" d="M113.537244 26.4641729c.532837-1.897826 1.074852-3.793235 1.567469-5.7009973.791428-3.0670823 1.531299-6.1475919 2.281968-9.224879.206764-.8480734.814911-.9434078 1.448701-.6735174.870786.3705957 1.552893.9498529 1.207386 2.0737246-.590602 1.9201155-1.297002 3.8147189-1.738334 5.7684028-.973628 4.3101891-1.812563 8.6504557-2.706293 12.978369-.271547 1.3148091-.962562 1.768386-2.290605 1.5213222-.693174-.1291714-1.547765-.0295402-2.044431-.4057754-.535806-.4063126-.928011-1.2124925-1.055417-1.9042711-.637029-3.4567449-1.076201-6.9508179-1.761547-10.3970894-.55713-2.800146-1.387698-5.5455082-2.035524-8.3295413-.078279-.3367587.04022-.7191705.132805-1.0954057.043998-.1796584.215402-.295671.400032-.2763355.52447.0550522 1.107783.0558579 1.37798.3456207.515022.552671.844334 1.3650276 1.027884 2.1212576 1.064595 4.3818914 2.060627 8.7804328 3.089321 13.1711863.00135.0064451.002699.0131588.004319.0196039.578455.0042968.515831.0037597 1.094286.008325"/>
          <g id="I" fill="#FFF">
            <path id="Fill-31" d="M126.3985895 17.09752758c.0078279.02497492.01160688.0507555.01106702.07707316-.06343297 3.86977106-.12092753 7.73954216-.19488768 11.60931326-.02132427 1.1160839.07288044 2.2724499-.1951576 3.3326759-.17653262.6971496-.78926812 1.4799659-1.42440762 1.8100109-.59033152.3069499-1.7772029-1.2393472-1.70837137-2.1373704.1981268-2.5791313.50962318-5.1528916.60598732-7.7349769.09528442-2.5364322-.0332011-5.0806523-.03158153-7.62138127.00053986-.6592844-.596-1.63303803.63567935-1.80061174.9755181-.1329311 1.9561648.7334035 2.08573 1.6647266.01538584.1087618.0305018.21752352.06424273.3225257l.15169927.4780147z"/>
            <path id="Fill-33" d="M125.09429964 8.7775197c.13469384-.08110137.29044203-.12406898.4459203-.0998997 1.04677897.1624713 1.78287136.9909407 1.75128984 1.88923246-.04966666 1.4061153-1.40740217 3.2319705-2.38373007 3.20511575-1.04273-.0290031-3.0453224-2.7880613-2.7168206-4.0867575.4367428-1.728641 2.0662953-.4028214 2.9033406-.9076909"/>
          </g>
          <path id="Fill-23" fill="#FFF" d="M135.10324 20.0881275c1.621994-.1334682 1.75048-.7691204.585472-2.5616757-.210273.9200441-.379788 1.6615041-.585472 2.5616757m4.688911 2.6446569c.85702 2.9298544 1.634681 5.5683347 2.396417 8.2111118.14657.507555.292871 1.0280003.331471 1.5505939.063433.8617693-.490729 1.4343128-1.258942 1.4238395-.503685-.0067137-1.288365-.4294077-1.447892-.8523702-.561449-1.4890965-.925311-3.0539234-1.329123-4.5991464-.361163-1.3822145-.627042-2.7910153-1.038681-4.1573856-.152239-.5048695-.645667-1.3328018-.906147-1.3048728-.96715.104465-2.288445-.1938914-2.49494 1.3956419-.281534 2.168522-.67131 4.3238851-.917214 6.4958982-.160607 1.4171258-.623263 2.1650309-1.540206 2.081244-1.261102-.115744-2.021488-1.1512636-1.784491-2.5160226.29773-1.7136023.648906-3.418074.96661-5.1281852.079899-.4294076.122007-.866066.133074-.947973-.827327-.8056429-1.516992-1.3432752-2.013119-2.0208208-.227819-.3109782-.26129-1.0328342-.046698-1.3207172.229709-.3088297.866738-.479626 1.30483-.4449834 1.800687.1415246 1.828489.1670366 2.183174-1.5857736.396524-1.9598605.724216-3.9352968 1.19254-5.8777016.093665-.3896626.641618-.871437 1.051098-.9509271 1.75129-.3399813 2.738954.4143689 3.198101 2.1615397.407861 1.5535479.851082 3.1027991 1.393906 4.6133794.129835.3617337.688045.7269584 1.099145.7962437.598699.1009739 1.242206-.0969457 1.867359-.1101045 1.073232-.0222895 2.220693.9267578 2.143224 1.8124278-.102842 1.1845635-.96607 1.3580453-1.952386 1.3193744-.70802-.0276604-1.417119-.0260491-2.53111-.0443103"/>
          <path id="Fill-25" fill="#FFF" d="M149.693552 15.9096341c-.03671 2.2292137-.069911 4.2422466-.109321 6.6489703 1.201448-.750322 2.056038-1.2202803 2.823172-1.8041029.215402-.1640825.357114-.7908727.218911-.9879866-.886172-1.2640536-1.8598-2.467684-2.932762-3.8568808m4.685942 7.8829466c.722056.939111 1.407132 1.839014 2.101926 2.7311292.865117 1.1107129 1.739683 2.213638 2.60696 3.3224711.732583.936694.276136 1.7063515-.431614 2.3409295-.78279.7019835-1.464897.2102728-1.931332-.4369269-.673739-.9340086-1.183902-1.9840298-1.852783-2.9220666-.888331-1.2457924-1.86223-2.4314301-2.738954-3.5644325-1.949147.9528069-2.636922 2.2085356-2.291955 4.0392247.138743.7366261.257511 1.5755688.034011 2.2536515-.215942.6547191-.787109 1.3994016-1.390397 1.6416316-.339839.1369593-1.297002-.5462259-1.548844-1.0650599-.329851-.6794254-.311226-1.5613358-.314466-2.3567738-.022404-5.7085166.012417-11.4173018-.03563-17.1255498-.008098-.9818101.251572-1.3328018 1.223312-1.1233347.435933.0939917.886172.1506552 1.331552.1624713 1.218453.0327628 1.831188.6700263 2.434207 1.7310579 1.156369 2.0366651 2.406674 4.0854149 3.973603 5.8094905 1.919994 2.1118585 1.977219 2.7536873-.55902 4.0639311-.115529.059349-.206495.1654253-.610576.4981558"/>
        </g>
      </g>
    </g>
  </g>
</svg>
