<svg xmlns="http://www.w3.org/2000/svg" width="276" height="184" xmlns:xlink="http://www.w3.org/1999/xlink">
  <title>
    Hate Planet
  </title>
  <defs>
        <linearGradient id="logo-gradient" x1="50%" y1="0%" x2="50%" y2="100%" >
              <stop offset="20%" stop-color="#23A2AE">
                <animate attributeName="stop-color" values="#23A2AE; #DB43F4; #23A2AE" dur="3s" repeatCount="indefinite"></animate>
              </stop>
              <stop offset="100%" stop-color="#DB43F4">
                <animate attributeName="stop-color" values="#DB43F4; #23A2AE; #DB43F4" dur="3s" repeatCount="indefinite"></animate>
              </stop>
          </linearGradient>
    <path fill="url('#logo-gradient')" id="path-1" d="M225.365006 74.1323796c-.490056 8.9237956-.587279 18.4756204-.936755 26.9881754 4.725815-5.3947448 10.47641-12.4094893 13.365502-15.9319711.580709-.7646715-6.445606-5.9308029-8.588448-7.9121167-.911792-.8421898-1.280976-1.2363504-3.840299-3.1440876zm18.606334 1.8670073c5.4563 4.7023357 7.103831 8.1512408 1.671181 13.559124-7.672715 9.1366424-10.484293 12.8772261-16.396488 19.9944531-2.092917 2.462189-3.959857 4.610364-6.061971 7.516642-.613554.848759-2.322835 1.734306-3.094048 1.443941-1.135142-.427007-2.454218-1.788175-2.668371-2.940438-.416481-2.248029-.212839-4.6327-.102478-6.951678.538667-11.4056938 1.380826-34.2275916 1.640962-45.6411682.045984-2.0141606-.525528-4.8849635 2.163864-5.2870073 1.764462-.2640876 3.731252 1.830219 5.207987 3.0324087l17.639362 15.2737227z"/>
    <filter id="filter-2" width="200%" height="200%" x="-50%" y="-50%" filterUnits="objectBoundingBox">
      <feOffset dy="2" in="SourceAlpha" result="shadowOffsetOuter1"/>
      <feGaussianBlur stdDeviation="2" in="shadowOffsetOuter1" result="shadowBlurOuter1"/>
      <feColorMatrix values="0 0 0 0 0 0 0 0 0 0 0 0 0 0 0 0 0 0 0.5 0" in="shadowBlurOuter1"/>
    </filter>
    <path fill="url('#logo-gradient')" id="path-3" d="M123.56318 135.908511c.110361-6.335475 1.01427-4.94146-5.235577-4.890219-2.042992-.010511-4.149047.609635-6.189411.575474-1.910296-.030219-3.932267-.172116-4.272546-2.642189-.299552-2.175767 1.80519-4.812701 4.133281-5.059708 1.844605-.194453 4.286998-.520292 6.156566-.467738 5.977886-.462481 5.816286.271971 5.529873-3.770803-.101164-1.422919-.197073-4.618248.007883-5.419708 1.204774-4.707591 6.569105-1.488613 6.930406.821168.356046 2.28219-.433561 7.440438.731799 7.349781 2.510712-.194452 3.866575.005256 8.383492-.650365 1.522719-.130073 3.041496-.285109 4.556332-.292992 3.218862-.018394 4.677203 2.459562 2.827343 5.117518-.861867 1.235036-.919675 1.679124-2.401665 2.010219-1.751323.391533-5.58374 1.101022-7.44411.964379-6.412761.722628-6.653191-.81197-6.561223 4.224088-.026277 5.802044-.218095 11.271679.031531 16.850365.233861 5.24365-.15503 10.851241-.123499 16.215766 0 4.689198-.094595 8.759562-2.003577 9.257519-1.257327.327153-2.547499.018394-3.601184-.450657-1.033977-.461168-1.935258-2.362336-1.993066-3.670949l.537352-36.070949z"/>
    <filter id="filter-4" width="200%" height="200%" x="-50%" y="-50%" filterUnits="objectBoundingBox">
      <feOffset dy="2" in="SourceAlpha" result="shadowOffsetOuter1"/>
      <feGaussianBlur stdDeviation="2" in="shadowOffsetOuter1" result="shadowBlurOuter1"/>
      <feColorMatrix values="0 0 0 0 0 0 0 0 0 0 0 0 0 0 0 0 0 0 0.5 0" in="shadowBlurOuter1"/>
    </filter>
    <path fill="url('#logo-gradient')" id="path-5" d="M129.079521 16.9072263c2.077152-3.4581022 3.333165-5.4197081 4.75866-7.39970805.860553-1.19430657 2.5475-3.9389781 3.777236-5.5261314 1.810446-2.78014597 4.599688-4.3817518 6.801652-3.89036495 3.210979.51240876 2.829971 3.5658394 2.992885 6.31839416.298237 5.05970804-.026277 10.15357664.208897 15.21985404.310062 6.7467153-.516331 14.4170803-.310061 21.1637956.086712 2.8616058.46772 5.7232117-.659539 8.2931387-1.730302 3.9389781-2.994198 3.4922628-5.841248.3218978-1.919493-2.1389781-1.384768-3.7708029-1.714537-7.3839416-.162914-5.6654015-.162914-11.5567883-.088026-17.2510949.015766-1.1535766.08934-5.9058394.088026-7.8766423-3.519727 4.5775182-8.539837 12.7826277-10.013945 12.9455474-1.204774.1327007-10.186055-15.0529927-10.275395-11.5173723-.035473 1.3913869-.469034 8.6859854-.57414 10.5779562-.282471 5.0518249-.786979 8.3575183-1.143024 13.6143066-.211525 3.1283212-.71866 6.2145986-1.421555 9.2470073-.317944 1.3743066-1.259954 2.9364964-3.285866 2.8786861-1.870881-.0525547-2.383272-1.0773722-3.308202-2.6237956-.987993-1.6554744-1.090471-4.09927-.919675-6.1436496.951207-11.3728467 2.077152-22.7312409 3.207038-34.0883212.25094-2.52.772527-5.01109487 1.139083-7.52058392.488741-3.3451095 1.085216-5.35138686 4.389476-5.9189781 3.170251-.54262774 5.190907.99328467 6.596696 3.75240876 1.505639 2.95751824 3.188644 8.45211676 5.595564 12.80759126"/>
    <filter id="filter-6" width="200%" height="200%" x="-50%" y="-50%" filterUnits="objectBoundingBox">
      <feOffset dy="2" in="SourceAlpha" result="shadowOffsetOuter1"/>
      <feGaussianBlur stdDeviation="2" in="shadowOffsetOuter1" result="shadowBlurOuter1"/>
      <feColorMatrix values="0 0 0 0 0 0 0 0 0 0 0 0 0 0 0 0 0 0 0.5 0" in="shadowBlurOuter1"/>
    </filter>
    <path fill="url('#logo-gradient')" id="path-7" d="M48.0530185 108.207562c-.5373528 2.295329-.5018796 4.733869-1.1995187 6.960876-.8566113 2.738102-3.3765203 3.250511-5.61133 1.390073 0 0-11.7468748-8.798978-15.9366505-11.308467-5.5981918-3.352993-6.8489495-4.381752-3.643226-10.1851097 3.3476163-6.0621898 6.3168521-12.3332847 9.4253529-18.5255474 2.6788813-5.3343066 5.1961626-10.7566424 8.0826276-15.9753285.6043577-1.0931387 2.5185951-2.0049635 3.8153366-1.9865693.9025951.0131386 2.0942309 1.6160583 2.6092488 2.7564963 1.3506081 2.9956204 2.7485138 5.9794161 3.9178146 9.0578102.2798439.7344526.5255285 1.6659854.4164813 2.3386862-.1813073 1.119416-.1681691 2.8327007-1.2573268 3.2439416-.9393821.3534306-1.9891252-.7016059-2.6552325-1.3769343-1.2862309-1.3020438-2.3346602-2.8392701-4.2909399-5.2962044-5.5916227 8.9816058-9.9548227 19.0011679-13.6164422 28.1614598 3.7378211 3.6131385 8.2757593 6.7256935 12.5903479 9.1970805 3.055948-9.6135768 5.5561496-12.3175184 0-11.3872995-4.4893268.6845256-3.4711154-1.5924087-2.8339122-4.1689051.6634797-2.6881751 1.5713301-2.6868613 4.5037789-2.8103649 2.2072195-.0932847 5.031935-.3915329 7.3652813-.3810219 4.2778016-.0591241 6.4758244.3810219 6.4626862 3.19927-.0065691 1.4623358-1.153535 2.9062774-3.6222049 3.150657-1.5818407.1550365-3.702348 10.4478834-4.5221724 13.9454014"/>
    <filter id="filter-8" width="200%" height="200%" x="-50%" y="-50%" filterUnits="objectBoundingBox">
      <feOffset dy="2" in="SourceAlpha" result="shadowOffsetOuter1"/>
      <feGaussianBlur stdDeviation="2" in="shadowOffsetOuter1" result="shadowBlurOuter1"/>
      <feColorMatrix values="0 0 0 0 0 0 0 0 0 0 0 0 0 0 0 0 0 0 0.5 0" in="shadowBlurOuter1"/>
    </filter>
    <path fill="url('#logo-gradient')" id="path-9" d="M247.891126 7.03718248c6.025184-3.34116788 29.903883-.54919708 9.95745 10.35854012-39.373905 23.2778102-80.405853 47.259854-114.433821 70.3655475 25.633964 15.6560579 50.922394 31.3291969 76.451252 46.6029199 13.94227 8.341752 28.391675 15.834744 42.347083 24.155474 2.221672 1.32438 9.882563 3.990219 4.511662 7.578394-2.793184 1.86438-6.733333 3.354307-9.409587 2.058833-31.363538-15.177811-115.262842-68.4000005-115.262842-68.4000005-6.515239-4.2963504-12.807129-6.9306569-20.496924-1.9208759-29.9866536 19.5345984-57.9211187 35.5086134-92.4706731 55.9340144-7.9289106 4.305548-28.29313826 17.28-28.11314476 15.332847.8710634-9.434891 8.39531707-17.194599 10.96777886-18.871095 20.4916683-13.364672 33.6574699-20.61854 54.5432846-33.378832 10.7260357-6.553577 38.4318954-21.2386862 51.2048654-29.0916789-18.6378671-11.2572263-35.1828167-24.2566424-51.913015-33.610073-18.7547968-10.4859854-36.9656716-22.2332847-55.6219317-32.8821898-2.93376265-1.6751825-6.38517078-4.5091971-7.06178867-8.8686131-1.47804878-9.52554748 8.39268947-2.2362044 11.11229917-.5623358C45.1304234 30.8668175 77.761799 48.4752847 108.457916 67.8798102c5.207987 3.2925548 10.381815 6.8846716 16.054894 9.0972263 2.92588 1.1417518 7.386303.5071533 10.351597-.9538686 0 0 84.407753-53.1157664 113.026719-68.98598542"/>
    <filter id="filter-10" width="200%" height="200%" x="-50%" y="-50%" filterUnits="objectBoundingBox">
      <feOffset dy="2" in="SourceAlpha" result="shadowOffsetOuter1"/>
      <feGaussianBlur stdDeviation="2" in="shadowOffsetOuter1" result="shadowBlurOuter1"/>
      <feColorMatrix values="0 0 0 0 0 0 0 0 0 0 0 0 0 0 0 0 0 0 0.5 0" in="shadowBlurOuter1"/>
    </filter>
  </defs>
  <g id="Desktop-" fill="none" fill-rule="evenodd">
    <g id="Menu-">
      <g id="logo">
        <g id="X" fill="#000">
          <g id="Fill-7" transform="translate(3 2)">
            <use filter="url(#filter-2)" xlink:href="#path-1"/>
            <use xlink:href="#path-1"/>
          </g>
          <g id="Fill-3" transform="translate(3 2)">
            <use filter="url(#filter-4)" xlink:href="#path-3"/>
            <use xlink:href="#path-3"/>
          </g>
          <g id="Fill-1" transform="translate(3 2)">
            <use filter="url(#filter-6)" xlink:href="#path-5"/>
            <use xlink:href="#path-5"/>
          </g>
          <g id="Fill-5" transform="translate(3 2)">
            <use filter="url(#filter-8)" xlink:href="#path-7"/>
            <use xlink:href="#path-7"/>
          </g>
          <g id="Fill-9" transform="translate(3 2)">
            <use filter="url(#filter-10)" xlink:href="#path-9"/>
            <use xlink:href="#path-9"/>
          </g>
        </g>
      </g>
    </g>
  </g>
</svg>
