<svg xmlns="http://www.w3.org/2000/svg" width="20" height="49">
  <defs>
    <linearGradient id="a" x1="0%" x2="101.999998%" y1="0%" y2="100.999999%">
      <stop stop-color="#23A2AE" offset="30%"/>
      <stop stop-color="#DB43F4" offset="100%"/>
    </linearGradient>
  </defs>
  <g fill="none" fill-rule="evenodd">
    <path fill="url(#a)" fill-opacity=".45" d="M13.7823592 8.31004435c.6209709-.3603871 1.0862136 2.89781655 4.7757282 4.61024795 1.5869903.7365807 1.2625243 6.9614577 1.0680582 13.7976492-.2574757 9.0563065-.7442718 19.1983186-.7442718 19.1983186s-2.7118447 2.766129-8.3462136 2.6343427C4.90129126 48.4189153.51614563 44.0556431.51614563 44.0556431s.0800971-30.0446068.5016505-30.8719758c.2107767-.413635 1.7892233-1.6314233 2.76699028-2.8813185.9778641-1.24999396 1.1568932-2.49060283 1.2459224-2.45335888.6257282.2622883 1.6681554.62642943 2.868835.88358064 1.9069903.4083992 4.2131068.54670565 5.8828155-.4225262"/>
    <path fill="#000" d="M11.0271262 3.06605645c-.0176699-.02469758-.0354369-.04929637-.0532039-.07389516-.0734951.0420846-.1934951.069252-.2120388.1290201-.0671845.215758-.1036893.4418891-.1423301.665748-.0058252.0333911.0396116.0758709.0613592.1142016.0311651-.0232158.0800971-.0399113.0908738-.0705363.0891262-.2533972.1711651-.5093629.2553398-.7645383zm.633301.72225605c.0512621-.29350605.0976699-.56014113.1439806-.8267762-.0176699-.01501614-.0353398-.03013106-.0530097-.0451472-.0683496.05305042-.1705826.091875-.1990292.16171977-.0937864.23018145-.1608738.471625-.2387378.71020363h.3467961zm-4.40000002-.7369758c0 .26880846-.00398058.52230443.00262136.77550403.00174758.0653004.01980583.1685363.05990292.1868125.09825242.044752.18660194.00365524.1960194-.12516734.0147573-.1975807.02524273-.3953589.03844662-.5930384.01747572-.2653508-.00786408-.2865908-.2969903-.2441109zm1.71708738.06806653c0 .26821572-.00427184.50244758.0032039.73628427.00155338.05127218.04427183.14334476.06805824.14334476.0568932.0000988.12728155-.030625.1669903-.07310484.04087378-.0438629.0614563-.11449798.07407766-.17693347.03213592-.15757056.0514563-.31770968.08242718-.47547782.02126214-.10797782-.00203883-.17782258-.12194174-.17683468-.07660194.00059274-.15330097.01225-.27281554.02272178zm.76728156.84060685c.20398058.0439617.33359218-.00167943.37864078-.20291532.0383495-.17100605.0845631-.34062903.1113592-.5135121.0098058-.0632258-.0299029-.19254234-.0410679-.1919496-.1025243.0063226-.25281558-.08397177-.29242723.0887137-.0614563.2686109-.10436893.54156856-.15650485.81966332zm-1.8432039-.83546976c0 .22306855.0001942.42588508-.00009707.62870162-.0000971.116375-.02883496.24529637.1492233.26060887.16252427.0139295.32980582.0481109.3776699-.1794032.03485437-.165375.04728155-.3381592.10165048-.4962238.06864078-.1993588-.0330097-.2151653-.17728155-.2139798-.15087378.0011855-.30165048.0002964-.45116505.0002964zM6.5519806 3.02199597c.05349515.2479637.1046602.4849617.15582525.72186088.0314563-.00365524.0630097-.00731048.094466-.0110645 0-.25290324.00194176-.50580646-.002233-.7585121-.00048543-.03141533-.02592233-.07745162-.05242718-.0907883-.25640777-.12842743-.5154369-.2514214-.8014563-.3891351-.1046602.48832057.06320387.93129638.08359222 1.38059476.0012621.0285505.1324272.0688569.2027184.0682642.0313592-.0002964.0861165-.0873306.0885437-.1371209.0081553-.1618185.0101941-.3264032-.0101942-.4865423-.02-.1571754.0415534-.2368992.241165-.2975564zm5.55786412.66130242c.4596116-.138998.8907767-.2694013 1.2710679-.384492.0596117-.2830343.1084466-.5153891.1593204-.7574254-.3314563.0945423-.6465048.1716976-.951165.2791814-.0916505.0323044-.1785437.1367258-.225534.2300826-.093301.1855282-.1572816.3863689-.2536893.6326532zM1.02120388 43.6645323c.09271845.1105463.21019418.2432217.31951457.3826149.5284466.6725645 1.12398058 1.2616512 1.87126213 1.6889193.48349515.2764154.9161165.6509295 1.41194175.8977077.56213592.2796754 1.16019417.4958286 1.7593204.6845181.61466018.1936291 1.24815533.326996 1.87631067.4736996.24.0560141.4875728.0803166.73262136.1110404.98126213.1228951 1.97097084.2106209 2.94854364.0484072.7845632-.1301068 1.5565049-.353373 2.3239806-.5721935.7319418-.2086452 1.4531068-.4573992 2.1741748-.7033871.3953398-.1348488.793301-.2740444 1.1666019-.4602641.2945631-.147.5532039-.3686855.8369903-.5633025-.1275728-.2252419-.0872815-.4192661.0362136-.6151673.1980583-.3143508.0835922-.677998.1346602-1.0165524.058932-.3922964.0976699-.7876553.1445631-1.1818286.0052427-.0437642.0084466-.0880222.0098058-.1321815.0231068-.7647359.0489321-1.529373.0671845-2.2942077.0080583-.3397399.0056311-.679875-.0013592-1.0197137-.0107767-.5362338-.0335923-1.0723689-.0426214-1.6087016-.0032039-.1888871.0279612-.3781693.0281554-.567254.0009708-.8035605 0-1.607121-.0080583-2.4104839-.0031068-.3230443-.0424272-.6460887-.0363107-.9686391.0097088-.5150927.0451457-1.0295927.0667961-1.5443891.038835-.9215161.0768932-1.8430323.1126214-2.7645484.0263107-.6769113.0504854-1.3539214.0720388-2.0309315.0280583-.887631.0756311-1.7753608.073301-2.6628931-.003398-1.1795564-.0566019-2.3589153-.0690291-3.5386694-.0070874-.6705887.0434951-1.3418689.0330097-2.01226-.0097087-.6326533-.0660194-1.264615-.1006796-1.8969718-.0172816-.316129-.0245631-.6329496-.0493204-.9484859-.0338835-.4316149-.0648544-.8644153-.1245631-1.2927702-.1042719-.7489294-.3594175-1.442635-.8082524-2.0523689-.3883496-.5275403-.8551457-.9610323-1.4373787-1.2677762-.3749514-.1976795-.7342718-.4277621-1.092233-.6568569-.2514563-.1609294-.4971845-.3341088-.7304854-.5211189-.3032039-.2430242-.4807767-.5961996-.7145631-.89988107-.1139806-.1479879-.2181554-.30387903-.3247573-.45749798-.0203884-.02924194-.0418447-.06391734-.0453398-.0979012-.0316505-.29686493-.0589321-.594125-.0883495-.8912863-.028835-.29162904-.0697088-.58266533-.0853398-.87508468-.0203884-.37994758-.0359224-.76137702-.0262136-1.14152218.0107767-.4264779.0504854-.8522642.0812621-1.2780504.0069903-.0953327.0143689-.1952097.0470874-.2832319.0693204-.1868125.1613592-.3454698.4099029-.3079295.1947573.0294395.4035922.1913568.4426214.3959516.017864.093258.0168932.1915544.014466.2871834-.0180583.7289738-.054369 1.45775-.0526214 2.186625.0012621.4539415.0343689.9116371.0994175 1.3606391.0531068.3663145.2414563.6850121.4688349.9806915.4303884.5598448 1.0287379.874492 1.6213593 1.2051432.4.2229697.8206796.4278609 1.1708737.7175141.366602.3033851.6757282.6850121.9801942 1.0576492.2304855.2820463.4605825.5825665.6058253.9136129.1540776.3511996.2484466.7428044.296699 1.1262097.0972815.7732318.1297087 1.5547621.2178641 2.3294758.1472815 1.2960302.1076699 2.5945302.095534 3.8938205-.0057282.6116109.0294174 1.2235182.0324271 1.8353266.0052428 1.0702944.0073787 2.1407863-.0042718 3.2110807-.0053398.4931613-.0500971.9857298-.0701942 1.4787923-.0239806.5889879-.0384466 1.178371-.061165 1.7674577-.0324272.841002-.0786408 1.6816089-.1006796 2.5229072-.0294175 1.1288771-.0452428 2.2580504-.0598059 3.3872238-.0137864 1.0781976-.0219417 2.156494-.0264077 3.2347904-.0026214.620008.0226213 1.2404112.0075728 1.8599254-.0160194.6641673-.0678641 1.3273467-.0974757 1.9911189-.0136894.3096089-.0014564.6206008-.0197088.9298145-.023398.3955565-.0673786.7899274-.0993204 1.1849899-.0142718.1755504-.0503883.3562379-.0246602.5265525.052233.3468528-.1068932.5750584-.346699.7783689.1709709.3468528-.0216505.7546593-.407767.9958065-.4497087.2806633-.9279612.5208225-1.4126213.734506-.3966991.1749577-.8284466.2660424-1.2305826.4299355-.3579611.1458145-.7552427.1711048-1.0810679.4360605-.1491262.1212157-.4118447.1179556-.6253398.1312923-.2378641.0148186-.4545631.0441593-.6452428.2113125-.0594174.0519637-.1736893.0379355-.2625242.0565081-.3740777.0778468-.7450486.1792056-1.1226214.2296875-.5363107.0717218-1.0773786.1454193-1.6165048.1467036-.67077674.0014819-1.34621363-.0332923-2.01087383-.1205242-.63135922-.0829838-1.25417475-.2424314-1.87592233-.3897278-.42330097-.1002722-.83718446-.2413448-1.25737864-.3556452-.1276699-.0347742-.26271844-.0413931-.42592233-.0655967.00572816.0109657-.0069903-.0521613-.03475728-.059867-.3670874-.1014576-.7006797-.2721673-1.0191263-.4810101-.4746602-.3109919-.9539806-.6145745-1.4305826-.9226028-.5215534-.336875-.9915534-.738754-1.4148544-1.1946713-.2126212-.2290946-.4033979-.4793305-.6032037-.720774-.023301-.0280565-.0347573-.0750807-.063301-.0889113-.3837864-.1867137-.2054369-.5111412-.1999029-.7994113.01-.5238851.0153398-1.0483629.0019417-1.5719516-.0170874-.6622904-.0621359-1.3237904-.0817476-1.9860807-.0275729-.9295181-.0387379-1.859629-.0648544-2.7892459-.0256311-.9143045-.0680583-1.828115-.0901942-2.7425182-.0145631-.6056835.0019417-1.2120585-.0100971-1.8178407-.014466-.7161311-.0496117-1.4317682-.0663107-2.1478992-.0118447-.5081774-.0095146-1.01675-.0108738-1.5252238-.0016505-.6635746-.0050486-1.327248-.0000971-1.9909214.0057281-.7886431.0079611-1.5776814.0327184-2.3659294.0334951-1.0697016.0873786-2.1387117.1314563-3.2081169.0373786-.9064013.0680582-1.8131976.1117476-2.7193025.0362136-.7513992.0779611-1.5026996.1339805-2.2527157.0504854-.6757258.1199029-1.3501673.1886408-2.0243125.034466-.3388508.0896116-.6754294.1266019-1.0140826.006699-.0619416-.0198059-.1334658-.0483496-.1918509-.028835-.0589778-.0792233-.1070887-.1202913-.1599415.0135924-.0131391.0271846-.0261794.0407769-.0393185.0424271.0347742.0848543.0695484.1380582.1131149.0283495-.0307238.0682524-.0561129.0818447-.091875.0601941-.1575706.0845631-.3375665.1742718-.473502.1684466-.2550766.3490291-.5110424.5671844-.7207742.5371844-.516377 1.1086407-.9958065 1.647864-1.5102077.6525242-.6226754 1.1359223-1.3612319 1.3445631-2.2584456.09-.3868629.1367961-.784.2159223-1.1739254.0239806-.1186472.0647573-.2527057.1425243-.336875.1236893-.1338609.1374757-.2760202.1426213-.4441613.0136893-.4463347.0459223-.8920766.0704854-1.3380161.0028155-.0516674.0147572-.1061996.0032038-.1547057-.0508738-.2161533-.0110679-.3823186.2478641-.4458408-.078932-.087627-.1362136-.1589536-.2013592-.2219819-.1146602-.1111391-.2150485-.2120041-.0535922-.3725383.0412622-.0411956.0383495-.1415666.0346602-.2135847-.0100971-.1924436-.022233-.3857762-.0516505-.5759476-.0264077-.1710061-.0575728-.3300585.0969903-.4631291.035534-.030625.0382525-.1057057.0466991-.1617198.0052427-.0349718-.0242719-.0863428-.0085437-.1070887.2218446-.2933085.1551456-.7542641.6109709-.9303085.2923301-.1129174.5110679-.410375.785534-.5890867.1560194-.1015565.3545631-.142752.5391262-.1901714.4637864-.11924.937767-.2025202 1.3936893-.3461613.3547576-.1118304.7071848-.0266731 1.0599032-.0632255.4293206-.044258.8681556-.0445544 1.2989323-.0110644.6199029.0482096 1.2394174.1241794 1.8527184.2277116.322233.05443342.6397087.1715.9416505.30249592.1360194.05887903.3080582.18760282.2082524.4011875-.0315534.06767137-.1123301.14245565-.181165.15549597-.1956311.03675-.3969903.0447521-.5962136.0601633-.0250486.0018771-.0585437-.013633-.0770874-.0324032-.3211651-.324131-.7235922-.2625847-1.1164078-.2453951-.0498058.0021734-.1113592.03319354-.1471844.0131391-.2815534-.15776814-.5798059-.13336693-.8869903-.12892137-.4836894.0069153-.9679612-.04534474-1.4522331-.0509758-.6189321-.0071129-1.2127185.1306996-1.7846602.4038548.1264077.0067178.2530097.0213388.3792233.0187702.6528155-.0131391 1.305631-.0456411 1.9583495-.0415907.4908738.0031613.9813592.0564093 1.4725242.0759698.1503884.0060262.3041748-.0151149.4532039-.042381.3050486-.0556189.5782525.0232157.8267961.1936291.0586408.0403065.127767.1406774.1154369.1954073-.0226213.0994819-.0887378.2493468-.1613592.2660424-.3373786.0770564-.6817476.1391956-1.0266019.1624113-.5206796.0351694-1.0442719.0540383-1.5658253.0422823-.6141748-.0138306-1.2273786-.0686593-1.8412621-.103631-.1656311-.0094839-.3323301-.003754-.4972816-.0197581-.1562136-.0152137-.3197088-.0259818-.4635923-.0820947-.174466-.0679677-.3014563-.1954072-.164466-.4274657-.0153398-.0086935-.0306796-.0173871-.0459223-.0261794-.2139806.1468024-.427864.2935061-.6804854.4666855.2212622.1890847.4034952.3923952.6863107.475873.8757282.2587319 1.7524272.1024456 2.6307767.0271674.5050485-.0432701 1.013301-.050383 1.5174757-.1001733.3213593-.0317117.6359224-.1388004.9570874-.1633992.4665049-.0357621.8540777-.3741189 1.342233-.324625.2373787.0241049.5392233.2206976.6087379.4634254.0142718.04969157.0345631.09997585.0364078.1505565.01233.3359859.0970873.6075605.4884466.66100606.0502912.0069154.1350485.13475.1207767.1782178-.0460195.139492-.1.3343065-.2066991.3843932-.3327184.1562863-.6899029.259621-1.04.3756008-.1763107.0583851-.3574757.1018528-.5372815.1483831-.8085437.2085463-1.6295146.3257117-2.4630097.3633508-.4914563.0222278-.9817476.0916774-1.4727185.0945423-.6307767.0036553-1.2620388-.0334899-1.8925243-.0624355-.3391262-.0155101-.6774757-.0512722-1.0162136-.0754758-.0334951-.0024697-.0682524.0121512-.0747572.0134355-.0528155.4502863-.1058252.8804194-.1530097 1.311244-.0487378.44465524-.0761165.8925706-.1453398 1.33376815-.027767.17722985-.1492233.33746776-.2150485.5105484-.0905825.238875-.1912621.47715727-.2485437.725121-.241068 1.0443124-.8795146 1.82801603-1.6041748 2.55234673-.204466.2043971-.4735922.3421108-.6767961.5476935-.4543689.4600665-.9569903.8963246-1.3024272 1.4338427-.2340776.36424-.261165.8797279-.3328155 1.3354476-.0949514.6034113-.1498058 1.2137379-.2090291 1.8222863-.0485437.4990887-.082233.9999557-.1154369 1.5004274-.0629126.9480908-.1257281 1.8962803-.1780582 2.8451613-.0193204.3509033-.0011651.7037823-.0140777 1.0552783-.0174758.4720201-.0475729.9434475-.0739806 1.4150725-.0382524.6835303-.1029126 1.3665666-.1120388 2.050492-.0218447 1.6314234-.027767 3.2632419-.0209709 4.8948629.0043689 1.0338407.046699 2.0674838.0654369 3.1014234.0127184.7079314.0052427 1.416258.0228155 2.1239919.0210679.8566109.063398 1.712629.0880582 2.5691411.0167961.5831593.0116505 1.1669113.0294175 1.7500706.0327185 1.0680222.0802913 2.1356492.1105825 3.2038689.0097088.3435928-.0154369.6881734-.0254369 1.0655525z"/>
    <path fill="#1D1C1B" d="M9.1236796 34.1554401c-.03932038-.1155847-.07398057-.2172399-.10864077-.3189939-.01805825.0047419-.03592233.0094838-.05398058.0142258 0 .042875-.00582524.0865403.00097088.1282298.0499029.3012117-.16291263.6690081-.41592233.8360625-.302233.1992601-.58252428.4359617-.8561165.6758246-.1284466.1127198-.20669904.2829355-.3285437.4059294-.30330097.3063488-.60427184.6180323-.93252427.8951392-.41446602.3499153-.81427184.7544617-1.3969903.7867661-.224466.0124476-.4529126-.0498891-.67970873-.0763649-.2099029-.0245988-.31135922.0812056-.22708738.2639677.0331068.0719194.1516505.1192399.24038835.1454194.22524272.0665846.4607767.0991854.68203884.1758467.1575729.0545323.275534.1651775.3178641.3580162.0412622.1887883.1311651.3666109.2164078.5934334.0583495-.2002479.1215534-.3488286.1431068-.5033367.0650486-.4667842.378835-.7919032.636602-1.1383608.2332039-.3133629.5391262-.5704154.8068932-.8580928.3486408-.3745141.6868932-.759006 1.037767-1.1311492.3675728-.3899254.6081554-.9062036 1.1128156-1.1609839.0205825-.0103729.0230097-.0574959.0423301-.1107439-.0957281.0077056-.1658252.0133367-.2376699.0191653m6.3362136-8.4767036c-.1072815.2079536-.2237864.3895302-.2983495.5874073-.1728155.4587822-.4247573.8683669-.7487379 1.2236169-.6392233.700621-1.3859223 1.2931653-1.9901941 2.0307339-.1011651.1237842-.2346602.2203024-.3356311.344383-.2114563.2603125-.4050486.5356412-.6172816.7952621-.2863107.3503105-.5875728.6880746-.8736893 1.0385827-.1376699.1685363-.0251456.4190685.1895146.4727117.0740776.0184738.1380582.0784395.206699.1195363.0009709.0299334.0019417.0598669.0028155.0898004.0799029-.0759698.1712622-.1429496.2374758-.2297863.2474757-.3247238.4840776-.6578448.7299029-.9838528.1408738-.1868125.3-.3595968.4357281-.549867.1626214-.2281068.2898059-.4847641.4665049-.699633.4319417-.525367.878932-1.0382863 1.3292233-1.5476492.3006796-.3399375.6062136-.6773065.9306796-.9934355.3160194-.3080282.6441748-.6077581.9946602-.8734053.3035922-.230379.6068932-.4507802.8085437-.7841975.0373786-.061744.055631-.1353428.1013592-.2501371-.2803883.1942217-.4964078.3836028-.7445631.5059052-.327767.1617198-.5492233-.1211169-.8246602-.2959758m-9.8887379 2.8176976c.0065049.0273649.004369.0623367.0204855.0814032.4990291.5916552.997767 1.1836069 1.5008738 1.7719032.3505826.4099799.7085437.8136371 1.0609709 1.2221351.201068.2330464.384369.4835786.5992233.7023004.3831068.3900242.7833981.7626613 1.1776699 1.1413246.5242719.5034355 1.0403884 1.0162561 1.5768932 1.5060585.7220389.6594254 1.4671845 1.2926713 2.1878641 1.9535786.294466.2701915.5805825.5604375.4940777 1.0411512-.0235922.1310948.0413592.2906411.0983495.4225262.1281553.2972601.2625243.3118811.47.0699436.3338835-.3893327.6014563-.4605605 1.0807767-.2886654.0528155.018869.1070874.0337863.2227185.0699436-.0360195-.1280323-.0423301-.220994-.0852428-.2909375-.1909708-.3122762-.5254369-.3425061-.833398-.3999032-.3754369-.0700424-.7374758-.1425545-.9892233-.4767621-.1433981-.190369-.2829126-.3935807-.4620389-.5442359-.4516504-.3801452-.931165-.7256149-1.3076699-1.1917077-.1288349-.1596451-.268932-.3108931-.4132038-.4566088-.3900971-.3939759-.7915534-.7766896-1.1769903-1.1755061-.415534-.4302318-.8053398-.8868407-1.2297087-1.3075887-.5058252-.5014597-1.044466-.9683427-1.5542718-1.4658508-.7537864-.7355928-1.4940777-1.4857077-2.242233-2.2273266-.0595146-.0587803-.1357282-.1000746-.2040777-.1495686-.1812621-.2814536-.3560194-.5675504-.5459223-.8427802-.1749514-.2536936-.4658252-.4137339-.5683495-.7281835-.1050485-.3224516-.1651456-.6376915-.0517476-.9804939.0579612-.1752541.0632039-.3860726.031068-.5698226-.0346602-.1980746-.191165-.235121-.3632039-.1315887-.2113593.1271431-.4204855.2588306-.6373787.375502-.261068.1404798-.4304854.0946411-.6137864-.1430484-.0311651-.0404052-.0623301-.0930605-.1047573-.1094597-.0600971-.0232157-.1308738-.017881-.1970874-.0247963-.0032038.0805141-.0417475.1933326-.0037864.2366028.2882525.3285766.5831068.6522137.892233.9605383.422233.4212419.8513593.8363589 1.2923301 1.23725.278835.2533972.5847573.4760706.8785437.7126734m4.4089321 6.2511552c-.3509709.4157097-.6962136.8279617-1.0458252 1.2362621-.0949515.1106452-.2036893.2088428-.305534.3132641-.443398.4544355-.9064078.8911875-1.3236893 1.3691351-.3508738.4016815-.6381553.8481149-.6913592 1.4199133-.0265049.2843186-.1124272.5764415-.2338835.8346794-.146699.3120787-.5446602.4239093-.8542718.2686109-.4364077-.2188205-.7302912-.5718971-.8381553-1.0611068-.0829126-.3758972-.0942719-.3989153-.4595146-.457498-.454466-.0728085-.7042719-.3711552-.8503884-.8181815-.1425242-.4358629.0352427-.6923225.3360194-.9261592.0650485-.0506795.1557282-.0852561.2375728-.092369.1874757-.0161028.378835-.030131.5650486-.009879.3373787.0368488.636602-.0577924.8807767-.2753286.4400971-.392.8594175-.8082037 1.2866991-1.2149234.3360194-.3197843.6758253-.6355182 1.0038835-.9633045.1319418-.1319838.2373787-.2914314.3545631-.4385302.0950486-.1194375.1833981-.2451976.2861165-.3573246.1207767-.1318851.2433981-.2345282.06-.4272681-.2920388-.307238-.5638835-.6347279-.8350485-.961625-.1865049-.2246492-.3472816-.471625-.5375728-.6927178-.301165-.3498165-.6258252-.6788871-.9248543-1.0306794-.2683495-.3154375-.5007767-.6632783-.7757281-.971998-.2820388-.316623-.5935922-.6062762-.8974757-.9023508-.4336893-.4228226-.8774757-.835371-1.30718445-1.2623428-.3879612-.3851834-.76281554-.7838024-1.14291263-1.1771854-.2175728-.2251432-.2710679-.7177117-.081165-.96775.1811651-.2385787.268835-.5928408.6458253-.6147722.09504855-.0055323.20194175.0106693.28650486.0521613.1803883.0884173.3498058.2001492.5338835.3082258.1219417-.1075827.2541747-.2108186.3706796-.3298609.2208738-.2257359.5190291-.2532984.7956311-.3106956.2074757-.0431713.6157281.3743166.7091262.6466815.1113592.3244274.121165.6432238.0217475.9731834-.0774757.2574476-.0142719.4752803.1665048.6923226.21262135.255373.3521359.5730827.55941746.8337903.2764077.3476432.5828155.6708851.8849514.9963992.3761165.4050404.7545631.8083025 1.1441748 1.1998085.3137864.3154375.6451456.6128952.9696116.9173669.1858252.174365.3745631.345371.5599029.5204275.16019416.1514455.30184465.1429496.4385437-.0345766.1738834-.2260323.3464077-.4539416.5318446-.6700948.4386408-.5117339.8805825-1.0207016 1.3287379-1.5239395.5062136-.5683407.9943689-1.1572299 1.54-1.6841774.4214563-.4072138.687767-.8775545.8818446-1.4205061.0846602-.2368992.2523301-.443371.3853398-.6617964.2581554-.4238104.6765049-.4272681 1.0263107-.2430242.2712621.1428509.4656311.1358367.6906796-.0950362.3212622-.3298609.9586408-.2315646 1.193301.0667822.0721359.0917762.1612621.1704133.2465048.2507299.2731068.2576451.3134952.5616229.0738835.8458427-.4660194.5527318-.9194174 1.1115887-1.5336893 1.5235443-.3309709.2218831-.5701942.5840484-.8569903.8767642-.3768932.3849858-.7699029.7541653-1.1357281 1.1494254-.1766991.1911592-.308835.4253911-.4583495.6420383-.3022331.4379375-.5949515.8828891-.9068932 1.3136149-.1535923.2121028-.332136.4081028-.5158253.5947177-.1545631.1568791-.2927184.3019033-.364466.5318871-.0484466.1556936-.2325243.2711795-.3647573.3948649-.1220388.1142017-.1279612.206373-.0091262.3337138.5076699.5440383 1.0075728 1.0957822 1.5103883 1.6444637.0444661.0483084.0815534.1129173.1364078.140381.5105825.254879.8629126.6851109 1.2159223 1.1167258.2191263.2678206.5065049.3828125.8448544.4381351.381068.0622379.7998058.1334657 1.0484466.4584859.2738835.3578185.603301.7053629.611068 1.2157137.0095145.619119-.6320389 1.0532036-1.1824272.794373-.131068-.0616452-.2705825-.1058045-.4080583-.1521371-.1666019-.0560141-.2508737.059373-.3408737.1717964-.3034952.3784657-.7098059.5016572-1.102136.3094112-.2580582-.1264516-.4570873-.3251189-.535631-.6245524-.0724272-.2762177-.1428156-.5537197-.2342719-.8237137-.1212621-.3576209-.3778641-.6215887-.6486408-.8638226-.8663106-.7748125-1.7392233-1.5417217-2.6101941-2.3111008-.0151457-.0133367-.0379612-.0177822-.0500971-.0233145"/>
    <path fill="#1D1C1B" d="M6.7821165 22.8159214c.0384466.1957036.16834952.3066451.3368932.3605846.22563108.0723146.41368933.245988.3593204.4269718-.06660194.2213891-.17213593.4439637-.31135923.6260343-.13805825.1805887-.14116504.3548548.07864078.4291452.1008738.0341814.2346602.0289455.33446602-.0097803.12368932-.0480121.2031068-.0233145.2561165.0791311.12339806.2382822.26582525.4731068.3431068.7273931.07048544.2315645.2030097.3596956.40368932.4528548.1363106.0632259.2162135.0134355.2423301-.1186471.0269902-.1367258.0329126-.2781936.0429126-.4179819.0157281-.2176351.1165048-.322748.3391262-.3420121.2114563-.0182762.2830097.1242782.301165.2985444.015534.148877.0032039.3009153.0032039.4516693.023398.0075081.0468932.0151149.0703883.022623.0466019-.0749818.1245631-.146506.133398-.2259335.0176699-.1589536.0836893-.2664375.2366019-.2447036.105534.0151149.2523301.080119.29.1645847.0718447.1619173.0793204.3536693.118835.5613266.1851456.0891089.2449514-.0477157.29-.2359113.0423301-.1770322.3088349-.4087943.437864-.3715504.1925243.055619.2166991.2297863.2148544.4062258-.0002913.0295383-.0086408.0691532.0064078.0866391.0318446.03675.0886407.0957279.1138835.0863428.155631-.0581875.3174757-.1143004.4542718-.2065706.1862136-.1256613.1806796-.3071391.0057282-.4558185-.1266991-.1074839-.1649515-.2377883-.0513593-.3598932.1-.1074839.2249515-.2065705.3578641-.2626835.1509709-.0636209.2463107-.1649798.2219418-.3103004-.0234952-.1402822-.0960195-.2860967-.1852428-.3980262-.1814563-.2276129-.1614563-.6503367.0716505-.8144274.3340777-.2350222.6237864-.4943468.8680583-.8436693.3000971-.4289476.401165-.9039315.4348544-1.3813851.043398-.616748-.0711651-1.2283589-.3531068-1.7979839-.3044661-.6156613-.6664078-1.176-1.2732039-1.5233468-.2501942-.1432459-.5166991-.2566572-.7704855-.393877-.4502912-.2435181-.9276699-.328379-1.4237864-.2253407-.3178641.0659919-.6296117.1698206-.9375728.2764153-.652136.2259335-1.2605826.5417661-1.712136 1.0844214-.3971845.4771572-.6159224 1.0545867-.8192233 1.6432782-.1928156.5582641-.2595146 1.1180101-.1774758 1.6944516.0258252.1808851.1316505.3505081.2043689.5239839.0369903.0885161.1051456.1705121.1180582.261498.0352427.245.101165.3074355.3249514.2757238m5.337767 2.7430121c.0666019.0165967.1240777.0350705.1828155.0448508.2783495.0464314.5419418.361375.2334952.6542883-.1882525.1787117-.434466.3069415-.6732039.4154133-.4996117.2271189-1.0385437.1377137-1.5636893.1614234-.301068.013633-.6002913.0691532-.9012622.0806129-.1396116.0052359-.2831068-.0432702-.4219417-.0787359-.3646602-.0932581-.735534-.1714012-1.0871845-.3019032-.1157282-.042875-.2026214-.2173387-.2635923-.3501129-.0819418-.1787117-.1249515-.3757984-.186602-.5642904-.0667961-.2038044-.2101942-.3037802-.4168932-.3369738-.353301-.0567056-.6438835-.3751068-.6624272-.7394455-.0105825-.2114113.021068-.4247984.0227185-.6372964.0003883-.0561129-.0271845-.1230927-.0632039-.1669556-.2157282-.2628811-.4948544-.480615-.5991262-.823121-.1167962-.3831089-.256602-.7655262-.314369-1.1592056-.1160194-.7917057.0113592-1.5886472.3248544-2.2964799.3120388-.7045726.6394175-1.4318669 1.2834951-1.9407359 1.0393204-.8212439 2.2158252-1.2284576 3.5142718-1.2951411.4482525-.0230181.8445631.1748589 1.2267962.3939758.2954368.1693266.6055339.3158327.8862135.5072883.4427185.3021996.8744661.632752 1.1440777 1.1135645.1707767.3042742.2600971.6551774.4268932.9622178.3596117.6615.2861165 1.3811875.3239806 2.0898105.0193204.3622641-.2030097.6228729-.3285437.9213185-.145534.3460625-.3323301.6757258-.5209709 1.0006472-.0660194.114004-.1868932.1970867-.2894174.2862943-.0878641.0765625-.0934952.1388004-.0301942.2440121.1270874.2114113.171165.4339859.0178641.6641674-.0418447.0628306-.0480583.1542117-.0586408.234133-.0456311.3513972-.2609709.5558932-.566699.6788871-.2039806.0820948-.4123301.1535202-.6395146.237492M2.170844 35.8726925c.02504858.0657944.06524276.1299093.0724272.1977783.03504857.3298609.0614563.6606109.09213595 1.0066734.17873786-.0027662.1946602.1193387.186699.2642641-.0352427.6469778-.0807767 1.2938568-.0986408 1.9414274-.0215534.7742197-.0115534 1.5495262-.02893203 2.3240423-.0116505.5139073-.0333981 1.0284073-.0786408 1.5401412-.0237864.2695987.1660194.3978286.3098058.5209213.3023301.2586331.64417476.4703407.97417476.6945948.1674757.1139052.3360194.2329476.518932.3150423.3620388.1624113.7303883.3130666 1.1043689.4437661.1765049.061744.2.18375.1859224.325119-.013301.1335645-.1132039.1569778-.2407767.1578669-.4286408.0029637-.8149515-.1330705-1.2089321-.2918266-.38728157-.1560887-.67427187-.4441613-1.01048546-.6659455-.1395146-.0917763-.2624272-.211115-.4060194-.294494-.4871845-.2830343-.6654369-.7346048-.6770874-1.271629-.0239806-1.1130706-.0291262-2.2265363-.0584466-3.3394093-.0316505-1.2029698.10495144-2.3944798.2053398-3.588756.0070874-.0841694.0554369-.1649799.0846602-.247371.0245631-.0106694.0490291-.0215363.07349513-.0322057m15.8894272-17.0574927c-.0340776-.0925665-.0903883-.1831573-.0983495-.2778972-.0372815-.4441613-.033398-.8936572-.0968932-1.3334718-.0971844-.6748366-.1300971-1.3634052-.385631-2.0098891-.1047573-.2653508-.1466991-.5560907-.2457282-.8244052-.1583495-.4294415-.4323301-.7747137-.8006796-1.043621-.6472816-.4729093-1.2919418-.9495726-1.936602-1.4261371-.1410679-.1043226-.1888349-.2731552-.1087378-.4049415.083301-.1372198.241165-.2077561.4156311-.0888125.4030097.2750323.8074757.5478911 1.2161165.8140323.2727184.1777237.5679611.3225504.8282524.5166733.6264078.4674758 1.0641747 1.0611069 1.2100971 1.8670383.1146602.6346291.3291262 1.2519698.4248543 1.8885746.0937864.6242561.1260195 1.2672823-.0574757 1.886994-.0494175.1667581-.1896116.305756-.2881553.4573992-.0256311-.0071129-.0511651-.0143246-.0766991-.0215363M10.665417 9.52808952c-.90844668-.04366533-1.8238835-.0480121-2.7067962-.33410887-.226699-.0735-.47038832-.091875-.69873783-.1612258-.4430097-.13445364-.8827184-.2809597-1.3195145-.434875-.2265048-.0798226-.2837864-.20558267-.2192233-.4024718.0627185-.19106047.2539806-.29607458.4502913-.22178426.2491262.0941471.48776692.2171411.7361165.3139556.1401941.0547298.2897087.0865403.43708732.1203266.5581554.128131 1.1113592.3052621 1.676699.3681915 1.2334952.1371209 2.4638835.1278347 3.6379612-.3820222.1765048-.0766613.4229126-.0063226.4821359.1225988.0735922.1601391-.0431068.4453467-.2378641.5131169-.7265048.253002-1.4512621.5214153-2.2381553.4982984"/>
    <path fill="#FEFEFE" d="M12.1098835 3.68330827c.0963107-.24628428.1602913-.447125.2535922-.63265323.0470874-.09335685.1338835-.19777823.2256311-.23008266.3045631-.10748387.6196116-.1846391.951068-.27918145-.0507767.2420363-.0996117.47439113-.1592233.7574254-.3802913.11509073-.8115534.24549395-1.271068.38449194m-5.5578738-.66134194c-.19970873.06075605-.26116504.14038105-.24116504.29755645.02038835.1602379.0183495.3247238.01019417.48654234-.00242718.04979032-.05718446.1369234-.08854368.13712097-.07038835.0006915-.20145632-.0397138-.20271845-.0682642-.02038835-.4492984-.18825243-.8921754-.08359223-1.3805948.2860194.1378125.54504854.2607076.8014563.3892338.02650486.0132379.05194175.0593729.0524272.0906895.00417475.2528044.002233.5057076.002233.7585121-.0314563.003754-.0630097.007508-.0945631.0111633-.05106797-.2369979-.10223302-.4739959-.15572817-.7219596m1.3495437.1025542c.14951458 0 .30038837.0008891.45116507-.0002964.14436893-.0011855.2460194.0147197.17737864.2140786-.054466.1580645-.0668932.33075-.1016505.4962238-.0478641.2274153-.2152427.1933326-.377767.1793044-.1780582-.0153125-.1493204-.1442339-.1492233-.2606089.0002913-.2028166.0000971-.4056331.0000971-.6287017m1.8432428.8354698c.053033-.277996.0966839-.5510524.1591976-.8195645.0402932-.1726855.1931703-.0823912.2974585-.0887137.0113572-.0006916.0517491.128625.0417746.1919496-.0272572.1727842-.0742659.3424072-.1132752.5134133-.0458237.2012359-.1776653.246877-.3851554.2029153m-.7670182-.8406266c.1482842-.010373.2434462-.0220303.3386083-.022623.1486456-.0010867.1775556.0688568.1511752.1767359-.0384262.1577682-.0623974.3179073-.1021486.4754779-.01578.0624355-.0413172.1330706-.0920301.1769335-.0492674.0425786-.1365997.0732036-.2071883.0732036-.0295122-.0000988-.0823934-.0920726-.0844412-.1433448-.0092753-.2339355-.0039751-.4681673-.0039751-.7363831m-1.716564-.0680664c.478038-.0424798.5199345-.0212399.4910403.2442097-.0218311.1976794-.0393281.3954576-.0635671.5929395-.0157312.1288225-.1616468.1699193-.3240962.1252661-.0664566-.0182762-.0961533-.1215121-.0990428-.1868125-.0109155-.2531996-.0043341-.5067944-.0043341-.7756028m4.4058393.7369758H11.31367c.0792442-.2385787.1477048-.4799234.2432727-.7101049.0289869-.0699436.1330629-.1087682.2028096-.1618186.0179066.015115.0360111.0301311.0539177.045246-.0470914.2666351-.0944796.5332702-.1466165.8266775m-.5480112-.7222165c-.1031341.2551754-.2036512.5111412-.312852.7645383-.013204.030625-.0731574.0473206-.111342.0705363-.026646-.0383306-.082317-.0808105-.0751797-.1142016.0473442-.2238589.0920713-.4499899.1743883-.665748.0227204-.0597681.169749-.0869355.259798-.1290201.0217688.0245987.0435376.0491975.0651874.0738951M5.56301944 28.504031c.0683495.049494.1445631.0907884.20407766.1495686.7481553.7416189 1.4884466 1.4917339 2.242233 2.2274254.5098058.4974093 1.0484466.9642923 1.5542718 1.465752.4243689.420748.81417474.8773569 1.22970874 1.3075887.3854369.3988166.7868932.7815303 1.1769903 1.1755061.1441747.1457157.2843689.2969637.4132039.4566088.3765048.4660928.8559223.8115625 1.3076699 1.1917077.1790291.1506552.3186407.3538669.4620388.5442359.2517476.3342077.6137864.4067198.9892233.4767621.3079612.0573972.6424272.087627.8333981.3999032.0428155.0699436.0492233.1629053.0852427.2909375-.1157282-.0361572-.1699029-.0510746-.2227185-.0699435-.4794175-.1718952-.7468932-.1006674-1.0807767.2886653-.2075728.2419375-.3418446.2274153-.4700971-.0699436-.0569903-.131885-.1219417-.2913326-.0982524-.4225262.0865049-.4807137-.1996116-.7709596-.4940777-1.0411512-.7206796-.6609072-1.4658252-1.2941532-2.187864-1.9535786-.5365049-.4898024-1.0526214-1.0025242-1.57699034-1.5060585-.39417475-.3786633-.794466-.7513004-1.1775728-1.1413246-.21485437-.2187217-.39815534-.469254-.5992233-.7023004-.35242718-.408498-.71038835-.8121552-1.06097087-1.2221351-.5031068-.5881975-1.00184466-1.1802479-1.5008738-1.7719032-.0161165-.0190665-.01407766-.0540383-.02048542-.081502-.0000971 0-.0081553.0077056-.0081553.0077056m9.8968447-2.8252649c.2754369.1748589.4968932.4575968.8246602.2959758.2481553-.1224012.4641747-.3117822.7445631-.5059052-.0457282.1147943-.0639806.1883931-.1013592.2500383-.2016505.3334173-.5049515.5539173-.8085437.7841976-.3503884.2656472-.6785437.565377-.9946602.873504-.324466.316129-.6299029.653498-.9306796.9934355-.4502913.5092641-.8971845 1.0222823-1.3291263 1.5475504-.1767961.2149677-.3038834.471625-.4666019.6996331-.1357282.1903689-.2947573.3631532-.4356311.5499657-.2459223.3259093-.4825242.659129-.73.9838528-.0662136.0868367-.1575728.1537178-.2373786.2297863-.0009709-.0299335-.0019418-.0599657-.0029126-.0898004-.0686408-.0410968-.1326214-.1011613-.2066991-.1195363-.2145631-.0536431-.3271844-.3041754-.1895145-.4727117.2862136-.350508.5873786-.6882722.8736893-1.0385826.212233-.259621.4058252-.5349496.6173786-.7952621.1008738-.1240807.234369-.2205988.3356311-.3443831.6041748-.7375686 1.3508738-1.3301129 1.9900971-2.0307339.3240777-.3553488.5759223-.7649334.748835-1.2237157.074466-.197877.1910679-.3793548.2982524-.5873085m-6.3361845 8.476674c.0718447-.0058286.1419418-.0114597.2376699-.0191653-.0193204.053248-.0217475.100371-.0423301.1107439-.5046602.2547803-.7452427.7710585-1.1128155 1.1609839-.3508738.3721432-.6891262.7566351-1.037767 1.1311492-.267767.2876774-.5736893.5447299-.8068932.8580928-.257767.3464576-.5715534.6715766-.6366019 1.1383608-.0215534.1545081-.0847572.3030888-.1431068.5033367-.0852427-.2268225-.1751456-.4046451-.2164077-.5934334-.0423301-.1928387-.1602912-.3034839-.317864-.3580162-.2212621-.0766613-.4567961-.1092621-.6820388-.1758467-.0887378-.0261795-.2072815-.0735-.2403883-.1454194-.0842718-.1827621.0171845-.2885665.2270874-.2639677.2267962.0264758.4552428.0888125.6797088.0763649.5827185-.0323044.9825243-.4368508 1.3969903-.7867661.3282524-.2771069.6292233-.5887904.9325243-.8951392.1218447-.1229939.2000971-.2932096.3285437-.4059294.2735923-.2398629.5538835-.4765645.8561165-.6758246.2530097-.1670544.4658253-.5348508.4159224-.8360625-.0067961-.0416895-.0009709-.0853548-.0009709-.1282298.0180582-.004742.0359223-.0094839.0539806-.0142258.0346602.101754.0693204.2034092.1086408.3189939"/>
    <path fill="#FEFEFE" d="M5.56301942 28.504031s.00805825-.0077056.00815534-.0076068c-.2937864-.2366028-.59970874-.4592762-.8785437-.7126734-.44097087-.4008911-.87009708-.8160081-1.2923301-1.23725-.3091262-.3083246-.60398057-.6319617-.892233-.9605383-.03796116-.0432702.00058253-.1560887.0037864-.2366028.0662136.0069153.1368932.0015806.1970874.0247963.04242717.0163992.07349513.0690545.10475727.1094597.18320388.2377883.35262136.2835283.6137864.1431472.2168932-.1167702.42601942-.2484577.63728156-.3756008.1721359-.1035323.3286407-.0664859.3633009.1315887.0321359.18375.0268932.3945686-.031068.5698226-.1133981.3428024-.0533981.6580423.0516505.9804939.1026213.3144496.3934951.47449.5684466.7281835.1899029.2752298.3646601.5613266.5459223.8427802m4.5157961-5.6220288c-.2876699.022623-.4927184.176242-.6154369.4351714-.1160194.2449012-.218835.4969153-.3154369.7504113-.0254369.0666834-.0307767.161127-.0040777.2248468.1129126.2689072.3059223.3177096.5401941.1440362.1325242-.0981975.2402912-.1659677.3863106.002865.1472816.1703145.3358253.1585584.567767-.0022722.1594175-.1106452.1313592-.2794778.094369-.4383327-.0162136-.0699435-.0638835-.1317863-.087767-.2006431-.0656311-.1885907-.1434952-.3752057-.1842719-.5695262-.046699-.2212904-.1657281-.347742-.3816505-.3465565m.4186408-1.3388064c0 .2059778-.0308738.4254899.0087379.6307762.04.206373.1495145.3989153.2307767.5965947.0073786.0179799.0287378.0323045.046699.0432702.2412621.1474939.5.2349234.7840777.2047923.2039806-.021635.375534-.2240564.3854369-.3775766.0087378-.1358367.0320388-.3107943.1181553-.3934818.2414563-.2312682.2337864-.5577702.3405825-.8331976.1039806-.2674254-.1225242-.4440625-.4801941-.4944456-.2758253-.0388246-.5451457-.1239818-.8193204-.1786129-.0699029-.0139294-.1658253-.0167943-.2176699.0208448-.257767.1873064-.4970874.3939758-.3972816.7810363m-3.4823301.410375c-.0468932.4044475.1249514.5926431.3475728.7537701.3185437.2304779.6639806.3336149 1.0374757.1778226.3506796-.1463085.5367961-.4445564.6300971-.8093891.0286408-.1118306.0684466-.2207964.0968932-.332627.0690291-.2724637.0906796-.4880242-.2314563-.6022258-.274466-.0973085-.5413593-.2199073-.8039806-.347742-.312136-.1519395-.5134952-.1217096-.7605826.1381089-.3004854.316129-.2221359.7483367-.3160194 1.0222823m-.2330097.8623407c-.2237864.0317117-.2897087-.0307238-.3249515-.2757238-.0130097-.0909859-.081068-.1728831-.1181554-.261498-.0726214-.1734758-.1784466-.3430988-.2042719-.5239839-.0820389-.5764415-.0153398-1.1361875.1774757-1.6944516.203301-.5886915.4220388-1.1661209.8192233-1.6432782.4515534-.5425564 1.06-.8584879 1.7121359-1.0844214.3079612-.1065947.6197087-.2104233.9375728-.2764153.4961165-.1030383.9734952-.0181774 1.4237864.2253407.2537864.1372198.5202913.2506311.7704855.3938771.6067961.3473467.9687378.9076854 1.2732039 1.5233467.2819417.569625.3965048 1.1812359.3531068 1.7980827-.0337865.4773548-.1348544.9523387-.4348544 1.3812863-.2442719.3493226-.5339806.6086472-.8680583.8436693-.2331068.1640908-.2531068.5868146-.0716505.8144275.0892233.1119294.1617476.2577439.1852428.3980262.0243689.1453205-.0709709.2466794-.2219418.3103992-.1329126.0560141-.2578641.1551008-.3579611.2625846-.1134952.1222037-.0752428.2524093.0514563.3598932.1749514.1486794.1804854.3301572-.0057282.4558185-.1367961.0922702-.2986408.1483831-.4543689.2065706-.0251457.0094839-.0819418-.0495927-.1137864-.0863427-.0150486-.0174859-.0066991-.0571009-.0064078-.0866392.0018447-.1764395-.0223301-.3506068-.2148544-.406127-.1290291-.0373427-.3955339.1944194-.437864.3714516-.0450486.1881956-.1049515.3250202-.29.2359113-.0395146-.2076572-.0469903-.3994092-.118835-.5613266-.0376699-.0844657-.184466-.1494697-.29-.1645847-.1529126-.0217338-.218932.08575-.2366019.2447037-.0088349.0794274-.0867961.1509516-.133398.2259334-.0234951-.007508-.0469903-.0151149-.0703883-.0226229 0-.1507541.0123301-.3026936-.0032039-.4516694-.0182524-.1742661-.0897087-.3168206-.3011651-.2985444-.2227185.0192642-.3233981.1244758-.3391262.3420121-.01.1397883-.0159224.2812561-.0429127.4179819-.0261165.1320827-.1060194.181873-.2423301.1186472-.2006796-.0931593-.3332039-.2212904-.4036893-.4528549-.0772816-.2542863-.2197088-.4891109-.3431068-.7273931-.0531068-.1024456-.1324272-.1271432-.2561165-.0791311-.0998059.0387258-.2335923.0439617-.3344661.0097803-.2198058-.0742903-.216699-.2485565-.0786408-.4291452.1392233-.1820705.2447573-.4046451.3113592-.6260343.05436893-.1809838-.1336893-.3546572-.3593204-.4269717-.16854368-.0539395-.2984466-.1648811-.3368932-.3605847"/>
    <path fill="#1D1C1B" d="M7.01516505 21.9535313c.0938835-.2738468.0154369-.7061533.31601942-1.0221835.24708737-.2599174.4484466-.2901472.76058252-.1382077.2626213.1279335.5295145.2505323.8039805.3478407.3220388.1142017.3004854.3296634.2314563.6021271-.0284466.1119294-.0682524.2207963-.0968932.3327258-.093301.3648326-.2794175.6630806-.6300971.8093891-.3734952.1556935-.7190292.0526552-1.0374758-.1778226-.2226214-.161127-.394466-.3493226-.3475728-.7538689m3.4823398-.4103059c-.0998059-.3870605.1395145-.5938286.3972815-.7810363.0518447-.0377379.1476699-.0347742.2175728-.0209435.2741748.0547298.5435923.1397883.8193204.1787117.3576699.050383.5841748.2269213.4802913.4944455-.1068932.2754274-.0992233.6019295-.3405826.8330988-.0862135.0826875-.1095145.257744-.1182524.3934819-.0098058.1536189-.1813592.3560403-.3854369.3776754-.2839806.030131-.5427184-.0573972-.7840776-.2047924-.0178641-.0109657-.0392233-.0252903-.046602-.0432701-.0812621-.1976795-.1907767-.3902218-.2307767-.5965948-.0396116-.2052863-.0087378-.4247984-.0087378-.6307762m-.4186894 1.3387768c.2159224-.0011855.3349515.1252661.3816505.3465565.0407767.1943205.1186408.3809355.1842719.5695262.0238835.0688568.0715534.1306996.087767.2006431.0369902.1588549.0650485.3276875-.094369.4383327-.2319417.1608306-.4204854.1725867-.567767.0022722-.1460194-.1688327-.2537864-.1010625-.3863107-.002865-.2342718.1736734-.4272816.124871-.5401942-.1440362-.0266991-.0637198-.0213593-.1581634.0040776-.2248468.0966019-.253496.1994174-.5055101.3154369-.7504113.1227184-.2589294.327767-.4125484.6154368-.4351714"/>
  </g>
</svg>
