<?xml version="1.0" encoding="UTF-8" standalone="no"?>
<svg width="271px" height="168px" viewBox="0 0 271 168" version="1.1" xmlns="http://www.w3.org/2000/svg" xmlns:xlink="http://www.w3.org/1999/xlink">
    <!-- Generator: Sketch 41.1 (35376) - http://www.bohemiancoding.com/sketch -->
    <title>Botones</title>
    <desc>Created with Sketch.</desc>
    <defs>
        <filter x="-50%" y="-50%" width="200%" height="200%" filterUnits="objectBoundingBox" id="filter-1">
            <feOffset dx="0" dy="2" in="SourceAlpha" result="shadowOffsetOuter1"></feOffset>
            <feGaussianBlur stdDeviation="2" in="shadowOffsetOuter1" result="shadowBlurOuter1"></feGaussianBlur>
            <feColorMatrix values="0 0 0 0 0.314369351   0 0 0 0 0.8883757   0 0 0 0 0.759899616  0 0 0 1 0" type="matrix" in="shadowBlurOuter1" result="shadowMatrixOuter1"></feColorMatrix>
            <feMerge>
                <feMergeNode in="shadowMatrixOuter1"></feMergeNode>
                <feMergeNode in="SourceGraphic"></feMergeNode>
            </feMerge>
        </filter>
    </defs>
    <g id="Page-1" stroke="none" stroke-width="1" fill="none" fill-rule="evenodd">
        <g id="Desktop-Landscape" transform="translate(-186.000000, -442.000000)" fill="#000000">
            <g id="Botones" transform="translate(186.000000, 444.000000)">
                <g id="Nuestro" transform="translate(15.000000, 0.000000)">
                    <path d="M4.38738212,16.8012398 C4.38738212,24.1115703 4.45688731,31.4226042 4.3241956,38.7301212 C4.30032513,40.0616381 3.45292358,41.3776805 2.98534326,42.7014602 C2.2200842,41.3249263 0.801897668,39.9512059 0.798387306,38.5725619 C0.77732513,30.6130025 1.15714637,22.6527398 1.26175518,14.6910703 C1.30598575,11.3049517 0.881933938,7.91250254 0.948630829,4.52779068 C0.969693005,3.44316356 1.88238731,2.37612119 2.38717746,1.30063814 C3.29214896,2.2023839 4.72367487,2.95712119 5.01924741,4.02697712 C7.29396244,12.2650788 9.33980181,20.5664856 11.4797189,28.8418669 C11.8181179,30.1543924 12.2709547,31.4380788 12.671136,32.7351297 C13.0179598,32.7133246 13.3654858,32.6908161 13.7130117,32.669011 C14.1911231,21.9423161 14.6699365,11.2149178 15.1473459,0.488222881 C15.4808303,0.325739831 15.8136127,0.16255339 16.1470972,7.03389831e-05 C16.7782604,1.03757034 17.9766982,2.08773136 17.9542319,3.11116356 C17.704294,14.5862653 17.297794,26.0592568 16.8470635,37.5287314 C16.7677293,39.5573076 15.7455117,40.0208415 13.7446049,39.1296466 C11.2269728,38.0077398 9.59535622,36.5489093 9.06599352,33.6629008 C8.24316451,29.1766805 7.05385363,24.7579856 6.0189987,20.3104517 C5.74027591,19.1104686 5.45734067,17.9118924 5.17651166,16.7126127 C4.91393653,16.7421551 4.65065933,16.7716975 4.38738212,16.8012398" id="Fill-3"></path>
                    <path d="M33.3890158,1.68208644 C34.0152645,2.88980678 35.0711816,4.05391695 35.1968526,5.31157797 C35.9768552,13.0981034 36.5890624,20.9029169 37.1289562,28.7105441 C37.1900365,29.5883746 36.5595754,30.5864847 36.061806,31.4157814 C35.1154122,32.9948915 33.9008267,34.4213661 33.0386816,36.0398661 C31.7138707,38.5249424 30.5723008,38.6670271 28.7883345,36.3507644 C28.7174251,36.2579169 28.6738966,36.1341203 28.5868396,36.0644847 C23.0502956,31.6373492 21.9999951,25.987722 23.0664433,19.172578 C23.7207749,14.9874085 22.6922386,10.5560525 22.6662619,6.23372203 C22.6592412,5.07805254 23.5607023,3.91675593 24.0444303,2.75756949 C24.7422904,3.87244237 25.9975961,4.96480678 26.0432308,6.10570508 C26.3022956,12.5283576 26.4012878,18.965078 26.2840417,25.3926542 C26.2257697,28.5811203 27.351894,30.7349 30.2486453,32.2049847 C34.087578,28.2660017 33.6775676,23.4245695 33.3398707,18.6752814 C32.9509225,13.2240102 32.3464381,7.78821356 31.8353293,2.34538305 C32.3527567,2.12451864 32.8708863,1.90295085 33.3890158,1.68208644" id="Fill-7"></path>
                    <path d="M43.3318373,34.3739576 C46.0502622,34.0215593 48.0083425,33.5559153 49.9530834,33.6100763 C50.8510342,33.6346949 51.7209021,34.6728983 52.6034073,35.2517881 C51.8304254,35.8011356 51.1304591,36.5938559 50.2704202,36.8512966 C48.1613943,37.4822373 45.9351223,37.7284237 43.8359254,38.3846864 C41.2410653,39.1963983 39.8291974,38.2095424 39.8102415,35.702661 C39.7330135,25.289678 39.7603943,14.8745847 39.9309979,4.46371186 C39.9443373,3.6379322 41.2501922,2.27194915 42.118656,2.12494068 C45.1017622,1.62131356 48.158586,1.37723729 51.1838166,1.40466949 C52.1919927,1.41451695 53.1896378,2.54064407 54.1928995,3.15611017 C53.1755964,3.66255085 52.1807596,4.22455932 51.1311611,4.64870339 C50.733086,4.80907627 50.2079358,4.6409661 49.7410575,4.64237288 C42.5560472,4.66417797 42.3987829,4.8625339 43.8113528,12.5695763 C44.7738943,12.3803644 45.7420523,12.0258559 46.7031896,12.0434407 C47.8426534,12.0645424 48.9772026,12.4063898 50.113858,12.6089661 C49.3738736,13.3686271 48.7223503,14.6607542 47.8805653,14.8000254 C43.2061663,15.5737542 42.9618451,18.6187288 43.2651404,22.4507966 C43.5677337,26.2702034 43.3318373,30.1318136 43.3318373,34.3739576" id="Fill-13"></path>
                    <path d="M67.1584241,16.0140059 C64.8303516,16.4641754 63.2752609,16.9375568 61.7026184,17.0036754 C60.7800951,17.0416585 59.4658153,16.6864466 59.0094681,16.0308873 C58.6471987,15.5117856 59.1498826,14.1788619 59.5669137,13.3601161 C61.0981339,10.3524212 62.6946469,7.37426864 64.4041935,4.46645508 C64.8240329,3.7532178 65.7690225,3.35017542 66.4717972,2.80434492 C66.8059837,3.83270085 67.6344293,5.00947203 67.3774707,5.85987034 C66.7161184,8.05866695 65.5759526,10.1125653 64.3648775,12.8086585 C65.9712194,12.7094805 67.1682531,12.6750144 68.3554578,12.5554381 C71.0528205,12.2832263 71.7078541,13.5507347 70.9826132,15.9366331 C68.8139111,23.0704127 66.6852272,30.2175568 64.4336806,37.3260144 C64.2216547,37.9963449 62.9221184,38.9965653 62.695349,38.864328 C61.8999008,38.4014975 60.8250277,37.5138195 60.8208153,36.7801839 C60.8088801,35.1884127 61.2553982,33.5474042 61.756678,32.0055737 C63.4100588,26.9193619 65.1708567,21.8683195 67.1584241,16.0140059" id="Fill-23"></path>
                    <path d="M94.675736,2.8303 C91.8147904,3.2593678 88.9538448,3.68843559 85.7741583,4.16463051 C86.1708293,8.65929153 86.6145391,13.1546559 86.9529381,17.658461 C87.4345598,24.0586051 87.9246065,30.4615627 88.1878837,36.8722576 C88.229306,37.9041305 87.1137127,38.9838339 86.5323966,40.0417322 C85.8310262,38.9247492 84.5939744,37.8457492 84.5125339,36.6858593 C83.8371402,27.0212831 83.3899199,17.3412322 82.8254536,7.66821525 C82.7657775,6.65392712 82.3929769,5.65792712 82.229394,4.93906271 C78.7695806,4.93906271 75.5962127,4.9883 72.4298655,4.8638 C72.1069122,4.85113898 71.8260832,3.7918339 71.2595106,2.7128339 C79.2806894,1.85751186 86.7465288,-0.911733898 94.5030262,1.10418136 C94.5605961,1.67955424 94.6181661,2.25492712 94.675736,2.8303" id="Fill-15"></path>
                    <path d="M108.002758,12.4218644 C106.038359,10.1330339 104.303538,8.11219492 102.332118,5.81422034 L102.332118,19.0259915 C102.559589,19.102661 102.787763,19.1800339 103.015234,19.2567034 C104.749354,16.8806525 106.482771,14.5053051 108.002758,12.4218644 M106.415372,22.4810424 C101.94668,24.9520508 103.001193,28.6328898 103.143714,32.0464407 C103.211815,33.6839322 103.597955,35.3587034 103.346613,36.9385169 C103.192859,37.905678 102.105348,38.7251271 101.436273,39.6099915 C100.70331,38.6913644 99.3658614,37.793839 99.3314598,36.8491864 C99.0478225,29.0324153 99.0415039,21.2057966 98.8709003,13.3841017 C98.8042034,10.3454576 98.4117448,7.3110339 98.4243821,4.27590678 C98.4285946,3.3340678 99.071693,1.89563559 99.8004443,1.59036441 C100.607828,1.2520339 102.148175,1.62061017 102.847439,2.25647458 C105.606584,4.76898305 108.10526,7.56495763 110.811048,10.1379576 C112.433538,11.6804915 112.571144,13.0401441 110.911444,14.5665 C108.180382,17.0783051 107.488841,19.505 109.934159,22.9649746 C112.338758,26.3665678 113.962652,30.3498644 115.691856,34.1854492 C116.134864,35.1680847 115.680623,36.5565763 115.637797,37.7586695 C114.617685,37.001822 113.181245,36.4644322 112.649074,35.4508475 C110.435439,31.2326186 108.494209,26.8701949 106.415372,22.4810424" id="Fill-5"></path>
                    <path d="M130.33056,30.4002271 C130.783397,30.3214475 131.235532,30.2426678 131.688368,30.1638881 C132.32234,25.6713373 133.910428,21.0430322 133.295412,16.7298458 C132.781495,13.1313034 129.68676,9.90204068 127.309542,5.76892203 C126.081617,8.82515085 125.281956,10.6314559 124.631837,12.4898119 C124.066669,14.1076085 122.817682,16.1657271 123.351959,17.3685237 C125.347951,21.8589644 127.953342,26.0786 130.33056,30.4002271 M138.621335,18.6676847 C137.852565,20.3516 136.872472,21.7583797 136.570581,23.2988034 C135.674034,27.8609898 135.097633,32.4843712 134.271995,37.0613288 C134.090861,38.0636593 133.396511,38.9731424 132.93876,39.9248288 C132.184734,39.179939 131.21798,38.5553288 130.72021,37.6676508 C129.53792,35.5602949 128.731239,33.2369983 127.496995,31.1655153 C124.885988,26.7848034 122.014511,22.5581339 119.463881,18.1443627 C119.017363,17.3713373 119.415438,15.9216508 119.767879,14.9045492 C120.952977,11.4902949 122.33606,8.14567627 123.558368,4.74267627 C124.370666,2.47987119 126.931125,2.02618475 128.764938,4.14338814 C130.665449,6.33726102 132.276705,8.78646441 133.953956,11.167439 C135.222602,12.9674136 136.416125,14.8222525 137.600521,16.6792017 C138.026679,17.3467186 138.330677,18.0930153 138.621335,18.6676847" id="Fill-9"></path>
                </g>
                <g id="ETSY" filter="url(#filter-1)" transform="translate(173.000000, 0.000000)">
                    <path d="M0.23520544,2.81792034 C4.00744119,2.59424237 8.29570026,2.24114068 12.5895759,2.16447119 C13.4952495,2.14829322 14.4184749,3.14710678 15.3339775,3.6781661 C14.4605992,4.20500508 13.6433868,4.97943729 12.6990992,5.19397119 C11.594037,5.44437797 10.3766433,5.22351356 9.2097987,5.1792 C3.21199301,4.95130169 2.73739197,5.56958136 4.39638938,11.6433525 C6.79186088,11.3352678 9.23086088,11.0222593 11.6684567,10.7085475 C11.8243168,11.2557847 11.9794749,11.8023186 12.1346329,12.3488525 C10.6890655,13.006522 9.29053705,13.8168271 7.78669767,14.2852847 C5.52813031,14.989378 4.64422098,16.2266407 4.95664326,18.6765475 C5.64958886,24.1144542 6.11014845,29.5819034 6.6711044,35.0894458 C9.26456036,35.0894458 11.8018505,34.9375136 14.303335,35.167522 C15.2476225,35.2547424 16.1097676,36.2254203 17.0105267,36.7937593 C16.1315319,37.3325559 15.3136174,38.1435644 14.3609049,38.3588017 C11.5680604,38.9925559 8.71975207,39.3829373 5.89531425,39.8809373 C3.42261477,40.317039 2.85814845,38.7498864 2.71492565,36.8092339 C1.89209663,25.6661322 1.08681943,14.5216237 0.23520544,2.81792034" id="Fill-11"></path>
                    <path d="M20.3169373,2.39272119 C26.924142,2.93222119 33.2329658,-0.454600847 39.8991446,0.853000847 C40.0220073,1.35100085 40.145572,1.84900085 40.2691368,2.34700085 C38.7280876,2.83233983 37.2151212,3.54768729 35.6375642,3.74745 C33.2800047,4.04709407 32.6720098,4.98682288 32.8699943,7.42055169 C33.7047585,17.6654246 34.3134554,27.9306958 34.8540513,38.1966703 C34.8961756,38.9886873 33.767243,39.8426025 33.1824166,40.6676788 C32.4936834,39.72795 31.2496109,38.8128398 31.2081886,37.8449754 C30.9807171,32.5871364 31.1527249,27.3138229 30.9870358,22.0517636 C30.8473233,17.6175941 30.3671057,13.1946788 30.1642067,8.7619161 C30.0244943,5.69935678 28.9299632,4.19410254 25.6281161,5.18095847 C24.6466187,5.47497542 23.4643285,5.63112797 22.5172326,5.35610254 C21.5574995,5.07685678 20.7732845,4.18706864 19.9125435,3.56456864 C20.0466394,3.1734839 20.1821394,2.78310254 20.3169373,2.39272119" id="Fill-17"></path>
                    <path d="M44.2936974,17.7646025 C47.4691715,17.5099754 49.8927259,17.2018907 52.3176845,17.180789 C53.2247622,17.1730517 54.4028399,17.6154839 54.9469461,18.2745602 C55.2762181,18.6733822 54.7384306,19.9345602 54.393713,20.7216534 C52.1934176,25.7354161 49.9994409,30.7541025 47.6474979,35.6968229 C47.2016819,36.6337381 46.0587078,37.23795 45.2372829,37.9962042 C44.909415,36.7821534 43.9960187,35.3472381 44.3547777,34.3913314 C46.0236041,29.9374669 48.044871,25.6158398 50.1854902,20.6808568 C47.5836093,20.8398229 45.4359694,21.1465008 43.3114979,21.0297381 C42.1776508,20.9678398 40.7341896,20.4445178 40.1016223,19.6152212 C39.7077596,19.0975263 40.3480497,17.4846534 40.8998788,16.5990856 C43.4940368,12.437128 46.1584021,8.31596695 48.9498425,4.28483983 C49.4749927,3.52658559 50.687472,3.24593305 51.5833166,2.7444161 C51.6507155,3.83959407 52.1660368,5.19432288 51.7089876,5.98563644 C49.5079902,9.79660254 47.0444176,13.4556364 44.2936974,17.7646025" id="Fill-19"></path>
                    <path d="M70.151029,16.6166703 C71.4610964,11.8920008 72.6834047,7.48385678 73.9330938,2.98005169 C76.9337518,3.35144153 76.9091793,4.80112797 76.3173321,7.16522119 C74.0187466,16.3451619 72.0002881,25.5961449 69.7719098,34.7950771 C69.5444383,35.7333992 68.6113839,36.5000941 68.0054953,37.346272 C67.3546741,36.3910686 66.0537337,35.3514585 66.1646611,34.4954331 C66.6273269,30.9081449 67.6888606,27.3989331 68.1585472,23.8123483 C68.3586378,22.2859924 67.9577544,20.4888314 67.2872751,19.073611 C64.9156741,14.0668822 62.3088788,9.17128898 59.7919487,4.23419576 C60.2223192,3.94650932 60.6533917,3.66022966 61.0844642,3.37324661 C65.6872518,6.34577203 65.5777285,12.7635008 70.151029,16.6166703 Z" id="Fill-21"></path>
                </g>
                <path d="M127.843197,68.1864695 C125.935666,71.7653169 122.540443,75.1978593 123.149842,77.6175203 C124.322303,82.2683339 127.764565,86.344478 130.302557,90.7244864 C135.59829,82.6066644 131.41815,75.9624441 127.843197,68.1864695 M130.494925,102.044139 C130.204267,100.910978 130.089127,99.6927068 129.593464,98.6573169 C126.503642,92.195978 123.509303,85.6762576 120.077573,79.3985034 C118.944427,77.3256136 118.71485,76.0778 120.124611,74.152622 C122.72579,70.5990966 125.027184,66.8261136 127.892342,62.4798678 C128.875244,64.0758593 129.700881,65.2132407 130.315896,66.4547237 C132.479684,70.8178508 134.580987,75.2126305 136.678078,79.6088169 C136.916782,80.1089271 137.210249,80.7476051 137.093003,81.2280203 C135.501404,87.7611051 133.841705,94.2773085 132.198855,100.797732 C131.630878,101.213436 131.062902,101.628436 130.494925,102.044139" id="O"></path>
                <g id="Nuestras" transform="translate(0.000000, 121.000000)">
                    <path d="M14.0210907,29.2120636 C14.0210907,21.2834534 13.9572021,13.3527331 14.0983187,5.42693644 C14.1172746,4.37747881 15.1802124,3.3477161 15.7608264,2.30951271 C16.3639067,3.35404661 17.4872228,4.3992839 17.4886269,5.44522458 C17.5019663,15.9784873 17.3594456,26.5124534 17.1740984,37.0450127 C17.1530363,38.2428856 16.6075259,39.430911 16.3049326,40.6238602 C15.2595466,40.0787331 13.9017383,39.7819025 13.2333653,38.9378347 C11.8516865,37.1906144 10.5030052,35.2752839 9.74195855,33.2080212 C8.2655,29.1944788 7.20326425,25.0275975 5.39612953,21.0161653 C5.6706399,26.9126822 6.01956995,32.8077924 6.14945337,38.7085297 C6.17121762,39.683428 5.2409715,40.6787246 4.75092487,41.6648771 C3.92739378,40.7392161 2.45795596,39.8649025 2.37862176,38.87875 C1.44907772,27.3410466 0.706284974,15.7871653 0.00210621762,4.23187712 C-0.0435284974,3.47291949 0.626950777,2.66964831 0.964647668,1.88677542 C1.90191451,2.36719068 3.38539378,2.62252119 3.68868912,3.36389407 C5.50354663,7.79595339 7.14429016,12.3081992 8.65304404,16.8570212 C10.0115544,20.9493432 11.1250415,25.1239619 12.3459456,29.2613008 C12.9047953,29.2451229 13.462943,29.2282415 14.0210907,29.2120636" id="Fill-40"></path>
                    <path d="M32.8625412,32.2495822 C32.9390671,30.7879381 33.2908054,29.2784636 33.0478883,27.8723873 C31.8290904,20.8504466 30.4424972,13.8580483 29.153492,6.84736186 C28.9906111,5.96390424 28.7603313,4.90178559 29.095922,4.16815 C29.4771474,3.33463305 30.4586448,2.77754831 31.1796733,2.09948051 C31.7581811,2.86195508 32.6989583,3.55549746 32.8590308,4.39815847 C34.4737977,12.8887771 36.2991863,21.3639212 37.2666422,29.9354297 C37.5376422,32.3346924 35.2580127,35.0750992 33.9177562,37.5327432 C33.7696189,37.8035483 31.8290904,37.5608788 31.1803754,37.0115314 C28.437378,34.6910483 25.8284764,32.2045653 23.2708262,29.677989 C22.7576111,29.1715483 22.4578262,28.2332263 22.4311474,27.4813025 C22.1826137,20.4790568 21.9460153,13.4747008 21.8989764,6.46893814 C21.8912536,5.41103983 22.8734531,4.34540424 23.3993054,3.28328559 C23.9862381,4.35525169 24.9930101,5.38923475 25.0920023,6.50481102 C25.6719142,13.0287517 25.6466396,19.6335822 26.6793883,26.0745229 C27.0704427,28.5089551 29.7404246,30.5769212 31.3713391,32.8122941 L32.8625412,32.2495822 Z" id="Fill-47"></path>
                    <path d="M42.2369648,8.30204237 C42.452501,11.1479576 42.6427627,13.6520254 42.8070477,15.8269068 C45.3141487,17.7809237 48.2179207,13.3629322 50.3901332,17.1535 C49.498501,17.7246525 48.7844933,18.5293305 47.978514,18.6376525 C43.6291746,19.2200593 42.9025295,21.7142797 43.8306694,25.5329831 C44.3768819,27.7796102 44.4765762,30.1458136 44.6612212,32.467 C44.8746513,35.1602797 46.091343,36.0212288 48.8195969,35.5844237 C50.6449855,35.2925169 53.7881642,33.600161 54.1869415,36.5114915 C54.6306513,39.7639661 51.1013326,38.0589492 49.3805528,38.6807458 C48.7290295,38.9163814 48.0122135,38.9642119 47.3333093,39.1302119 C42.0972523,40.409678 41.4625788,40.0706441 40.826501,34.4758814 C39.7453093,24.9597203 38.8642083,15.4203475 37.864457,5.89363559 C37.6250503,3.60972881 39.287558,2.76847458 40.5653301,3.73844915 C43.2549699,5.77757627 45.888444,4.73515254 48.5942316,4.54594068 C49.4079337,4.4889661 50.2883326,4.23363559 51.0191902,4.45801695 C51.7893637,4.69435593 52.4177187,5.3949322 53.107856,5.89363559 C52.4661617,6.46338136 51.8806332,7.43476271 51.1743482,7.53183051 C48.3253378,7.9264322 45.4384155,8.05233898 42.2369648,8.30204237" id="Fill-49"></path>
                    <path d="M65.1359031,19.4580161 C62.7123487,20.0003297 61.0442244,20.5102873 59.3409964,20.7009059 C58.4198772,20.8043042 57.0789187,20.6671432 56.5839575,20.0812195 C56.1009316,19.5079568 56.1472684,18.1025839 56.4863694,17.2789144 C58.2120637,13.0761602 60.0318358,8.90576186 62.0095741,4.81766017 C62.3992244,4.0129822 63.6271492,3.61627034 64.4682321,3.03105 C64.7827606,4.08754153 65.5978668,5.30370254 65.3233565,6.17309237 C64.2512917,9.56272797 62.8345093,12.8419314 61.2422088,16.9441008 C63.9037658,16.1394229 65.8176155,15.3889059 67.8009705,15.0351008 C68.7880845,14.8592534 69.9050819,15.410711 70.9631052,15.6336856 C70.7566959,16.5354314 70.641556,17.4702364 70.3291337,18.3332958 C67.9975508,24.7798636 65.6701803,31.2278381 63.2311803,37.6343127 C62.7867684,38.8005331 61.8417788,39.7761347 61.127771,40.8389568 C60.5597943,39.4771941 59.2644705,37.93255 59.5516181,36.7853212 C60.7128461,32.1485754 62.3563979,27.6335161 63.8356648,23.0776602 C64.1544057,22.0978381 64.5314187,21.1363042 65.1359031,19.4580161" id="Fill-55"></path>
                    <path d="M69.0425858,1.40002966 C70.1216712,1.29733475 71.1993526,1.1278178 72.2805443,1.10460593 C78.346451,0.973775424 84.4130598,0.803555085 90.4775624,0.841538136 C91.5046946,0.847868644 92.5262101,1.79744492 93.5498319,2.31232627 C92.6083526,2.96788559 91.741293,3.99342797 90.7092464,4.20233475 C88.4520832,4.66094492 86.1106712,4.70455508 83.4041816,4.95425847 C83.6077826,6.65083475 83.8794847,8.21095339 83.9700521,9.78091949 C84.5527723,19.9371653 85.1397049,30.0927076 85.5700754,40.2552839 C85.605179,41.0747331 84.4811609,41.9434195 83.8963345,42.7888941 C83.1289692,42.0390805 82.1144744,41.4116568 81.6707645,40.5028771 C81.3035806,39.75025 81.646192,38.6670297 81.6096842,37.732928 C81.2558396,28.5016398 81.0880443,19.2583941 80.4540728,10.0460975 C80.0482749,4.15591102 79.6368604,4.16646186 73.487407,4.15661441 C71.8986168,4.15450424 70.3119329,3.54888559 68.7245469,3.22040254 C68.8298578,2.61337712 68.9365728,2.00635169 69.0425858,1.40002966" id="Fill-53"></path>
                    <path d="M100.782583,18.8762424 C101.043754,18.9880814 101.304223,19.0999203 101.565394,19.2124627 C103.114166,17.1367593 104.662938,15.0617593 106.194158,13.0106746 C103.900487,10.8815136 101.83148,8.95985254 99.474622,6.77160678 C99.9379899,11.0615814 100.359935,14.9689119 100.782583,18.8762424 M103.356381,22.099878 C102.719601,25.0407508 101.728275,27.9577085 101.540119,30.9274203 C101.334412,34.172861 102.052632,37.4696492 101.990148,40.7361915 C101.96698,41.9396915 100.865428,43.1227932 100.255327,44.3143356 C99.4760262,43.1994627 98.090837,42.1267932 98.0108008,40.9626831 C97.3754251,31.737022 97.0335158,22.4916661 96.4985365,13.2575644 C96.3363578,10.4573695 95.5851402,7.67194576 95.6251583,4.88722542 C95.6469225,3.43824237 96.8039381,2.00543729 97.4477386,0.564894915 C98.5443759,1.21412373 99.8095106,1.68750508 100.708163,2.54493729 C103.463096,5.17842881 105.940008,8.11719153 108.795337,10.6289966 C110.714803,12.3178356 111.302438,13.6894458 109.163925,15.4190814 C106.628741,17.4680559 107.016285,19.4677932 108.524337,22.1005814 C111.544653,27.3724881 114.237803,32.8413441 116.851619,38.3313017 C117.372557,39.4271831 116.934464,40.9802678 116.938676,42.3223356 C115.750068,41.3629119 114.077731,40.6447508 113.457801,39.401861 C110.60177,33.6818949 108.040609,27.8156237 105.373435,22.0021068 C104.701552,22.0344627 104.028967,22.067522 103.356381,22.099878" id="Fill-43"></path>
                    <path d="M126.598141,42.8801237 C123.605908,42.6290136 123.117266,41.189878 123.301911,38.9910814 C123.654351,34.8030983 123.829167,30.5996407 124.071382,26.4925475 C122.54297,25.8067424 121.219564,25.2116746 119.895455,24.6173102 C119.689748,24.3134458 119.48404,24.0102847 119.277631,23.7064203 C125.426382,22.7786492 123.982219,18.5934797 123.973092,15.0406576 C123.966072,12.4634373 123.798978,9.88199661 123.916926,7.31181017 C123.956242,6.44945424 124.654805,5.61734407 125.05288,4.77186949 C125.863072,5.45908136 127.089592,5.99154746 127.411844,6.8602339 C128.753504,10.476361 129.742724,14.2219119 131.047175,17.8528102 C131.379255,18.7756576 132.29897,19.5852593 133.128118,20.2063525 C134.129976,20.9561661 135.322797,21.4506492 136.432774,22.0562678 C135.528504,22.7962339 134.624235,23.5376068 133.486877,24.4688949 C134.551219,28.6934542 135.786165,33.1881153 136.755727,37.7390475 C136.977582,38.7835814 136.28604,40.0236576 136.01504,41.1737 C135.082688,40.2009119 133.647652,39.3779458 133.310657,38.2300136 C132.257548,34.6462424 131.717654,30.9133525 130.758623,27.2979288 C130.475688,26.2315898 129.460491,25.3600898 128.780885,24.3992593 C128.359641,25.4515305 127.654761,26.4812932 127.565597,27.5609966 C127.155587,32.5571746 126.91618,37.5681237 126.598141,42.8801237" id="Fill-29"></path>
                    <path d="M151.972166,23.4503161 C149.413112,24.0833669 147.662845,24.6903924 145.868348,24.8859347 C144.992863,24.9815958 143.784596,24.5398669 143.19977,23.9047059 C142.800291,23.4693076 142.973703,22.1680364 143.307889,21.4477653 C145.416213,16.9080873 147.584915,12.3944347 149.878586,7.94690085 C150.301936,7.12463814 151.382425,6.64211271 152.160322,6.00202797 C152.386389,7.08806186 153.065995,8.32884153 152.75919,9.23410424 C151.498969,12.9606636 149.938964,16.584528 148.431615,20.3933839 C150.599615,20.2625534 152.447469,19.9418076 154.2532,20.0986636 C156.148796,20.2646636 157.11555,21.1087314 156.193728,23.4313246 C154.130337,28.6272653 152.457298,33.9779517 150.460604,39.2027314 C149.968451,40.4899347 148.48076,42.6437144 148.067239,42.5086636 C145.451317,41.6533415 146.599907,39.6831466 147.193861,37.9169347 C148.719464,33.3856975 150.196625,28.8375788 151.972166,23.4503161" id="Fill-36"></path>
                </g>
                <g id="Redes" transform="translate(179.000000, 121.000000)">
                    <path d="M5.32921528,18.8762424 C5.59038627,18.9880814 5.85085518,19.0999203 6.11202617,19.2124627 C7.66079819,17.1367593 9.20957021,15.0617593 10.7407904,13.0106746 C8.44711943,10.8815136 6.37811166,8.95985254 4.02125415,6.77160678 C4.48462202,11.0615814 4.90656762,14.9689119 5.32921528,18.8762424 M7.90301321,22.099878 C7.26623342,25.0407508 6.27490699,27.9577085 6.08675155,30.9274203 C5.8810443,34.172861 6.59926451,37.4696492 6.53678005,40.7361915 C6.51361166,41.9396915 5.41205984,43.1227932 4.80195881,44.3143356 C4.02265829,43.1994627 2.63746917,42.1267932 2.5574329,40.9626831 C1.92205725,31.737022 1.58014793,22.4916661 1.04516865,13.2575644 C0.882989896,10.4573695 0.13177228,7.67194576 0.171790415,4.88722542 C0.193554663,3.43824237 1.35057021,2.00543729 1.99437073,0.564894915 C3.09100803,1.21412373 4.35614275,1.68750508 5.2547956,2.54493729 C8.00972824,5.17842881 10.4866402,8.11719153 13.3419692,10.6289966 C15.2614355,12.3178356 15.8490702,13.6894458 13.7105573,15.4190814 C11.1753733,17.4680559 11.5629174,19.4677932 13.0709692,22.1005814 C16.0912852,27.3724881 18.7844355,32.8413441 21.3982516,38.3313017 C21.9191894,39.4271831 21.4810961,40.9802678 21.4853085,42.3223356 C20.2966997,41.3629119 18.624363,40.6447508 18.0044329,39.401861 C15.1484018,33.6818949 12.5872412,27.8156237 9.92006762,22.0021068 C9.2481842,22.0344627 8.5755987,22.067522 7.90301321,22.099878" id="Fill-45"></path>
                    <path d="M22.7062127,8.04720424 C23.0495262,9.86335678 23.309293,10.9922975 23.4700676,12.1360093 C23.7593215,14.2046788 24.8377049,14.8046703 26.8912671,14.497289 C28.1149795,14.3137042 29.4369821,14.784272 30.7140521,14.9601195 C30.7238811,15.352611 30.7337101,15.7436958 30.742837,16.1354839 C29.9614303,16.5490771 29.2052982,17.2531703 28.3937023,17.3242127 C25.1711894,17.6083822 24.4150573,19.1938229 24.9914588,22.2528653 C26.0431635,27.8349669 26.7691065,33.4782636 27.6396764,39.1511025 C30.3602075,38.8395008 32.5436531,38.4033992 34.7214821,38.4280178 C35.6271557,38.4385686 36.5222982,39.4296449 37.4216531,39.974772 C36.5700391,40.5220093 35.7858241,41.3196534 34.8548759,41.56795 C32.6187749,42.165128 30.2787671,42.3719246 28.0468785,42.9803568 C24.8721065,43.8462297 24.3076402,43.3594839 23.9446687,40.0218992 C22.921749,30.6147636 21.7647334,21.2209924 20.5662956,11.8335517 C20.4104355,10.6117636 19.902135,9.31963644 19.1993604,8.30886525 C17.8942075,6.43011102 18.2936868,5.52836525 20.4778345,5.29061949 C23.4946402,4.96213644 26.5149562,4.47820424 29.5352723,4.46906017 C30.6031246,4.46554322 31.6744873,5.66130593 32.7451479,6.30983136 C31.7173137,6.74804322 30.7224769,7.42611102 29.6539225,7.57452627 C27.4936453,7.87628051 25.29335,7.89034831 22.7062127,8.04720424" id="Fill-34"></path>
                    <path d="M45.7861453,34.5816008 C46.1659666,34.5949653 46.5450858,34.6076263 46.9242049,34.6209907 C48.7074692,30.4822449 50.5321557,26.3603805 52.228363,22.1864653 C52.4860236,21.5534144 52.4116039,20.4969229 52.0373992,19.9419483 C49.7942775,16.6092873 47.4191661,13.3673636 45.0889873,10.0944907 C44.7225054,10.223211 44.3574277,10.3519314 43.9916479,10.4799483 C44.5905158,18.5140669 45.1879795,26.5474822 45.7861453,34.5816008 M44.6326402,44.6091263 C43.8020883,41.8644992 42.9076479,39.9414314 42.685793,37.9431008 C42.3270339,34.7173551 42.4520028,31.4402619 42.298249,28.1877873 C42.0328655,22.5923212 41.7590573,16.9961517 41.3834484,11.4077195 C41.2591816,9.55147373 40.6476764,7.72195678 40.5880003,5.87063475 C40.5606194,5.02727034 41.137021,3.88215169 41.8131168,3.40243983 C42.2329562,3.10420254 43.6890547,3.53889746 44.1067878,4.08543136 C48.0096091,9.18571102 51.8253733,14.3542195 55.5540806,19.5832195 C56.0083215,20.2190839 56.1564588,21.4802619 55.848249,22.191389 C52.8742697,29.0487364 49.7788319,35.8547364 46.6847982,42.6586263 C46.5099821,43.0433805 46.0381894,43.2930839 44.6326402,44.6091263" id="Fill-31"></path>
                    <path d="M87.4099902,23.4503161 C84.8509358,24.0833669 83.1006689,24.6903924 81.3061715,24.8859347 C80.430687,24.9815958 79.2224202,24.5398669 78.6375938,23.9047059 C78.2381145,23.4693076 78.4115264,22.1680364 78.745713,21.4477653 C80.8540368,16.9080873 83.0227389,12.3944347 85.3164098,7.94690085 C85.7397596,7.12463814 86.8202492,6.64211271 87.5981456,6.00202797 C87.824213,7.08806186 88.5038192,8.32884153 88.1970135,9.23410424 C86.9367933,12.9606636 85.3767881,16.584528 83.8694383,20.3933839 C86.0374383,20.2625534 87.8852933,19.9418076 89.6910238,20.0986636 C91.5866197,20.2646636 92.5533736,21.1087314 91.6315523,23.4313246 C89.5681611,28.6272653 87.8951223,33.9779517 85.898428,39.2027314 C85.4062751,40.4899347 83.9185834,42.6437144 83.5050627,42.5086636 C80.8891404,41.6533415 82.0377311,39.6831466 82.6316845,37.9169347 C84.1572881,33.3856975 85.6344487,28.8375788 87.4099902,23.4503161" id="Fill-38"></path>
                    <path d="M64.9327166,10.8888992 C64.955885,13.7425517 64.9762451,16.2536534 64.994499,18.4348653 C67.3632917,20.5541788 70.5584238,16.3436873 72.4694653,20.2728229 C71.5413254,20.7813737 70.7746622,21.5368144 69.9623642,21.5895686 C65.584942,21.8765517 64.6912036,24.3152042 65.3588746,28.1880686 C65.7520352,30.4663483 65.6923591,32.8339585 65.7190378,35.1628822 C65.749929,37.8638992 66.9062425,38.8050347 69.6569627,38.554628 C71.4977969,38.3879246 74.7483927,36.9122127 74.9491855,39.8439415 C75.1731466,43.1182212 71.7659886,41.178272 70.007999,41.6818992 C69.3417321,41.8732212 68.6235119,41.8718144 67.9340767,41.9913907 C62.6243021,42.9135347 62.014201,42.5315941 61.7579446,36.9065856 C61.3212554,27.3390771 61.0867632,17.7617212 60.7343228,8.18928898 C60.6486699,5.89342458 62.3645352,5.16752627 63.5735041,6.22120424 C66.1192192,8.43899237 68.817986,7.57733983 71.5293902,7.57171271 C72.3459005,7.57030593 73.241043,7.37546695 73.9557528,7.64908559 C74.7076725,7.93677203 75.2868824,8.67884831 75.9419161,9.22327203 C75.263714,9.74800085 74.6135948,10.6764754 73.9023953,10.7264161 C71.0323228,10.9268822 68.1439964,10.8558398 64.9327166,10.8888992" id="Fill-51"></path>
                </g>
            </g>
        </g>
    </g>
</svg>