<?xml version="1.0" encoding="UTF-8" standalone="no"?>
<svg width="283px" height="231px" viewBox="0 0 283 231" version="1.1" xmlns="http://www.w3.org/2000/svg" xmlns:xlink="http://www.w3.org/1999/xlink">
    <!-- Generator: Sketch 41.1 (35376) - http://www.bohemiancoding.com/sketch -->
    <title>texto</title>
    <desc>Created with Sketch.</desc>
    <defs></defs>
    <g id="Page-1" stroke="none" stroke-width="1" fill="none" fill-rule="evenodd">
        <g id="Desktop-Landscape" transform="translate(-174.000000, -158.000000)" fill="#000000">
            <g id="texto" transform="translate(174.000000, 158.000000)">
                <g id="Mientras" transform="translate(33.000000, 141.000000)">
                    <path d="M44.7557963,4.63243052 C47.3086313,3.65569355 47.721753,3.93267866 48.4534685,6.9270335 C49.8556313,12.6626663 51.3634087,18.3726414 52.7976643,23.9794032 C52.7976643,17.8898127 52.7480664,11.7005074 52.8455118,5.51411787 C52.8624334,4.46449007 53.5083736,3.42535856 53.8643118,2.38097891 C54.4244767,3.45626427 55.4286891,4.5134727 55.4742025,5.61033375 C55.7817097,12.9775546 55.8762375,20.3541055 56.0617922,27.7265744 C56.1102231,29.6567233 56.4083942,31.5991179 56.2525984,33.5082742 C56.1790767,34.4086216 55.302652,35.2430757 54.7903344,36.1078524 C53.8199654,35.3882742 52.3116045,34.8564628 51.9842581,33.9141303 C51.1638499,31.5553834 50.8755984,29.0117854 50.3802025,26.5410782 C49.7412643,23.3537084 49.1075777,20.1663387 48.4721406,16.978969 C48.2043118,17.0092916 47.9364829,17.039031 47.668654,17.0699367 C47.668654,22.2300236 47.7450932,27.3918598 47.6009674,32.5478648 C47.5741262,33.5129392 46.6667757,34.4546886 46.1655447,35.4063511 C45.6958231,34.3882122 44.8293179,33.3747382 44.8176478,32.350768 C44.7120334,23.1711898 44.7557963,13.9892792 44.7557963,4.63243052" id="Fill-1"></path>
                    <path d="M8.61605443,11.7734566 C9.23573691,9.20245161 9.53099052,7.27988337 10.206106,5.50134739 C10.4920235,4.74794789 11.6158544,3.79220347 12.2851348,3.84643424 C13.0016792,3.90416377 14.1488503,4.98994541 14.2206214,5.71477171 C15.0777905,14.3951935 15.8048379,23.0890273 16.4396915,31.7886923 C16.49104,32.4942754 15.6181163,33.2669181 15.1740689,34.0086551 C14.5415493,33.1817816 13.4212194,32.3893127 13.3605348,31.5227866 C13.0822029,27.5616079 13.1843163,23.5753548 12.984174,19.6071787 C12.8593039,17.1288908 12.4403472,14.6657643 11.5073225,12.2003052 C11.3025122,13.2044491 11.2144029,14.2534938 10.8549637,15.1987419 C10.5801328,15.922402 9.96103381,16.5154417 9.4953967,17.1662109 C8.84070392,16.6769677 7.96311216,16.3224268 7.57274722,15.6745732 C6.35205443,13.6499578 5.31516577,11.5139653 4.20708948,9.42112407 C3.94684619,9.50451117 3.68660289,9.58789826 3.42635959,9.67186849 C3.64867505,13.4721042 3.87565856,17.2729231 4.09213897,21.0731588 C4.34596371,25.529995 4.66222351,29.9850819 4.77484,34.4454169 C4.79526268,35.2565459 3.96610186,36.0880844 3.52964,36.9102928 C2.94555134,36.0828362 1.89874309,35.2816203 1.84797814,34.4220918 C1.31582144,25.4174516 0.906200825,16.4052308 0.575353402,7.39126055 C0.537425567,6.35562779 1.18511629,5.29550372 1.51538021,4.24645906 C2.45832454,4.76077667 3.63758845,5.071 4.29578227,5.83198015 C5.73879052,7.49913896 6.91805443,9.3954665 8.61605443,11.7734566" id="Fill-3"></path>
                    <path d="M89.1173008,13.4488375 C87.496907,11.1250782 86.076072,9.08705087 84.4340885,6.73238586 L84.4340885,17.5377208 C86.1705998,16.0215918 87.5961029,14.7766166 89.1173008,13.4488375 M87.6626225,19.3302519 C83.7426348,22.3065298 84.0647297,26.3295199 83.8727565,30.1589119 C83.8097379,31.4138002 84.095072,32.6966787 83.9386926,33.9305744 C83.8494163,34.6390732 83.1935565,35.2764305 82.7926885,35.9452767 C82.1700885,35.3411576 81.0888534,34.7889367 81.0135812,34.1224231 C80.8087709,32.3170633 81.0725153,30.4644702 81.0765998,28.629371 C81.0929379,20.3991228 81.0836019,12.1682916 81.0836019,3.95553722 C82.7646802,2.43765881 84.1878493,2.57411042 85.5164905,4.37538834 C87.5307503,7.10558685 89.6891359,9.73548759 91.5761915,12.5484901 C91.963639,13.1257854 91.7611627,14.778366 91.2540967,15.1504007 C89.5986926,16.3656365 89.9487957,17.5680434 90.4949565,19.1576464 C92.0371606,23.648304 93.4585792,28.1832792 94.794806,32.7386638 C95.0147874,33.4879814 94.5602369,34.4338127 94.4172781,35.2892593 C93.5951194,34.6758102 92.2991544,34.2215546 92.0307421,33.4226712 C90.7989627,29.7559715 89.8723565,25.9883908 88.7957895,22.2686266 C88.5302946,21.3507854 88.1107544,20.4778449 87.6626225,19.3302519" id="Fill-5"></path>
                    <path d="M105.423527,13.337227 C106.339047,13.2602543 106.945309,13.0672395 107.466379,13.2036911 C108.03588,13.3512221 108.525441,13.8031452 109.050012,14.1226985 C108.758259,14.576371 108.540612,15.3425993 108.161917,15.433567 C105.705944,16.0201923 106.072969,17.7829839 106.276612,19.5364454 C106.825107,24.2533561 107.431369,28.9661849 107.824651,33.6959243 C107.895255,34.5496216 107.061426,35.4785422 106.645387,36.3724752 C106.051962,35.5222767 105.042499,34.7216439 104.935134,33.8137159 C104.343459,28.814572 103.977602,23.7891873 103.517216,18.7737159 C103.476371,18.3299566 103.310655,17.8972767 102.560268,17.3392246 C102.337369,18.2354901 101.984932,19.1212593 101.91316,20.0297705 C101.553138,24.5699938 101.315651,29.1201303 100.896694,33.6545223 C100.838344,34.2860484 100.011517,34.846433 99.5400449,35.4388896 C99.0148903,34.6470037 98.0083439,33.8317928 98.0451047,33.0667308 C98.2300759,29.1947705 98.6939625,25.3362221 99.0417315,21.4712593 C99.1257563,20.5411725 99.1420944,19.6052543 99.1876078,18.7014082 C98.6910449,18.6261849 98.5037398,18.5976117 98.3164346,18.5702047 C97.1219996,18.3906017 95.9275645,18.2109988 94.7331295,18.0319789 C95.6614862,17.3823759 96.7088779,16.8493983 97.4849398,16.0522643 C98.3094326,15.2043983 99.318313,14.1670161 99.4636058,13.1051427 C99.7641109,10.9155025 99.3492388,8.63022953 99.6246532,6.43417494 C99.7495233,5.4405273 100.819672,4.56525434 101.460944,3.63633375 C102.316946,4.40081266 103.636251,5.01601117 103.937923,5.95834367 C104.666721,8.23603598 104.920546,10.6653412 105.423527,13.337227" id="Fill-7"></path>
                    <path d="M70.6365839,5.51452605 C70.6365839,9.00395533 70.6295819,12.0951092 70.6377509,15.186263 C70.6546726,21.4781985 70.7223592,27.7707171 70.6313324,34.0609032 C70.6231633,34.6644392 69.6452087,35.2539801 69.1171365,35.8499355 C68.5289633,35.2131613 67.4780705,34.6049603 67.4372252,33.9343648 C67.3012685,31.7179007 67.5760994,29.479861 67.6099427,27.2488189 C67.707388,20.7533722 67.7447324,14.2561762 67.8497633,7.76072953 C67.8830231,5.70112655 67.0421922,4.98329777 64.9923386,5.38682134 C63.5726705,5.66672208 62.0800643,5.82183375 60.6475592,5.70404218 C59.7641324,5.63173449 58.930887,4.94131266 58.0754685,4.52845906 C58.1612437,4.14709429 58.2464355,3.76572953 58.3322107,3.38436476 C60.6924891,3.15519603 63.0492664,2.88462531 65.4130458,2.70735484 C68.5995674,2.46768983 71.7901736,2.20120099 74.9813633,2.16563027 C75.8589551,2.155134 76.7452994,2.9260273 77.6269757,3.33829777 C76.868419,3.87010918 76.1763819,4.6567469 75.3349674,4.87833499 C73.8563654,5.26786352 72.286153,5.31159801 70.6365839,5.51452605" id="Fill-9"></path>
                    <path d="M29.4274076,3.52542308 C31.6680674,3.23327667 33.94082,2.84608065 36.2281602,2.70496402 C36.7667355,2.67114268 37.3560757,3.46594417 37.9214922,3.87996402 C37.3805829,4.29806576 36.8980241,4.90684988 36.2865107,5.09286725 C35.1037458,5.4520732 33.8486262,5.5727804 32.3799437,5.83577047 C32.5316551,7.395634 32.6676118,8.79747022 32.7971499,10.1339963 C34.2669994,10.399902 35.5028633,10.6232395 37.1220901,10.9165521 C36.5549231,11.7119367 36.3279396,12.3597903 36.03502,12.390696 C32.8928447,12.7265769 32.9611148,14.8246663 33.0358035,17.2329789 C33.1799293,21.8635868 33.0778159,26.5017754 33.0778159,31.0175074 C35.243787,31.2251005 36.9365355,31.3236489 38.6024427,31.5895546 C39.0558262,31.6618623 39.428686,32.2397407 39.8383066,32.5855347 C39.4613623,32.9587357 39.143352,33.5441948 38.697554,33.6672345 C36.6412819,34.2375323 34.562253,34.7506836 32.465719,35.1448772 C30.7548819,35.4661799 29.9694839,34.697036 30.040088,32.8765149 C30.2279767,28.0301501 30.4888035,23.177371 30.3913581,18.3339218 C30.2956633,13.5954355 29.7926819,8.8651129 29.4274076,3.52542308" id="Fill-11"></path>
                    <path d="M118.356919,13.766 C120.245725,13.6511241 121.769841,13.5613226 123.292789,13.4633573 C125.288377,13.3362357 125.614556,14.0091638 124.844329,15.8897469 C122.386606,21.8907022 120.14828,27.9814591 117.728484,33.9981588 C117.417476,34.7725509 116.535216,35.3177742 115.917868,35.9691266 C115.626115,34.976062 114.860556,33.8308015 115.123134,33.0155906 C116.487369,28.7715955 118.106595,24.6098213 119.652884,20.4247221 C120.117354,19.1692506 120.633756,17.9318561 121.314707,16.208134 C119.395558,16.4956154 117.924542,16.8676501 116.450608,16.8775633 C115.59869,16.8839777 114.530876,16.5020298 113.978296,15.9072407 C113.699965,15.6075136 114.206447,14.3532084 114.612567,13.6855285 C116.273222,10.9570794 117.980558,8.25195533 119.796426,5.62497022 C120.177455,5.07391563 121.087723,4.88731514 121.754086,4.53335732 C121.855033,5.30191811 122.273406,6.21567742 122.000909,6.81338213 C120.966938,9.07533002 119.708901,11.2346476 118.356919,13.766" id="Fill-13"></path>
                    <path d="M24.0462064,27.1284032 C24.0462064,28.6742717 24.2195074,30.2487134 23.9773528,31.7566787 C23.8443136,32.5835521 23.0116518,33.2996315 22.4940827,34.0652767 C21.9502559,33.3025471 20.9857219,32.5689739 20.9297054,31.7712568 C20.5288373,26.0968524 20.3269445,20.409036 20.0258559,14.7264677 C19.9750909,13.7683908 19.5736394,12.8033164 19.6582476,11.8703139 C19.7387713,10.9903759 20.2464208,10.1495074 20.5661816,9.29114516 C21.1654414,10.0445447 22.0132744,10.7139739 22.305027,11.57117 C22.70006,12.7356737 22.695392,14.0424603 22.8190951,15.2915174 C23.2088765,19.2352022 23.5794023,23.1806365 23.9569301,27.1254876 C23.9866889,27.1260707 24.0164476,27.127237 24.0462064,27.1284032" id="Fill-15"></path>
                    <path d="M18.0373287,1.24872208 C19.6880647,2.42022333 21.5780379,-1.37009926 22.720541,1.54320099 C23.0969019,2.50361042 21.4636709,4.75914392 20.2062173,5.68573201 C19.2545204,6.38723325 18.1026812,4.42442928 18.0373287,1.24872208" id="Fill-17"></path>
                </g>
                <g id="Tanto" transform="translate(167.000000, 143.000000)">
                    <path d="M51.8629223,20.3374938 C51.8629223,14.8339454 51.7940687,9.32923077 51.9259408,3.82859801 C51.9498645,2.82445409 52.7930295,1.83955335 53.2574996,0.845905707 C53.6747058,1.88911911 54.4612707,2.93641439 54.4513511,3.97554591 C54.3655759,12.9988462 54.148512,22.0209801 53.922112,31.0419479 C53.9075243,31.6215757 53.4856501,32.6758685 53.2639181,32.6723697 C52.6004728,32.6636228 51.7427202,32.4099628 51.3342666,31.9329653 C50.8785491,31.4005707 50.7980254,30.526464 50.6136377,29.7864764 C49.3030852,24.5190943 48.0077037,19.2476303 46.1655779,14.0414764 C46.4374913,19.1409181 46.8056831,24.2374442 46.9182996,29.3403846 C46.9498089,30.7643797 46.170246,33.4549256 45.8574872,33.4415136 C43.1821161,33.3213896 44.3905553,31.1130893 44.2802728,29.6803474 C43.6477532,21.4565136 43.0531614,13.228598 42.554848,4.99485112 C42.498248,4.05426799 43.1202645,3.072866 43.4271882,2.10954094 C44.3257862,2.75914392 45.7454542,3.23147643 46.0377903,4.08808933 C47.8793326,9.47501241 49.4699676,14.9476551 51.1434604,20.3917246 C51.383281,20.3736476 51.6231016,20.3555707 51.8629223,20.3374938" id="Fill-21"></path>
                    <path d="M25.3080111,16.7510906 C23.7132915,16.352232 22.5019348,16.0495893 21.2911616,15.7469467 C26.9225699,14.085036 26.2906338,9.70283995 26.7772771,5.84370844 C26.9575802,4.4109665 26.1126647,2.03297643 28.577974,1.89244293 C31.010607,1.75307568 30.4218503,4.13339826 30.8425575,5.57605335 C31.0852957,6.40992432 31.1325596,7.29802605 31.3426214,8.14297643 C31.7907534,9.94367122 31.5678544,12.2779268 35.1739163,11.7472816 C31.9255431,15.5533486 34.1206895,18.8882494 34.4707926,22.1730012 C34.7567101,24.8577159 35.6144627,27.4782866 36.0135802,30.1577531 C36.1372833,30.9910409 35.590539,31.9240434 35.3507184,32.8103958 C34.6732689,32.0354206 33.5786132,31.3496638 33.3907245,30.4703089 C32.5405575,26.4951352 31.9477163,22.4645645 31.2585967,18.4544032 C31.1599843,17.8811898 31.1594008,17.2490806 30.899741,16.7580881 C30.5898998,16.1720459 30.049574,15.7078772 29.6096111,15.191227 C29.1433905,15.7282866 28.3836668,16.2064504 28.2617142,16.812902 C27.666539,19.7536092 27.219574,22.7258052 26.7685245,25.6939194 C26.5211184,27.3220087 26.4948606,28.9938325 26.1196668,30.5881005 C25.9405307,31.3449988 25.178473,31.9654454 24.6807431,32.6471203 C24.2553678,31.8039194 23.4028668,30.9210658 23.4787225,30.1262643 C23.817739,26.5598623 24.4210833,23.019701 24.9281493,19.4702097 C25.0623555,18.5267109 25.1918936,17.582629 25.3080111,16.7510906" id="Fill-23"></path>
                    <path d="M84.6454672,27.4147841 C85.9927806,19.8195608 88.8029414,12.175938 82.5069208,5.51954839 C81.0061456,8.68767494 79.4831971,11.812067 78.0652796,14.9848586 C77.8347951,15.5009256 77.8429641,16.359871 78.1247971,16.8327866 C80.2440878,20.3921911 82.4596569,23.8944491 84.6454672,27.4147841 M83.5023806,0.431186104 C83.9610157,1.51696774 84.3846404,2.61907692 84.8847043,3.68561538 C86.5651992,7.27184367 88.2836219,10.839995 89.9547806,14.4308883 C90.1444198,14.83966 90.2593703,15.3679727 90.1840981,15.8018189 C89.2814157,20.9933945 88.3758157,26.1861365 87.3669353,31.358469 C87.1860487,32.2856402 86.5336899,33.1206774 86.0995621,33.9982829 C85.4116095,33.3066948 84.5736961,32.7095732 84.0607951,31.9060248 C81.0131476,27.1360496 77.9876734,22.35033 75.1022404,17.4829727 C74.6733641,16.7593127 74.714793,15.443196 75.0648961,14.6256526 C76.7337208,10.7233697 78.5951023,6.90389082 80.3619559,3.0424268 C80.712059,2.27678164 80.9448775,1.45632258 81.2319621,0.660937965 C81.9887682,0.584548387 82.7455744,0.507575682 83.5023806,0.431186104" id="Fill-25"></path>
                    <path d="M13.7706555,23.555536 C13.2425833,17.6630422 12.6911709,11.7717146 12.1998596,5.87630521 C12.0364781,3.92516377 11.5457503,2.84229777 9.14754412,3.33853846 C7.0842699,3.76597022 4.89087402,3.66042432 2.75874619,3.61377419 C2.13147814,3.59977916 1.51646371,2.98516377 0.895614227,2.64578412 C1.43535649,2.23584615 1.94825753,1.51393548 2.51892557,1.46495285 C8.60430082,0.947136476 14.6955111,0.4952134 20.7925565,0.151168734 C21.4752575,0.112682382 22.2017214,0.849754342 22.9077627,1.22703722 C22.204639,1.69995285 21.5586988,2.414866 20.7861379,2.59855087 C18.7654596,3.07671464 15.7539895,2.64695037 14.8863173,3.84352605 C13.9317029,5.16197519 14.9499194,7.89042432 15.0707049,10.0065906 C15.473907,17.0752506 15.8940307,24.1433275 16.205039,31.2160695 C16.2382988,31.9753002 15.5993606,32.7648536 15.2725977,33.5404119 C14.6424122,32.743861 13.551841,31.9922109 13.4695668,31.1425955 C13.2262452,28.642732 13.3826245,26.1032159 13.3826245,23.5794442 L13.7706555,23.555536 Z" id="Fill-27"></path>
                    <path d="M65.5977584,3.72923325 C58.5017522,3.07613151 58.5017522,3.07613151 58.2280882,1.38623077 C63.1546223,1.09058561 68.0368099,0.746540943 72.9248326,0.569270471 C73.5275934,0.547111663 74.1630305,1.41247146 74.7832965,1.86731017 C74.1881212,2.24109429 73.6267893,2.84812903 72.9901852,2.94142928 C71.498746,3.16010174 69.971713,3.13327792 68.3250614,3.21141687 C68.7708594,11.1518511 69.2114058,18.7692333 69.6181089,26.3883648 C69.7470635,28.8065906 69.8731006,31.232397 69.807748,33.6494566 C69.7908264,34.2821489 69.0509419,34.895598 68.6436553,35.517794 C68.1114986,34.9235881 67.4159604,34.4046055 67.0973666,33.7124342 C66.8388738,33.1497171 67.0495192,32.3788238 67.0215109,31.7018139 C66.6737419,23.2803002 66.3277233,14.8593697 65.958948,6.43843921 C65.9216037,5.58649132 65.7366326,4.74037469 65.5977584,3.72923325" id="Fill-29"></path>
                </g>
                <g id="Visitar" transform="translate(143.000000, 193.000000)">
                    <path d="M81.2124392,18.7774665 C82.1063691,23.8961514 83.0475629,28.9256179 83.8113711,33.9813251 C83.9514124,34.9079132 83.3725753,35.9429628 83.1251691,36.9272804 C82.4996515,36.0117717 81.5071093,35.1674045 81.3110515,34.1679256 C80.4369608,29.7023424 79.8231134,25.1877767 79.0237113,20.7070323 C78.9122619,20.0801712 78.2949134,19.5436948 77.9115505,18.9658164 C77.3700577,19.5232854 76.4877979,20.0049479 76.3419216,20.6522184 C75.3628,25.0005931 74.5925732,29.396201 73.6210371,33.7469082 C73.4296474,34.6035211 72.6547526,35.3295136 72.1494371,36.1155682 C71.7783278,35.082268 70.9474165,33.96733 71.114299,33.0296625 C71.8728557,28.7658412 72.9126619,24.5515856 73.8497711,20.3245012 C72.0945876,20.0078635 70.7081794,19.7588685 68.8269588,19.420072 C69.5831814,18.5179752 69.7488969,18.1336948 69.9379526,18.1220323 C74.5400577,17.8363002 75.359299,14.6920819 75.5816144,10.9274169 C75.7292412,8.43688337 76.1686206,5.96326055 76.604499,2.46158561 C77.6425546,3.72347146 78.6426825,4.41622581 78.8562454,5.29966253 C79.4695093,7.8356799 79.7869361,10.4463375 80.1767175,13.0342531 C80.4212062,14.6547618 80.6604433,16.1020819 82.9326124,15.8542531 C83.5563794,15.7866104 84.2659216,16.5102705 85.7025113,17.2829132 C83.7045897,17.9482605 82.5830928,18.3214615 81.2124392,18.7774665" id="Fill-33"></path>
                    <path d="M95.4317012,12.7719628 C93.7797981,11.1304615 92.406227,9.76594541 90.5512641,7.92268238 C90.7508229,11.2004367 90.9130373,13.8629926 91.0758353,16.5261315 C91.331994,16.5663672 91.5887363,16.606603 91.8454786,16.6468387 C93.0049033,15.3936998 94.164328,14.1411439 95.4317012,12.7719628 M92.5503528,19.5461439 C92.3163672,21.0646055 91.8303074,22.5941464 91.899161,24.0980298 C92.068961,27.7734764 92.5620229,31.4331787 92.7639157,35.1080422 C92.8070951,35.8929305 92.1693239,36.7157221 91.8454786,37.5210199 C91.2596394,36.7606228 90.2571775,36.0486253 90.1614827,35.2304988 C89.7670332,31.8676079 89.9916827,28.4067519 89.3579961,25.1027568 C87.99026,17.9734516 89.1251775,10.7345186 87.5444621,2.92587097 C88.947792,3.56206203 89.8212992,3.72766998 90.3622085,4.24257072 C92.9593899,6.71386104 95.5466518,9.20847643 97.9320208,11.8774467 C98.3638146,12.3602754 98.1724249,14.2670993 97.6962847,14.5481663 C95.0238311,16.1237742 95.5110579,18.1903747 96.5590332,20.3018759 C98.7559301,24.7295558 101.11154,29.0779305 103.315439,33.5021117 C103.82659,34.5295806 103.990555,35.7284888 104.396091,37.1291588 C101.463978,37.0224467 101.285425,35.0643077 100.572382,33.5889975 C98.2856249,28.8598412 95.9831136,24.1376824 93.6864373,19.4131911 C93.3077425,19.4575087 92.9284641,19.5018263 92.5503528,19.5461439" id="Fill-35"></path>
                    <path d="M0.694154433,4.79152605 C3.37711113,5.06442928 3.44713175,7.24940447 4.1321668,8.78594293 C6.88922866,14.9670844 9.54009258,21.1966253 12.2306348,27.4075062 C12.5784039,27.360273 12.9267565,27.3136228 13.2751091,27.2663896 C12.9652678,19.5883623 12.6554266,11.910335 12.3455854,4.23289082 C12.698606,4.10110422 13.0522101,3.96990074 13.4058142,3.83811414 C13.8521957,4.7244665 14.6475132,5.59390819 14.6912761,6.50008685 C15.1446596,15.8744293 15.4900946,25.2540199 15.809272,34.6341935 C15.8291111,35.2161538 15.4854266,36.2138834 15.1149008,36.3170968 C14.4823812,36.4926179 13.6327977,36.2395409 12.9932761,35.9258189 C12.5270555,35.6966501 12.1127668,35.1350993 11.913208,34.6283623 C8.15251732,25.0866625 4.42508639,15.5309677 0.706408041,5.97235732 C0.611880206,5.73152605 0.694154433,5.42188586 0.694154433,4.79152605" id="Fill-37"></path>
                    <path d="M36.2820171,20.3810645 C34.0938728,20.6977022 32.4011243,20.9927643 30.6961223,21.1764491 C28.4239532,21.4213623 27.607046,20.3892283 28.4852212,18.2736452 C30.0840254,14.4215112 31.7429305,10.5932854 33.4881944,6.80646154 C33.776446,6.18076675 34.631281,5.81572953 35.2247058,5.33056824 C35.3880872,6.18484864 35.8904852,7.14992308 35.6529986,7.87183375 C34.8670171,10.2614864 33.8021202,12.559005 32.8702625,14.9020074 C32.4933181,15.8507543 32.1852274,16.8274913 31.6775779,18.268397 C34.2957656,17.9651712 36.380046,17.6123797 38.474246,17.5365732 C39.3185779,17.5062506 40.1839161,18.0847122 41.0399181,18.3856055 C40.7014852,19.1868213 40.3928109,20.0026154 40.0193676,20.7869206 C37.9485078,25.1399603 35.9663408,29.5408164 33.7204295,33.8017221 C32.9916315,35.1843151 33.6714151,38.4591538 30.9732872,37.5523921 C28.573914,36.7465112 30.5893408,34.4577395 31.0946563,33.0524045 C32.5610047,28.9751836 34.3546996,25.0163375 36.2820171,20.3810645" id="Fill-39"></path>
                    <path d="M52.4266711,3.67425558 C58.1946196,3.21300248 63.3662258,2.75816377 68.546001,2.44677419 C69.0892443,2.41411911 69.6832526,3.22933002 70.2533371,3.65151365 C69.7007577,4.08127792 69.1592649,4.5267866 68.5885969,4.93147643 C68.4473887,5.03235732 68.2145701,5.01019851 68.0220134,5.03235732 C63.4304113,5.57291563 63.5511969,5.5612531 63.9730711,10.1662035 C64.6697763,17.785335 65.2392773,25.4172953 65.7241701,33.0527543 C65.7766856,33.8854591 64.923601,34.7753102 64.4900567,35.6383375 C63.896632,34.7916377 62.8404876,33.9758437 62.7827206,33.0941563 C62.2365598,24.7997643 61.7872608,16.4960422 61.4820876,8.18882134 C61.3910608,5.72744417 60.3512546,5.43004963 58.1905351,5.52276675 C56.4966196,5.59507444 54.2472072,7.52813896 52.4266711,3.67425558" id="Fill-41"></path>
                    <path d="M20.7005623,8.32387345 C23.2224715,8.16642928 23.1396138,10.0691712 23.3000777,11.4540968 C24.0335437,17.7979305 24.6374715,24.1569256 25.2898303,30.5106725 C25.4082819,31.6640968 25.7012014,32.830933 25.6072571,33.9668635 C25.5349025,34.8438859 24.9823231,35.6818387 24.6433066,36.5372854 C24.0335437,35.7039975 23.0065746,34.9266898 22.8869561,34.0292581 C22.4289045,30.5783151 22.2976159,27.0859702 21.9772715,23.6157841 C21.5583148,19.0878065 21.0670035,14.5668263 20.6299581,10.040598 C20.5780262,9.49595782 20.671387,8.93673945 20.7005623,8.32387345" id="Fill-43"></path>
                    <path d="M46.3223903,8.67637345 C46.8049491,9.63095161 47.6055181,10.5493759 47.7198852,11.5465223 C48.5898913,19.1545744 49.340279,26.7760385 50.0719944,34.3992519 C50.1186748,34.8873288 49.797747,35.7521055 49.4633986,35.8576514 C48.9329924,36.0250087 48.097413,35.8821427 47.6673697,35.5322667 C47.2274068,35.1736439 46.9403223,34.4214107 46.8942254,33.8178747 C46.3603181,26.8588424 45.8830109,19.894562 45.3975346,12.9314479 C45.3117594,11.6958027 45.2592439,10.4578251 45.1909738,9.22043052 C45.5685016,9.03849504 45.945446,8.85772581 46.3223903,8.67637345" id="Fill-45"></path>
                    <path d="M45.6798928,5.62580521 L43.1766557,2.82679777 C43.2624309,2.52298883 43.3476227,2.21859677 43.4328144,1.91478784 L47.2057588,1.91478784 C47.0003649,3.1020335 46.7949711,4.28927916 46.5895773,5.47652481 C46.2861546,5.52609057 45.9833155,5.57623945 45.6798928,5.62580521" id="Fill-47"></path>
                    <path d="M18.9537812,2.14069107 C19.9317359,1.61762655 20.910274,1.09456203 22.8720184,0.0449342432 C22.5096616,2.04739082 22.2791771,3.31918983 22.0486926,4.59098883 L18.6170988,3.13725434 C18.7291318,2.80545533 18.8417482,2.47249007 18.9537812,2.14069107" id="Fill-49"></path>
                </g>
                <g id="Puedes" transform="translate(46.000000, 196.000000)">
                    <path d="M22.8530831,28.2423797 C25.9007305,24.548273 24.5563346,20.6669826 23.9786645,16.8999851 C23.186848,11.7363995 22.2374852,6.59788834 21.935813,0.796362283 C22.6412707,1.43546898 23.8316212,1.98185856 23.9763305,2.7294268 C25.3971656,10.0604938 26.6692068,17.4218834 27.8974852,24.7885211 C28.0071841,25.4457047 27.5637202,26.2247618 27.2865553,26.9111017 C26.6581202,28.4686328 25.9800872,30.0069206 25.3067223,31.5457916 C25.0540645,32.1213375 24.7774831,33.1359777 24.4769779,33.1488065 C23.8217016,33.1773797 22.9913738,32.8525782 22.50298,32.3878263 C20.4916377,30.4751712 18.5403965,28.4937072 16.6620934,26.4504318 C16.1912047,25.9384467 15.9064542,25.1232357 15.8200955,24.4135707 C15.0049388,17.6889553 14.2259594,10.9596749 13.5193346,4.22339702 C13.4498975,3.56038213 13.9330398,2.83963772 14.1594398,2.14571712 C14.7872913,2.73467494 15.8580233,3.24724318 15.9729738,3.92308685 C16.9351738,9.56250372 17.9481388,15.2112506 18.4738769,20.9013995 C18.7784666,24.1978139 19.9139676,26.5874665 22.8530831,28.2423797" id="Fill-53"></path>
                    <path d="M49.949312,8.75889702 C49.7765944,8.79738337 49.6038769,8.83703598 49.4305759,8.87610546 L50.3916089,27.75716 C50.6273449,27.8195546 50.8624975,27.881366 51.0982336,27.9431774 C52.4799738,24.6211055 54.4055408,21.3946663 55.0129697,17.9361427 C55.3123078,16.2299144 53.2151903,14.076428 52.1345388,12.163773 C51.4722604,10.9911055 50.6821944,9.89074566 49.949312,8.75889702 M47.4962563,19.7776563 C47.1490707,14.9272097 46.7283635,9.51637841 46.4126872,4.09971588 C46.3695078,3.35739578 46.8497326,2.58533623 47.0872192,1.82668859 C47.8218522,2.20222208 48.8523223,2.38415757 49.2426872,2.98361166 C52.0417614,7.2824206 54.820413,11.6039715 57.3394047,16.0678052 C57.9246604,17.1051873 57.8919841,18.873227 57.4479367,20.0406464 C55.8322109,24.2928052 53.9655779,28.45283 52.0843573,32.5982767 C51.710914,33.4216514 50.8537449,34.0263536 50.2194748,34.7325199 C49.5146006,33.8939839 48.4310315,33.1539963 48.1842089,32.1982519 C47.7063181,30.3468251 47.6158748,28.3781898 47.519013,26.4497903 C47.4174831,24.4187605 47.4962563,22.379567 47.4962563,19.7776563" id="Fill-55"></path>
                    <path d="M4.78863876,16.7250471 C8.75822433,10.8652084 8.52015423,9.07267742 3.64030062,6.26492308 C4.01316041,9.66105211 4.36734804,12.8880744 4.78863876,16.7250471 M2.03974598,0.246473945 C3.14140371,1.23429032 3.73716247,1.66988586 4.21213567,2.20986104 C6.31392124,4.60126303 8.47872536,6.94893052 10.3955398,9.48203226 C10.9154429,10.1689553 10.9049398,11.5148114 10.6721212,12.4408164 C10.4247151,13.4263002 9.63698309,14.2811638 9.06281402,15.1780124 C5.94981402,20.0412878 4.66435216,25.1774665 6.34951505,30.9084342 C6.59692124,31.7487196 5.87454186,32.8724045 5.60087794,33.865469 C4.93568206,32.9931117 3.79784701,32.1802333 3.67997897,31.2396501 C2.53514186,22.1143027 1.51342433,12.9726278 0.611325361,3.82045658 C0.514463505,2.84080397 1.40372536,1.76493548 2.03974598,0.246473945" id="Fill-58"></path>
                    <path d="M33.7453738,8.0703995 C35.0465903,7.89429529 36.1780068,7.65812903 37.3158419,7.62605707 C37.7931491,7.61264516 38.2827099,8.03016377 38.7664357,8.25175186 C38.4525099,8.75965509 38.1660089,9.69032506 37.8205738,9.71248387 C32.9027924,10.0297047 34.1100645,13.5220496 34.2547738,16.4435136 C34.4414955,20.2210074 34.726246,23.9938362 34.8575346,27.7724963 C34.9345573,29.9936253 35.5396522,30.9726948 38.0487243,30.2659454 C39.2805037,29.9195682 40.7701924,30.4857841 42.14318,30.6391464 C40.9814212,31.3138238 39.8360006,32.0188238 38.6503181,32.6474342 C38.2336955,32.8684392 37.7167099,32.8981787 37.2469882,33.0212184 C32.5386852,34.2551141 32.3939759,33.9798784 32.18158,29.1667519 C31.8227243,21.0338859 31.2660604,12.9068511 30.59678,4.79322829 C30.4018893,2.42690074 31.1481924,1.40817866 33.4174439,1.10028784 C35.0442563,0.879282878 36.6185532,0.245424318 38.2459491,0.0734019851 C38.9251491,0.00226054591 39.6802047,0.65069727 40.4008336,0.972 C39.8465037,1.46357568 39.3604439,2.09568486 38.7185882,2.40765757 C38.0423058,2.73712407 37.2108109,2.73362531 36.4586728,2.92080893 C32.865448,3.81649132 32.805347,3.92728536 33.7453738,8.0703995" id="Fill-60"></path>
                    <path d="M83.9536,13.3481613 C81.3663381,13.7505186 79.2913938,14.1942779 77.1948598,14.3400596 C76.364532,14.3983722 75.2640412,13.9989305 74.7225485,13.4088065 C74.4290454,13.0892531 74.8567546,11.7859653 75.2990515,11.171933 C77.2835526,8.41724318 79.3030639,5.67538213 81.5133814,3.10437717 C82.0776309,2.44777667 83.386433,2.43144913 84.353301,2.12122581 C84.0936412,2.99766501 84.0277052,4.00589082 83.5387278,4.72546898 C82.138899,6.78332258 80.5663526,8.72455087 78.6034412,11.3182978 C81.2998186,11.0599727 83.2685649,10.8284715 85.2443134,10.6943524 C87.5444907,10.5386576 88.1711753,11.5964491 87.3711897,13.7067841 C85.1748763,19.5001464 83.1285237,25.350072 80.9234577,31.1393524 C80.5371773,32.1539926 79.6689216,32.9849479 79.0229814,33.9010397 C78.7598206,32.6374045 77.9849258,31.2145757 78.3210247,30.1375409 C79.9075753,25.0485955 81.800466,20.0564491 83.5743216,15.0263995 C83.6956907,14.6811886 83.7394536,14.3091538 83.9536,13.3481613" id="Fill-62"></path>
                    <path d="M68.9217487,1.64691067 C62.2662889,4.00682382 62.0253012,4.4126799 64.0699033,10.2713524 C65.1441363,10.0165261 66.2358744,9.64565757 67.3521198,9.54011166 C67.9175363,9.48646402 68.5278827,9.91447891 69.1172229,10.1244045 C68.7986291,10.6282258 68.5477219,11.5052481 68.1491878,11.5787221 C64.0634847,12.3315385 64.207027,15.1917742 64.4579342,18.3389082 C64.7625239,22.1601365 64.8022023,26.0029404 64.9544971,29.7769355 C66.9162414,29.7769355 68.4660311,29.6200744 69.9609713,29.8375806 C70.8309775,29.9641191 71.6140414,30.6906948 72.4356167,31.1466998 C71.6589713,31.5228164 70.9167528,32.0622084 70.0963445,32.2394789 C68.6860126,32.543871 67.207994,32.5292928 65.791827,32.8161911 C63.128126,33.3561663 62.1519219,32.742134 62.0731487,30.05567 C61.9657837,26.3755583 62.1630085,22.6802854 61.9179363,19.0124194 C61.6080951,14.3771464 61.1605466,9.7342928 60.4317487,5.14916873 C59.9806992,2.31225806 60.6184703,0.876600496 63.63986,0.864354839 C64.7006724,0.860272953 65.7778229,0.495818859 66.8147115,0.60544665 C67.5458435,0.682419355 68.2215425,1.2807072 68.9217487,1.64691067" id="Fill-64"></path>
                </g>
                <g id="En" transform="translate(75.000000, 56.000000)">
                    <path d="M25.3466652,20.7008077 C24.7334012,14.0508325 24.1195538,7.40144045 23.5062899,0.751465261 C23.9491703,0.5876067 24.3926342,0.424331266 24.8355146,0.261055831 C25.2877311,1.07043548 26.0445373,1.84482754 26.1449002,2.69619231 C27.0563353,10.4062916 27.8977497,18.1257208 28.615461,25.8556464 C28.6872322,26.6312047 27.7139456,28.2260558 27.3860157,28.1840707 C26.3269538,28.0487854 24.7660775,27.5764529 24.425894,26.7898151 C22.614694,22.600634 21.1168363,18.2761675 18.8907641,14.1167258 C19.3412301,18.0604107 19.8500466,21.9988474 20.1978157,25.950696 C20.2789229,26.8685372 19.8121188,27.8336117 19.5973889,28.7771104 C18.928692,27.9677308 17.7815208,27.2207457 17.6671538,26.3396414 C16.667026,18.6318747 15.8331971,10.9019491 15.0203744,3.17144045 C14.9631909,2.62505087 15.4638384,2.02034864 15.7054095,1.44305335 C16.3484322,1.9515397 17.3001291,2.32765633 17.5831291,2.98950496 C19.2665414,6.92910794 20.7889064,10.9369367 22.3789579,14.9167754 C23.173692,16.9058201 23.9958507,18.8843685 24.8057559,20.8675819 C24.986059,20.8121849 25.1663621,20.7562047 25.3466652,20.7008077" id="Fill-70"></path>
                    <path d="M3.5612668,8.27887097 C5.16824,8.7407072 6.51321938,9.12790323 7.85819876,9.51451613 C3.79116784,12.0616129 3.82559464,12.0592804 4.16461113,16.8514144 C4.34024619,19.3366998 4.46103175,21.8330645 4.43827505,24.3230149 C4.41785237,26.6193672 5.0772132,27.8223573 7.59328742,26.9214268 C7.77942557,26.8543672 7.99940701,26.7674814 8.17562557,26.8094665 C9.22651835,27.0602109 10.2692421,27.3453598 11.3142998,27.6194293 C10.5189823,28.2159677 9.80302144,29.1472208 8.91667711,29.3559801 C2.29564412,30.9140943 2.18944619,32.5602605 1.91286474,24.3270968 C1.75473485,19.6078536 0.894648247,14.9160174 0.464604948,10.2014392 C0.220116289,7.52663772 0.206112165,4.83026055 0.0602358763,1.49011166 C2.01089361,1.22245658 4.60574103,0.783362283 7.21867711,0.580434243 C7.71582351,0.541364764 8.28590804,1.43296526 8.82214928,1.89538462 C8.27482144,2.22135236 7.75958639,2.74908189 7.17549773,2.84179901 C2.29389361,3.61852357 2.29039258,3.59461538 3.5612668,8.27887097" id="Fill-72"></path>
                </g>
                <g id="La" transform="translate(118.000000, 57.000000)">
                    <path d="M18.6804225,12.5819988 C19.933208,17.2843313 21.2455111,21.9726687 22.3786781,26.7041576 C22.5589812,27.4569739 21.9322967,28.4022221 21.6790555,29.258835 C20.9374204,28.6203114 19.7289812,28.1001625 19.53234,27.3240211 C18.5077049,23.2730409 17.7993297,19.1427556 16.8359627,15.0748648 C16.6171482,14.1494429 15.8229977,13.3604727 15.2937586,12.5091079 C14.8905565,13.4065397 14.3408946,14.2689839 14.1203297,15.2089839 C13.8256596,16.4603734 13.930107,17.8138102 13.5794204,19.0424578 C13.3886142,19.7101377 12.6102184,20.2104603 12.0967338,20.7865893 C11.6363482,20.1189094 10.7943503,19.453562 10.7908493,18.7835496 C10.7815132,17.1286365 11.156707,15.4713908 11.3621008,13.9301873 C9.83039979,13.5459069 8.5291833,13.218773 7.00623485,12.8368251 C7.53080598,11.9598027 7.61366371,11.6612419 7.73153175,11.6466638 C11.0265854,11.2419739 12.116573,9.33748263 11.8084823,6.16002605 C11.6777771,4.81183747 12.0185441,3.36684988 12.403074,2.04140323 C12.6113854,1.32357444 13.36294,0.763772953 13.8694225,0.133413151 C14.5626266,0.724703474 15.6216885,1.19120471 15.8749297,1.93235856 C16.4811915,3.70681266 16.5973091,5.64395906 17.1434699,7.44465385 C17.3558658,8.14615509 18.1120885,8.77359926 18.7650307,9.22668859 C19.5060823,9.74042308 20.4087647,10.0209069 21.2408431,10.403438 C20.7705379,11.3294429 20.2996493,12.2548648 19.8293441,13.1814529 C19.4459812,12.9814404 19.0632019,12.7820112 18.6804225,12.5819988" id="Fill-74"></path>
                    <path d="M1.75019546,21.1048015 C1.36099753,15.1475806 0.928036701,9.19619107 0.626364536,3.23780397 C0.575599588,2.23949132 1.09258515,1.21318859 1.34757691,0.19971464 C1.93633361,1.19277916 2.95805113,2.14968983 3.0444099,3.18415633 C3.59640577,9.81955335 4.0066099,16.4695285 4.32228619,23.1212531 C4.42264907,25.2380025 4.76108206,26.5138834 7.24097897,25.4374318 C7.67977485,25.2473325 8.26911505,25.111464 8.69682433,25.2455831 C9.68236454,25.5540571 10.6107212,26.0438834 11.5624181,26.4602357 C10.6842429,26.8503474 9.8369934,27.3512531 8.92089031,27.6054963 C7.39269031,28.0294293 5.82831299,28.3379032 4.26510268,28.6154715 C2.36229237,28.9536849 1.41409649,28.0871588 1.4829501,26.1675062 C1.54363464,24.4811042 1.65858515,22.7964516 1.75019546,21.1048015" id="Fill-76"></path>
                </g>
                <g id="WEB" transform="translate(151.000000, 56.000000)">
                    <path d="M48.9704841,9.22930893 C47.3034099,7.77790695 45.8510656,6.51368859 43.7346924,4.67100868 C44.2726841,8.01757196 44.6776367,10.5325968 45.2010408,13.7852767 C46.7420779,11.9233536 47.7848016,10.662634 48.9704841,9.22930893 M53.6752862,19.2829938 C51.4042841,17.8939864 49.4933047,16.7248176 47.6220037,15.5807233 C45.2313831,18.0421005 44.992146,22.1519764 47.0204099,26.3423238 C49.180546,24.0506365 51.2595748,21.8452519 53.6752862,19.2829938 M52.7469295,9.676567 C51.2082264,11.1215546 50.1520821,12.1134529 48.6005419,13.5706861 C50.8225295,14.901964 52.6436491,15.9999913 54.4723542,17.0863561 C57.2445872,18.7331055 57.224748,19.3313933 55.011513,21.6306613 C52.5993027,24.135773 50.4239955,26.868304 48.0911419,29.453304 C47.4096078,30.2084529 46.5436862,30.7979938 45.7617893,31.4633412 C45.1403563,30.4189615 44.0987996,29.4247308 43.9663439,28.3214553 C43.2993975,22.77184 42.958047,17.1837382 42.3202759,11.6306241 C42.0045996,8.88584739 41.2606305,6.19238586 40.7862408,3.46218734 C40.6543687,2.7012072 40.7920759,1.89241067 40.80608,1.10635608 C41.6480779,1.17341563 42.728146,0.931418114 43.2883109,1.36351489 C45.1701151,2.81433375 46.857612,4.51589702 48.6367192,6.10141811 C49.9431872,7.26592184 51.27708,8.40010298 52.7469295,9.676567" id="Fill-78"></path>
                    <path d="M7.11058289,19.8599975 C10.9243726,17.1997742 11.193952,21.788397 13.8418984,22.3884342 C13.4952963,15.2270571 13.1574468,8.24061787 12.8195973,1.25417866 C13.1107664,1.09556824 13.401352,0.936957816 13.692521,0.778347395 C14.2497685,1.72417866 15.218387,2.63735484 15.2983272,3.62225558 C15.8007252,9.78473697 16.0983128,15.9635459 16.4799252,22.1353573 C16.5662839,23.5261141 16.806688,24.9127891 16.80202,26.3006303 C16.7991025,27.193397 16.4781746,28.0844144 16.3002056,28.976598 C15.3514262,28.4599479 14.1762468,28.142727 13.5052159,27.3817469 C12.3656303,26.0895385 11.542888,24.5174293 10.5871066,23.0631117 C10.2679293,23.1488313 9.94758495,23.2345509 9.62782412,23.3196873 C9.62665711,24.843397 9.72818701,26.3770199 9.57589216,27.8855682 C9.50995608,28.5363375 8.91944887,29.1340422 8.56759526,29.7556551 C7.89656433,29.294402 6.77565093,28.9486079 6.62277258,28.354402 C4.51398495,20.1585583 2.5166468,11.9335583 0.582327216,3.69456328 C0.453956082,3.1505062 1.05671691,2.43500993 1.31987773,1.79940199 C1.95181381,2.44667246 2.96244474,3.00180893 3.14508186,3.75754094 C3.72858701,6.16935236 3.8517066,8.69254094 4.43871278,11.1031861 C5.1196633,13.8957792 6.10462,16.6154814 7.11058289,19.8599975" id="Fill-80"></path>
                    <path d="M21.9865216,2.19452854 C26.5804577,0.818933002 29.9443649,1.19738213 31.0839505,3.56312655 C29.2505773,3.72581886 27.5228186,3.87976427 25.2436474,4.08210918 C25.5814969,6.18777916 25.8965897,8.15233251 26.2040969,10.0673201 C28.307633,10.2031886 30.1205835,10.320397 31.933534,10.4376055 C31.9609588,10.8329653 31.988967,11.2283251 32.0163918,11.6236849 C30.9777526,11.9199132 29.9554515,12.338598 28.8958062,12.4843797 C27.2351505,12.711799 26.3639773,13.3380769 26.6936577,15.1941687 C27.3145072,18.6975931 27.8309093,22.2196774 28.3928247,25.7330149 C34.8598124,24.8198387 34.8598124,24.8198387 35.4474021,26.0887221 C32.8776454,27.3144541 30.3615711,28.673139 27.7206268,29.7175186 C26.0202928,30.3898635 25.4572103,29.1314764 25.3323402,27.6351737 C24.8194392,21.494268 24.3958144,15.3434491 23.7212825,9.22003722 C23.4674577,6.91901985 22.6196247,4.68272953 21.9865216,2.19452854" id="Fill-82"></path>
                </g>
                <g id="Estamos">
                    <path d="M71.9119338,10.1605868 C72.390408,8.04616998 72.6681565,5.8547804 73.4377998,3.85232382 C73.7908204,2.93331638 75.1089586,2.38459429 75.9894678,1.66793176 C76.5379627,2.45573573 77.5129998,3.2149665 77.5690163,4.03659181 C78.1227627,12.1892841 78.5592245,20.3507233 78.9128287,28.514495 C78.9455049,29.2731427 78.1776122,30.0667779 77.7814122,30.8440856 C77.2107441,30.0784404 76.173272,29.329706 76.1440967,28.5442345 C75.9398699,22.9642965 75.952707,17.3761948 75.8686823,11.7904256 C75.8540946,10.8259342 75.7070513,9.86260918 74.9187359,8.79607072 C74.4192555,11.0941725 73.9191915,13.3922742 73.399872,15.7795943 C69.4536266,14.935227 69.390608,11.1822246 67.0758431,8.13655459 C67.233973,10.8066911 67.3559256,12.6995199 67.4557049,14.5923486 C67.7031111,19.2725223 68.0082843,23.9515298 68.1279029,28.6352022 C68.1553276,29.7069888 67.5268926,30.7962692 67.2001297,31.8773859 C66.552439,30.8429194 65.3994328,29.8376092 65.3381647,28.7704876 C64.9291276,21.6044454 64.7552431,14.4244082 64.4944163,7.24961911 C64.46174,6.3533536 64.2084988,5.43609553 64.3415379,4.57248511 C64.4681586,3.75202605 64.9670555,2.98929653 65.3014039,2.20149256 C66.1183111,2.60618238 67.2993256,2.79744789 67.685606,3.45463151 C68.9827379,5.66118238 69.9968699,8.03392432 71.1189503,10.3425223 L71.9119338,10.1605868 Z" id="Fill-86"></path>
                    <path d="M56.1954559,15.1123226 C56.8554002,20.4496799 57.5521054,25.5642829 58.0714249,30.6969628 C58.1799569,31.7722481 57.6367136,32.9140099 57.3939755,34.0254491 C56.7346146,32.983402 55.6679672,32.0060819 55.4905816,30.8876452 C54.8656476,26.9579553 54.5628085,22.9781166 54.1024229,19.021603 C53.9740518,17.9224094 53.7248951,16.8372109 53.5311713,15.7461811 C53.2207466,15.7590099 52.9103219,15.7724218 52.6004806,15.7852506 C52.1698538,19.5627444 51.7293074,23.339072 51.3144353,27.1183151 C51.173227,28.4052754 51.2368291,29.7342208 50.9345734,30.9774467 C50.7688579,31.6579553 50.0336414,32.200263 49.5557507,32.8043821 C49.0475177,32.1145434 48.0678126,31.3914665 48.1127425,30.7401141 C48.2994641,28.0635633 48.8415404,25.4138362 49.1659693,22.7436998 C49.4028724,20.7937246 49.5038188,18.828005 49.6823713,16.6663548 C48.2714559,16.8121365 47.207726,17.0290596 46.1556662,16.9812432 C45.6976146,16.9596675 45.2640703,16.395201 44.8194394,16.077397 C45.1491198,15.6557965 45.4729652,14.8732407 45.8102311,14.8674094 C50.5552951,14.7834392 50.6311507,11.4147171 50.7752765,8.02966749 C50.8219569,6.93805459 50.8464641,5.79104467 51.2064868,4.78573449 C51.4859858,4.00551117 52.2725507,3.40722333 52.8338827,2.72788089 C53.4541487,3.36640447 54.4186827,3.91104467 54.626994,4.66386104 C55.1288085,6.47563524 55.1136373,8.43319107 55.64346,10.2333027 C55.872194,11.0094442 56.8659033,11.6438859 57.6372971,12.1523722 C58.364928,12.6317022 59.2576909,12.8614541 60.0775157,13.2008337 C59.3288786,13.7005732 58.5989136,14.2329677 57.8228518,14.6848908 C57.4984229,14.8732407 57.0753816,14.8907345 56.1954559,15.1123226" id="Fill-88"></path>
                    <path d="M87.5072761,6.97304218 C82.5503998,13.5967767 88.0989503,18.372 89.7695256,23.79566 C92.4641524,14.8155112 92.0440287,12.0351638 87.5072761,6.97304218 M93.8820699,11.9232035 C93.38434,18.82334 93.0406555,24.1682779 92.5580967,29.5009702 C92.5032472,30.1138362 91.6735029,30.656727 91.2026142,31.232273 C90.4341379,30.5885012 89.3120575,30.0975087 88.9561194,29.2747171 C87.3386431,25.5403747 86.3227606,21.4969752 84.3475957,17.9807221 C82.4401173,14.5840099 81.9342184,11.6625459 84.0173318,8.27458065 C84.7753049,7.04185112 84.8103153,5.37702481 85.5041029,4.0853995 C85.8215297,3.49527543 87.5072761,2.90748387 87.6029709,3.03693797 C90.047274,6.33510174 92.3626225,9.72889826 93.8820699,11.9232035" id="Fill-90"></path>
                    <path d="M0,2.67988958 C3.99992784,3.32716005 7.88898969,0.829045906 11.7156165,2.23787965 C11.7261196,2.71662655 11.7366227,3.19595658 11.7471258,3.6752866 C9.54497732,3.98026179 7.3463299,4.30797891 5.14126392,4.58613027 C2.38536907,4.93309057 2.71971753,6.91980273 2.71913402,8.85869851 C2.71855052,10.791763 3.57396907,11.4361179 5.4452701,11.5002618 C6.41388866,11.5335 7.35916701,12.2670732 8.31494845,12.6840087 C7.37783918,13.0006464 6.4524,13.3616017 5.49836907,13.6158449 C4.93820412,13.7657084 4.33252577,13.7470484 3.11241649,13.86484 C3.33298144,18.9357084 3.47360619,23.9529293 3.87564124,28.9503238 C3.91998763,29.5089591 5.42601443,30.3247531 6.28610103,30.3661551 C8.0593732,30.4512916 9.85481856,29.9719615 11.6391773,29.9818747 C12.3037897,29.9853734 12.9643175,30.706701 13.6271794,31.1003114 C13.0413402,31.48984 12.4805918,32.1662667 11.8661608,32.2193313 C9.29173608,32.4409194 6.69747216,32.4210931 4.11779588,32.5936985 C1.76451959,32.7517258 0.899764948,31.6770236 0.930107216,29.4080782 C0.988457732,25.025299 1.01704948,20.6372717 0.863587629,16.2579913 C0.711876289,11.9055347 0.320927835,7.56240819 0,2.67988958" id="Fill-92"></path>
                    <path d="M35.8066771,3.67703598 C33.5718524,3.80299132 31.5990214,4.0420732 29.6384441,3.96218486 C28.8582977,3.93069603 28.1067431,3.19245782 27.3423513,2.77552233 C28.0098812,2.3597531 28.6564049,1.62501365 29.3484421,1.57952978 C34.5247163,1.23606824 39.7079926,0.962581886 44.8930194,0.847122829 C45.7087596,0.829629032 46.5449225,1.7206464 47.3717493,2.19122953 C46.5157472,2.59533623 45.6836689,3.26943052 44.7984915,3.34873573 C42.8390812,3.5236737 40.8522462,3.39946774 39.02004,3.39771836 C39.0147885,9.06979032 38.9050895,14.3068499 39.0416297,19.5380782 C39.129739,22.9207953 39.6776503,26.2912667 39.8036874,29.6751501 C39.8392812,30.6326439 39.1151513,31.6181278 38.7399575,32.5901998 C38.1494503,31.6980161 37.0950565,30.8320732 37.0419575,29.9084007 C36.6019946,22.2443685 36.3499204,14.5692568 36.0319101,6.89822705 C35.9916482,5.9308201 35.8982874,4.96574566 35.8066771,3.67703598" id="Fill-94"></path>
                    <path d="M26.2415105,13.2268412 C23.179859,13.5603896 20.7291373,13.9510844 18.2684961,14.0327221 C17.3162157,14.064794 16.3405951,13.3953648 15.3754775,13.0454888 C15.7209126,12.2017047 15.9496466,11.2832804 16.4339559,10.5281315 C17.6680693,8.60264764 18.9366095,6.68707692 20.355694,4.89746154 C20.9765435,4.11548883 21.9988445,3.65190323 22.8385085,3.04370223 C22.7025518,4.11432258 22.8064157,5.29457072 22.3775394,6.23165509 C21.6073126,7.91280893 20.5173249,9.44701489 19.4611806,11.2092233 C21.7858652,11.2109727 23.7499435,11.2028089 25.7140219,11.2179702 C28.4728342,11.2389628 29.2331414,12.1008238 28.1997538,14.6846576 C27.0572507,17.5408114 25.4940404,20.2278586 24.1403085,23.0023747 C22.8309229,25.6859231 21.6347373,28.4289504 20.2191538,31.0541861 C19.7791909,31.869397 18.7831476,32.3848809 18.0420961,33.0379826 C17.9008878,31.9895211 17.3051291,30.7194715 17.691993,29.9299181 C20.016094,25.1856005 22.5695126,20.5538263 25.0348219,15.8789007 C25.3528322,15.2759479 25.6025724,14.6374243 26.2415105,13.2268412" id="Fill-96"></path>
                    <path d="M101.52908,11.732871 C103.60169,11.2780323 105.015523,10.8401042 106.460282,10.6797444 C108.777381,10.4231687 109.789762,11.5888387 108.895833,13.7289132 C106.593905,19.2400422 104.139099,24.6887767 101.617189,30.1019404 C101.368033,30.6372506 100.232532,30.7597072 99.5084016,31.0740124 C99.3811975,30.1118536 98.8566264,28.9724243 99.1933089,28.2166923 C101.093785,23.9476228 103.208991,19.7747692 105.229086,15.5581811 C105.474742,15.0450298 105.587358,14.4677345 105.902451,13.4775856 C103.857266,13.8869404 102.151096,14.3470273 100.416919,14.5213821 C99.6606965,14.5971886 98.6623192,14.2782184 98.1301625,13.7679826 C97.8407439,13.4909975 98.1756759,12.3853896 98.4405872,11.7404516 C99.4605542,9.25574938 100.497443,6.7722134 101.68721,4.36681638 C101.994134,3.74520347 102.879894,3.40990571 103.50016,2.94282134 C103.71314,3.73237469 104.275055,4.62689082 104.073162,5.29165509 C103.473319,7.27253598 102.573554,9.16244913 101.52908,11.732871" id="Fill-98"></path>
                </g>
                <g id="Trabajando" transform="translate(121.000000, 1.000000)">
                    <path d="M127.192867,21.5255521 C127.199286,15.2062097 127.205704,8.88686725 127.212123,2.56752481 C127.527799,2.4508995 127.843475,2.33369107 128.159152,2.21706576 C128.54835,3.16931141 129.223465,4.1046464 129.281232,5.07613524 C129.72528,12.6375372 130.067797,20.2047705 130.380556,27.77317 C130.405063,28.3609615 130.123814,29.2484801 129.698438,29.4881452 C129.249723,29.7412221 128.180158,29.6193486 127.864482,29.2502295 C126.819424,28.02683 125.710181,26.7270409 125.137762,25.257562 C123.849383,21.9506514 122.868511,18.5236166 121.762768,15.1455645 C121.503108,15.2091253 121.242865,15.2732692 120.983205,15.3374132 C121.532867,19.3050062 122.161886,23.2644355 122.577341,27.2460236 C122.680622,28.2379218 122.095366,29.3015447 121.82637,30.3325124 C121.151838,29.3977605 119.997082,28.519572 119.87863,27.5189268 C118.985867,19.9895968 118.257069,12.4398573 117.597708,4.88603598 C117.518935,3.98102357 118.168376,3.01245037 118.479968,2.07361663 C119.244944,2.83343052 120.378111,3.45970844 120.713626,4.3769665 C122.322933,8.77957196 123.700005,13.2667308 125.19728,17.7107382 C125.659999,19.0840012 126.241754,20.4170285 126.769242,21.7681328 C126.910451,21.6870782 127.051659,21.6066067 127.192867,21.5255521" id="Fill-102"></path>
                    <path d="M58.6204501,13.5007395 C62.2241779,9.88652109 63.2184707,9.06722829 58.154813,5.32763772 C58.3123594,8.08874194 58.4582357,10.6574144 58.6204501,13.5007395 M61.4697058,15.0524392 C57.416679,19.36466 60.0640419,23.9958511 60.6685532,28.6317072 C62.1127285,27.1674764 63.2068006,25.5679603 64.2536089,23.9375385 C67.4838934,18.9074888 67.3403511,18.3465211 62.0847202,15.148072 C62.0076975,15.1008387 61.8933305,15.1148337 61.4697058,15.0524392 M63.0422522,12.9176129 C64.9853243,14.5130471 66.819281,16.0256774 68.6608233,17.5301439 C70.0437305,18.65966 70.2333697,19.8090025 69.188312,21.3951067 C67.1157016,24.5393251 65.3313429,27.8748089 63.2219718,30.9927866 C62.4908398,32.072737 61.2368872,32.9223524 60.0389511,33.4955658 C59.6328315,33.6897469 58.0836254,32.7614094 58.0398625,32.2599206 C57.1978645,22.6628238 56.4667326,13.0546476 55.840048,3.44122333 C55.7875326,2.62601241 56.6388666,1.75190571 57.0706604,0.905205955 C57.8636439,1.36937469 58.8200089,1.68193052 59.4186852,2.32628536 C61.1061821,4.14155831 62.5007594,6.24547891 64.2816171,7.95345658 C66.650648,10.2253176 63.7506274,11.0644367 63.0422522,12.9176129" id="Fill-104"></path>
                    <path d="M106.92149,9.92681514 C108.837721,10.6516414 109.975556,11.0819888 111.113391,11.5123362 C110.25097,12.2966414 109.389133,13.0809467 107.95196,14.3877333 C108.648081,18.3897308 109.477826,23.1550409 110.305236,27.919768 C110.424271,28.6061079 110.70202,29.3175223 110.606325,29.9741228 C110.479704,30.8435645 110.05783,31.6698548 109.762576,32.5142221 C109.093879,31.6966787 107.997473,30.9578573 107.830591,30.048763 C107.077869,25.9412196 106.612815,21.7817779 105.987881,17.64916 C105.819832,16.5359715 105.454558,15.4536886 105.179727,14.3568275 C104.824372,14.3515794 104.468434,14.3469144 104.113079,14.3416663 C103.463638,19.3839615 102.814197,24.4256737 102.1455,29.6184156 C99.5389825,29.3140236 99.8593268,27.7605744 100.028543,26.3004256 C100.439914,22.7620136 100.855954,19.2236017 101.298834,15.4420261 C99.543067,15.4402767 98.1239825,15.4391104 96.5852794,15.437361 C96.7585804,14.7842593 96.7766691,14.4617903 96.8577763,14.4448797 C101.441209,13.501964 102.248197,10.2183784 102.024131,6.24495409 C101.979785,5.45715012 101.949442,4.56321712 102.270954,3.88970596 C102.598884,3.20278288 103.366776,2.28377543 103.946197,2.2808598 C104.540789,2.2785273 105.489568,3.16487965 105.673372,3.83022705 C106.275549,6.01053722 106.599978,8.26723697 106.92149,9.92681514" id="Fill-106"></path>
                    <path d="M42.1728986,16.3861663 C41.2783852,16.3855831 40.5705934,16.4975434 39.9281542,16.3418486 C39.5366223,16.246799 39.0283893,15.7709677 38.9735398,15.4059305 C38.9227748,15.0706328 39.3574862,14.3767122 39.6684944,14.3183995 C42.6041089,13.7655955 42.3187748,11.5590447 42.3006862,9.44812655 C42.2814305,7.16985112 42.3006862,4.89215881 42.3024367,2.69668734 C44.8751109,1.51993797 46.409146,1.95028536 46.7516635,4.73996278 C46.7755872,4.93705955 46.8129315,5.13882134 46.8852862,5.3225062 C47.998614,8.14658809 46.4511584,13.2950124 53.5600016,10.8931141 C53.3149295,11.3275434 53.0698573,11.7619727 52.8242016,12.196402 C52.2156058,12.6255831 51.6478553,13.3352481 50.9908285,13.4308809 C48.954979,13.7271092 48.9800697,14.8980273 49.3354243,16.4555583 C50.2217687,20.3391811 51.1168656,24.2245533 51.8211563,28.1431638 C51.9734511,28.9939454 51.3397645,29.9852605 51.0678511,30.9124318 C50.4020718,30.1339578 49.3284223,29.4417866 49.1405336,28.5612655 C48.3107893,24.6688958 47.7862181,20.7123821 47.0235769,16.804268 C46.8823687,16.0829404 46.1547377,15.4753226 45.6978532,14.8158065 C45.3389975,15.5487965 44.7187315,16.2648759 44.6662161,17.0188586 C44.4176429,20.5986725 44.3948862,24.1936476 44.1235563,27.7705459 C44.0570367,28.6394045 43.3521625,29.4598635 42.9407913,30.3030645 C42.4675687,29.3718114 41.5841419,28.4364764 41.5940614,27.5110546 C41.6331563,23.8391067 41.9511666,20.1706576 42.1728986,16.3861663" id="Fill-108"></path>
                    <path d="M76.1239126,14.582964 C76.1192445,19.0881998 76.1910157,23.5951849 76.0527249,28.0957556 C76.0212157,29.1226414 75.263826,30.1273685 74.8407847,31.1420087 C74.3249662,30.0323189 73.3522631,28.9138821 73.3732693,27.8146886 C73.457294,23.4581501 73.8517435,19.1074429 74.1219064,14.8990186 C72.1088136,14.5479764 70.4475744,14.2581625 68.4607394,13.9112022 C69.0547476,13.0872444 69.1387724,12.8335844 69.2753126,12.8015124 C74.1592507,11.6352593 74.0454672,11.6340931 74.2374404,6.52532134 C74.2969579,4.92755459 72.9111332,2.1757804 75.9278548,1.98743052 C78.5740507,1.82240571 77.6970425,4.61733127 78.2496219,6.10780273 C78.7549373,7.47231886 78.7916981,9.00944045 78.9976755,10.2445025 C80.4056734,10.6526911 81.5405909,10.9815744 82.6749249,11.3104578 C82.6422487,11.5874429 82.6101559,11.864428 82.5780631,12.1414132 C81.7366487,12.5560161 80.8946507,12.9712022 79.7264734,13.5467481 C80.8934837,18.176773 82.1316816,22.7694777 83.1639023,27.4082494 C83.4299806,28.6024926 83.0477847,29.9413511 82.9631765,31.2137333 C82.226793,30.1116241 81.1583951,29.1039814 80.8135435,27.8910782 C79.5525889,23.4610658 78.5326219,18.9616613 77.4222115,14.4884975 C76.9892507,14.5205695 76.5568734,14.5514752 76.1239126,14.582964" id="Fill-110"></path>
                    <path d="M26.8513369,5.10348387 C27.1150812,8.20863275 27.3397307,10.8484467 27.6034751,13.9518462 C31.5473864,8.8663995 31.4954544,8.25003474 26.8513369,5.10348387 M29.970172,16.4587072 C26.7731472,20.0408536 27.7055885,23.821263 27.6122276,27.443062 C27.5888874,28.3311638 26.9511163,29.202938 26.5957616,30.0817097 C26.0531019,29.2035211 25.0722297,28.34166 25.0378029,27.4436452 C24.7402153,19.6746501 24.5873369,11.8998238 24.4723864,4.12558065 C24.4589658,3.22465012 24.9415245,2.31672208 25.1941823,1.4122928 C26.0612709,1.74234243 27.0794874,1.88579156 27.765106,2.44092804 C29.3090606,3.68998511 30.7398153,5.09357072 32.1215555,6.5251464 C33.6340008,8.09259057 34.4328194,9.7492531 32.4739926,11.6584094 C31.2935616,12.8089181 31.2556338,13.9862506 32.0847946,15.6434963 C34.0868008,19.6454938 35.7311184,23.8300099 37.4092792,27.9859529 C37.6415142,28.5609156 37.2488153,29.3883722 37.1455348,30.0986203 C36.371807,29.650196 35.1937101,29.3837072 34.895539,28.7212754 C33.5482256,25.72867 32.4547369,22.6217717 31.2585513,19.5609404 C30.9072812,18.6623424 30.5198338,17.7783226 29.970172,16.4587072" id="Fill-112"></path>
                    <path d="M138.599985,23.4537767 C142.583574,15.4130447 142.157615,11.6075608 137.039108,7.31108437 C137.547925,12.5743846 138.034568,17.6056005 138.599985,23.4537767 M137.445228,1.39118362 C137.885191,2.28511663 138.253382,3.22395037 138.779704,4.06423573 C140.672595,7.09124566 142.664681,10.0570273 144.505057,13.1155261 C144.851075,13.6904888 144.903591,14.6549801 144.696446,15.3150794 C143.356719,19.5794839 141.960391,23.8281439 140.453197,28.035402 C140.1241,28.9532432 139.270432,29.6827345 138.658919,30.4985285 C137.753902,29.5363697 136.145178,28.634273 136.057069,27.602139 C135.392457,19.8733797 134.98342,12.1212953 134.638568,4.37037717 C134.604141,3.59598511 135.526663,2.77902481 136.005137,1.98189082 C136.484778,1.78479404 136.965003,1.5882804 137.445228,1.39118362" id="Fill-114"></path>
                    <path d="M154.628171,7.55669727 C151.221668,13.2695881 151.684971,15.9653821 157.201429,22.4060149 C159.826035,16.8365732 159.166674,11.86367 154.628171,7.55669727 M161.791864,14.5320571 C161.250371,17.0972308 160.641775,19.3160273 160.341853,21.5756427 C160.015091,24.032938 160.055936,26.5386328 159.752513,29.0005931 C159.678408,29.6017965 158.978785,30.3260397 158.387695,30.5820323 C158.078437,30.7161514 157.144245,30.0758784 156.896839,29.5825533 C154.54648,24.8918834 152.398598,20.0962506 149.932121,15.4691414 C149.066783,13.8463002 149.010767,12.6934591 149.846346,11.085196 C150.893738,9.06932754 151.438732,6.79863275 152.394513,4.72736725 C152.763872,3.92848387 153.571443,3.09869479 154.36501,2.82812407 C154.746039,2.69808685 155.725161,3.7337196 156.148202,4.41772705 C157.766845,7.03363275 159.286293,9.71134988 160.805156,12.3873176 C161.239868,13.1523797 161.546208,13.9897494 161.791864,14.5320571" id="Fill-116"></path>
                    <path d="M21.5653054,2.96912407 C19.8165404,2.96737469 18.0479363,3.13589826 16.3248456,2.9259727 C13.3927322,2.56909926 12.7613796,3.9668536 12.8915012,6.54718859 C13.2229322,13.1073623 13.3985672,19.6751166 13.6343033,26.2405385 C13.6663961,27.1356377 13.7930167,28.0464814 13.6693136,28.9211712 C13.602794,29.390005 13.1003961,30.145737 12.7876373,30.1492357 C12.3295858,30.1544839 11.624128,29.6932308 11.4595796,29.2634665 C11.1864992,28.5526352 11.2191755,27.7100174 11.1935012,26.920464 C10.9688518,19.9556005 10.6695136,12.9913201 10.6000765,6.02412407 C10.5784868,3.84731266 9.70089505,3.23444665 7.77241052,3.31433499 C5.78732598,3.3959727 3.79057134,3.50501737 1.81715691,3.35690323 C1.30250536,3.31783375 0.856707423,2.36500496 0.378816701,1.83144417 C0.833950722,1.55387593 1.27974866,1.05180397 1.74538577,1.03314392 C7.30443938,0.809223325 12.865827,0.575972705 18.4272146,0.552647643 C19.5895569,0.547399504 20.7548167,1.38768486 21.9189095,1.83785856 C21.8010414,2.21514144 21.6831734,2.59242432 21.5653054,2.96912407" id="Fill-118"></path>
                    <path d="M85.7417697,17.7061898 C88.8314295,19.5943536 89.2766439,23.6290062 92.1644109,26.4455074 C91.893081,20.8877283 91.6503429,15.7824553 91.3936006,10.6777655 C91.2879862,8.58434119 91.0645037,6.49208313 91.0878439,4.40157444 C91.0942625,3.81319975 91.7862996,3.23240571 92.1638274,2.64869603 C92.5705305,3.22657444 93.2911594,3.78171092 93.3366728,4.38641315 C93.924846,12.2457928 94.4715903,20.1092543 94.8561202,27.9802965 C94.8969656,28.8246638 93.9913656,29.8894529 93.243312,30.5180633 C92.913048,30.7956315 91.4974645,30.4714132 91.2255511,30.0247382 C88.9312089,26.25016 86.7874109,22.3846141 84.5986831,18.5464752 C84.979712,18.2665744 85.3607408,17.9860906 85.7417697,17.7061898" id="Fill-120"></path>
                </g>
            </g>
        </g>
    </g>
</svg>